<?xml version="1.0" standalone="no"?>
<!DOCTYPE svg PUBLIC "-//W3C//DTD SVG 1.1//EN" "http://www.w3.org/Graphics/SVG/1.1/DTD/svg11.dtd" >
<svg xmlns="http://www.w3.org/2000/svg">
<metadata></metadata>
<defs>
<font id="danielblack" horiz-adv-x="2088" >
<font-face units-per-em="2048" ascent="1290" descent="-758" />
<missing-glyph horiz-adv-x="602" />
<glyph horiz-adv-x="0" />
<glyph horiz-adv-x="682" />
<glyph unicode="&#x9;" horiz-adv-x="602" />
<glyph unicode="&#xd;" horiz-adv-x="602" />
<glyph unicode=" "  horiz-adv-x="602" />
<glyph unicode="&#x09;" horiz-adv-x="602" />
<glyph unicode="&#xa0;" horiz-adv-x="602" />
<glyph unicode="!" horiz-adv-x="503" d="M129 90q29 54 29 82q0 12 -4 16q51 54 86 54q2 -1 9 -3t23.5 -6t30.5 -8q9 -13 16 -30q68 -38 62 -127l-6 -103q-33 -17 -33 -37q0 -9 6 -18q-7 0 -16 -12q-15 5 -29 12q-1 3 -5 13t-7 16q-10 -7 -6 -11q2 -6 2 -12q-4 -4 -11 -4q-12 0 -28 8q0 19 -4 25q-6 0 -21 -6 l-6 -2t-5 -1.5t-3 -1t-2 -0.5q-6 19 -41 43q0 60 -2 62q-16 5 -31 14q0 21 -4 37zM145 678v196l107 732l57 190q13 3 45 39q26 33 49 33q19 0 52 -23q39 -29 39 -65q15 -15 24 -21q-4 -21 2 -43l8 -35l-180 -946q0 -2 10 -12v-29q0 -6 -18 -41q0 -67 -33 -78q0 -8 6 -14 l-24 -22q3 13 -10 26q-21 0 -31 -10q0 5 -10 25q-13 0 -19 -15q-10 30 -22 45l-21 -4l-12 12q6 21 6 60q-4 4 -14 24q-4 -13 -11 -24z" />
<glyph unicode="&#x22;" horiz-adv-x="663" d="M78 1372l6 180l25 119q27 24 36 51l54 13q11 0 32 -15l22.5 -25t33.5 -37t35 -38q32 -54 32 -102v-125q0 5 -1 -1l-1 -12q-3 -21 -6 -51q-2 -29 -2 -90v-102l-31 -74l-22 4q-2 -1 -6 -3.5t-7.5 -5t-7.5 -5.5q-12 4 -20 10q-3 -1 -21 -10q-10 7 -84 24q-35 55 -63 203 q-4 20 -4 92zM432 1368l6 180l27 119q27 27 35 51l53 13q12 0 33 -15q16 -19 90 -100q35 -59 35 -103v-124q0 5 -1 -1l-1 -12q-6 -44 -7 -51q-2 -27 -2 -90v-102l-32 -74l-21 4q-20 -12 -22 -14q-14 5 -21 10q-3 -1 -6 -2.5t-7 -4t-7 -3.5q-6 6 -84 24q-37 57 -64 203 q-7 39 -4 92z" />
<glyph unicode="#" horiz-adv-x="2117" d="M18 332q36 48 56 76q0 6 -4 10q11 16 43 51q64 18 82 18l159 -6q17 -17 31 -24q57 -11 84 -11h74l96 224v24h-14q-4 11 -9 6q-16 -8 -59 -8q-28 0 -43 6q-53 -16 -94 -16q-44 0 -82 47q-4 11 -21 47q-12 24 -12 60t21 63q7 10 25.5 34.5t27.5 37.5q25 28 72 43 q97 19 170 26l147 11q12 8 29 41q120 297 268 583q12 25 63 58h15q36 0 67 -66q23 -54 23 -86q0 -24 -8 -51q-11 -92 -49 -172q-10 -21 -39 -81.5t-45 -94.5q-3 -48 -33 -107q2 -5 18 -14h363q21 9 28 29q59 171 131 299q73 128 263 399q18 13 71 53q27 21 58 21 q77 0 80 -84q24 -47 24 -74l-8 -42q-1 -6 -2 -13q-3 -19 -21 -43q-42 -56 -127 -185q-60 -95 -131 -262q-34 -52 -49 -104q20 -20 47 -23l58 -4q21 -7 84 -24l92 -56q0 -10 -15 -22q31 -42 31 -72q0 -18 -37 -70h-26q-5 -3 -21 -34l-168 -27l-96 10q-13 0 -33 -4l-10 -2 t-7 -1.5t-3 -0.5q-4 4 -6 8l-56 -172v-18q12 -15 39 -15q15 0 23 4l211 -51q0 -88 16 -110q-25 -14 -53 -45q-69 -26 -92 -33q0 -5 26 -14l-231 -62q0 -8 6 -8q-6 0 -27 -12q0 -4 -6 -45q-6 -32 6 -35l-88 -127l-20 6q-30 -21 -47 -21q-7 0 -13 2q-9 3 -12 3 q-11 -11 -26 -21h-17q-4 6 -19.5 24.5t-25.5 32.5q-11 45 -16 90q6 9 6 27q0 17 -2 27l-15 10l-342 -47h-71q-70 0 -92 -25q-13 -13 -19 -71q-6 -61 -28 -113q-62 -68 -82 -68h-21q-9 9 -24 21l-21 -35h-18q-25 32 -52 51q-1 5 -3.5 23.5t-4.5 30.5q-6 43 0 69l8 33v45 q-27 18 -45 18h-127q-23 0 -100 25q-74 24 -86 39q-21 21 -37 47q0 10 10 20q-10 22 -24 31zM844 469h114l64 12l246 17l73 250l-12 2h-61l-330 -33z" />
<glyph unicode="$" horiz-adv-x="1398" d="M-43 94v115l10 10q0 2 2 9t6.5 23t8.5 32q6 0 16 10h20q28 0 56 -4q6 3 6 8q20 0 65 -10q0 -4 -6 -13l9 -6h45q2 0 10 4q3 7 8 7l141 -17h131l158 582q-230 180 -369 297q7 6 17 16q0 24 2 53q2 31 2 60q13 16 47 80q78 17 74 20h65l211 35l185 16q1 2 36 39q4 10 68 139 q41 140 121 232q8 2 27.5 8t25.5 8q45 -29 76 -80q15 -42 39 -114q0 -48 -25 -109q-27 -61 -43 -104l137 -60q68 -62 68 -178q0 -38 -37 -78q-55 0 -82 -10l-125 31q-50 -8 -59 -8q-3 0 -9 1t-8 1q-10 -3 -43 -39q-54 -117 -61 -137l6 -21q116 -96 203 -217q89 -121 98 -193 q25 -83 25 -98l-4 -88q-30 -168 -135 -244q-2 -2 -9.5 -7t-16 -11.5t-17.5 -13.5q-84 -49 -209 -76q-77 -29 -129 -29q-7 0 -11 2t-10 2q-89 0 -110 -55l-33 -152q-6 -26 -41 -196q-19 -51 -51 -119q-24 -18 -41 -35l-11 10l-22 -6l-6 27q-5 2 -45 14q-9 17 -31 54 q0 30 -10 98l41 319q-6 9 -6 23q-13 8 -31 8q-6 0 -12 -2q-4 -2 -11 -2q-76 0 -278 47q-14 7 -35 16q-22 25 -84 76zM772 313q0 -13 12 -10q192 41 295 119v29q-7 14 -84 122q-38 50 -98 84q-10 -10 -20 -10l-105 -315v-19z" />
<glyph unicode="%" horiz-adv-x="2174" d="M-4 1292l88 346q0 15 -6 21q21 28 63 72q6 1 88 28q38 25 62 39q7 1 61 21q9 2 48.5 10.5t66.5 13.5q111 19 133 19q51 0 141 -23q101 -27 121 -61q0 -3 -4 -11l193 -116l184 20h82l5 1q4 0 11.5 0.5t16.5 0.5q8 1 16.5 2t13 1.5t6.5 0.5q100 0 173 -43q20 -30 34 -41 q1 -1 5.5 -11.5t15 -33t22.5 -47.5q-2 -22 17 -92q-18 -115 -92 -168q-9 -16 -21 -49q-12 -15 -37 -44t-37 -44q-9 -9 -34 -12q-4 0 0 -7v-22l-164 -168l6 -21q-12 -6 -57 -26l10 -8q-6 -9 -6 -13l-21 4l-51 -51q0 -4 -4 -8l14 -12h-26q-28 -28 -25 -66q-7 -13 -49 -47 q-2 -7 -41 -49q-40 -37 -37 -47q-37 -12 -63 -12q-9 -9 -9 -29q-25 -15 -41 -25q8 -3 21 -16q-4 0 -12 2q-6 2 -15 2l-31 -41l5 -33q12 4 100 41q62 23 72 74q60 74 88 121q44 23 71 57q34 18 109 56q186 54 186 57l262 31l56 -9q96 -11 164 -39q18 -7 47 -32 q42 -32 131 -127q8 -26 26 -62q17 -100 17 -108q0 -33 -17 -113q-2 -7 -39 -47q-3 -24 -30 -51q-41 -38 -47 -47h-23l-80 -99q-31 -3 -90 -36l-86 -54q-31 0 -102 -24q-44 -23 -49 -23t-7 2t-6 2q-40 0 -61 -24q-17 17 -35 14l-123 -10q-2 0 -45 12q-36 11 -59 14l-70 31 q-121 30 -207 236q-3 5 -22 20v74l-11 12l-258 -182q8 -4 17 -4q-33 -8 -43 -8q-33 -38 -103 -101q-177 -98 -221 -98l-98 10q-24 0 -41 -10q-4 2 -18.5 11.5t-24.5 15.5v129q0 -7 7 7q6 12 17 40q27 67 99 145l35 35t46 46.5t44 43.5q253 198 512 469q274 281 428 502 q6 12 6 24q-3 2 -8.5 5.5t-14 8.5t-14.5 9q-5 -2 -12 -7.5t-8 -6.5q-29 20 -54 20q-1 0 -5.5 -1t-15.5 -3.5t-22 -5.5q-12 -3 -23.5 -5.5t-16 -3.5t-5.5 -1q-5 0 -28 10l-56 -15q-1 -6 -3 -14.5t-5.5 -21t-5.5 -21.5l-184 -211q-14 -7 -37 -4q-22 -28 -49 -37l-43 -16 q-16 -11 -68 -55q-12 2 -43 -15l-29 -16q-4 2 -10 6q-9 -24 -57 -33q-4 0 -4 2q0 7 6 13l-8 6q-22 -11 -117 -11q-1 0 -5.5 1t-14.5 2t-21 2q-27 2 -43 2q-89 0 -201 59q-111 59 -123 113v16q11 0 15 4q-25 52 -31 94zM233 1352q4 -11 15 -31l-6 -6q2 -2 2 -21 q78 -84 180 -84h33q94 0 209 56q131 65 192 164q-47 -14 -43 -15q-10 10 -18 10q-36 0 -95 -20q-33 7 -43 10q-6 -9 -20 -20q-24 15 -31 12q-8 -4 -14 -4t-14 8q-44 -14 -41 -16q-75 0 -129 -4q-30 10 -39 8q6 -6 6 -10q0 -5 -4 -9q-58 0 -70 -2q-16 4 -22 4q-30 0 -48 -30z M418 1624q36 -20 65 -20q11 0 15 2q15 -3 53 0l33 4h71l111 18q-7 3 -24 11t-34.5 15.5t-35.5 14.5q-51 0 -88 2zM958 354v23q-3 -20 0 -23zM1206 356q31 -38 33 -41q8 -6 42 -34t60 -48q120 -20 111 -22h78q36 12 131 37q9 5 24 13.5t39.5 22t44.5 25.5q17 8 27 29 q31 8 68 45q34 37 34 61l-61 60q10 3 18 14q6 -4 41 -20l13 8q-9 7 -82 55q-2 3 -11.5 10.5t-15.5 12.5q-46 12 -78 12q-44 0 -94 -12q0 -3 -4 -11q-19 3 -160 -28q-31 -13 -180 -90q-12 -14 -78 -72v-27z" />
<glyph unicode="&#x26;" horiz-adv-x="1517" d="M68 246l10 50q2 11 7 40l3 18q150 203 262 295q71 60 121 119q-117 255 -117 377q0 53 8 74q16 47 35 94q22 29 138 155q65 65 163 129q1 1 8 9t13 14q60 26 123 53q16 16 20 19q1 0 41.5 15t73.5 26q26 9 133 22q88 -15 174 -98q14 -35 21 -49q15 -37 43 -43 q6 -18 6 -72q0 -49 -21 -111q-3 -18 4 -45l-75 -159q-30 -55 -50 -113q-20 -33 -67 -98q-60 -117 -182 -205q-14 -16 -80 -96q30 -65 104 -115h14q228 197 263 227q28 11 98 33q16 -22 27 -41q8 4 20 4v-20l31 -35q3 -20 -15 -41q7 -10 25 -10l-45 -131l-123 -185 q3 -19 25 -65q20 -39 20 -68q0 -15 -6 -24q-20 -24 -25 -33q-69 -14 -65 -17l-49 5l-21 -21l-92 37l-162 -86q-3 -3 -12 -14t-14 -17q-62 -30 -123 -61q-31 -10 -115 -41q-71 -15 -211 -33l-227 43q-3 18 -27 39q-30 24 -43 37q-62 110 -59 176q-8 13 -8 37zM436 248h23 q11 0 78 24q55 21 112 39q42 25 146 97v18q-18 6 -56 41q-33 30 -51 27q-50 -30 -131 -107l-115 -115zM631 1052v1q0 -30 37 -117l22 4q182 173 314 401q12 63 43 105q-97 3 -312 -197q-6 -7 -19.5 -25t-28 -37t-30.5 -38z" />
<glyph unicode="'" horiz-adv-x="337" d="M86 1470l4 183l27 119q28 25 37 49l51 12q15 0 33 -12q22 -28 92 -101q32 -54 32 -104v-125l-2 -10q-3 -21 -6 -51q-2 -29 -2 -89v-106l-33 -74l-20 4q-12 -8 -20 -12q-15 5 -21 8q-12 -4 -20 -8q-7 7 -84 25q-32 49 -45 102l-21 98q-2 29 -2 92z" />
<glyph unicode="(" horiz-adv-x="1040" d="M31 426q0 235 151 600q20 38 115 188q6 27 6 31q29 22 51 64q25 47 43 69q96 120 211 254q19 28 115 119q34 10 68 47q86 53 127 53q20 0 86 -32q2 -17 28 -60l12 -71q0 -132 -149 -193q-4 -6 -27 -29h-20q-1 -2 -3 -4.5t-5.5 -6.5t-5.5 -7q-1 -1 -10 -6.5t-30.5 -20 t-43.5 -28.5q0 3 -56 -47q-14 -24 -32 -58h-7l-219 -305q3 -14 -2 -33q-9 -34 -65 -96q-17 -85 -60 -211q-30 -91 -30 -170q0 -249 368 -412q23 -10 57 -25t87 -37.5t92 -39.5q0 -1 -11 -12l56 -39q0 -16 22 -47q-16 -16 -16 -21q0 -10 6 -16l-16 -10q2 -4 2 -13 q0 -12 -11 -34q-15 -30 -12 -41q-11 -4 -63 -35q-35 -4 -45 -8l-111 26h-59q-23 0 -152 60q-131 64 -174 94q1 -1 2 2q2 5 2 20q-16 19 -27 19q-3 -3 0 -8q0 -5 -2 -9q-6 10 -22 19q4 8 6 14q-54 15 -104 98q-9 17 -37.5 66.5t-46.5 81.5q-7 18 -7 35q0 2 5 32 q-11 31 -29 103q-8 31 -8 90z" />
<glyph unicode=")" horiz-adv-x="1101" d="M-45 -236q0 57 90 191q2 2 2 20q95 91 283 215q172 114 215 146q126 105 135 203q25 73 25 135l-1 6q-1 5 -2 15t-2 22q-1 11 -2 23t-1.5 18.5t-0.5 9.5q-2 2 -2 10q0 17 4 27l-30 164q-3 10 -10.5 34.5t-17 53.5t-19.5 59q-43 76 -58 119q-14 28 -33 47q-4 20 -63 96 q-61 82 -61 97q-42 35 -58 51q-38 32 -41 57q-35 35 -35 41v37l11 16q0 1 -4 17q-3 15 -3 18q87 164 156 164q33 0 62 -23q23 -21 38 -28v-17q2 -2 6.5 -6t12.5 -10.5t16 -13.5q26 -20 23 -37q9 -12 20 -12q0 6 2 -1l4 -26q55 -65 80 -96q37 -54 70 -113q39 -45 98 -190 q69 -165 111 -420l10 -176l-2 -19q0 -28 -2 -53q-15 -259 -188 -494q-171 -174 -326 -247q-18 -16 -72 -70l-329 -186q-25 12 -74 26q-6 25 -21 31z" />
<glyph unicode="*" horiz-adv-x="851" d="M88 1587l11 22q8 17 18 42q6 61 39 84h32l181 -84h12l72 194q53 27 63 27q49 0 70 -84q13 -19 28 -53l213 133h17q24 0 57 -53q-2 -12 -2 -52q8 -14 14 -14v-59l-225 -199q124 -90 205 -195v-118q0 -30 -31 -58q-3 -22 0 -37l-28 -6l-271 133q-8 -5 -18 -32 q-1 -14 -17 -103q-15 -69 -63 -69q-57 0 -84 110q2 12 2 51q0 6 -10 23l-195 -229q-9 0 -33 4q-12 24 -30 30q-23 57 -23 82q0 11 29 74q29 70 31 78q12 22 24 61q29 41 49 78v18q-8 11 -18 11q-10 20 -10 30q-109 112 -109 160z" />
<glyph unicode="+" horiz-adv-x="1239" d="M18 772q9 68 36 103.5t69 35.5l297 4q26 67 35 199t47 191q26 26 67 26q25 0 33 -4l92 -53q35 -49 70 -152q13 -39 10 -94q-1 -8 -3.5 -37.5t-4.5 -50.5l10 -8h131l187 -47l104 -150q-3 -6 -10 -24.5t-12 -28.5l-72 -27h-57l-72 -16q-4 0 -12 2q-6 4 -15 4q-7 0 -20 -8 q-20 -8 -21 -8q-4 0 -8 4q-1 0 -3 1t-3 1q-11 0 -76 -39q-45 0 -92 -21q-9 -9 -25 -36q-21 -181 -28 -271q-6 -105 2 -139q-13 -23 -10 -37q-3 -2 -10.5 -8t-10.5 -8h-22q-8 0 -140 57q-3 3 -6.5 8t-9 13t-10.5 14q-16 0 -19 6q-5 -5 -20 -31l-64 52v172l25 192 q-3 20 -12 49h-41q-14 -14 -39 -14q-13 0 -33 10l-10 -10h-21q-6 0 -20 14q-14 -14 -23 -14h-41l-16 47q-4 2 -16.5 6.5t-18.5 7.5z" />
<glyph unicode="," horiz-adv-x="794" d="M84 -256q21 64 162 264q122 174 125 275q21 43 82 43q27 0 65 -23q5 -6 13 -14.5t20 -21.5t22 -23q50 -100 50 -144q0 -18 -15 -65q-24 -112 -69 -174q-113 -113 -152 -150q-91 -88 -156 -104q-17 -17 -26 -19q0 5 -10 15h-33v26q-3 1 -27 17l6 14q-16 19 -41 41 q-4 22 -16 43z" />
<glyph unicode="-" horiz-adv-x="1492" d="M68 573q0 37 16 80q3 3 20.5 18.5t30.5 28.5l174 2l371 -20l188 12q5 0 54 17q3 -1 10 -5t10 -6l211 25q63 -37 119 -59q29 -41 61 -111q3 -5 13.5 -21.5t17.5 -29.5v-19q-8 -4 -35 -45q-39 -26 -110 -32l-359 -27h-266q-163 0 -215 -25q-5 0 -14 6q-3 1 -6.5 2t-5.5 2 t-3 1h-8q-4 -2 -4 -7t6 -8q-9 -6 -29 -6q-2 3 -8 10.5t-8 10.5h-106q-8 7 -74 57q-6 28 -29 51q-22 61 -22 98zM446 354l13 6q-3 -9 -13 -6z" />
<glyph unicode="." horiz-adv-x="557" d="M96 186q-3 10 17 33q0 9 -2 21t-2 20q30 30 38 37q5 2 21.5 7t28.5 9q104 -44 174 -106l32 -117q3 -22 -28 -53q-45 -18 -107 -35q4 -4 17 -4q0 -23 -2 -23q-3 6 -25 31l-12 -18q-8 8 -33 26q-26 6 -61 29q-11 45 -56 143z" />
<glyph unicode="/" horiz-adv-x="1427" d="M8 -473q1 7 4.5 24t6.5 35.5t6 36.5q11 22 26 47q21 84 96 238q10 3 31 59q6 10 60 92q0 11 12 41q25 41 237 406q1 3 1.5 6t1.5 7t2 7q26 34 102 166q55 95 291 488q24 71 143 278q0 7 10 45q33 62 90 191q6 11 9 32q23 42 116 162h43q24 0 33 -12q98 -98 98 -166 q0 -12 -4 -35q-6 -34 -6 -47l-20 -35l16 -10q-12 -30 -12 -43q-12 -15 -39 -45q0 -8 8 -8q-10 -5 -10 -21q0 -8 2 -10q0 -8 -14 6q-11 -16 -43 -69q0 -5 2 -7q2 1 5 2t4.5 2t2.5 1q-1 -2 -16 -45h-21q-31 -35 -25 -72q-4 -2 -20 -14q10 -5 10 -15q-4 0 -16 -6l-12 -6 q-17 -34 -54 -76q0 -5 11 -20l-56 -54q0 -2 1 -6t1 -6q0 -26 -28 -57q-34 -40 -31 -80q-15 -12 -41 -45q0 -2 4 -6q2 -4 2 -11l-47 -51q0 -2 1 -6.5t4 -14.5t5 -20q-11 -18 -65 -75v-25q3 -18 -17 -35l-30 -33q4 -16 4 -20t-4 -12q-51 -36 -48 -91q-54 -75 -51 -94 q-47 -27 -47 -59q0 -5 4 -17q-55 -21 -49 -77q-17 -14 -20 -35q2 -2 2 -14q-25 -16 -41 -64q-11 -32 -37 -45v-21l-205 -385q-3 -20 6 -38q-21 -77 -47 -142q-2 -4 -82 -65l12 -5q11 -5 21 -10q-19 -8 -86 -69h-27q-6 0 -12 6q-9 6 -10 6q-6 -6 -6 -23l-21 7 q-10 -17 -22 -17q-21 0 -21 43q0 2 1 6.5t1 6.5q-34 5 -71 28q0 1 10 21q10 17 10 26q-3 21 -35 68z" />
<glyph unicode="0" d="M35 889q-4 35 8 80q20 171 100 383q1 3 45 73q95 198 289 332q8 10 45 33q30 10 51 10q28 22 89 31q18 12 26 16q19 0 53 15q16 0 121 18q68 12 80 12h135l113 -24h82q5 0 8 6l8 4l41 -6q10 -1 21.5 -2t17.5 -1.5t10 -0.5q2 -5 13 -19l26 4q17 -9 31 -20l16 4q6 2 13 2 l96 -31q-1 -1 -3.5 -4.5t-4.5 -5.5q13 -16 37 -16q20 0 30 2l64 -39q-3 1 -17 8q-6 6 -16 -8l147 -107q5 0 7 2l-99 91q110 -60 185 -152q24 -31 96 -166q5 -9 8 -43q23 -38 23 -78q8 -13 8 -55q16 -19 16 -37v-115q0 -5 -8 -24q3 -84 -37 -246q-15 -40 -76 -178 q-4 -25 -45 -92q-70 -152 -291 -373l-8 -16q-15 -6 -39 -21q0 -8 9 -20h-15l-53 -45h-16q-232 -173 -535 -203q-5 0 -22 -10q-23 0 -39 -2l-25 -2q-76 -3 -297 73q-124 83 -233 189v22q-20 23 -60 82q-207 252 -225 586zM244 952q0 -21 16 -80q0 -3 -1 -14.5t-1 -19.5 q100 -316 297 -504q77 -74 248 -150q150 -26 172 -26q142 0 334 92q256 126 405 346q156 221 156 463q0 83 -37 198q-23 73 -88 144q-64 70 -123 94q-26 26 -96 57q-22 8 -56.5 22.5t-35.5 14.5q-41 8 -125 31l-246 6q-39 0 -168 -27q-3 -4 -23 -12h-24q0 4 -4 12l-15 5 q-6 2 -14 2l-153 -68l-185 -164q1 -2 2 -6t2 -6l-71 -29q-9 9 -33 15q-19 -43 -31 -52q-29 -47 -57 -110q-9 -44 -21 -88q-6 -23 -12 -47q-1 -6 -3 -7l-1 3v-72q0 -6 -4 -10q-4 -12 -4 -13zM1866 1589q0 -8 12 -14q-4 8 -12 14z" />
<glyph unicode="1" horiz-adv-x="1314" d="M489 70q7 11 7 14l12 -10l12 12q-6 16 -28 25v145q3 19 16 35v71l8 5q2 8 23 49q4 51 4 86q6 52 8 67q14 0 14 25q3 48 6 57q-7 7 -10 15q23 51 31 92v20q0 28 12 58l8 127q25 70 25 84q0 25 -10 63l26 555q-2 4 -2 16q0 24 8 48q10 10 21 10q7 16 22 37l11 -11l8 15h20 q2 -1 9 -4t19.5 -8.5t25.5 -10.5q8 -4 22 -28q38 -9 66 -89q22 -65 22 -114l-22 -420q-1 -17 -6 -62t-7 -75q0 -8 9 -17l-52 -475l-82 -469l-12 -16q-21 0 -31 10l-10 -10h-30q-16 -24 -21 -31q-14 3 -27.5 5.5t-19 3.5t-6.5 1l-82 97q-5 -5 -6 -5q-4 0 -11 7z" />
<glyph unicode="2" d="M123 115v78q53 66 80 90q264 243 434 409q7 6 21.5 17.5t21.5 17.5q56 52 160 182q143 220 186 308q76 149 76 292q0 71 -31 93q-29 23 -131 26l-170 -61l-20 6l-265 -143q0 -16 -8 -27l-20 4l-148 -86h-73q-4 7 -54 74q0 8 -8 32t-8 31q0 1 0.5 4.5t1.5 11t2 15.5 q2 18 2 35q62 41 115 86q93 61 219 129q172 94 264 125q82 26 221 26q122 0 240 -69q143 -85 149 -203q16 -56 19 -51v-76q0 -3 -6 -43q-5 -38 -9 -53q-14 -172 -153 -422q-9 -17 -176 -271q-73 -62 -129 -153q-17 -17 -62 -72q-70 -60 -151 -147l14 -8l748 102l194 -4 q16 -2 68 -11.5t88 -15.5q96 -18 135 -63q0 -18 -6 -21q7 -7 12 -20v-88q-18 -7 -100 -51q-67 -13 -74 -13h-80q-4 0 -12 -4q-6 -6 -10 -6h-197l-295 -47q-20 -3 -47 6l-444 -98l-371 -41q-86 0 -113 30q-41 11 -69 78q-31 28 -31 60z" />
<glyph unicode="3" d="M135 1597q22 22 43 27q12 2 22 4t14 3t5 1q8 18 25 31q69 37 127 61q78 51 309 125q129 27 199 27q21 0 116 -12q164 -24 305 -109q12 -14 37 -40t37 -40q44 -50 41 -94q12 -21 12 -49q0 -118 -65 -219q-42 -42 -121 -109q-66 -58 -117 -135q24 -24 113 -61 q108 -41 164 -66q11 -7 43.5 -26.5t72 -44t80.5 -50.5q87 -57 218 -213q137 -165 137 -258q0 -26 -25 -71q-13 -20 -24.5 -39.5t-17.5 -30t-7 -12.5l-205 -105q-2 2 -10 2q-5 0 -21 -4q-9 -4 -174 -41q-17 -15 -45 -18q-258 -45 -290 -45h-68l-158 -21l-239 -6l-316 4 q-35 14 -49 14q0 16 -20 33h-15q-9 10 -47 56q-5 19 -16 38q0 -3 1.5 1.5t9.5 29.5q2 6 3 10q0 7 -10 17q2 8 5 26t5 25q44 41 64 41l473 -6l334 20q7 1 25 6t30 7q239 21 442 141q0 6 6 12q-26 66 -100 123q-7 5 -49.5 38t-73.5 58l-180 95q-12 4 -180 65q-22 3 -123 23 q-17 4 -39 8l-23 4q-2 1 -5 2l1 2q-2 0 -14 -4l-59 18q-9 3 -25 -10l-12 12l-185 25l-80 121v16q0 17 21 35l-10 10q4 16 4 25q0 8 -4 28l82 56q4 -4 14 -4q59 0 199 45q11 3 135 57q32 14 98 74q69 62 82 84q53 53 53 73v23q-35 35 -55 45q-108 21 -174 21q-25 0 -133 -15 q-31 -10 -64 -21t-52.5 -18t-29.5 -10q-70 -25 -112 -55q-31 -13 -78 -41l-64 -35h-79l-56 61q6 12 6 29q-18 21 -39 29q-7 20 -14 33q-24 0 -29 -5q0 14 5 19q0 4 -17 24z" />
<glyph unicode="4" d="M133 723q11 16 17 104q176 338 235 455l1 6q1 6 1 12l287 568q21 3 51 12q28 -20 51 -25q0 -16 78 -100q0 -17 2 -33q1 -7 2 -13.5t1.5 -10t0.5 -4.5q0 -103 -168 -453l-162 -332q-6 -3 -18 -24v-21h94l426 27l291 37q40 136 74 256q6 23 110 311q23 73 115 244 q37 46 98 92h19q-13 0 5 -6l52 -13q5 -10 16 -53q9 -27 52 -39q0 -4 6 -28q1 -7 2 -13.5t1.5 -9.5t0.5 -4q-4 -20 -12 -59q-12 -18 -39 -54q-21 -31 -41 -96q-4 -12 -16 -53t-21 -72q-59 -181 -113 -391l15 -12h104q141 0 203 -160q-1 -2 -7.5 -7t-11.5 -9l17 -17 q-10 -13 -22 -27t-16.5 -20t-6.5 -8q-29 -29 -56 -35l-272 4l-14 -14q-9 -31 -30 -96t-30 -97q-23 -77 -35 -221l5 -237q-25 -9 -25 -29q0 -8 2 -12q-50 -22 -96 -41q-19 16 -41 16q-18 0 -27 -6q-8 4 -76 72q0 -6 9 18q-2 4 -23 4q-7 16 -15 32t-11 22.5t-3 7.5v258l60 301 l-8 8h-43q-7 0 -15 -4q-10 -4 -20 -4l-223 -27q-9 6 -43 6l-191 -28q-17 10 -33 10l-45 -10h-100q-5 0 -16 -11q-11 11 -29 11q-35 -21 -51 -21q-47 9 -56 6q-32 13 -30 15l-21 -7q-3 14 -31 23q-32 10 -47 29q-6 23 -37 59q-31 35 -57 41zM391 580l23 -9l8 9h-31z" />
<glyph unicode="5" d="M256 16q2 10 10 25q6 28 27 49v25q90 75 119 94q82 56 133 59q1 0 82 31q228 47 397 86q210 50 395 176q88 61 88 101q0 15 -34 90q-17 10 -62 43q-18 -3 -41 4q-6 20 -29 43l-29 8q-16 4 -38 8q-3 12 -25 25q-35 12 -37 16q-50 17 -59 19q-67 21 -131 24q-42 13 -38 15 q0 1 3 1q-4 0 -10 -2q-7 4 -14 19q-52 3 -111 22h-10q-11 0 -11 -4l-303 70q-6 0 -6 -10q-4 4 -8 10q-7 -10 -12 -10q-12 6 -35 16q-31 5 -113 47q-9 18 -51 82v23q-20 20 -39 32q0 17 -2 33t-2 29q0 45 8 61q15 42 76 142q3 17 14 34q23 51 95 199q54 108 186 139l342 -39 h104l74 -10h256l209 25q33 0 82 -19q57 -23 57 -57q0 -9 -4 -25q12 -9 47 -59v-18q0 -32 -73 -105l-521 -29q-37 -3 -125 19q-2 0 -12 -10h-49q-2 0 -14 6q-16 4 -17 4t-3 -0.5t-7 -1.5l-10 -2q-12 -2 -23 -2l-194 12q-43 -52 -78 -98q-35 -59 -66 -135q29 -25 54 -31 q496 -88 759 -215q157 -78 279 -221q127 -145 127 -287q0 -107 -129 -242q-28 -31 -186 -125q-30 -18 -76 -32q-94 -48 -111 -56q-54 -19 -119 -33q-56 -19 -92 -30q-121 -22 -452 -86q-25 -14 -50 -21q-53 -9 -88 -26l-80.5 -10.5t-48 -6.5t-10.5 -2q-1 0 -3 0.5t-6.5 1.5 t-8.5 2q-15 6 -19 6l-3 8q-3 9 -7 15l-20 -4q-12 21 -39 31q0 8 8 16q-3 6 -17 20z" />
<glyph unicode="6" d="M137 645q0 92 25 195q2 2 2 6q0 2 -4 14q1 2 3 8.5t6.5 18t8.5 24.5q18 105 84 174q8 59 76 146q45 50 127 135q6 30 59 59q2 9 17 35q41 48 164 152q117 102 155 119q0 -9 8 -9q4 5 10 13t17 21t18 22q61 37 113 61q31 10 74 27q13 8 49 8q37 0 84 -27q7 -27 35 -55 q0 -6 -2 -8l18 -19q-6 -12 -6 -32q-12 -9 -27 -33q-6 -2 -23 -9.5t-26 -11.5q7 -7 9.5 -9t2.5 -1q-4 0 -36 -29q-5 5 -17 5l-164 -119v-23q-3 -1 -8 -3t-14 -6t-17 -7q-30 -24 -53 -47q-48 -6 -51 -62l-342 -348q0 -20 -33 -76q-10 -24 -73 -131q-15 -58 -15 -71 q-4 -18 -18 -54q0 -12 14 -18q-8 0 -8 -16h4q3 3 6 0q3 6 0 22l39 33q24 55 31 72l90 71q20 -3 49 33q6 -2 16 -2q27 0 41 20q0 10 -18 19q25 12 37 6q4 4 4 8l268 74q-4 -16 -4 -19q0 -4 4 -8l22 4h3q47 35 55 35l352 15q28 2 164 -27q29 -5 144 -47q8 -5 26.5 -17 t38.5 -25t41 -26q40 -55 63 -55l64 -115q0 -6 -2 -14q0 -5 -1 -11l-1 -5q15 -21 18 -70q3 -51 6 -57q0 -21 13 -95q6 -52 -66 -86h-8q-49 -64 -49 -82h-14q-1 -2 -33 -34q0 4 -8 12q-10 -5 -17 -14l8 -9h23q3 -9 0 -12l-3.5 -3.5t-7 -6.5t-8.5 -8q-4 -3 -12 -7 q-28 -38 -131 -94l-147 -82h-13q-4 2 -10 2q-49 -16 -102 -28q-4 -3 -10 -8l-11 -11l-6 2q-4 -2 -4 -10l-188 -45l-7 2l-106 -20l-74 8l-20 -8l-183 18q-13 10 -10 10h-33q-15 0 -194 72q-15 27 -80 39q-53 53 -100 80q3 22 -39 51v6q0 29 -51 41l14 14q-6 23 -31 35 q-84 190 -84 338zM399 424q0 -38 86 -100q88 -64 136 -64q110 -55 256 -49l112 6q69 10 185 43q158 27 331 135q5 3 23 12.5t31 16.5q33 33 51 47q41 12 78 76q34 55 34 90q-2 9 -8 25q-6 24 -6 34q-24 18 -59 52q-70 40 -162 43l-14 14h-39q-3 8 -29 18l-25 8 q-16 -5 -20 -14l-84 6h-121l-141 -26q-5 -14 -8 -19q-12 -2 -50 -2q0 -4 -4 -8q-2 4 -10 4q-7 0 -31 -8l-26 -10q-9 0 -15 6q-5 -11 -16 -15q-6 9 -18 9q3 0 14 -11l-105 -53q3 -3 3 -8q0 -4 -3 -4q-39 -26 -83 -45q0 -6 -15 -17q-6 6 -6 17l-100 -68q-5 0 -9 4 q-6 -8 -6 -26l-41 -35q3 -15 -10 -31q-21 -24 -24 -33q-6 3 -9 13q-8 8 -12 8q-9 0 -31 -16v-25zM440 469q8 -4 17 -4q0 4 -4 12q-8 0 -13 -8zM760 711q0 -2 2 -2q13 16 8 16q-10 -7 -10 -14z" />
<glyph unicode="7" horiz-adv-x="1820" d="M209 1630v68q0 62 22 90l50 35h299l434 49h73q11 0 21 2q4 1 8.5 2t6.5 1.5t3 0.5l230 12l143 -24q113 -107 113 -146l-13 -67q-8 -59 3 -82q-47 -93 -105 -180q-24 -37 -51 -54q-42 -61 -72 -116q-2 -2 -5.5 -4.5t-9 -7t-9.5 -7.5q4 -8 4 -12q-4 -2 -25 -23 q-16 -57 -90 -141q-20 -72 -94 -137q-5 -9 -8 -43q-6 -18 -37 -49l-35 -76q8 -13 8 -21q0 -1 -1 -3t-1 -3q-29 -33 -29 -63q0 -13 5 -21q-8 4 -9 4q-2 0 -6 -4v-28q-8 -3 -28 -29q-26 -17 -48 -53q-7 -13 -14 -24t-11 -17.5t-5 -7.5q2 -6 2 -19q0 -26 -31 -45q3 -21 -20 -78 q-29 -65 -31 -82q6 -6 6 -10q-8 4 -10 4l-4 -2v-41q-16 -16 -29 -39q2 -6 2 -45l-10 -10l-21 6l-8 -10v-17q15 5 21 5v-27q-29 -37 -68 -94h-1q-2 0 -9 -1t-15 -3q7 11 7 20q0 7 -5 14q0 -2 -1 -6.5t-1 -7.5q-50 -20 -82 -20h-28q-20 20 -33 20h-35q-4 7 -22 33q-2 2 -23 2 q3 12 7 24t6 17.5t2 7.5q0 1 -1.5 5.5t-4 14t-5.5 19.5q-10 38 -10 41q0 8 31 106q17 19 59 115q62 151 82 197q79 182 82 190q30 37 59 101q10 21 21 42.5t16.5 32.5l7.5 15q2 3 26.5 54.5t50.5 99.5t59 100q77 117 229 350v16q-41 11 -74 6q-64 -7 -102 -2q-12 15 -27 15 q-6 0 -18 -4q0 -3 14 -9q17 -10 17 -12l-168 -18h-74q-14 2 -14 6q-31 -17 -33 -17q-6 0 -10 2q-9 3 -13 3l-50 -11q-5 -1 -9 -2l-10 15q-9 0 -27 -15h-21h-32q-2 2 -11 -2q-12 -6 -14 -6h-88q-10 0 -18 -8q-32 0 -41 6l8 8q6 4 14 12l-8 9h-41q-8 0 -8 10q-29 20 -53 20 q-11 0 -15 -2zM735 1561l25 -7zM907 1550q6 3 6 9q0 4 -6 10v-19z" />
<glyph unicode="8" d="M-18 455q0 95 36 190q25 41 56 90q62 121 198 199q76 43 226 98l-4 17q-90 52 -140 157q-1 4 -3 14t-6 26t-7 32q-8 41 -8 57q0 64 55 174q61 116 125 150l113 37q24 0 45 -15q18 0 41 -2t36 -2l19 -6q4 3 20 16.5t27 22.5l217 70l215 28l105 -14q3 1 8.5 3t13.5 5.5 t14 5.5q16 -13 82 -16q57 -6 74 -35q6 0 6 10q16 -5 39 -20q120 -15 266 -213q17 -60 17 -78q-2 -16 -6 -47q-7 -54 -7 -68q-6 -13 -26 -38q0 -11 -45 -103q-21 -3 -64 -39q-3 -3 -20.5 -19t-32.5 -28q18 -18 39 -31q12 -9 37 -12q96 -55 127 -78q5 -5 16 -35 q3 -1 17.5 -8.5t25.5 -13.5q167 -167 176 -262l-10 -58v-67q0 -9 -10 -31q-10 -27 -10 -33q-3 -17 -31 -45l-4 -8t-8.5 -16.5t-10.5 -22.5q-49 -61 -241 -194q-64 -29 -158 -58q-11 -5 -25 -16l-487 -123q-2 0 -7.5 1t-8.5 1q-17 0 -47 -6q-14 -2 -30.5 -5.5t-25 -5 t-12.5 -1.5l-229 -15q-5 0 -11 6q-2 1 -3.5 2t-2.5 2t-2 1h-86l-252 53q-65 25 -133 55q-36 20 -90 60q-24 16 -98 75q-90 137 -90 230zM213 528q9 -23 33 -47q43 -37 45 -41q15 -7 162 -82q56 -15 86 -30l198 -35l176 -4q56 0 222 26q28 4 172 29q67 19 125 31q24 3 49 20 q10 2 38.5 6t45.5 7l159 67q31 14 88 39q60 34 60 76q0 54 -94 133q-93 84 -170 102q-13 9 -105 29q-111 25 -145 23l-387 -11l-346 -57q-10 -3 -31 -6q-67 -31 -191 -74q-2 -1 -34 -24q-53 -19 -105 -74q-45 -50 -51 -103zM625 1354q42 -57 174 -94q115 -27 190 -27 q20 0 55 2q14 1 27.5 2t19.5 1.5t7 0.5q50 0 297 64q50 23 92 28l145 60l4 10q2 6 2 20q-38 44 -73 62q-62 49 -226 61l-118 10l-129 -24l-9 10q-107 -24 -237 -63q-134 -39 -221 -123z" />
<glyph unicode="9" d="M473 1417q-6 53 45 137q54 85 131 127q64 35 135 86l197 78q6 -17 39 -10q8 2 23.5 5t23.5 5l70 -10q20 10 24 10q7 0 74 -24q98 6 207 -97q110 -98 125 -206q49 -43 49 -271q0 -389 -305 -780q-10 -7 -31 -25q-68 -88 -182 -190q-97 -89 -267 -238q-2 -7 -3 -12.5 t-1 -6.5v-1q-18 -6 -45 -33q-36 -9 -80 -35h-16l-8 11q-3 -1 -10.5 -5.5t-10.5 -5.5l-47 47l-26 -4q0 19 -4 23l12 10v16q-3 3 -19 15v26q0 4 25 99q148 194 414 401q55 55 131 143q72 78 94 146l2 4q-4 4 -8 4h-17q6 0 -23 -12l-5 -2q-16 0 -60 -6l-43 -7q-7 0 -161 37 q-14 7 -64.5 34.5t-87.5 47.5l-129 107q-76 63 -94 98q-22 45 -39 104q-3 16 -27 33zM719 1378q0 -11 65 -67q17 -14 103 -84q25 -9 186 -78l12 8q30 -18 68 -18q13 0 31 2h33q28 0 55 -8q44 -44 59 -56q1 2 15 37q5 107 8 100l-11 86q-18 152 -124 193q-4 2 -31.5 12 t-48.5 19q-24 0 -47 2q-11 0 -19.5 0.5t-12.5 1.5h-5l-99 -10q-23 0 -157 -52q-3 -2 -80 -57v-31z" />
<glyph unicode=":" horiz-adv-x="454" d="M57 184q0 1 0.5 4.5t1.5 10t2 12.5q0 9 1 19l1 10q41 41 54 41h51q65 -55 125 -129v-84q-62 -74 -117 -74q-23 0 -41 12v14q-40 16 -43 17q-8 14 -18 14zM84 674q0 46 18 86q24 55 66 55q34 0 61 -24q13 -11 26 -23t18.5 -17t7.5 -6q10 -10 26 -49q23 -51 23 -57v-37 l-49 -53q-36 -28 -62 -31q-78 35 -82 35q-53 85 -53 121z" />
<glyph unicode=";" horiz-adv-x="622" d="M-53 -176q0 37 53 96q3 3 77.5 85t135.5 149q4 7 10 16.5t15 23.5t16 25q5 12 16.5 34t16.5 34q21 46 57 49q1 1 4 2t6 2.5t6 3.5q41 -18 115 -74q3 -16 29 -45q28 -86 28 -106q0 -21 -28 -94q-27 -64 -47 -84q-72 -82 -240 -224q-18 -15 -55 -49q-56 -47 -74 -47h-37 q-3 2 -15.5 9.5t-21.5 11.5q-27 13 -55 84q0 24 -12 61v37zM229 887q0 26 23 82q27 37 43 37h45q45 -35 102 -72q43 -85 43 -133q0 -18 -10 -41q-15 3 -31 -19q-23 -29 -32 -32h-21q-28 0 -119 61q-43 52 -43 117z" />
<glyph unicode="&#x3c;" horiz-adv-x="1437" d="M63 662q4 21 29 90q59 56 479 469q113 91 299 280l242 248l57 29q45 -5 109 -54q62 -52 70 -86q1 -1 7.5 -12.5t12.5 -19.5v-115l-166 -160q-4 -4 -4 -6t4 -6q-35 -27 -80 -84q-134 -84 -219 -215q-17 -13 -35 -23q-34 -26 -82 -96q-34 -25 -108 -67q-4 -4 -4 -9 q0 -4 6 -10q-47 -20 -47 -61q-27 -17 -47 -17q-14 -23 -21 -55q-38 -27 -65 -41q3 -9 0 -23l-17 -8l-4 -18q42 -45 125 -96q45 -27 135 -82h21q93 -67 180 -95q16 -11 51 -32q5 -5 31 -8q48 -31 250 -156q105 -64 129 -76q14 -11 117 -121l22 -67v-74l-53 -74q-11 0 -27 4 q-8 3 -24 -14q-11 0 -41 10q-7 0 -21 -14h-20q4 0 -18 18q-27 21 -81 60q-3 13 -14 24q-160 147 -285 189q-10 13 -10 22q-11 8 -45 8l-235 129q-3 0 -9 -6q-33 10 -67 27q-35 21 -58 57q-30 5 -71 25q-65 52 -92 63q-41 27 -82 37q-45 38 -84 56q-2 5 4 30q-11 11 -25 8 q-6 13 -39 48q-44 67 -80 170z" />
<glyph unicode="=" horiz-adv-x="1478" d="M109 887q0 58 36 114q38 22 70 27l129 -27l379 -18l305 39q62 -5 125 -23q22 -23 66 -59q14 -22 36 -68q3 -46 17 -67l-31 -43q-62 -34 -104 -41q-145 -21 -209 -23l-344 -14q-16 -14 -27 -25q-26 16 -53 35l-150 -20q-11 1 -127 16q-37 12 -43 47q-20 17 -34 51 q-41 62 -41 99zM113 487q0 35 16 78q23 23 53 47l172 2l371 -20l188 12q5 0 54 17q3 -1 10 -5t12 -6l209 25q53 -31 119 -57q19 -24 63 -113q1 -2 31 -51v-19q-13 -8 -37 -45q-27 -18 -110 -33l-359 -24h-266q-165 0 -215 -27q-3 0 -12 6q-14 7 -17 7h-8q-4 -4 -4 -7 q0 -5 6 -8q-8 -8 -29 -8q-1 4 -14 21h-108q-25 21 -72 57q-7 30 -31 51q-22 61 -22 100zM494 266l12 8q-7 -10 -12 -8z" />
<glyph unicode="&#x3e;" horiz-adv-x="1202" d="M88 1618q0 35 41 94q42 54 74 57l104 -51q18 -24 88 -86q2 -4 43 -45q32 -32 41 -82q60 -97 221 -291q4 -13 13 -24q4 -6 194 -193q41 -41 117 -114q13 -6 51 -23l27 -61q17 -10 41 -37q31 -36 31 -57q-1 -2 -11 -50q-2 -6 -2 -16q0 -19 13 -25l-134 -178 q-32 -21 -100 -86q-6 -6 -6 -14l-295 -268q-4 -3 -10 -5q-4 -2 -11 -2l-198 -239q-6 -6 -41 -6q-12 -12 -43 -31q-13 4 -27 16h-18q-6 0 -25 -8t-24 -8q-33 0 -62 16q-1 1 -20 25t-35 43q-9 35 -33 65v78q0 5 8 17q12 63 99 153q24 23 75 74t72 70q6 5 34.5 31.5t96.5 90 t135 125.5q48 42 88 82q8 8 70 90l-313 332q-13 13 -6 23q-20 15 -45 28q-3 48 -62 78q0 5 4 13q-13 10 -24 32q-17 8 -60 43q-18 46 -41 52q-16 16 -26 30q-7 12 -29 50.5t-37 64.5q-43 73 -43 127z" />
<glyph unicode="?" horiz-adv-x="1488" d="M70 1483l16 26q6 18 6 33q0 17 -6 35l35 86q103 61 112 66q60 20 236 83q171 56 285 62l256 16q65 6 194 -22q12 -2 31 -8q6 -3 0 -5q64 3 156 -86q84 -81 102 -143q0 -3 0.5 -11t1.5 -22t2 -26q6 -43 6 -47q0 -156 -153 -390q-6 3 -11 3q-9 0 -14 -5q4 -8 4 -16 l-129 -115q-13 -1 -65 -18q-36 -60 -123 -90q-50 -35 -135 -105q-22 -11 -72 -24q-89 -47 -242 -148q-18 6 -28 6q-9 0 -17 -4q2 -2 -4 -8q9 -3 21 -12q-5 2 -11 4q-4 0 -8 1l-4 1q-8 -13 -39 -27q-4 -4 -4 -6q0 -1 1 -3t1 -3q6 4 12 4q-19 -26 -127 -162q-24 -77 -49 -77 q-4 0 -10 14q-6 12 -10 12q-9 -24 -33 -24q-1 2 -2 6.5t-2.5 9t-3.5 8.5l-10 -10q-14 23 -33 47h-27q3 15 -20 25l-4 94l20 162q18 22 33 55q54 127 338 303q6 3 24 6q193 118 283 176q5 4 24 11q19 13 48.5 31.5t75.5 47.5t81 52q11 18 72 65q64 52 72 70v20l-72 56 q-26 8 -121 22q-2 2 -22 2q-23 0 -39 -8q-6 2 -76 2q-47 -14 -80 -14l-39 12q-57 -19 -78 -25q-68 -7 -102 -14q-68 -12 -117 -43q-27 -8 -78 -16q-34 -26 -153 -105q-10 14 -23 17h-39q-11 -15 -28 -9q-3 9 -25 9q-10 23 -10 32q-7 5 -31 15q0 14 -20 43zM215 2q0 10 8 23 q3 25 6 75q4 6 21 35q-2 2 -2 6q0 19 31 47q37 34 63 31q33 -3 92 -49q32 0 62 -64q12 -55 12 -98l-12 -47q-10 -50 -9 -55q-5 -2 -10.5 -4t-8 -3t-3.5 -1q-3 -5 -13.5 -24.5t-17.5 -33.5q-3 0 -12 6l-6 -10q0 -16 2 -16q-6 9 -31 37q-20 -4 -31 -4q-10 0 -34 4 q-2 -7 -13 -21q-10 13 -10 17t4 4q3 -3 10 4v2h-22q-3 -3 -25 12q-18 12 -24 12l-11 17q0 8 2 16q3 12 3 14q-15 15 -21 15v53z" />
<glyph unicode="@" horiz-adv-x="1970" d="M55 633l15 160q0 -16 6 5l20 93q10 34 35 104q22 66 51 80q20 73 125 178q83 81 174 133q144 60 232 93q55 19 98 26q165 33 285 33q78 0 243 -33q8 -2 32 -9t50 -14l52 -14q198 -88 280 -233q74 -62 86 -156l41 -180l-31 -180q-49 -109 -63 -137q-20 -25 -66 -78 q-32 -18 -137 -88v-13q14 -7 25 -16v-25q4 -4 20 -4v-59q-5 -5 -20 -31l16 -30q-29 -43 -29 -58q0 -6 2 -8q-65 -53 -71 -53q-9 0 -13 4q-8 -8 -8 -19q-4 -3 -11.5 -6.5t-18.5 -8.5t-19 -9q-33 -17 -43 -43l-178 -47l-4 6l-223 -41l4 -10q-12 -3 -37 0q0 3 3 0q0 -1 1 -2 l14 12h-94q-3 0 -18 -6t-19 -6q-1 0 -4 0.5t-9.5 1.5t-12.5 2q-21 6 -27 6q-13 0 -27 -2t-22 -2q-79 0 -314 67q-133 83 -165 103q0 21 -35 45q-17 12 -33 23.5t-23.5 16.5t-9.5 7q-59 78 -114 242q0 18 -7 104zM342 551q0 -96 43 -139q37 -37 176 -105l195 -31h172 q47 0 241 33q74 19 224 68q-63 8 -203 121l-221 -68h-70q-12 0 -22 -10l-41 20q-4 -4 -15 -4q-60 0 -182 152q-2 5 -35 78q-21 125 -22 116q0 53 36 162q80 64 121 80q218 88 293 88q24 0 117 -27q21 -17 41 -28q35 -7 45 -10l96 -162q-10 -13 -10 -39q0 -46 29 -94 q28 -51 61 -60q11 7 31 13q84 15 149 86q64 73 64 157l-10 101q-48 55 -125 147q-28 21 -99 47q-82 33 -133 33l-43 -7l-24 -3q-49 -6 -99 6q-3 -7 -10 -10q-132 -15 -270 -50q-38 -9 -156 -59l-217 -176q3 -10 -14 -43q-5 -10 -10.5 -20.5t-8 -15.5t-2.5 -7l-20 -21 l-58 -186q-14 -92 -14 -133zM885 750q3 -2 11 -8.5t11 -8.5h17q29 0 82 15q79 22 110 53q0 5 -6 14q-10 0 -20 2q-8 2 -19 2l-180 -57q0 -3 -6 -12z" />
<glyph unicode="A" horiz-adv-x="1662" d="M45 387v76h6l-4 4v2q1 1 4 25q57 51 80 96q47 47 59 98q7 14 26.5 50t27.5 50q22 60 63 117q7 16 60 150q17 28 24 41q8 27 8 37q72 146 136 290q12 28 63 111q4 5 45 90q47 127 105 256q16 7 47 23q35 -12 88 -23q72 -51 92 -74q4 -5 7.5 -12.5t8 -18.5t8.5 -18 q85 -109 222 -471q2 -2 16 -2q0 -19 10 -49q13 -33 13 -45q0 -7 -3 -16q1 -2 7 -6t10 -9q47 -125 149 -547l11 -20q46 -225 125 -361q0 -22 57 -133l-29 -22q0 -4 1 -12.5t1 -12.5q0 -22 -37 -162v119q-8 8 -14 17h21q-3 -5 -5 -7l-2 -4q3 0 9 -6v-35q-10 -10 -27 -14 q-10 -22 -27 -51h-123l-102 133q-21 118 -86 195q10 25 10 30q-11 15 -28 53q-43 56 -91 93q-42 42 -79 61q-28 14 -57 29.5t-33 17.5q-50 3 -99 27q-15 6 -28 6q-2 8 -7 18q-3 -7 -14 -20q-49 7 -119 31q-4 -4 -11 -8.5t-21 -14t-27 -18.5q-8 19 -19 30l-3 -3q-4 -2 -9 -7 q-4 2 -10 4.5t-8 3.5q20 -20 28 -32q-54 -6 -79 -16t-39 -29h-56l-10 10q-4 0 -11.5 -1t-10.5 -1l-78 -154l-2 -2q0 -4 4 -14q-26 -55 -43 -84q-25 0 -49 4l-9 -14h-36q-11 26 -27 34q-24 9 -39 21q0 12 2 16q-10 16 -14 41q-2 2 -6.5 9t-10.5 14.5t-12 15.5zM430 449 q0 34 19 71l49 -22q-33 -33 -68 -49zM535 860q10 2 40 2q8 -2 18.5 -3.5t12.5 -2.5l6 -2q25 5 41 14l68 2q8 0 57 -14q46 -12 51 -12h2q12 6 19 6l240 -94q-2 5 -5 17.5t-8.5 35.5t-11.5 45q-28 124 -29 129l-78 246q-47 145 -108 239q-26 -26 -57 -102q11 -14 -7 -53 l-12 18l-24 -37l-7 21l-129 -283q2 -2 2 -16q-59 -65 -81 -156z" />
<glyph unicode="B" horiz-adv-x="1718" d="M72 1319v67q10 3 10 31q0 9 -4 49q66 41 219 168q21 111 84 111q26 0 65 -31h46l266 92q7 -2 15 -2q20 0 48 11q42 15 66 20q174 23 223 23q30 0 74 -3q16 -8 41 -18q70 -17 133 -92q59 -77 59 -143q0 -64 -16 -117q0 -29 -6 -82q-56 -151 -265 -336q0 -1 1.5 -2.5t3 -5 t2.5 -6.5q138 -40 274 -131q160 -109 184 -220q22 -22 50 -118l-41 -101l-11 11q-9 -69 -69 -129q-47 -50 -103 -74q-39 -25 -78 -64q-21 0 -38 -10h-27q-18 -15 -18 -41q-5 3 -27 -16q-3 6 -25 6l-452 -195q-6 0 -21 11l-157 -48q-42 17 -84 17q-5 0 -25 -10q0 8 8 16l-8 4 v21q-21 8 -70 30v74q-10 15 -20 25q17 24 20 55q2 10 3.5 19t2.5 13t1 5q-13 25 -56 92l-41 98q-7 40 -13.5 72t-9.5 45t-3 12v66l-21 139l-6 113l20 276l-14 88q-13 -8 -31 -8q-15 0 -28 10v31q-29 -20 -29 -35q-24 15 -61 55l-29 13q6 15 12 45l-6 8q-4 -4 -18 -4z M535 649q4 -36 16 -100q14 -84 61 -176q-13 -13 -22 -19v-30q6 -3 14 -11q67 11 187 60l194 82q45 10 262 137q19 28 27 43q-40 32 -141 70q-39 28 -164 40q-37 21 -51 21l-381 -29l4 -6q0 -27 -6 -82zM543 1229l6 -101q383 172 547 351v49h-52q-8 0 -22 -2t-29 -2l-141 -21 q-14 -14 -18 -14q-1 2 -5 2q-2 2 -10 2q-9 0 -51 -25q-27 0 -47 -2q-62 -32 -109 -53q-21 -17 -47 -35q0 -20 -12 -35q-11 -46 -11 -92q0 -11 1 -22z" />
<glyph unicode="C" horiz-adv-x="1845" d="M39 610q0 390 463 811q41 12 71 39q41 36 62 36q3 0 6 -1q3 4 41 53q15 8 69.5 38t94.5 52q14 -4 26 -4l86 62l279 76h88q1 -4 7 -20.5t11 -27.5q21 -22 35 -32q-20 -9 -20 -29q0 -70 2 -72q2 2 2 4q4 -3 37 -36q-1 0 -27 -11l6 -20l-30 -25q2 -1 8.5 -3t15 -5t17.5 -6 q-37 -21 -58 -21q-8 0 -12 2l-14 -14q-1 0 -82 -14q-11 -7 -113 -51q-14 -5 -92 -41q-58 -36 -211 -117q-78 -73 -168 -131q-68 -71 -182 -211q-13 -7 -23 -14q-18 -9 -18 -33q0 -12 8 -23q-6 -7 -62 -63q0 3 2 -2t5 -17l-31 -112v-74q0 -9 29 -35q27 -24 41 -24 q3 -2 14 -12t20 -17q2 -1 18.5 -5.5t58 -16t83.5 -23.5q56 -10 123 -12l176 -7l197 13l266 30q15 0 27 -6l77 27q3 -6 15 -6l116 30h43l11 -14h71q7 -7 7 -22q4 -4 16 -4q-1 -2 -6 -17q16 -13 16 -12q-16 -8 -37 -29l-2 -4q0 -4 8 -4h31q0 2 -2 -2q-5 -10 -14 -37l20 -10 q-18 -3 -65 -47q-2 -6 -2 -15q0 -8 2 -12q-1 0 -4.5 0.5l-10.5 1.5l-14 2q-6 0 -12 -18q-46 -10 -94 -41l-97 -27q-12 0 -16 4q-14 -11 -14 -10q12 -16 30 -27q-4 -2 -20 -2q-15 0 -66 7q17 0 17 12h-19q-10 -10 -10 -21q-11 11 -31 11v-19l-24 -14q39 0 51 -6 q-10 0 -10 -11h-158q-6 0 -6 -6l-139 -24q24 0 90 -17q1 1 4 9.5t6 15.5h18l-4 -6l23 -4l16 10q0 -7 10 -17h54q-24 -3 -66 -18q-1 1 -5 2t-7.5 3t-7.5 5l-9 -10q-8 4 -26 4q-9 -5 -19 -12q24 -6 58 -6q-19 0 -39 -2q-36 -4 -37 -4q-5 0 8 10h-37l11 -8q0 -17 -19 -17h-205 l-16 15h-10l4 -11q-77 0 -162 -10q-14 11 -14 16l2 3q-15 6 -33 6q-9 0 -19 -2t-18 -2q-42 0 -51 20h-14l-8 -3q-5 -2 -9 -3l-139 49q2 4 10 4q6 0 12 -6h15q11 0 24 8q-24 12 -34 12q-5 0 -11 -6q-4 6 -65 31q-4 -4 -4 -14h-19q-3 13 -18 16l-27 10q-3 15 -6 15q4 0 4 6 q-6 6 -18 6q4 0 12 4l-12 8l-11 -10q-6 6 -16 6q-9 17 -16 37l-58 27q0 4 6 10q-10 3 -26 35q-15 4 -49 67q-11 100 -19 154zM1266 137q8 0 24 19h-18z" />
<glyph unicode="D" horiz-adv-x="1882" d="M-195 1491v22l9 21q10 20 10 31q0 3 -1 8t-1 8q3 11 24 29q442 240 689 258q6 3 32 6q27 6 31 6h82q18 0 63 10q40 -16 78 -16q1 0 4.5 0.5t10 1.5t12.5 2q16 2 26 2q80 0 166 -25q116 -15 158 -43q261 -73 406 -274q135 -190 135 -395q0 -212 -254 -516q-15 -15 -43 -37 q-1 -5 -2.5 -12t-4 -17t-3.5 -16l-269 -221q-117 -75 -254 -154q0 7 -6 10l-211 -117q-34 -61 -123 -61q-16 0 -24 2q-42 -22 -78 -22l-21 -19l-36 2q-17 2 -39 -16q8 -4 10 -4q-2 -1 -10.5 -5.5t-12.5 -7.5l9 17l-13 8q-18 -10 -28 -10q-24 0 -35 16l-15 -2q-8 -2 -26 -2 l8 8q-9 15 -16 15q-5 -3 -17 -5q4 8 4 11l-22 16q-12 0 -39 12q0 15 -6 21l10 12q4 21 -14 39v70q0 9 22 73q-6 29 -26 43q-5 9 -20.5 35.5t-24.5 42.5l-17 133v609l10 297l-8 6q-27 -5 -145 -101q-7 17 -19 29h-20q-8 0 -8 -8q-23 26 -41 29q-3 36 -39 53q0 2 1 6.5t3 14 t4 20.5l-18 18q-3 8 4 25zM352 338q8 0 17 -12l200 59q50 30 160 82q43 20 154 76q79 18 311 221q260 233 260 364q-4 17 -8 48q-10 52 -10 59q-29 72 -76 119q-27 41 -90 92q-3 -1 -6.5 -2t-5.5 -1.5t-3 -0.5q-15 0 -28 22q2 0 2 2q-1 1 -3 4.5t-3 4.5q-10 -5 -15 -5 l-223 84l-237 11l-144 -6q-30 -5 -172 -37q-9 -5 -76 -90l19 -1057l-23 -21v-16z" />
<glyph unicode="E" horiz-adv-x="1765" d="M66 328q0 1 3 10.5t8 25t11 33.5q43 124 86 287q-2 6 -2 12q22 40 25 74l-15 66v79q13 17 37 72q18 41 47 35l49 154v26l-8 10h-31q-100 109 -118 211l35 133q59 41 59 43q6 0 12 -2q6 -4 12 -4q54 0 164 35q10 12 84 74q56 -29 72 -29q5 0 35 6q29 3 47 0l401 86 q20 0 23 -6q4 8 4 13l74 12q23 -3 71 -12q29 16 41 28q9 0 33 -6l123 25q10 -5 49 -13q11 14 31 23q12 0 12 -17q-9 -5 -35 -14q4 -4 27 -4l59 16l2 -2q0 -3 -6 -6q17 -24 17 -16v-23q2 -1 9.5 -3.5t12.5 -4.5q10 10 31 10q53 -12 88 -12q4 -6 4 -14q-52 -27 -49 -64 q-43 -31 -66 -45l8 -8q12 0 15 6q6 -12 6 -16q-4 0 -27 -13l-10 17q-10 -17 -31 -17q-27 0 -43 -4q4 -4 15 -4q-105 -42 -105 -45q-4 2 -10 6q-1 -3 -3.5 -6.5t-7.5 -10t-9 -11.5h-52q-42 -50 -95 -50q-8 0 -17 1q-103 -12 -103 -43q-13 0 -22 12q-74 -22 -68 -25 q-19 0 -22 6q-7 -7 -21 -28l-12 12q-2 -2 -14 -2q-17 0 -29 2q-6 -9 -6 -20q0 -12 6 -21q3 12 -10 12h-17q-14 -11 -14 -22l-33 4q-7 0 -26 -8q-21 -8 -31 -8l-15 6q-8 -8 -8 -23l-135 -59q-16 -53 -49 -129q1 -4 3.5 -19t4.5 -26l522 41h152q0 -31 -4 -31q-2 0 -2 2h67 q-2 -5 4 -21q-13 -14 -14 -14q16 -5 55 -24q-18 -25 -47 -33l-8 -17l4 -20v-25q-6 -9 -30 -18q2 -4 6 -16l-213 -72q-28 0 -37 6q-18 -15 -76 -23q-3 -4 -13.5 -15.5t-17.5 -18.5q-8 2 -22 2q-11 0 -15 -2l-4 2q-4 0 -4 -13q-1 0 -63 -10q-15 -3 -28 -3q-23 0 -36 11 l-155 -63q-26 0 -62 -19q-30 -14 -61 -26q-12 -17 -29 -51q-24 -78 -37 -129v-39l666 51q1 0 3.5 -0.5t8 -1.5t10.5 -2q21 -6 23 -6h96q19 -4 82 -15q45 -5 125 -18q6 -2 37 -12t55 -17q8 -8 90 -86v-59l-20 -23l14 -16q-38 -15 -41 -21h4q-1 -4 -3 -11t-5.5 -16.5 t-5.5 -17.5q-4 -2 -23 -2q-25 0 -41 2q-4 -8 -4 -16q-26 -9 -39 -25q0 8 -18 17q-8 -2 -45 2q-28 4 -35 4q-24 0 -41 -14l14 -13q-26 0 -38 4q0 3 8 15q-4 2 -27 2q0 -4 2 -8l4 -9l-276 -6q-51 0 -64 -22l-12 10h-45l-207 -35q-19 0 -22 6q-5 -4 -11 -8q-10 -7 -10 -8h-35 q-6 -6 -6 -21q0 9 -6 15h-18q-11 -11 -11 -17q-27 -5 -98 -8q-9 -7 -47 -20l-158 -21h-114l-13 37q-83 59 -104 146q-12 49 -12 135zM956 1354q4 0 6 -2q3 -2 4 -4q0 -1 -1 -2q-3 8 -9 8z" />
<glyph unicode="F" horiz-adv-x="1771" d="M33 276q9 123 10 132l16 204q48 268 68 447l59 272v35q-4 4 -24 4q-13 22 -10 33q-37 104 -37 117q0 32 57 131l313 57l545 49l238 10l178 -8q8 -8 49 -20l16 10q2 -1 37 -8l121 -45q72 -24 107 -72q0 -10 8 -29t8 -24q0 -9 -2 -17q-1 -4 -2 -9l-1.5 -7.5t-0.5 -3.5 l-21 -21q-3 -26 17 -38q-52 -19 -58 -19q-12 0 -22 10l-10 -10q-9 3 -23 10q-9 0 -29 -10q-6 6 -30 6l1 -6q1 -5 1 -10h-27q-21 0 -37 16q-20 -10 -30 -10l-187 -6q0 12 -4 16q-16 0 -24 -2l-11 -4q-10 -10 -10 -20q-21 0 -37 16q0 -1 -24 -16q-33 10 -54 10q-17 0 -47 -10 q0 17 -8 20q-18 -9 -18 -16q0 -3 6 -6q-1 0 -3 -0.5t-5.5 -1.5t-6.5 -2q-2 -1 -5 -2t-4.5 -2t-2.5 -1q0 13 -8 21q-12 0 -27 -12q4 -7 15 -7q-28 -4 -41 -4t-37 4q8 -4 12 -4q-7 -4 -45 -12q-22 -2 -55 -1.5t-78 1.5q-4 4 -8 4q-20 -20 -41 -20q-42 0 -201 -27 q-27 -18 -33 -39q-22 -92 -43 -188v-29q8 -13 25 -20l178 6l430 71q4 0 13.5 1t24.5 2l30 2l51 6q1 0 5 -1.5t12 -3.5l16 -4q24 -8 30 -8q43 0 41 4q0 -10 4 -14h78q2 -2 7 -6.5t8 -7.5q8 -5 53 -17q0 -9 14 -53q-3 -3 -35 -31l5 -18q17 3 26 -6q-1 0 -5 -6t-7 -9 q-7 7 -31 7q-4 -4 -4 -7q16 -16 16 -12q-9 -9 -53 -24q-41 -13 -53 -29q-4 8 -10 14q-13 -4 -33 -22q-21 -2 -107 -31q17 -10 31 -10q-43 -6 -84 -33q-8 0 -18 2q-8 2 -19 2q-26 0 -51 -25h-33l-8 11q-65 -33 -78 -33h-2v8h-12q-10 -17 -35 -31q-13 0 -108 -18 q-35 -18 -56 -18q-10 0 -20 2q-7 0 -14.5 1t-8.5 1l-202 -25l-23 10h-25q-14 -20 -34 -137q0 -77 6 -80q0 -5 -17 -22l-4 -256q-2 -2 -2 -113q-6 -6 -10 -27q-32 -32 -59 -55q10 0 24 -33q-6 -2 -20 -4q-9 -2 -13.5 -4.5t-3.5 -5.5q0 -6 -12 -6q-5 0 -8 16q-7 24 -8 25 q-11 0 -15 4q-12 -30 -22 -61q-6 0 -39 20l-14 -14h-15q-27 0 -43 45q-4 0 -20 -4q-10 23 -31 20q-16 37 -16 64l-21 20zM1182 897q0 -5 6 -14q18 9 18 18q-4 -1 -12 -2t-12 -2z" />
<glyph unicode="G" horiz-adv-x="2365" d="M63 610q0 416 308 746q147 157 321 256.5t400 169.5q18 5 72 23t81 26t71 16t81 8q34 0 90.5 -22t99.5 -61q34 -30 34 -61q0 -8 -3 -17q33 -47 35 -76l-19 -39l8 -12q-2 -18 -18 -48.5t-18 -48.5q-13 -20 -35 -20q-7 0 -17 10q-20 -16 -28 -26q-63 16 -180 16 q-9 0 -54 -17.5t-55 -23.5l-20 18q-23 -11 -25 -26q-16 -2 -31.5 -7.5t-34 -14.5t-28.5 -13l-287 -125q-9 -2 -23 -31q-45 -14 -118 -92l-13 12q-8 -12 -20 -36q-25 -17 -54 -56.5t-40 -70.5l-27 -9q-11 -29 -38 -89.5t-42 -97t-28 -90.5t-13 -101q0 -67 28 -118t70.5 -80 t102.5 -47t114.5 -24t116.5 -6q63 0 181 26.5t176 28.5q23 9 108 41.5t141.5 56t131.5 58.5t128.5 70.5t82.5 70.5q-23 10 -37 27l-8 16q-54 -6 -56 -6q-12 0 -69 19q-16 -2 -43.5 -6.5t-38.5 -6.5q-5 4 -11.5 7.5t-13.5 7.5t-10 6q-8 -9 -22 -13.5t-26 -4t-30 2t-25 1.5 l-2 -7q-11 7 -53 7l-10 -19q-17 0 -51 6t-51 6q-14 0 -39.5 -3.5t-34.5 -4.5q-18 -22 -33 -22q-27 0 -39 6q-9 -1 -39 -10t-43 -9q-47 0 -71 21v27q-16 11 -29 30l-29 13l2 16l-8 27l8 20l-24 25q8 29 8 88q20 33 20 45t-12 24q16 11 27 33l49 18l4 -4q60 1 328 11t413 10 q175 0 375 -133q4 -3 29 -20.5t28 -20.5q24 -29 64 -88t49 -72q2 -8 2 -25q0 -33 -2 -49q-20 -24 -22 -41l-19 -8l-6 -16l-8 4l-25 -29l19 -4q-32 -61 -123 -117q-6 15 -13 29q-5 -7 -15 -20.5t-15 -20.5q0 -3 1 -6t2.5 -6.5t2.5 -5.5l-76 -74l6 -2l-188 -107q-12 4 -19 4 q-5 0 -10.5 -1.5t-11 -4.5t-10 -5.5t-10.5 -7t-9 -7t-9 -8t-7 -6.5q25 -3 53 0l-6 -7l-25 4q-15 -6 -117 -51.5t-156 -66.5t-146 -54.5t-166.5 -49.5t-137.5 -17l-4 -14q-24 -6 -67 -25q-20 3 -84 16l-23 -18l-10 18l-18 -20h-45q-11 11 -39.5 18.5t-38.5 12.5l-285 135 l-8 -4l-6 8q-18 11 -34.5 24t-33.5 33t-26 31t-29 38.5t-25 33.5q-117 164 -117 372z" />
<glyph unicode="H" horiz-adv-x="1888" d="M29 516l10 96v133q0 11 39 218q68 370 143 559q0 46 94 153q2 1 9 3t19.5 6t25.5 8q35 -14 88 -58q13 -43 32 -92q3 -1 21 -10l14 -88q4 -4 4 -6q0 -14 -28 -56q10 -10 10 -30l-88 -385q16 -16 57 -13l469 21l109 14h102l162 31q15 15 22 45q43 214 117 358 q104 195 238 234l92 -62q11 -6 8 -26q-6 -30 -6 -33q11 -11 23 -35q6 -13 18 -10v-47q0 -4 -35 -72q-34 -66 -51 -104q-2 -6 -2 -17q0 -8 4 -28q-19 -43 -25 -72q-9 -34 -41 -238q-26 -182 -49 -270q0 -4 1 -22.5t1 -32.5q-18 -47 -18 -82v-47q-2 -3 -8 -11t-8 -10 q6 -15 6 -35q0 -2 -1 -7.5t-1 -8.5l-9 -14v-72l-30 -227q-7 -10 -13 -35q-3 -19 -20 -19l-31 -75q-2 6 -16 20q-27 -37 -72 -37l-24 11q-15 -15 -23 -25l-20 20l-21 -6q-13 25 -57 64q-32 73 -47 258l51 403v86l-8 11h-19q-1 0 -3.5 -1t-8.5 -2.5t-12 -3.5q-5 -1 -11.5 -2 t-10 -1.5t-5.5 -0.5q-5 0 -14 -12q-2 0 -8 6h-13l4 -8l-98 -23q-4 1 -10 3q-12 4 -15 4q-6 0 -36 -9q-31 -8 -37 -8h-29q-20 -20 -39 -20q-9 0 -47 10q-12 -6 -12 -23h-154q-10 -5 -10 -14h-72q3 -16 -16 -35q-2 2 -2 6q0 5 4 17q-3 2 -19 14q-24 0 -32 -4q2 -4 2 -10 q3 -10 6 -10q-5 2 -37 -17q-20 4 -49 4v-14q-17 6 -23 10q-16 -16 -39 -16q-24 -62 -24 -135v-72l-10 -57q-13 -16 -29 -13q-8 -8 -8 -20l-9 -2q-16 -3 -30 -6q-1 -2 -3.5 -5t-6 -7t-5.5 -7q-3 6 -18 6q-9 -9 -33 -30q-16 4 -24 4q-11 0 -27 -4q-12 12 -18 20q-24 3 -45 31 q-39 46 -41 47q-6 27 -13.5 66.5t-9.5 46.5q-10 50 -14 59q-1 8 -3 9zM479 627q24 0 35 14q-35 -12 -35 -14z" />
<glyph unicode="I" horiz-adv-x="665" d="M84 240l72 1200q2 13 6.5 45.5t7.5 54.5q1 4 2 13t2.5 18t3.5 18l45 105q31 73 74 82q4 -1 37 -15q19 -20 34.5 -37t23.5 -26l7 -8q36 -42 50 -86l10 -150l-37 -594l6 -145q-10 -17 -10 -33v-84l-17 -137v-82l-4 -293q0 -8 15 -23q-7 0 -23 -16h-14q-7 2 -17 6 q-35 -23 -35 -44q0 -4 1 -7q-43 -16 -76 -16q-20 0 -37 10q-14 9 -48 35t-52 39z" />
<glyph unicode="J" horiz-adv-x="1579" d="M10 307l10 12v35q28 17 33 47q9 37 10 37q44 35 56 35h2h20q10 -3 31 -24h5q27 0 75 -21q12 -5 36.5 -17t37.5 -18q180 -57 295 -57q22 0 57 2l57 2q44 3 96 25q61 9 115 63q60 60 60 117q6 6 12 24q3 27 16 111q3 20 6.5 39t5 26.5t1.5 8.5v67l20 189v135l-10 76v98 q0 2 -1 6.5t-3 13t-4 15.5v9q0 25 -13 69l-10 194q3 20 6 47v12q0 118 119 179h57q15 -37 78 -103q0 -11 12 -41q19 -19 43 -159q19 -114 19 -134v-92l20 -200l-22 -402l-66 -426q-25 -33 -41 -78q-8 -9 -27.5 -29.5t-29.5 -31.5q-67 -56 -133 -94q-4 -12 -37 -29 q-22 -16 -145 -39q-124 -24 -170 -24h-9l-272 20q6 0 -180 64l-17 16q-30 8 -145 76q-28 24 -49 35q-3 37 -27 114z" />
<glyph unicode="K" horiz-adv-x="1802" d="M55 236l4 215l70 974q2 18 13 86t18 119q8 15 20 56q80 96 113 96q10 0 24 -2t27 -2q10 -19 47 -43q24 -49 70 -170l-35 -846q4 0 16 8q16 28 68 104q13 13 119 136q24 30 119 125q53 50 178 172q1 1 53.5 68t93.5 116q79 67 154 154q40 50 100 110q3 3 113 92 q87 72 123 72q41 0 75 -64q31 -57 31 -79q0 -5 -4 -9q10 -14 25 -43q-9 -24 -9 -41q-68 -74 -96 -106q0 -6 4 -8l-536 -590q-19 2 -46.5 -29t-60.5 -94q-8 -11 -28 -14q-14 -11 -27 -37q-29 -23 -41 -49q11 -8 37 -31q39 -16 178 -47q136 -30 170 -45q259 -36 428 -148 q14 -14 43 -71q-7 -17 -4 -41q-4 2 -8 2q-10 0 -19 -6q7 -22 27 -60q-2 0 -62 -26q-54 -23 -65 -23q-9 2 -21 6q-5 -16 -57 -16l-276 24q-11 5 -84 21q-60 10 -142 27q-38 7 -192 47q-96 28 -191 75q-23 11 -106 62q-3 0 -88 88l-19 -10v-523q-10 0 -32 -16q-13 10 -23 10 q-16 -22 -16 -30l2 -5q-58 -22 -59 -25q0 -1 3 -1q-12 -7 -20 -27l-29 8q-5 2 -12 13q-67 24 -107 67q-30 43 -40 119q-5 35 -11 105z" />
<glyph unicode="L" horiz-adv-x="1900" d="M27 170l65 526v62l47 379v65q8 65 8 83v5q4 73 29 277q4 33 27 170q18 23 86 98q50 14 47 16q26 0 47 -18q42 -33 43 -33q3 -15 18 -33q17 -56 17 -65q16 -19 37 -31l-31 -377v-92l-78 -837l49 -5q30 8 92 11l998 145l223 -2q50 -7 131 -39q0 6 -6 -6l-4 -8q11 -11 24 -8 q0 -1 1.5 -5.5t4 -14t5.5 -19.5q-10 -10 -25 -31l14 -14v-35q-14 0 -20 -15q-48 -25 -92 -51q-64 -12 -115 -26q-77 -21 -78 -21h-65l-422 -76q-5 5 -17 5l-415 -91l4 -8q20 2 37 -8h-95l-32 -16q0 2 -4 6q-5 5 -9 -6l-337 -62q-67 12 -70 15q-39 9 -51 32h-37v6 q-43 27 -43 82q-8 19 -8 70z" />
<glyph unicode="M" horiz-adv-x="2224" d="M-57 25q0 51 34 81q32 47 74 140q26 43 41 86q17 31 80 129q46 96 86 170q143 267 145 270q64 120 91 195q108 239 137 405q20 36 65 86q8 8 43 8q15 15 35 15q46 0 90 -56q37 -46 43 -90q3 -15 25 -24l-4 -662l14 -116q3 0 8 -5q103 112 260 353q131 204 252 389 q45 65 242 327q15 26 25 54l20 6q27 27 72 61q41 -7 94 -18q27 -27 61 -66q1 -4 4 -10.5t8.5 -20t10.5 -24.5q20 -44 20 -49v-78l4 -53l11 -170q1 -3 8 -47q-2 -6 -2 -21q0 -18 2 -30q-4 -50 -4 -105q-5 0 -8 -12v-62l20 -20l-61 -596v-174l-21 -141q-67 -41 -86 -41h-4 q-8 -12 -25 -29q-21 -3 -41 -23q-14 11 -14 17q-59 35 -72 35q-11 0 -18 -7q-57 83 -57 164v219l51 559v205q0 17 -14 49q-1 -3 -25 -57q-12 -6 -53 -39q-32 -46 -60 -96q-49 -55 -82 -129q-37 -46 -45 -92q-6 -12 -24 -21q2 -4 -4 -26q-4 -16 -4 -19q-9 -6 -15 -6l-4 2 q-14 -32 -26 -80q-70 -94 -152 -237q-52 -54 -74 -101q-28 -16 -28 -32q0 -10 10 -23q-64 -58 -70 -135q-53 -84 -82 -84q-2 0 -14 4q-6 2 -14 2q-10 -10 -58 -47q-27 6 -67 6l-27 18q-29 19 -57 19q-5 6 -21.5 26t-29.5 35q-31 117 -48 365l-14 182l-207 -407l-123 -277 q0 -4 6 -10l-53 -131q-12 2 -47 -2q-41 -30 -88 -43l-125 51q-20 70 -20 111z" />
<glyph unicode="N" horiz-adv-x="2162" d="M-4 446v58q0 19 33 78q31 60 34 82q96 158 179 458q118 429 135 475q11 32 88 109q3 0 39 4q16 2 39 2q33 0 94 -37q61 -42 72 -67q142 -129 256 -363q37 -75 103 -220.5t99 -213.5q114 -240 230 -356q67 91 190 512q105 357 148 569q0 52 8 125q0 9 12 43q8 21 8 43 q7 8 18 25t13 20l21 8q19 19 22 25q13 10 31 14q5 14 10 21q17 -7 78 -62l18 21q9 -21 25 -37h18q3 -16 -8 -37l8 -12q-6 -17 23 -54l-23 -139l-6 12l-10 -12l2 -10q0 -24 -21 -45q15 -19 15 -29l-10 4q-10 -7 -15 -14q-1 -4 -4.5 -26.5t-5.5 -39.5q8 -4 16 -20 q-18 -15 -36 -45l14 -10v-21q-18 -3 -25 -20l11 -7q-3 -9 -12 -29.5t-13 -31.5q0 -70 -21 -80l5 -8l-25 -31l10 -63l-20 -15l-2 -20l6 -10l-25 -23l8 -12q-15 -30 -26 -43l16 -19v-18q-1 -1 -9 -6t-15 -8v-25l26 -4l-18 -16q-4 -12 -4.5 -28.5t4.5 -37.5q-2 -25 -29 -63 q0 -30 -10 -37q-12 -9 -12 -35q-13 -27 -11 -29q2 -8 6.5 -18.5t4.5 -11.5q-27 -43 -39 -68l4 -8l12 10v-8q0 -20 -10 -43l-21 2l-6 -64l-20 -14q6 -24 8 -29q-13 -44 -29 -88l8 -26l-12 -25q4 -12 4 -27q0 -1 -1.5 -9.5t-5.5 -28.5t-7 -43l-21 -7q-4 -8 -12 -24.5 t-12 -24.5q-15 -30 -39 -37q-12 6 -49 11l-4 -9q-21 -12 -43 -12l6 -14q-8 -2 -43 -2q-46 0 -109 51q-230 178 -413 551q-5 10 -33 41q-8 31 -39 82q-3 4 -21.5 32t-27.5 44q-39 61 -68 176q-10 37 -80 155q-73 117 -106 150q-37 -61 -58 -172q-6 -31 -17 -93t-17 -92 q-5 -29 -37 -88q-44 -79 -47 -86v-6q0 -15 -41 -117q8 -33 8 -40q0 -42 -55 -105q-28 -32 -84 -92h-6q-20 0 -39 -16q-14 3 -23 16h-51l-6 20l-41 15q-6 17 -37 73z" />
<glyph unicode="O" horiz-adv-x="2369" d="M51 772q0 45 49 213q0 5 25 88q59 190 213 311q78 62 151 95l132 59q103 103 139 113q196 158 569 182q14 -5 23 -21l16 5l-4 16h22q7 -11 7 -14q-12 0 -21 -9q50 -16 76 -16q21 0 33 6q-20 4 -78 21q35 12 49 12q29 -9 86 -21q83 -22 115 -26q0 -5 22 -14q0 -9 -10 -19 l6 3l29 1l178 -92q11 0 31 4q2 0 2 -2l-10 -10q67 -49 86 -49q7 -18 20 -41q21 -3 31 16l139 -274q0 -19 -4 -31q3 -22 31 -47q-1 -1 -5 -2.5t-6 -3.5q5 -30 21 -90l-31 -220l-92 -270l-190 -215q0 -4 2 -12q2 -6 2 -15q4 11 -9 11h-12l-112 -107v-26q-1 1 -2.5 3t-3 5.5 t-3.5 5.5h-22l-180 -158q-40 -7 -86 -37h-25v-4q-90 -41 -98 -41q-5 0 -13 4l-147 -71h-16q-33 1 -31 6l-201 -27h-102l-180 27q-60 20 -189 61q-96 56 -164 105q-183 130 -229 358q-1 5 -5 22t-9 38t-9 43v108l-6 47v-4zM362 715q0 -18 17 -101q46 -82 102 -157 q3 -2 20 -15.5t31 -25.5q3 -2 14 -7.5l37 -18.5l50 -25q103 -50 125 -50q8 0 12 7q18 -21 61 -21l164 -6q47 0 99 18q199 39 397 156q243 141 367 336q32 73 55 143q10 30 24 58l5 122q0 68 -48 160q-46 93 -88 96q-9 9 -127 74q-25 6 -108 35q-175 39 -252 39l-133 -19 l-4 9l-144 -47q-6 12 -6 16t4 4l-24 -12q-14 -26 -33 -37q-24 -10 -66 -19q-32 -16 -92 -73q-19 -19 -48.5 -47.5t-39.5 -38.5l-82 -205q-7 -5 -10 -45q-10 -10 -25 -14q-9 6 -20 20q-3 -5 -27 -41q-4 3 -15.5 14t-18.5 17l-11 -17q-5 10 -2 29q-4 11 -33 43q-13 13 -26 10 q-31 -31 -33 -39q4 -8 4 -12q-15 -15 -24 -45q-3 0 -9 -2l-8 -4q4 -8 4 -16q0 -25 -18 -62q-3 -24 0 -27q-17 -60 -17 -61v-96zM2017 526l13 9z" />
<glyph unicode="P" horiz-adv-x="1964" d="M-23 1335q3 27 3 45t-3 21q3 50 80 115q15 13 107 79q24 7 106 50q2 2 6 10l-2 2q23 10 41 10q9 0 13 -2l143 61q8 -4 12 -4q10 0 99 45q-7 -3 -7 -10h31q6 0 6 10q41 0 41 5l66 16q16 0 18 -4l17 14l24 -4q17 7 62 35h22l10 -10q23 13 46 16l161 31q40 0 54 -2l10 10h43 q0 -8 10 -21q-4 0 10 10l8 5q21 12 56 12h106q206 0 402 -111q108 -105 108 -274q0 -6 -1 -18.5t-1 -18.5l10 -10v-84q-20 -6 -20 -18q0 -8 6 -17v-10q-41 -131 -121 -217h-20q-6 -12 -15 -21v-30l-122 -76l16 -2q6 0 6 6q-27 -68 -68 -68q2 -2 3 3l2 14l-9 8l-141 -98 l10 -13q-3 -1 -41 -8l-102 -51q-6 -4 -21 -18t-22 -21q0 4 -6 10h-12q-5 -5 -5 -20q-60 -21 -151 -66q-50 -15 -178 -65q-17 -11 -31 -23q-29 0 -68 -8q-21 -12 -26 -12q-1 0 -4.5 1t-5.5 1q-1 1 -3 2t-2 2q-67 -43 -81 -43q-4 0 -19 6l-194 -72q0 9 -9 15h-32q8 -8 8 -19 q0 -6 -8 -100l20 -193v-98q-12 -4 -27 -14q11 -11 11 -33q-40 0 -68 -25q-39 -6 -98 -36q-78 41 -121 151q-37 93 -37 200q0 22 2 44l14 258q0 1 1.5 4.5t4.5 10t5 13.5q8 21 8 35q2 11 14 107q7 18 10 71q21 44 21 96v13l137 449q-24 -9 -67 -46q1 -3 2.5 -13t5.5 -28 t8 -38q0 -2 -23 -15q-20 -10 -26 -10q-8 -5 -8 -29q-38 -18 -43 -16l-11 -16l-30 6q2 -2 2 -27q-4 2 -33 27l-10 -10q-80 59 -95 161zM455 723h16q-2 0 -2 2q0 14 168 102q109 59 385 162l106 53q165 54 373 250q21 30 51 76q35 56 35 92q0 80 -90 111q-17 5 -76 8 q-35 3 -41 18l-129 11q-21 2 -39 2q-53 0 -90 -17l-10 11q-18 -7 -47 -7q0 -2 -4 -10q-30 10 -37 10q-41 0 -287 -47q-17 -3 -139 -41q-48 -15 -57 -53q16 -6 16 -26v-25l14 -14v-35l-51 -252q-8 -19 -8 -37q0 -6 2 -10q-17 -17 -14 -25zM647 1778l17 10zM1288 1595 q9 0 19 -2q7 0 16 -1t10 -1q-21 0 -45 4zM1358 788q8 13 10 13q0 -1 -3 -5t-7 -8zM1567 950l2 -2q4 0 8 4q3 3 2 4q-3 0 -12 -6z" />
<glyph unicode="Q" horiz-adv-x="2357" d="M31 780q0 67 4 107q8 63 31 139q5 16 14 31q35 116 123 239q88 120 209 189q26 24 86 51q6 14 98 49q85 31 90 31q6 0 14 -4q33 12 97 33q7 2 24 16q301 105 441 111q23 10 34 10l39 -13l25 17l37 -10q10 10 20 10l172 -4q26 0 80 -15q21 -18 41 -18h27q1 0 4 -5t6 -9 q73 -29 94 -37q4 8 4 10q22 -9 27 -14q-4 0 -17 -13q9 -6 50 -41q18 -18 37 -18q10 0 14 4q0 -1 0.5 -3t1.5 -6.5t2 -8.5t2 -8.5t1.5 -7t0.5 -3.5q30 -22 64 -53q32 -59 102 -162q50 -118 50 -170q0 -5 -1 -10q21 -50 21 -139q0 -240 -82 -334q-4 -4 -17 -41q-18 -8 -76 -72 q-16 -48 -69 -96q-84 -81 -86 -84q-77 -36 -96 -76l81 -137v-84q-8 -5 -27 -21.5t-30 -25.5q-32 0 -59 -2q-4 2 -13.5 6t-13.5 6q-14 3 -22 -10l-150 113h-14l-338 -164q-4 0 -12 2q-6 2 -13 2l-223 -62h-82q-10 0 -20 -2q-12 -2 -21 -2q-6 0 -6 -8q0 6 -6 12h-23 q-1 0 -12 -4.5t-20 -9.5q-25 22 -115 31q-2 0 -5.5 -1t-6.5 -1l-17 -4q-42 16 -92 39q-29 14 -207 106l-112 98q2 4 2 15q0 9 -7 30q-5 3 -16.5 11.5t-19.5 13.5l-93 256zM256 692q0 -71 41 -164q48 -106 104 -133q11 -6 31 -22q15 -6 123 -35q110 -29 143 -29l136 6 q82 9 106 11q61 21 217 57q43 11 146 72q-62 133 -62 153q0 -7 4 9q3 12 8 38q0 15 -4 29l-4 23q39 45 64 59q44 -26 82 -43q30 -27 137 -137h22l129 102h17q26 33 26 37l82 41q0 12 -6 18q25 14 62 39q-3 18 55 64q8 14 29.5 53t35.5 64q0 1 19 88v67l-57 154 q-16 20 -41 45q0 8 2 16q4 8 4 17q-17 7 -23 16l-10 -10q-25 28 -84 67q-67 43 -96 43q-16 -3 -41 13q-3 0 -9.5 -1t-9.5 -1q-15 0 -39 6t-30 6l-107 -6q-19 0 -26 -11q-11 11 -15 11l-252 -41q-73 -12 -299 -99q-2 -6 -14 -18q-17 0 -31 -2q-45 -35 -59 -35h-2 q0 -10 -10 -20q-2 0 -2 4q-2 2 -9 2q-5 0 -41 -25q-47 -32 -53 -33q-2 -4 -51 -86q-45 -77 -45 -116v-107l-21 -24q-12 -42 -12 -64q0 -9 2 -14q-17 -17 -22 -15q-5 11 -31 58q-23 0 -31 8l-26 98q-5 0 -9 4q0 7 2 9q2 4 2 8q-13 3 -43 16q-33 -33 -53 -86q-6 -16 -18.5 -47 t-16.5 -43q0 -41 -16 -78v-86z" />
<glyph unicode="R" horiz-adv-x="1888" d="M55 123l6 295l43 809q-3 29 -45 71q0 16 7 19q0 1 -1 3t-2 5.5t-2 5.5q-6 12 -6 15q0 23 64 151q268 221 446 236q10 13 60 34q41 17 59 31q127 41 156 51q22 2 70.5 8t70.5 9l98 12q27 0 154 -23q1 0 43 -22q40 -26 84 -86q53 -40 108 -133l27 -129q0 1 -1 -3.5 t-3.5 -15t-5.5 -24.5q-12 -47 -12 -58q-15 -39 -39 -67q-4 -10 -16 -39.5t-19 -50.5q-37 -53 -82 -101q-28 -54 -90 -116q-95 -95 -111 -115q-59 -42 -96 -74q-29 -47 -92 -76q-20 -17 -88 -57q-62 -34 -133 -96q0 -14 4 -14h2q1 -1 9 -8.5t15 -14.5q179 -53 420 -104 q323 -66 457 -99q24 0 45 -24l131 -45q104 -67 104 -88l29 -25q0 -5 -25 -33q19 -10 25 -14v-23l-10 -12l2 -8q4 -6 4 -17l-45 -34q-87 -19 -94 -19l-48 4h-3q-22 2 -41.5 2t-36.5 -2q-24 -8 -43 -8l-672 115l-295 100l-250 117q-18 -12 -18 -33v-106l33 -146q-9 -27 -9 -49 v-16l-73 -111q-4 0 -31 10l-12 -14q-23 11 -88 21q-18 14 -68 43q-39 23 -39 43q-17 66 -31 143zM358 729q249 183 375 287q192 160 309 303q119 143 119 162v30q-32 19 -80 19q-18 -2 -57 -6q-56 -6 -76 -6q-156 -43 -203 -54q-86 -39 -264 -96q-96 -48 -96 -104 q0 -20 6 -41q0 -25 -12 -72z" />
<glyph unicode="S" horiz-adv-x="1720" d="M57 180q12 12 15 68q3 49 39 71q25 5 135 35q5 1 17.5 3t35.5 5.5t43 6.5q44 27 47 28l49 -4q17 17 37 23q104 31 338 108q198 66 246 97q37 15 137 92q-2 5 -35 32q-54 32 -358 179q-41 13 -262 108q-152 66 -205 109q-96 35 -205 162q0 12 8 20q-32 81 -35 81v-1 q0 78 21 125q42 77 170 119q97 28 221 67q234 35 234 37q14 0 18 -4q52 25 102 25h134q4 0 10 -3q4 -2 12 -2h76q16 0 98 -32q26 -21 105 -74v-35l24 -41q9 -24 6 -49l-6 -41l-33 -31h-112q-10 0 -51 13q-73 8 -105 8q-70 0 -332 -47q-42 -6 -131 -54q0 -10 15 -22 q12 -4 245 -102q4 -2 72 -23q50 -19 184 -80q106 -24 187 -86q59 -17 125 -74q78 -68 92 -129q27 -21 45 -100q14 -60 14 -111q0 -28 -37 -118q-10 -20 -57 -88q-31 -31 -70 -78q-22 -3 -86 -45q-23 -16 -48 -32.5t-37 -24.5t-15 -11q-41 -15 -174 -76q-19 -6 -37.5 -11.5 t-32.5 -10t-28 -8.5t-24 -7t-19 -6t-14.5 -4.5t-9 -3t-5 -2t-0.5 -0.5q-16 0 -25 6q-32 -16 -34 -16q-3 0 -7 4q-2 2 -6 2q-24 0 -84 -31q0 -14 11 -10l-349 -78l-204 21q-16 16 -58 47q0 12 10 22l-26 25q0 17 6 20q-3 5 -27 37z" />
<glyph unicode="T" horiz-adv-x="2054" d="M-150 1356v28l44 93q53 30 67 39q343 61 549 83l1153 130h334q0 -11 28 -50q31 -39 31 -43q0 -2 -1 -4.5t-1 -3.5q1 -1 7.5 -4.5t11.5 -5.5q-9 -22 -9 -62l-2 -15q-1 0 -2 6q-1 5 -2 5q10 -17 10 -32l-12 -4q-9 -3 -10 -3q-6 -29 -47 -79q3 -6 6 -14l2 -3q-5 -5 -31 -20 l-141 12q-61 -3 -105 -3q-26 0 -46 1q-52 3 -70.5 10t-71 7t-149.5 -13q-15 -15 -15 -20q-15 6 -18 16q-20 -4 -25 -4q-8 0 -20 4q-15 -9 -15 -21h-61q-4 -8 -4 -10l-143 -30q-7 -18 -15.5 -49.5t-19 -84t-18 -91.5t-22.5 -118.5t-22 -117.5q5 -21 2 -51q-80 -479 -86 -713 q-5 -8 -26 -8q-8 -24 -8 -45q-37 -21 -54 -41q14 0 -6 4l-88 16q-14 35 -18 39l-7 1q-6 1 -12 1q-23 34 -47 84l6 266q11 63 42 283t52 350q43 168 50 201v39q-1 2 -6.5 8t-8.5 10q-8 -2 -21 -6l-28 -8q-7 0 -10 6q-8 4 -10 4q-3 0 -47 -12q-41 -15 -43 -15q-1 0 -4 1 t-7.5 2t-7.5 2q-10 2 -18 2l-133 -27q-5 2 -13 4q-4 0 -8 1l-4 1l-178 -41l-178 -18l-99 2q-37 27 -73 41q-7 7 -7 22q-10 10 -20 15q0 21 -21 51z" />
<glyph unicode="U" horiz-adv-x="2179" d="M39 821v127q0 62 57 344q54 162 76 217q61 126 172 187q17 -4 41 -15q2 -4 47 -32l53 -138q-12 -24 -32 -92q-88 -109 -115 -200q-12 -40 -33 -179l6 -235q49 -342 197 -389q67 -20 63 -23q3 0 41 -6q11 -1 21 -2t14.5 -1.5t5.5 -0.5t9.5 1.5t30.5 6t44 8.5 q211 42 451 209q214 146 418 393q60 76 170 267q0 2 41 123q8 33 8 73q0 34 -6 64q-2 2 -2 6q0 8 6 20q-11 26 -11 35q0 76 101 183l31 -5q8 11 28 21q18 -38 33 -53h33l39 -72q12 -61 12 -72v-104q0 4 -1 4q-4 0 -29 -124q-6 -29 -13 -64q-186 -490 -395 -672 q0 -15 -15 -33q-44 -38 -299 -274q-147 -109 -342 -220q-16 -10 -32 -28q-26 -11 -43 -37q-27 -4 -129 -39q-73 -6 -115 -12q-11 -2 -25 -3.5t-22.5 -2.5t-12.5 -2l-8 -3h4q-47 0 -190 64v6q-165 109 -258 260l-53 131q-31 75 -31 114v7z" />
<glyph unicode="V" horiz-adv-x="1730" d="M51 1399l41 176q33 11 51 37h17q18 0 84 -78q52 -82 90 -215l72 -258l233 -664q33 36 73 93.5t71.5 109t87 144.5t94.5 155q3 6 16 26t39.5 63t52.5 85q2 6 5 16t3 11q3 5 15 23.5t20 31.5q97 154 301 569q49 67 96 127q10 0 23 23q4 -2 10 -2q13 0 29 8q0 -12 6 -33 q20 -14 53 -14l-2 -53q1 -1 4.5 -3t9.5 -5.5t11 -6.5q2 -14 1.5 -36t-1.5 -52q-18 -53 -27 -108l-19.5 -39t-31.5 -60q-51 -64 -66 -127q-1 -1 -73 -102q-74 -142 -131 -221l-168 -350l-156 -250q0 -2 -3.5 -15.5t-4.5 -21.5q-20 -34 -195 -344q-10 -21 -28 -35l4 -16 q-17 -17 -33 -17q-12 -28 -25 -45q-2 0 -6.5 -0.5t-13 -1.5t-16.5 -2q-20 -2 -37 -2l-6 4l-82 27q-123 150 -197 366q-3 11 -17 53.5t-40.5 125t-53.5 170.5q-1 2 -8 45q-2 7 -12 20q0 11 -47 166q-40 130 -113 502z" />
<glyph unicode="W" horiz-adv-x="2975" d="M41 1628q2 16 6 47q6 49 6 62l35 100l70 37q22 -14 96 -100q29 -59 57 -109q96 -236 174 -549l170 -657l15 -15q206 203 329 455q22 44 52.5 109t79 168t83.5 178q22 49 70 168l35 65q23 24 67 82l64 19q10 -8 40 -34t48 -42l86 -195q49 -112 49 -176q10 -30 96 -403 q17 -65 78 -256q2 -6 29 -45q8 0 20 18q18 27 126.5 181.5t205.5 293.5q5 7 21 29.5t39 55t47 67.5q81 87 200 260q27 30 144 258q26 35 45 76q43 43 53 51q6 17 29 51q55 0 55 -2q-3 -12 18 -27q29 -57 43 -116v-76q-1 -3 -28 -64q-4 -22 -33 -82q-31 -63 -33 -75 q-12 -17 -53 -84l-100 -158q-7 -13 -105 -125q-12 -15 -12 -29q-13 -5 -35 -30q-18 -44 -84 -133q-81 -104 -94 -129q-3 -8 4 -15q-5 -5 -45 -37q-3 -5 -6.5 -12t-9 -17t-9.5 -16q-20 -55 -104 -159q-60 -108 -98 -201q-5 -8 -17 -8l-92 -170q0 -6 12 -15q-27 -24 -49 -18 q-3 -8 -7 -21l-7 -20h-27q-7 -11 -20 -21l-98 48l-11 -11q-125 146 -219 473q-43 141 -55 265l-92 348q-3 0 -6 6l-240 -436q0 -9 4 -13q-11 -29 -45 -63q-30 -59 -104 -225q-78 -111 -103 -164q-127 -121 -127 -219q0 -14 6 -23l-104 -84h-27q-20 0 -84 41q-3 0 -6 -1 t-4 -1l-4 -2q-6 13 -25 25q-3 2 -10 6t-10 6q-4 4 -10 29q-54 101 -90 235l-66 238q-14 166 -174 745q-41 139 -76 254q-4 4 -24 57q-25 58 -25 76z" />
<glyph unicode="X" horiz-adv-x="1810" d="M39 1393q1 1 4 5t6 7q-7 11 -10 72l90 176l76 24q-8 0 4 -2q10 -1 35 -4q90 -46 274 -209q21 -19 115 -103t164 -147q205 143 506 334q45 28 61 47q132 60 166 60q119 0 131 -39l-16 -12v-19q13 -13 26 -18q0 -21 -16 -43l26 -21l-16 -84q-19 -16 -25 -45q-11 -7 -41 -20 q0 -10 5 -25q-9 -16 -27 -12q-4 -4 -4 -15l-184 -67q-19 -19 -21 -27l-215 -127q-6 -3 -6 -20l-123 -92q67 -105 143 -189l189 -213q33 -90 33 -114l-4 -16l-8.5 -34t-10.5 -45q-87 -118 -135 -118q-10 0 -29 8q-5 -1 -10 -1q-41 0 -102 66q-15 15 -125 133q-3 9 -19 41 q-56 71 -180 209h-21q-10 0 -75 -86l-115 -153q-29 -70 -82 -154q-3 -5 -63 -190q-38 -116 -105 -150h-63q-15 37 -41 31q0 36 -31 51l-16 104v72q0 1 1.5 7t5.5 19.5t7 28.5q15 57 18 74q16 54 62 144q64 112 284 452v12z" />
<glyph unicode="Y" horiz-adv-x="1593" d="M35 1640l8 103q30 16 49 51h39l80 -80q22 -29 41 -80q30 -49 53 -121l45 -137q28 -56 105 -229q18 -47 39 -90q23 -50 51 -86h16q60 70 158 149q53 82 94 115q14 19 31 49q10 16 28 45q42 53 142 164v12l127 127q0 12 6 27q53 64 203 217q4 1 25 4.5t38 5.5q10 -7 10 -24 q2 -2 10 -7.5t11 -7.5q9 -49 47 -49q2 -13 27 -98q0 -4 6 -19l-8 -8q4 -8 4 -10l-2 -2q-1 -3 -4.5 -13t-7 -21t-7.5 -23l-256 -461q-9 3 -22 -10q0 -3 4 -11q0 -20 -11 -39q-42 -81 -135 -227q-6 -13 -145 -274q-96 -170 -115 -258q-78 -175 -78 -353q0 -48 4 -73 q-22 -33 -43 -84q-13 3 -26 -23q-25 -4 -47 -14q-46 20 -94 35q-18 27 -33 30q-9 26 -33 70q0 27 -10 61q2 2 2 21q0 26 -2 49q14 134 45 297q14 20 28 33q19 16 19 35q-3 15 10 51q2 7 -4 22q14 34 41 82q-19 25 -43 25q-8 0 -20 -4l-19 18l-12 -8q-17 2 -62 29 q-22 35 -120 184q-149 323 -267 676q-21 99 -21 144q0 7 1 13z" />
<glyph unicode="Z" horiz-adv-x="2406" d="M45 63v74q10 13 16 47q1 11 2 20.5t2 13.5t1 5q77 95 247 252l256 240q25 22 353 327q26 24 92.5 89.5t115.5 113.5q43 30 93 88l174 189l-8 6l-218 -10q-19 0 -41 10l-77 -19l-447 -32q-32 -3 -53 12q-27 3 -51 18q-20 28 -49 62q0 16 2 39q3 18 3 34t-3 31l32 94 q13 23 52 45q55 15 127 21l579 45h238q92 -8 243 -37q15 -15 66 -59l43 -113v-117q-24 -31 -174 -221q-14 -18 -203 -223q-8 -4 -15 -9t-17.5 -15t-17.5 -17.5t-24.5 -26t-29.5 -30.5q-90 -93 -127 -115q-35 -37 -158 -160q-7 0 -16 -6q-131 -162 -265 -258q-24 -31 -45 -61 q-18 -12 -59 -56l8 -6h13l309 19l964 -13l119 13l72 -11q2 2 31 15l120 -15l56 -28q10 -30 47 -92q0 -1 -1 -5t-1 -6q0 -6 4 -22q0 -3 -8 -31q-6 -15 4 -25l-21 -20v-12q1 0 19 -9q0 -2 -15 -24q-14 -20 -14 -29q-20 -4 -45 -18l2 -8v-15q-14 -7 -29 -10q-10 -3 -10 -8 l-598 22q-10 -10 -18 -10h-211q-7 0 -13 2t-12 2q-13 0 -29 -2t-28 -2q-29 0 -119 -4l-8 8l-477 -16l-361 -33q-9 -6 -18 -18l-170 -29l-72 23h-47q-13 13 -33 28l2 8q0 2 1 8t1 9q-1 1 -4.5 5t-10 12t-13.5 16q-25 28 -25 40z" />
<glyph unicode="[" horiz-adv-x="780" d="M10 -387q13 27 31 90q-2 8 -2 45q1 3 2.5 9.5t5 20t6.5 25.5l-4 281l8 299l37 901q47 348 115 469q10 6 65 47l433 76q10 -1 67 -21q0 -13 31 -59q22 -32 22 -70v-16l9 -12v-29q-18 -18 -19 -20q-21 -67 -131 -82q-40 -17 -119 -29q-69 -12 -94 -29q-9 -47 -27 -129 l-24 -544v-435l-10 -122v-213l14 -246h244q83 -18 112 -43q29 -29 29 -92q0 -49 -45 -88q-13 -13 -104 -70q-17 -6 -191 -55q-192 -50 -238 -50t-104 43q-68 52 -96 66q0 2 4 10z" />
<glyph unicode="\" horiz-adv-x="1259" d="M-121 1640v132q0 15 23 59q23 39 41 45q16 0 32 2l14 2l10.5 1.5t4.5 0.5q38 0 72 -24l63 -48q3 -27 82 -143l334 -760l-4 -12q10 -24 39 -80q17 -52 49 -129q69 -136 113 -225q12 -15 39 -45q0 -1 4 -25q2 -12 2 -22l192 -351q97 -179 205 -315q36 -56 82 -102 q5 -9 57 -99q3 -40 17 -77q-5 -25 -11 -43q-78 -37 -100 -37q-2 0 -18 16q-7 -10 -21 -16q-4 -4 -4 -19q-19 -12 -68 -63h-20q-37 16 -53 16l-119 135v25q-69 100 -207 354q-22 41 -48 85t-30 52q-33 59 -51 119q-38 54 -61 109q-1 2 -3.5 9.5t-7.5 22t-10 29.5 q-4 7 -96 170q0 4 6 10q-9 15 -53 125q-25 63 -66 99q0 12 10 22q-16 33 -26 60q-39 33 -39 61q0 17 2 27q-36 80 -68 129q0 10 -18 75q-15 15 -31 52q-3 15 6 30q-9 14 -28 37q0 25 -49 107q-52 90 -52 102q-11 8 -67 139q-10 28 -49 92q0 2 -11 48q-3 10 -5.5 19 t-3.5 12.5t-1 4.5z" />
<glyph unicode="]" horiz-adv-x="1064" d="M-143 1722q0 3 12 41q14 44 14 45q21 33 115 76l352 -47q2 0 6 4q12 4 33 4q13 0 27 -2h26q26 0 37 8q26 -13 60 -10l174 14l106 -14l51 -49h29q70 -110 70 -166q0 -12 -4 -24l24 -146l-14 -307l-144 -1372q0 -4 11 -19l-11 -217q0 -20 -79 -102q-55 -27 -78 -27 l-463 -16q-94 -3 -209 47q-138 61 -129 158q6 26 37 51q29 10 82 24q182 27 219 27l211 25l45 356v74l20 209l109 845v271l-21 14h-147l-123 16h-65l-88 5q-57 4 -181 26q-114 82 -114 178z" />
<glyph unicode="^" horiz-adv-x="1089" d="M80 1319l371 534q23 13 59 13q124 0 276 -117q25 -18 105.5 -80t138.5 -106q34 -6 103 -66q8 -11 8 -29q0 -16 -8 -32l30 -15l4 -4q0 -8 -39 -31v-43l-41 13h-8q-9 -15 -32 -25q-24 4 -50 4q-5 0 -69 37q-75 39 -135 76q-30 17 -187 147h-14l-201 -276q-2 2 -10 6 q-7 -7 -12 -22q12 -6 12 -11q-16 3 -53 -24l-35 -11q0 -22 4 -22h-18q-9 -9 -9 -10h-18q-18 -15 -41 -19q-46 15 -131 113z" />
<glyph unicode="_" horiz-adv-x="2101" d="M68 -197q0 35 16 78q20 20 51 47l174 4l680 -14l744 31q7 0 53 16l20 -10l211 25q68 -40 119 -60q29 -37 62 -110q8 -15 30 -52v-18q-8 -4 -35 -45q-34 -27 -110 -33l-359 -27l-1130 -24q-169 -3 -215 -25q-2 0 -14 4q-14 7 -15 7h-10q-2 -2 -2 -7q0 -2 6 -8 q-9 -6 -29 -6q-2 3 -8 11t-8 10h-106q-8 7 -74 57q-5 24 -29 51q-22 61 -22 98zM446 -416q7 0 13 6q-3 -8 -8 -8q-2 2 -5 2z" />
<glyph unicode="`" horiz-adv-x="872" d="M27 1724l4 19q-4 8 -4 14q-3 14 10 43q20 35 59 41q69 6 115 -37q15 -4 37 -12l256 -174q144 -99 282 -129q9 -19 35 -33q35 -54 33 -63l27 -17q0 -8 -15 -20q0 -11 8 -19q-2 -2 -8 -7t-10 -9l4 -31q-65 -14 -65 -24q4 0 4 -9l-23 -2q-89 25 -133 37l-422 246 q-54 31 -145 107q-2 4 -23 10q-26 60 -26 69z" />
<glyph unicode="a" horiz-adv-x="1384" d="M47 276q0 35 80 218q68 74 102 77q20 20 148 105q48 20 207 88q141 35 141 37q3 0 9 -0.5l18 -1.5l24 -2q43 -2 57 -2h7q59 -26 59 -60v-8q19 -16 31 -43q4 -9 8.5 -19t6.5 -14.5t3 -7.5q6 2 19 2q46 0 86 -37q63 -100 116 -192q73 -124 99 -207q-8 -11 -33 -40t-41 -50 l-35 6q-1 -1 -6 -11t-10 -16q-9 4 -41 25h-4q-29 0 -111 65q-17 36 -90 138l-264 -199l4 -8q6 -6 6 -8q-10 -16 -39 -31q-4 -2 -21 -11t-28 -14q-70 -21 -123 -37.5t-75.5 -24t-20.5 -7.5q-154 0 -246 120q-43 116 -43 170zM346 311l57 -6q207 53 326 172q8 8 47 37h-53 q-27 0 -125 -39q-43 -16 -113 -45q-67 -41 -135 -106z" />
<glyph unicode="b" horiz-adv-x="1536" d="M51 752q0 33 29 86q30 47 63 67l7 512q1 3 6 45q0 67 8 166q6 93 49 160q7 7 25 22q43 19 49 19l20 -4q18 -6 21 -6q11 -25 49 -78q18 -44 31 -99q0 -28 2 -55q6 -49 6 -74l20 -487q3 -7 13 -10q5 3 14.5 4t26.5 2t30 2l209 18l203 -4q24 0 82 -6q76 -14 143 -31 q14 -7 41 -22q81 -17 172 -105q81 -81 103 -149q34 -107 39 -107q1 0 1 3q0 -15 -69 -156q-32 -19 -41 -55q-118 -109 -291 -195q-196 -87 -293 -129q-47 -9 -112 -29q-77 -22 -78 -22l-7 1q-8 1 -14 1q-10 2 -22 2q-31 31 -60 31h-12q-8 16 -25 36q-6 -6 -18 -30 q-9 -24 -16 -31q-21 -9 -45 -6l-21 -21h-16q-5 0 -58 27q-4 -2 -12 -4t-18 -2q-52 43 -52 74q-24 30 -30 88q-19 33 -23 59q-1 5 -3.5 24t-4.5 33q-11 60 -12 43v107q-10 68 -8 78q-2 8 -2 28q0 25 4 37q-10 20 -66 41q-37 46 -37 101zM440 657l4 -16q7 -11 7 -14v-109 l38 -268q4 4 11 4q2 7 12 20q86 49 262 115q177 66 219 100q37 6 187 132v16q-29 33 -68 57q-107 43 -252 49q-24 9 -29 9l-202 -11q-59 -3 -189 -51v-33z" />
<glyph unicode="c" horiz-adv-x="1275" d="M61 279q0 46 31 137q29 87 53 108q162 168 512 324q7 3 34 15.5t48 21.5q9 0 109 33q76 24 129 24q8 0 22 -2t29 -2q11 0 27 4l47 -135q-12 -27 -45 -64l4 -14q-3 -2 -31 -15t-106.5 -48t-149.5 -68q-12 -8 -43 -39q-114 -39 -182 -67q-88 -37 -133 -125q4 -4 4 -11 q56 -39 168 -39l463 52l123 -31l10 -23q2 -15 2 -34t-2 -43q-17 -33 -66 -58q-75 -40 -82 -47q0 -21 -24 -33q-61 -32 -199 -57q-53 -33 -102 -33q-15 0 -27 4q-22 -19 -68 -22q-42 -4 -67 -8l-117 16q-1 0 -2.5 -0.5t-5 -1.5t-6.5 -2q-8 -2 -17 -2l-71 20l-23 -4 q-13 0 -71 21q-40 17 -66 26q-109 121 -109 222z" />
<glyph unicode="d" horiz-adv-x="1581" d="M51 246q0 51 33 160q19 26 51 61q235 166 647 246q35 7 209 35q22 3 35 16l29 850q4 8 8 24q11 77 29 144q68 107 151 110q108 -51 108 -199q0 -12 -1 -24q1 -4 2 -14t2 -15q5 -2 14 -24l-8 -985l-33 -129h-57q-27 -37 -70 -37q-8 0 -41 8q-36 8 -43 8 q-39 -6 -160.5 -14.5t-189.5 -26.5q-103 -27 -203 -70t-100 -77q0 -31 188 -33h28q172 0 312 23q59 8 142.5 30t137.5 40l54 18q35 -6 57 -6q19 0 27 2l16 -19l-14 -24q19 -14 45 -21q0 -9 -29 -24q-30 -18 -30 -48q0 -14 8 -30q-11 -15 -62 -41q-57 -28 -69 -43 q-84 -37 -184 -82q-10 0 -33 -4q-40 -4 -43 -4l-99 -21q-54 0 -104 -4l-41 -6l-98 6q-9 0 -17 -8q-24 -3 -77 -6l-58 -2h-6q-58 0 -246 49q-45 12 -118 51q-45 36 -60 76q-39 33 -39 84z" />
<glyph unicode="e" horiz-adv-x="1277" d="M66 406q0 96 84 237q95 154 206 199q4 2 33 2q51 42 170 71q108 27 182 27q68 0 156 -49q-2 -2 -2 -25l45 -10q0 -5 12 -20q0 -31 29 -97v-43q0 -8 -12 -20q6 -9 6 -23q0 -21 -19 -49q-1 -6 -2 -20t-2 -21q-12 -17 -69 -66.5t-109 -84.5q-49 -33 -127 -69t-131 -55 l-53 -20q20 -11 110 -26t158 -15q52 0 144 21.5t159 43.5l66 21q1 -1 14.5 -24t26.5 -40.5t26 -27.5q-20 -30 -34 -59q-15 0 -21 6q-15 -4 -35 -18q35 -15 58 -29q-13 -3 -56 -43q-73 -22 -127 -33q-27 -15 -37 -45l-253 -33q-277 18 -439 125q-117 120 -147 277 q-10 27 -10 35zM377 512q12 0 22 -10q20 8 61.5 21.5t72.5 27t61 33.5q54 38 119 110q0 -3 -4 4t-11 23q-32 -13 -85 -29t-87 -37q-103 -65 -149 -143z" />
<glyph unicode="f" horiz-adv-x="1357" d="M70 430q0 56 92 174q14 6 43 12q31 9 47 0q26 13 57 13q15 0 23 -2l8 8v65q0 1 -1 5.5t-3.5 15.5t-5.5 22q-3 12 -5.5 23t-4 16t-1.5 6v134q0 112 27 284q29 197 78 307q124 275 293 302q15 6 190 45h8q43 0 121 -27q7 0 13 4q6 2 14 2q-5 0 3 -3q13 -5 46 -13 q10 10 18 10q50 0 306 -119q140 -104 223 -207q-5 -8 4 -47q10 -42 10 -49v-22q-4 -8 -24 -31q-16 -19 -11 -35q-9 -9 -49 -18q-34 -7 -51 -15h-16q-47 47 -61 47h-1q-3 29 -55 72q-53 41 -88 41q-51 40 -182 82q-128 41 -199 41q4 0 -1 -2q-23 -6 -110 -21q-33 -16 -73 -59 q-5 -5 -41 -72q-60 -240 -60 -508q0 -10 1 -24.5t1 -18.5l15 -182q15 -12 28 -12l375 14q32 -6 43 -10q8 -12 21 -25h3q24 0 58 -39q-2 -4 -14 -16v-14q11 -11 20 -11q-8 -8 -8 -20q0 -8 2 -12q-28 -17 -41 -41q-36 -9 -102 -56q-151 -39 -207 -51q-9 -3 -29 -20 q24 -35 70 -117q24 -120 27 -120q1 0 1 1v-16l-67 -41v-17h-57q-11 -11 -11 -26q-45 10 -53 10l-20 -4q-54 57 -154 135q-1 2 -36.5 53.5t-61.5 87.5h-29q-2 0 -6.5 -1t-14.5 -4t-20 -5q-38 -10 -39 -10h-92q-67 0 -92 25q-92 3 -92 106z" />
<glyph unicode="g" horiz-adv-x="1284" d="M-375 -565l70 104q5 4 98 68q10 -7 10 -23q0 -14 -10 -26q4 -2 12 -2q7 4 7 18q21 8 53 16l-2 -34l-19 -15q4 -5 17 -39q24 6 30 6q-11 -25 -36 -63v-20q3 -2 8 -11q0 -47 4 -86q10 -20 20 -35q60 -46 82 -57q37 -14 140 -20l90 -4q4 0 34 6q31 8 35 8q1 0 5 -1t6 -1 q6 -2 12 -2q19 0 119 14q52 25 104 43q89 31 174 76q35 22 66 53q161 100 161 373l-63 393l-8 8h-21l-276 -88q-16 5 -72 8q-10 -1 -19 -1q-102 0 -237 85q-158 100 -158 199l11 41q-4 16 -4 27q0 71 71 163q68 86 115 95q80 45 201 67q15 2 76.5 12t107.5 17l133 6 q16 -3 59 -15t66 -18q72 -21 123 -61v-25q47 -21 59 -88q3 -5 11.5 -18t13.5 -21q-13 0 -17 -4q0 -37 3 -37h2q-8 4 -21 4l-8 -8q13 -33 49 -100q3 -8 0 -16q26 -222 47 -369l27 -209l-6 -199q-24 -209 -127 -354q-7 -11 -80 -90q-17 -7 -72 -53q-62 -35 -102 -45 q-6 -4 -92 -54q-4 -1 -103 -41l-325 -53l-158 -6q-1 0 -4.5 1t-11.5 3t-17 4q-52 6 -139 33q-72 17 -101 33q-36 27 -108 78q-18 29 -53 55q-62 142 -62 151v144zM-188 -399q14 0 14 4q0 -3 -6 -6q-1 -1 -3 -1zM354 436q0 -3 6 -12q111 -27 154 -27q78 0 182 37 q126 44 146 101l-101 8l-196 -17q8 0 -28 -14q-43 -16 -130 -45q-2 -2 -13.5 -12.5t-19.5 -18.5z" />
<glyph unicode="h" horiz-adv-x="1513" d="M72 403v203q0 19 4 23q2 0 2 -2l20 411q5 47 8 66q-4 24 -4 33q0 24 11 39q-4 10 -4 51q0 61 41 456q14 31 53 54h20q39 0 101 -68q28 -31 49 -61q26 -127 26 -172v-9l-24 -282v-76l-10 -92v-303l8 -8q13 9 56.5 38t74.5 50q42 32 139 110q39 14 107 49q140 76 266 76 q1 0 4 -1t9.5 -3.5t14.5 -5.5q30 -10 35 -10q118 -15 256 -242q51 -121 51 -217q0 -5 -1 -15.5t-1 -15.5l-30 -405q16 -66 16 -133q0 -1 -0.5 -4l-1.5 -9l-2 -12q0 -10 -1 -19t-1 -10q-28 -3 -37 -30l-47 -17q-27 16 -82 49q-81 97 -78 134q-30 39 -30 134q0 23 2 50l20 328 v13q0 114 -98 114q-8 0 -37 -11q-231 -15 -574 -405q-30 -27 -133 -74q-2 -2 -22 -18l-15 14q-14 0 -22 -2l-8 -2q-7 21 -13 37q-13 -3 -45 -17q-10 12 -30 29q-43 151 -43 190z" />
<glyph unicode="i" horiz-adv-x="532" d="M119 332l6 180l25 119q26 21 36 51l54 12q12 0 32 -14q16 -19 90 -100q33 -56 33 -103v-125q0 4 -2 -1l-2 -11q0 -11 -4 -51q-2 -29 -2 -90v-103l-31 -73l-22 4q-9 -6 -21 -15q-3 1 -10 5t-10 6q-3 -1 -11 -5.5t-10 -5.5q-12 8 -84 25q-35 55 -63 203q-5 27 -5 61 q0 15 1 31zM217 1139l10 112q9 3 33 27h64q27 -16 67 -72q26 -10 37 -41q12 -33 25 -59q-8 -12 -17 -21q10 -27 10 -47q-10 -16 -53 -37q-5 5 -20 5q-16 0 -21 -5q-47 23 -98 31q-39 90 -37 107z" />
<glyph unicode="j" horiz-adv-x="788" d="M-156 -543l9 58q2 -1 9 -7.5t13 -9.5q17 17 21 17q10 -17 10 -19q32 -25 117 -100l151 -70q93 -43 141 -43q27 0 43 8q54 126 70 273q22 184 23 256l4 278l-37 367v188v-4q5 0 26 64q13 13 58 47q25 -10 53 -10q16 -41 82 -140q46 -70 55 -129q1 -21 4 -65.5t4 -67.5 l5 -80l26 -231l-14 -549q0 -29 -39 -233q-22 -140 -90 -283q-51 -51 -111 -51q-17 0 -160 30q-57 24 -92 29q-70 43 -190 117q-11 27 -60 67q-23 47 -55 95q-24 55 -76 198zM371 1001v148q3 5 22 20h15q1 0 4.5 -1t12.5 -3.5t19 -5.5q33 -10 43 -10q6 -32 48 -41 q7 -32 30 -64v-61q0 -26 -55 -53h-33q-29 0 -86 31q0 2 4 10q2 6 2 12q-13 13 -26 18z" />
<glyph unicode="k" horiz-adv-x="1460" d="M61 186v103l144 1184q0 6 8 45q10 48 10 61q3 33 -2 51q21 129 27 150q21 80 61 104q42 0 99 -57q53 -56 71 -105q0 -6 10 -51l9 -41l-31 -399l-21 -127v-57l-26 -256l8 -13q249 125 557 291q76 23 160 72q18 9 31 6l153 88q24 -3 49 -25l45 -45q7 -14 7 -41 q9 -12 26 -18l14 -94q-18 -28 -36 -74l-803 -420q5 -2 19.5 -9t23.5 -11q122 -19 122 -23h-1q6 0 12 6q215 -59 293 -80q8 -3 24 -7t47.5 -12t57.5 -15q2 -1 16 -12t44.5 -33.5t64.5 -47.5q0 -11 -11 -22q23 -26 31 -51l-16 -15l6 -4v-28q-21 -15 -64 -58l-167 -20l-408 57 q-201 27 -354 117h-15q-16 -16 -16 -57l1 -71q1 1 1 3q-1 -10 -3 -24t-5.5 -34.5t-5.5 -35.5q-30 -43 -90 -43q-12 0 -15 6q-4 -8 -4 -10h-22q-19 22 -58 51h-12q-2 -3 -8 -10.5t-8 -10.5q-39 51 -39 56v65z" />
<glyph unicode="l" horiz-adv-x="528" d="M63 186l84 723q33 269 82 754q4 16 31 115q17 68 51 102l43 -4q27 -27 54 -37q6 -12 49 -67q32 -88 32 -119v-109l-180 -1585q-35 0 -71 -16q-13 0 -23 10l-12 -2q-8 -2 -25 -2q-1 1 -6.5 5.5t-19 15t-25.5 20.5q-11 0 -25 -17q-9 27 -20 47q-19 143 -19 166z" />
<glyph unicode="m" horiz-adv-x="2045" d="M68 293q3 71 49 274q10 53 39 168q35 70 37 70q0 5 -3 8q70 35 70 37q29 0 74 -66q50 -75 55 -82q4 -2 33 17q95 87 170 143q111 82 184 96q18 3 31 23q50 18 65 18q51 0 115 -110q34 -61 68 -133l26 -152q5 5 68 51q21 14 55 52q82 95 205 174q142 88 236 88 q63 0 139 -88q74 -89 80 -170q13 -62 39 -170l4 -140q-1 -7 -3 -29.5t-6 -73.5t-8 -97q-31 -94 -28 -97q-12 -12 -23 -8l-20 -35q-20 2 -105 27q-17 24 -51 55q-16 43 -16 90v269l-45 135q-7 -4 -11 4q-12 -6 -59 -20q-115 -21 -250 -168q-10 -21 -184 -263q-4 -10 -78 -145 q-2 2 -53 -14q-4 4 -21 4q-15 -11 -37 -25q-5 9 -15 26t-11 19q-13 13 -29 21h-14q-5 0 -11 -6q-8 -4 -12 -4q6 0 -26 32l-5 160l29 326q0 18 -10 73q-1 -1 -8 5q-34 -13 -70 -29q-26 -26 -65 -60q-120 -82 -213 -229q-86 -92 -138 -211q-22 -19 -6 -35q11 -14 2 -14 q-10 -2 -121 -2q-47 68 -98 68q3 11 -12 57q0 3 -4 39q-3 24 14 33z" />
<glyph unicode="n" horiz-adv-x="1234" d="M53 215v3v-1l17 129q5 47 16 100q3 23 13 75t14 73q9 69 59 203l53 24q33 -7 43 -10q0 -21 19 -37q9 -10 19 -20.5t11 -10.5q7 -29 27 -61q2 -8 5 -20.5t7.5 -32.5t8.5 -37q173 102 233 186q15 5 57 41q27 17 170 94q56 17 78 17q18 0 92 -51q65 -102 111 -310l-6 -166 l-31 -329l-41 -117q-10 -2 -37 -23h-16q-6 0 -23 17h-12l-18 -6q-2 2 -72 59q-17 49 -33 98l-2 107l19 289v75q-1 2 -3.5 5t-6 7t-5.5 7q-91 -42 -135 -68l-205 -217q-125 -134 -190 -254q-29 -16 -64 -16q-9 0 -39 12l-10 -16q-5 0 -35 6v27l-28 18q-1 0 -11.5 -4.5 t-19.5 -9.5q-14 33 -23 67q0 27 -4 51q0 7 -1 16.5t-1 10.5z" />
<glyph unicode="o" horiz-adv-x="1400" d="M74 410l10 94v147q0 5 18 66q23 69 25 84q21 53 154 139q18 5 71 18q15 11 33 19q4 -4 12 -4q19 6 58 18q62 19 100 19h193q30 0 73 -15h3q71 0 276 -131v-20q32 -28 90 -64q20 -20 86 -164q12 -70 12 -133q0 -78 -45 -129q-1 -3 -2.5 -8.5t-4.5 -15t-5 -17.5 q-21 -26 -109 -129q-16 -10 -93 -59.5t-116 -73.5q-232 -78 -346 -78h-67q-10 0 -25 9h-3q-27 0 -161 38q-61 38 -155 119q-12 21 -50 86q-32 111 -32 185zM319 416l7 -21q28 -35 102 -65q76 -29 121 -29q128 23 139 23l162 63q121 50 160 86q49 43 49 76v26 q-83 132 -150 132q-1 0 -4 -1t-4 -1q-5 -5 -6 -5h-12q-19 31 -93 31h-14l-110 -4l-246 -47l-12 -16v-37q0 -8 10 -31l-21 -21q2 -6 5 -12t4.5 -8.5t1.5 -3.5q-17 -14 -31 -21q0 -1 -3 -6t-11 -17.5t-15 -25.5q-29 -53 -29 -65z" />
<glyph unicode="p" horiz-adv-x="1632" d="M-121 578v90l19 26q-1 4 -1 9q0 38 48 75q13 9 39.5 29t40.5 29q7 17 20 30q21 -6 27 -6l338 160l211 61q38 -14 81 -14q4 0 19 6q4 1 8.5 2t6.5 1.5t3 0.5h105q2 0 12 10q38 -6 98 -20q27 0 86 -6q46 -6 95 -31l5 1q4 1 9 1q12 4 14 4q115 0 252 -155q56 -75 78 -109 q63 -155 63 -233q0 -1 -1 -4t-4 -10.5t-5 -14.5q-10 -30 -10 -37q0 -57 -59 -125q-60 -72 -121 -96q-52 -15 -58 -35l-215 -108l-206 -68l-7 6l-352 -88q-9 6 -16 6q-12 0 -21 -6l-96 41l-29 -203v-61l-30 -307l6 -211l-17 -176q-15 -9 -43 -37q-14 -3 -22 16q0 -2 -6 -8 l-13 -12h-4q-14 0 -32 18q-82 36 -103 137q-18 147 -18 156v223l30 402q6 83 111 645q30 77 78 80l41 -7q39 -25 59 -67q7 -17 15.5 -34t12.5 -26t5 -12q1 2 1 -2q1 -6 1 -43l-20 -209q0 -19 8 -43q129 58 291 117q174 27 374 129q11 5 31 8q43 29 62 35q39 35 110 104 q-17 44 -78 80q-96 54 -104 62l-21 -6l-37 20l-10 -2q-6 -2 -12 -2l-119 29l-241 -5q-17 0 -35 -4q-46 -8 -47 -8q-173 -21 -287 -82q-29 -3 -109 -47q-100 -51 -100 -98q0 -20 20 -49q-5 -8 -16 -8q-11 -11 -8 -25q-6 0 -12 2q-4 2 -11 2q-4 -11 -10 -31q-5 0 -27 11 q-3 0 -14 -11h-29q-10 15 -22 27l-12 -10q-25 36 -47 47q-3 33 -9 53z" />
<glyph unicode="q" horiz-adv-x="1296" d="M53 174q0 86 58 203t143 201q44 44 66.5 65t65 56t88 60t97.5 44q81 30 248 47q40 3 68 6q53 0 112 -12q25 -19 41 -19q15 -22 23 -47q29 -18 51 -47q3 -8 -6 -26l16 -25v-16q-2 -2 -8 -23q-6 -18 -29 -27q-15 -6 -24 -12q6 -4 24 -22h-149q-99 0 -143 -41 q-190 -25 -318 -130q-56 -47 -62 -73q-2 -8 5 -7q4 0 10 3q-13 -9 -18 -23q10 -16 43 -16q3 1 11 2t26 3.5t34 4.5q46 6 52 -10l534 143q62 -50 90 -149q12 -47 33 -135q6 -53 12 -89q3 -27 8 -43q0 -6 1 -6l1 4v-118l13 -146l-6 -377q-16 -92 -19 -180q-23 -88 -49 -180 q-60 -17 -60 -22q0 -1 1 -1q-26 0 -88 33l-41 146v743l-21 182l-10 15h-29l-268 -82l-4 4q-5 -3 -8 -8l-297 -54q-6 -2 -19 -2q-55 0 -159 49q-140 65 -140 154z" />
<glyph unicode="r" horiz-adv-x="1425" d="M55 211v86q0 1 1 5t1 7q4 12 4 13v92q0 43 29 139q37 125 82 125h31l35 -31h14q30 0 184 101q35 15 145 62.5t189 82.5h1q8 0 101 41q17 0 95 16q20 4 38 8.5t25 6.5t8 2h101q105 0 247 -142q6 -6 9 -24q24 -27 24 -51v-29q-3 0 -26 -10q0 -7 -4 -15l20 -20 q-14 -14 -49 -19q-39 -8 -45 -14l-187 41q-44 -5 -131 -18q-92 -34 -180 -56q-168 -69 -287 -123q-169 -78 -213 -237q0 -2 1.5 -11t4 -28.5t5.5 -40.5v-33q-14 -29 -15 -31q-6 -17 13 -30l-103 -64h-18q-10 6 -55 41l-27 -4q-1 1 -14 19t-21 32q-1 2 -20 47 q-3 17 -6.5 33.5t-5 23t-1.5 7.5z" />
<glyph unicode="s" horiz-adv-x="1107" d="M72 236q73 28 90 28h76l102 15h68l167 20l15 12q-13 13 -25 23q-2 1 -42.5 17.5t-73.5 31.5q-297 128 -338 287q-6 25 -19 41v108q0 7 19 43q9 109 405 109l128 -18l42 -5q130 -50 156 -65q81 -49 116 -123q0 -9 -14 -29t-14 -29l4 -12l-53 -37h-17q10 0 -7 6 q-21 7 -116 33q-143 17 -153 17l-142 -19q5 -5 5 -12q20 -15 34 -25q490 -194 490 -430q0 -38 -23 -96q-16 -29 -141 -78q-136 -53 -203 -53q-3 0 -11 1t-28.5 4t-38.5 5q-19 3 -34 3q-24 0 -41 -7l-99 21h-86q-15 0 -86 22q-16 6 -31.5 12.5t-26 11t-13.5 5.5q-6 22 -31 47 q0 10 6 16l-10 10q4 14 4 41q0 28 -10 48z" />
<glyph unicode="t" horiz-adv-x="1783" d="M51 653q0 25 23 66q24 38 47 35l364 24l240 56q24 181 76 538q53 163 84 242q40 46 82 72q21 -11 114 -72l21 -113l-86 -540v-78h141q3 -3 14 8h31q9 0 17 -2t18 -2q9 0 33 8q30 6 35 6q7 0 30 -10q33 10 150 10q-1 0 13.5 -2.5t50 -8t79.5 -11.5q40 -22 98 -45 q0 -19 -8 -27q6 -26 29 -49q16 3 27 -8h-35q-8 -20 -8 -25q0 -1 1 -3t1 -3q-21 -12 -31 -12q-53 -56 -64 -56h-86l-90 -20q-16 4 -30 4l-127 -25q-7 0 -15 2q-6 2 -16 2q-5 0 -80 -10q-116 -17 -121 -18q-30 -4 -98 -41q-47 -279 -47 -301v-78q0 -2 -17 -72q-14 -55 -14 -78 q-28 -10 -115 -53q-6 4 -18.5 12.5t-18.5 12.5q-34 22 -40 22q-43 66 -52 144q0 7 -12 133l21 162v59l-9 10h-20l-236 -47q-12 -3 -24 6l-187 -37q-30 18 -59 33q-21 9 -39 47q-6 11 -14.5 27.5t-10.5 21.5q-10 86 -12 86v-2z" />
<glyph unicode="u" horiz-adv-x="1163" d="M84 467q0 40 20 119q61 47 84 47q124 -62 127 -182q3 -53 64 -129q74 -35 74 -37h32q4 1 15 4t31.5 9.5t39.5 12.5q70 45 140 101q77 68 86 137q8 16 16 47q4 12 20 62t27 87q33 102 66 144q6 0 12 -2q8 -2 18 -2h33q4 -11 25 -29q15 -26 61 -100q6 -26 0 -62 q-5 -27 8 -47q-29 -141 -49 -217q-15 -62 -84 -184q-67 -94 -108 -135q-76 -79 -146 -91q-29 -10 -86 -36q-107 -17 -112 -17q-228 0 -398 350q-16 98 -16 150z" />
<glyph unicode="v" horiz-adv-x="1482" d="M27 467q0 35 24 70q27 38 62 38q20 0 43 -16.5t65 -54.5q32 -22 70 -66q113 -213 272 -309q176 230 355 455q169 274 346 448q23 -16 63 -22q5 -4 64 -66q20 -17 20 -61q0 -56 -49 -135q-33 -54 -90 -142q-45 -51 -92 -143q-15 -21 -35 -31q-78 -128 -271 -395 q-23 -42 -92 -148q-2 -7 -22 -69q-1 0 -35 -13q0 -14 8 -14q-18 -6 -41 -14q-30 -12 -35 -12h-65q-58 0 -92 43q-47 21 -271 260q-58 88 -92 127q-35 58 -92 155q-18 102 -18 115z" />
<glyph unicode="w" horiz-adv-x="1796" d="M68 678v80q0 34 73 92h21q22 0 80 -55q25 -5 41 -35q18 -38 24 -41q26 -100 113 -311q34 9 86 88q15 6 37 28q22 39 96 131q69 88 86 131q14 20 14 37q15 3 43 25q23 0 41 6q19 -2 74 -29q149 -105 289 -424q12 -15 49 -55q28 17 47 45q15 21 87 120t132 179 q21 27 148 160q9 -6 12 -6q-2 -5 -4 -13q-4 -12 -4 -14l8 -4l41 37q0 -5 37 -45q-4 -8 -4 -19q4 -4 20 -4q0 -10 2 -20t2 -21q0 -35 -30 -127q-6 -15 -33 -92q-16 -19 -62 -129q-46 -87 -147 -231q-115 -161 -184 -215h-64q-98 0 -199 186q-53 79 -133 246q-17 35 -53 90 q6 0 -12 6q-28 -42 -117.5 -173t-151.5 -222q-107 -68 -190 -76q-31 19 -61 47q-24 36 -64 76q-64 131 -86 184q-104 246 -104 367z" />
<glyph unicode="x" horiz-adv-x="1302" d="M66 137q9 80 63 160q6 6 111 141l-111 72q-19 54 -43 98v82q0 16 27 53q28 36 47 41h20q41 0 185 -84l145 -84q-3 0 47.5 26t192.5 99q244 125 290 125q37 0 50 -10q45 -33 67 -43q32 -36 47 -65q-16 -69 -16 -74l-21 -21v-26q-27 -18 -98 -33q-56 -33 -139 -72 q-146 -96 -158 -104q76 -71 92 -86q67 -70 117 -168q1 -4 5 -16t12.5 -36t15.5 -46q-6 -42 -51 -84q3 -23 -7 -33q-1 0 -9 -1t-15 -1q-10 -2 -21 -2q-9 0 -34 14q-29 16 -41 16q-40 40 -77.5 77t-60.5 59.5t-28 27.5q-93 87 -152 117q-72 -26 -149 -117q-78 -91 -101 -164 q-40 -37 -98 -67q-36 9 -59 41q-18 26 -39 47z" />
<glyph unicode="y" horiz-adv-x="1140" d="M78 596q0 45 22 109q14 16 58 57h14q17 0 94 -74q21 -35 33 -86q1 -5 4.5 -20.5t10.5 -46t14 -60.5q24 -110 57 -110q80 0 227 120q124 105 195 197q20 4 41 20q18 -6 53 -6q46 -55 51 -61q15 -5 21 -8q43 -52 43 -131q0 -121 -115 -502q-11 -39 -166 -465q4 -4 15 -4 h-15l-94 -223l-102 -328q-11 -8 -58 -57q-8 0 -32 -9q-21 -8 -29 -8q-7 2 -23 6q-10 10 -23.5 25t-35 39t-37.5 41q-22 81 -31 151l31 146l96 282l189 449q-4 12 -8 20q-100 -32 -154 -32q-161 0 -264 213q-82 171 -82 356z" />
<glyph unicode="z" horiz-adv-x="1327" d="M49 256q15 62 119 123q12 6 61 34.5t88 49.5q51 27 199 151q0 1 -4 9l-205 -17l-92 27q-49 37 -49 129q0 36 22 94q23 10 37 29q27 11 72 14l195 10q8 -2 28 -5.5t27 -4.5l178 10q11 1 23 1q73 0 161 -33q17 -17 17 -31q0 -1 32 -23q5 -8 22 -33t28 -42v-17q0 -1 -1 -5 t-2.5 -13t-3.5 -17q-3 -72 -81 -135q-27 -17 -78 -49t-56 -35q-78 -66 -239 -209q17 -10 45 -10q10 0 20 2t19 2l82 -14q12 6 24 14h17q10 0 20 -10q37 16 88 16l133 4h8q29 0 80 -12q1 -1 4 -3.5t8 -6.5t9 -8h24l37 6q8 -13 21 -68l20 4q-3 -10 6 -28q-7 -2 -30 -21l4 -20 q-12 -8 -35 -15l10 -6q10 -4 17 -10q-20 0 -35 10q-49 -18 -64 -20q3 -22 -6 -31l-272 -37q-15 -15 -15 -20l-315 -15h-168l-207 66q-7 20 -37 74z" />
<glyph unicode="{" horiz-adv-x="937" d="M-14 518v57q0 34 32 80q36 46 76 54q18 7 58 16q81 18 139 94q51 66 51 131q0 17 -2 25l-88 483q6 24 6 74q21 113 23 127q21 77 100 129q74 20 237 65l78 9q16 1 31 2t22 1.5t9 0.5q-1 0 13.5 -2.5t50 -8.5t79.5 -12q27 -18 53 -24q17 -36 27 -62q20 -20 25 -26v-58 l-31 -63q-14 -6 -43 -25q-31 -10 -60 -10l-256 10q-55 0 -92 -76q2 -23 2 -51q0 -18 -2 -20q16 -88 37 -174q37 -160 45 -199q7 -33 15 -57.5t11.5 -34t6 -24t2.5 -36.5q0 -101 -37 -211q-15 -26 -59 -86q10 -10 41.5 -44t52.5 -56q23 -51 23 -123q0 -150 -44 -227 l-102 -178q-100 -171 -100 -293q0 -67 30 -82q88 -33 164 -33q1 0 5 0.5t12.5 1.5t17.5 2q12 0 25 1t14 1q15 0 76 -12q0 -8 61 -35q4 -10 14.5 -31t14.5 -32q0 -16 6 -51q-37 -49 -31 -89q-45 -13 -98 -47q-98 -26 -139 -26q-71 0 -316 71q-8 19 -18 29q-90 44 -164 143 q-33 62 -33 152q0 46 27 209q1 2 2.5 4.5t4.5 7t5 8.5q11 70 82 215q10 20 49.5 72.5t69.5 110.5q3 8 6 20t7.5 32t8.5 34q-18 37 -124 43l-78 -11q-20 9 -23 27q-12 4 -35 4h-16q-9 15 -18 49q-4 3 -9.5 8t-14 13t-15.5 14z" />
<glyph unicode="|" horiz-adv-x="456" d="M61 -123l21 1221q1 57 6 240t8 307l21 116q12 71 43 107l43 -2q31 -28 55 -31q7 -12 55 -63q39 -89 43 -115l11 -109l-33 -1759l-27 -139q-30 3 -74 -17q-10 0 -20 13q-4 -2 -14 -4q-4 0 -12 -1t-11 -1q-3 5 -51 41q-8 3 -25 -17q-1 2 -22 51q-17 153 -17 162z" />
<glyph unicode="}" horiz-adv-x="942" d="M45 -547q0 64 31 92q35 35 155 90q115 50 172 119q13 54 13 92q0 44 -15 93q0 33 -4 51q-16 55 -55 203q-39 144 -39 174q0 3 12 59q15 69 15 70q16 36 61 112q-3 29 -47 88q-40 55 -37 90q-10 17 -10 23q0 75 61 221q17 42 24.5 61.5t7 22t-1 5.5t0.5 11q27 58 57 170 q9 18 9 29q0 2 -1 6t-1 6q22 77 22 125q0 32 -24 62q-20 33 -50 33q-2 0 -6 -1t-6 -1l-133 -25q-129 -12 -166 98q-6 17 -11.5 32.5t-8.5 23.5t-4 10q0 48 38 94q39 51 86 57l216 31q139 6 309 -158q95 -124 98 -315l-45 -268l-111 -303l199 -150q0 -15 -6 -129 q-7 -20 -14 -33q-28 -14 -41 -35l-50 -16q-32 -11 -45 -41q-43 -40 -43 -90q0 -22 21 -90q6 -20 17 -48.5t14 -37.5l2 -5v2l20 -71q17 -61 35 -178q0 -41 4 -78l4 -53q0 -140 -57 -229q-53 -81 -211 -164q-159 -84 -252 -84q-30 0 -72 28q-48 37 -96 52q-9 5 -25 2z" />
<glyph unicode="~" horiz-adv-x="1566" d="M70 1393q1 2 8.5 18.5t19 40t25.5 49.5q12 9 49 43l195 172q143 76 274 76q46 0 174 -43q37 -18 113 -68q120 -93 123 -94q22 0 67 31q79 39 320 223q12 10 49 29q34 4 49 8q27 -11 66 -25v-8q9 -12 26 -12q2 -2 2 -4t-4 -14q15 -15 25 -23v-61q0 11 -24 -24q-2 -3 -5 -7 q-49 -56 -137 -141q-60 -43 -94 -82q-165 -124 -258 -127q-36 -9 -34 -12q1 -1 5 -1q-16 0 -49 11q-64 19 -68 20q-68 18 -180 121q-101 94 -150 94q-12 0 -77 -33q-64 -34 -93 -34l-247 -209l-12 2l-9 1.5t-4 0.5q-13 -3 -45 -17q-29 12 -47 17q-53 74 -53 82z" />
<glyph unicode="&#xa1;" horiz-adv-x="546" d="M84 -233q0 51 4 112q4 80 4 139q29 303 92 834q-2 20 -2 92q6 33 29 115q44 30 41 51q44 20 67 20l56 -4q108 -64 108 -235l-7 -32q-4 -23 -9 -56q-35 -199 -43 -295q-6 -79 -20 -307.5t-23 -358.5l4 -221q-16 -13 -25 -65q-64 -43 -124 -43q-36 0 -78 36q-20 32 -49 66 q-25 28 -25 55v97zM252 1653q0 -7 2 1q1 5 5 33q1 2 1 3q-2 8 -2 20q0 31 35 66q-2 11 15 25.5t50 29.5q48 -18 78 -25q32 -19 60 -71q20 -36 20 -62v-10q8 -19 8 -41q0 -46 -30 -76t-72 -30q-64 0 -86 10q-20 29 -60 67q-24 21 -24 60z" />
<glyph unicode="&#xa2;" horiz-adv-x="1165" d="M27 623q0 30 6 39q-3 8 12 26q44 146 203 266q132 99 289 146q26 16 73 49q0 2 2.5 8t8 19.5t10.5 25.5q14 40 14 53q0 9 -2 11q16 23 19 37q14 53 49 170q14 11 14 34q4 11 92 140q12 3 33 12q15 -6 47 -6q32 -24 41 -31l35 -70q3 -40 12 -120l-61 -197v-25q6 -2 18 -14 q-1 0 12.5 -1t47.5 -3.5t75 -5.5q15 -18 72 -72v-94q0 -5 -8 -16q3 -19 -23 -66q-22 -42 -43 -53q-12 4 -20 4q-7 0 -23 -4q-3 -3 4 -6q22 0 62 -19l-140 4q-2 0 -6.5 -1t-16.5 -4t-22 -5q-41 -12 -43 -12l-24 6q-20 -11 -33 -41q-15 -35 -20 -45q-6 -19 -78 -264v-52 l12 -12q6 -1 139 -35q88 -24 181 -24l13 -45l3 -13l-10 -12q10 -52 10 -59q14 -14 14 -23q-14 -3 -37 -18q-20 -25 -34 -43l-140 -31q-46 -3 -129 0q-6 0 -26 -10q-10 10 -15 20q-4 -4 -32 -20q8 -8 20 -8q-30 -12 -37 -15q-14 -14 -31 -69q-19 -61 -28 -68q-8 -8 -23 -51 q-6 -6 -16 -6q-8 -8 -33 -56q-12 16 -78 78q-16 137 -28 215q-4 6 -17 19q-27 4 -47 14q-5 1 -21 3.5t-26 4.5q-42 33 -76 47q-4 4 -86 76q-1 2 -31 41q-15 37 -49 86q-10 17 -10 57q-4 9 -8 25q-6 16 4 33l-10 10zM340 578l106 -78l41 151l-6 43q-93 -41 -141 -98v-18z" />
<glyph unicode="&#xa3;" horiz-adv-x="1531" d="M78 193q10 75 16 98q3 65 64 178q89 117 202 135q68 19 84 19h56l22 206l-10 78l-162 13l12 12q-8 6 -30 6q-14 38 -41 68q-19 52 -19 79q0 70 131 70h113q1 1 2 4t2 4q6 38 6 78q0 18 -4 64q13 47 13 84q6 27 21.5 95t21.5 95q12 25 26 78q43 58 72 90q67 45 108 61 q17 4 47.5 11.5t42.5 9.5l48 12q6 3 6 3.5t-6 0.5h14q10 -2 41 -2q101 -20 207 -78q127 -70 166 -161q3 -14 5.5 -29t4 -23t2.5 -14.5t1.5 -8.5t0.5 -1q0 -10 -21 -78l-8 4q-25 -35 -47 -59q-11 0 -22 14l-19 -2l-59 88v25q-34 51 -156 90q-6 -3 -24 -6q-80 -3 -93 -29 q-79 -42 -96 -143q-1 -3 -4 -21t-9 -59.5t-13 -81.5l4 -90q1 -2 12 -13l287 27q14 -2 43 -4q11 -1 24.5 -2t20.5 -1.5t10 -0.5q27 -3 88 -31q3 -16 27 -31q2 -3 6 -13.5t6 -16.5q1 0 8.5 -5.5t13.5 -9.5l-18 -14q0 -6 6 -12q-2 -2 -2 -17q-15 -12 -53 -24q0 -1 -1 -2t-1 -2 q0 -3 4 -15q-39 -5 -129 -37q-231 -34 -272 -34h-9q-13 -13 -22 -19q10 -10 16 -10q-27 -4 -61 -14l-13 -318q-6 -18 -6 -41q0 -4 1 -12t1 -12q21 -25 146 -105q146 -96 184 -96l26 2h-1q0 -4 10 -4h53q8 0 64 12q27 0 108 47q80 45 92 45q15 0 39 6q17 -13 23 -32l10 -2 q22 -35 41 -41q-4 -13 -12 -31q2 -2 12 -2q0 -6 18 -33q-6 -4 -22 -20q0 -12 10 -15l-69 -69q3 -3 26 -13q-47 -35 -137 -79q-164 -37 -178 -37q-9 0 -21 -2h-22q-104 0 -223 67q-9 6 -38.5 24t-79.5 49.5t-104 65.5q-3 -7 -12.5 -27t-15.5 -34q-41 -140 -148 -238 q-103 -63 -188 -57l-137 10q3 23 -21 23l-16 -4q-37 22 -107 133q-2 8 -2 20v11zM338 182q11 0 14 -10l4 -8q6 8 25 18l65 144v36h-10q-30 0 -67 -61q-17 -34 -23 -49q14 -10 14 -12q-6 -2 -22 -4v-54z" />
<glyph unicode="&#xa5;" horiz-adv-x="1585" d="M84 1606q0 19 29 75q23 45 34 52q20 10 99 22q30 -30 59 -39q9 -9 40.5 -42.5t55.5 -57.5v-21q173 -328 248 -467q45 -69 158 -256q2 -4 22 -14l615 799l98 31q25 -3 55 -27q31 -25 39 -25q6 -21 6 -34q0 -16 -6 -19v-16q2 -30 6 -29l35 -37q0 -1 -14 -47 q-2 -2 -13 -14.5t-38 -42t-56 -60.5q-123 -138 -188 -215q-125 -147 -201 -299q-48 -45 -114 -157q-3 -51 -58 -115q40 -19 250 -43q201 -20 309 -82q1 -3 2.5 -8t4 -15.5t4.5 -19.5q-17 -14 -17 -35q0 -17 6 -35q-51 -42 -84 -45l-149 -12h-225q-4 4 -15 -8l-159 6 q-9 0 -23 -14q-44 -281 -166 -621q-33 -30 -71 -43q-13 0 -23 10q-2 0 -14 -6q-16 -4 -19 -4q-51 0 -98 53t-41 105l115 510l-11 10h-172q-37 13 -102 10q-13 3 -66 47q0 7 -12 47q-12 38 -12 41q0 69 37 93q85 38 112 51q6 1 38.5 4.5t56.5 5.5l67 8q15 0 25 -10 q30 11 41 20l16 -10h29l8 8v15q-56 71 -115 174q-58 100 -166 301q-7 12 -33 66.5t-49 97.5q-50 103 -180 309q0 9 -6 39q-1 9 -2 17.5t-1.5 12.5t-0.5 5z" />
<glyph unicode="&#xa6;" horiz-adv-x="458" d="M156 954q0 11 8 23l-4 41l6 2q0 8 10 31q0 18 -2 53q0 21 2 41l4 2q0 43 2 47q-4 4 -6 8q11 34 14 58l-2 2v8q-3 14 7 37q0 40 -2 75q5 26 10 39q0 22 -10 52l-15 331q0 2 -1 8t-1 9t1 10t1 12q6 6 12 6l13 25l6 -6l4 8l12 2l33 -10q4 -1 16 -17q59 -12 62 -116l10 -252 v-47q-2 -20 -2 -37q1 -1 3 -4t3 -4l-4 -287l-24 -285l-7 -10q-13 -3 -20 4l-4 -6l-21 -2q-1 -1 -2 -5t-3 -8t-5 -8l-31 4l-55 54q-2 -2 -4 -2q-4 0 -6 2l4 8l6 -4l8 8q-3 9 -18 12zM166 -240q4 18 8 23l-4 41l4 4q2 4 12 29v3q0 2 -0.5 6.5t-1 10t-0.5 14.5v19v41q4 0 6 2 q-3 36 3 47q-6 6 -7 8q13 39 15 58l-2 2v10q-2 12 4 35v75q0 12 10 39q0 19 -10 52l-15 331q-2 4 -2 17q0 14 2 22q6 6 13 6l12 25l6 -6l4 10h13l32 -10q6 -2 17 -17q55 -12 61 -116l10 -252v-47q-2 -20 -2 -37q4 -4 6 -8l-6 -287l-24 -285l-6 -10q-12 -3 -19 4l-6 -6 l-18 -2q-8 -16 -11 -21q-9 1 -16.5 2t-11 1.5t-4.5 0.5l-54 54l-4 -2q-4 0 -6 2l4 8l6 -4l9 8q-3 9 -19 12z" />
<glyph unicode="&#xa7;" horiz-adv-x="1165" d="M45 1448q0 59 47 168q62 59 174 137l150 66q17 4 184 51q117 18 162 18q66 0 102 -28q25 -29 78 -60l21 -65l-11 -45q-11 -15 -32 -21q-17 -3 -75.5 -13t-99.5 -16q-21 -18 -102 -30q-69 -32 -98 -37q-163 -71 -228 -150v-61q0 -33 101 -109q30 -11 133 -67 q25 -5 205 -64q148 -107 176 -131q106 -95 106 -170q0 -3 -1 -10.5t-1 -11.5q59 -127 62 -205q8 -28 8 -41q0 -1 -8 -33q0 -16 -15 -71q-10 -18 -18.5 -35.5t-14.5 -29.5l-10.5 -21t-7 -14.5t-2.5 -6.5v-35l86 -180v-88q0 -7 -29 -109q-32 -100 -34 -102q-3 -5 -80 -119 q-14 -16 -127 -137q-14 -20 -152 -104q-106 -66 -106 -142q-8 -4 -33.5 -20t-44.5 -27q-32 3 -59 -4q4 -4 12 -4q-7 0 -37 -10q-29 -13 -31 -13q-29 0 -49 23q-44 51 -49 55q0 6 -31 70q-30 62 -30 63q0 102 90 168q164 127 213 193q195 177 233 327q-3 26 -55 78 q-16 14 -66 51q-54 30 -112 66q-45 29 -256 178q-22 28 -78 84q-5 5 -12 19q-47 47 -70 92q-14 39 -57 180q2 43 26 149q14 36 60 123q-107 155 -107 281zM358 895q0 -115 232 -223q40 -55 102 -76q9 -3 105 -37q37 49 37 105q0 -2 -2.5 6.5t-8.5 29.5t-12 48 q-131 134 -240 137q-190 80 -170 80h-16q-6 -6 -14 -33q-13 -32 -13 -37z" />
<glyph unicode="&#xa8;" horiz-adv-x="729" d="M59 1577q22 35 52 82q-4 0 -15 -8q-12 12 -12 16l33 -6l-2 18h37q21 14 53 17q45 -28 114 -60q7 -7 7 -30q3 -3 12 -10.5t14 -12.5q-2 -24 -4 -45q-8 -8 -24 -37q-89 -28 -168 -28l-82 55q-15 15 -15 49zM492 1556l1 46q1 -1 1 -3q15 30 20 39q87 35 166 41l86 -49 q16 -16 16 -49q0 -1 -43 -84q5 0 13 8q12 -12 12 -16q-1 1 -33 4l4 -18q-19 0 -35 -2q-19 -16 -53 -19q-36 22 -119 49q-8 5 -8 31q-12 6 -28 22z" />
<glyph unicode="&#xa9;" horiz-adv-x="1632" d="M29 903q18 95 30 162q22 104 68 164q77 96 109 137q36 25 96 74q95 103 293 149q5 3 41 31q53 -12 77 -12q51 63 226 63q53 0 94 -18q69 -30 78 -31q18 -15 104 -80q65 -50 76 -88l63 -63q151 -262 148 -451l14 -45v-131q0 -28 -18 -98l-25 -97q-73 -113 -112 -196 q5 0 -10 -7q-10 -5 -31 -14q-76 -82 -179 -147q-153 -72 -407 -72q-174 0 -375 127q-244 155 -321 449q-19 25 -25 94q-6 82 -14 100zM326 817q0 -41 2 -47q18 -34 18 -47l125 -125q16 0 25 -6q132 -100 256 -100h94l151 36q3 3 23 19q8 -4 10 -4q55 0 137 94q73 79 95 137 q12 55 12 88q0 36 -14 94q0 62 -23 123q-46 118 -102 174q-53 35 -103 35q-13 0 -33 -4q-19 0 -59 6l-86 -14l-90 14q-32 -14 -35 -14q-11 0 -27 4l-223 -141q15 -6 25 -6l153 79q12 3 76 22t113 32q17 -14 49 -11q48 3 49 2t11 -5.5t23.5 -11.5t29.5 -15q10 -44 47 -76 q0 -16 10 -78l-10 -70q-10 -12 -29 -16q-7 -1 -26 -4t-52 -9t-65 -11q-97 -37 -135 -46q-4 -3 -20.5 -15t-27.5 -21q4 -4 7 -13q75 -26 135 -41q11 -2 32 -5t31 -5q44 -13 76 -51q12 -40 12 -55q19 -19 31 -41v-15q-8 -4 -37 -43q-5 -16 -8 -20q-25 -15 -41 -25h-156 l-166 33q-34 24 -124 96q-20 44 -82 154q-13 47 -13 65l25 152q-96 -104 -96 -248z" />
<glyph unicode="&#xaa;" horiz-adv-x="901" d="M121 1421q0 50 26 101q38 75 41 86q81 110 185 137q13 0 88 10q57 8 67 8q55 0 170 -28l72 -72q0 -13 6 -25l-20 -82q52 -99 110 -180q8 -25 41 -67q60 -129 60 -168q0 -1 -1.5 -4t-3.5 -9l-4 -12q-8 -19 -8 -29q-6 0 -22 -16h-41q14 0 -7 2q-14 1 -46 4q-55 55 -93 72 q-46 57 -79 90l-113 -72q-1 0 -4 1t-4 1q-24 0 -47 -36h-140q-5 0 -145 67q-88 110 -88 221zM377 1380l12 -12q21 6 43 6q39 34 92 109q-11 32 -26 45q-41 -8 -84 -58q-40 -46 -37 -90z" />
<glyph unicode="&#xab;" horiz-adv-x="1603" d="M45 600q0 31 35 72q39 42 63 45q12 15 72 53q51 31 68 64q12 -3 24 6q65 56 129 108q29 22 164 150q78 72 145 90q45 -26 117 -98q64 -128 64 -144q0 -21 -21 -39l6 -20q-11 -6 -37 -29l-34 -29l4 -16l481 324q31 -7 70 -23q8 -10 41 -43q16 -19 20 -35q70 -58 70 -164 q0 -35 -109 -118q-12 -8 -32 -20.5l-52 -32.5t-59 -37q-47 -29 -127 -99q81 -77 301 -293q-5 -34 51 -75q9 -26 27 -64q-6 -9 -6 -31q0 -4 1 -12.5t1 -13.5q-16 -16 -33 -51q-2 -2 -41 -27q-59 16 -109 16l-16 -4q-5 0 -11 -1l-5 -1q-47 0 -226 164q-9 8 -163 150 q-33 41 -130 149q-33 77 -43 119q3 12 3 31q0 21 -11 81q1 4 6.5 17t8.5 20l-9 9l-268 -226q-3 -6 -6 -18l477 -354l-4 -21q72 -75 72 -137q0 -67 -43 -88l-17 -25q-37 15 -86 12q-91 -3 -94 0q-47 33 -387 275q-218 154 -321 285q-21 83 -21 149z" />
<glyph unicode="&#xac;" horiz-adv-x="2252" d="M123 911q7 33 12 47q30 105 137 111l146 -20h57l686 -39l633 -9q4 0 41 15q37 12 41 12q92 0 154 -45q27 -36 102 -96q0 -1 -0.5 -4t-1 -8.5t-0.5 -10.5q-2 -12 -2 -22q20 -33 20 -74l-16 -174v-449q-9 15 -31 31q-23 -27 -41 -59q-16 -19 -30 -19q-7 0 -13 6l-8 -8v-37 q-3 3 -43 15q5 0 -4 -5l-16 -6q-30 15 -72 15q-13 0 -21 -4q-18 8 -34 16q-22 19 -25 51q-36 16 -45 60q-4 18 -10 80l4 186l20 192q-1 1 -6 9.5t-8 15.5q-31 0 -47 4l-41 -10l-305 16q-5 0 -17 -6q-12 -4 -14 -4t-10 4q-6 6 -10 6h-31q-5 -8 -27 -8q-2 2 -8 2q-8 0 -14 -4 q-21 5 -29 10q-33 -10 -45 -10l-190 25l-480 10q-1 0 -61 6q-65 6 -84 6q-68 16 -105 35l-88 84q-1 6 -20 61z" />
<glyph unicode="&#xad;" horiz-adv-x="1492" d="M68 573q0 37 16 80q3 3 20.5 18.5t30.5 28.5l174 2l371 -20l188 12q5 0 54 17q3 -1 10 -5t10 -6l211 25q63 -37 119 -59q29 -41 61 -111q3 -5 13.5 -21.5t17.5 -29.5v-19q-8 -4 -35 -45q-39 -26 -110 -32l-359 -27h-266q-163 0 -215 -25q-5 0 -14 6q-3 1 -6.5 2t-5.5 2 t-3 1h-8q-4 -2 -4 -7t6 -8q-9 -6 -29 -6q-2 3 -8 10.5t-8 10.5h-106q-8 7 -74 57q-6 28 -29 51q-22 61 -22 98zM446 354l13 6q-3 -9 -13 -6z" />
<glyph unicode="&#xae;" horiz-adv-x="1685" d="M25 1059q0 4 10 69q15 88 33 191q21 44 98 180q7 7 133 148q31 15 61 51q44 30 181 119q32 10 137 49q70 10 113 14q14 9 69 18l184 -24q10 -20 31 -41q162 -43 332 -219q160 -164 227 -342q0 -37 2 -68q11 -22 11 -28v-136l-33 -221q-13 -39 -60 -108q-12 -35 -63 -103 q-16 -21 -30 -39.5t-20 -27t-7 -9.5q-173 -164 -287 -188q-17 -4 -35 -22q-78 -18 -194 -37l-111 14h-70q-2 0 -10 2t-26.5 7.5t-38.5 10.5q-76 18 -101 25q-398 171 -483 399q-53 245 -53 316zM313 1010q0 -56 21 -123q30 -35 137 -111l57 553q0 13 -2 29q-4 16 -4 33 q-209 -182 -209 -381zM641 1483l12 -4q20 -4 27 -4l149 81q-7 0 -32 5zM739 666l95 -17q23 0 40 10q33 -10 44 -10q7 0 90 17q12 8 20 14q4 -4 19 -4q13 0 86 43q-2 0 -64 14q-48 0 -104 33q-71 36 -111 49q-50 61 -78 80zM846 1561h24l17 16h-35zM1087 1044l78 -59 q51 -54 70 -113q-13 -16 -10 -49q3 -26 6 -37l2 -6v2q143 168 137 211q19 57 25 125l-21 125q-138 210 -254 230q-2 -1 -6 -3.5t-6 -3.5v-12q0 -36 22 -61q19 -105 19 -125q0 -18 -10 -25q4 -8 4 -16q0 -16 -43 -144l-13 -22v-17z" />
<glyph unicode="&#xaf;" horiz-adv-x="1325" d="M51 1737q0 32 17 78q11 14 53 47l172 2l371 -21l188 12q2 1 9.5 3t19 6t24.5 8q3 -1 21 -10l211 24q89 -46 118 -57q26 -33 62 -113l31 -51v-18q-10 -5 -35 -45q-26 -18 -111 -33l-358 -25h-266q-168 0 -216 -26q-3 0 -12 6q-12 6 -16 6h-8q-4 -2 -4 -4q0 -7 6 -10 q-13 -9 -29 -9q-1 4 -14 21h-109q-14 15 -74 57q-3 29 -28 51q-23 67 -23 101zM432 1516l10 10q-2 -10 -10 -10z" />
<glyph unicode="&#xb0;" horiz-adv-x="688" d="M66 1513q0 49 43 76q8 8 34 8q19 55 82 136q52 18 64 18h114q9 -13 76 -39q2 -2 10.5 -6.5t28.5 -14.5t39 -20q32 -36 76 -80l61 -110q43 -76 43 -111l-10 -94q-9 -15 -41 -51q-10 -5 -38 -21t-46 -26q-8 0 -43 -7q-30 -6 -35 -6q-52 0 -92 -4q-1 0 -3 -1t-3 -1 q-9 0 -16 17q-73 0 -78 -5q-4 4 -4 7l-144 71q-18 21 -69 88q-49 122 -49 176zM336 1444q0 -33 98 -33q24 0 62 14q44 14 51 29q0 13 -2 19l-2 10q-39 26 -109 26q-63 0 -67 -4q2 -2 4 -2q-35 -53 -35 -59z" />
<glyph unicode="&#xb1;" horiz-adv-x="1333" d="M74 104l41 107q7 3 24.5 17t26.5 20l145 10q2 4 17 10l557 41h123l202 21l15 -25l8 4q11 -5 55 -20l62 -125q-3 -2 -10 -8t-11 -9q0 -4 2 -10t2 -14q11 -4 27 -17h-23q-12 -19 -45 -67l4 -8q7 -10 7 -15v-45l-109 -30h-193q-11 0 -18 10q-65 -27 -88 -27q-8 0 -55 13 q-11 3 -52 -17h-77l-201 -24q-3 -3 -43 -9q-4 0 -4 -2q0 -4 2 -6q2 2 6 2q6 0 12 -6q-52 0 -48 -3q1 -1 3 -1q-8 8 -26 8q-25 0 -33 -14l-41 4q-10 -3 -16 -16l-11 12q-5 -1 -51 -17q-45 19 -104 27v16q-34 20 -78 76q-3 33 16 49v19zM170 793v18q20 14 23 39t-17 41v20 q15 15 21 68q26 63 135 63h92l174 27q10 10 12 14q15 40 27 115q16 118 16 121q16 32 68 72h20q6 0 105 -123q0 -6 6 -27t6 -27v-96q27 -18 49 -18h113l113 -21q13 -9 61 -30q35 -15 35 -39q0 -2 -1 -7t-1 -8q22 -65 41 -92q-8 -16 -11 -16q12 -6 21 -15q0 -11 -23 -8 q-4 -2 -4 -14q-13 -5 -51 -25q0 -4 4 -8l21 6l16 -12q6 -3 6 -8h-18q-1 0 -17 4q-12 6 -16 6q-7 0 -31 -8q-8 -2 -16.5 -4t-13 -3t-7.5 -1v-19q-52 -14 -49 -16h-110l-123 -27q2 -6 2 -18q-9 -12 -33 -12q-24 -49 -24 -173v-102q-40 -29 -54 -29q-9 0 -16 7q-9 -12 -31 -31 q-2 11 -31 51q-32 4 -61 4q-21 34 -37 37q-20 33 -20 94v107q-6 1 -35 14l-113 -20q-2 0 -6.5 -1t-7.5 -1q-38 0 -68 38q5 0 -3 -3q-12 -5 -44 -13q0 4 8 12z" />
<glyph unicode="&#xb2;" horiz-adv-x="923" d="M84 950v37q20 27 39 43q26 23 207 197q3 4 19.5 24t52.5 62.5t73 87.5q125 195 125 289q0 54 -76 57l-145 -43q-2 2 -10 2l-127 -68q0 -4 -4 -12l-11 2l-69 -43h-37q-3 9 -25 37l-4 16q-2 8 -2 15v14q2 8 2 16q23 14 53 41q37 22 107 62q163 88 295 88q56 0 115 -35 q70 -40 73 -96q0 -1 1 -3l7 -23v1v-37l-5 -32q0 -7 -1 -15q-12 -125 -207 -401q-33 -28 -61 -74q-7 -9 -29 -35q-42 -37 -73 -71l6 -4l360 49l92 -2q27 -4 84 -15q46 -13 56 -28q0 -7 -2 -11q4 -4 6 -8v-43l-49 -24q-9 0 -19 -2l-16 -4h-39q-1 0 -4 -3q-2 -2 -6 -2h-93 l-143 -22q-14 0 -22 2l-213 -47l-179 -19q-66 0 -88 52q-14 11 -14 28z" />
<glyph unicode="&#xb3;" horiz-adv-x="980" d="M41 1724l43 19q7 14 14 16q46 26 66 33q40 25 162 66q63 14 106 14q13 0 62 -8q88 -12 159 -56q66 -66 60 -92q8 -8 8 -24q0 -61 -35 -117q-46 -36 -125 -127q27 -27 70 -41q67 -21 76 -27q47 -28 102 -63q48 -31 115 -113q73 -88 73 -135q-2 -3 -39 -82l-108 -53 q-35 -9 -107 -25q-7 -5 -24 -8q-147 -24 -154 -24h-35l-84 -11l-127 -4l-163 2q-23 10 -25 10l-12 15h-8q-3 6 -25 31q-3 13 -8 20q0 -3 6 21q0 6 -4 10q0 6 2 14q0 3 1 7t1 5q21 21 35 21l250 -2l174 10q4 2 12 4t18 2q125 12 232 76q0 4 2 4q-14 38 -117 115l-94 51 q-8 3 -39.5 15t-54.5 20q-39 6 -64 12q-27 3 -35 6l-2 2q-4 0 -6 -2l-33 10q-3 0 -12 -6l-6 6l-98 13l-41 65v8q0 7 10 17l-4 6q2 4 2 14q0 9 -2 15l41 28q2 -2 10 -2q22 0 103 23q3 1 27.5 12t43.5 19q66 31 96 83q27 27 27 39v13q-19 19 -31 22q-60 13 -90 13 q-14 0 -69 -9q-62 -16 -136 -55q-11 -5 -35.5 -18.5t-39.5 -20.5h-41l-29 31q2 4 2 16q-12 13 -20 15q0 6 -9 18q-12 0 -14 -4q0 8 2 10z" />
<glyph unicode="&#xb4;" horiz-adv-x="894" d="M49 1296q2 7 4 15q6 12 6 16q24 17 35 39q22 16 110.5 76t157.5 108q9 6 60 43t94 66q51 36 258 153q8 5 8 15l47 22q11 -5 39 -16v-27q15 -4 35 -18q13 -29 29 -29l10 4q0 -11 16 -24q-10 -15 -24 -29q0 -5 6 -8q-25 -25 -49 -55q-23 -17 -250 -162q-158 -104 -270 -191 q-11 -10 -41 -34t-45 -37q-41 -21 -88 -35q-1 1 -2.5 3t-3.5 6t-5 7h-55l-29 25l-49 -4q5 10 17 22l-9 8q-12 12 -12 41z" />
<glyph unicode="&#xb5;" horiz-adv-x="2598" d="M4 350v66q62 118 74 133q26 26 98 26l236 -6l8 11l-17 264l7 182l30 223q46 352 328 592q114 51 195 51l120 -6q59 -20 99 -20q78 -27 129 -43q20 -10 194 -113l90 -88q64 -100 93 -149q8 13 53 65q66 102 168 170q86 59 157 59h21q14 7 33 7l215 -25q27 -13 88 -49 q27 -14 69 -66q22 -29 68 -106q43 -98 43 -135v-119l-14 -125q0 -5 -25 -47q-3 -47 -8 -66q-25 -28 -25 -78q-100 -121 -135 -159q-78 -81 -153 -119q-23 -26 -95 -57q-74 -35 -110 -60q-33 -33 -82 -61q-62 -14 -141 -53q10 -17 28 -17h471l146 -20q3 -15 43 -39 q4 -5 14.5 -24t19.5 -32q-3 -2 -10 -9t-12 -11q-6 -9 -6 -29q0 -18 2 -26q-45 -28 -82 -80q-82 -19 -268 -53q-6 4 -47 4q-86 -6 -261 -27q-25 -19 -28 -43q10 -33 10 -59q0 -96 -84 -131q0 -25 -6 -31h-16q-22 22 -29 22q-10 -13 -10 -22l-43 16q-47 68 -62 68l-72 153 q-12 0 -30 -6q3 8 -8 8h-13l-168 -22h-63q-6 15 -41 29l-53 100q7 41 22 72l19 34v19q0 10 -23 10q-18 0 -57 -8l-45 -6h-76q-59 0 -137 -37v-27l57 -213q3 -95 -68 -116q-8 -17 -28 -33q-3 7 -21 14q-6 -9 -18 -24q-9 0 -45 16q-122 144 -207 356l-23 23l-245 -12 q-7 0 -138 16q-41 12 -61 53q2 4 2 12zM680 854l37 -272l422 2q5 0 32 6q8 2 16.5 4t12.5 3t6 1h15l10 -14q24 18 43 18q4 0 12 -4t10 -4l154 35q53 436 154 671q-11 33 -11 39l-118 127l-27 -4l-227 107q-9 -12 -45 -6q-50 12 -66 6l-98 20h-49q0 -7 6 -10l-11 -10 q-52 0 -86 -15q-185 -164 -176 -524zM1743 684q11 -22 16 -27h39q0 15 2 17q10 -17 29 -17q5 0 35 15q34 12 37 12q0 8 4 16l26 -6q0 4 4 8q1 0 8 -1t13 -1q-12 0 -12 5q0 4 2 4h26l15 16q9 -12 20 -12q7 4 24.5 12.5t36 18.5t37.5 20q64 11 103 35q77 28 168 119 q103 110 121 212q7 22 14 31v41q0 50 -43 137q-13 10 -29 29h-26q-10 26 -89 66q-26 -17 -26 -19q-105 27 -162 27q-86 0 -111 -19q-140 -104 -219 -405q-24 -55 -39 -170q-5 -43 -10.5 -79.5t-9.5 -60t-4 -24.5z" />
<glyph unicode="&#xb6;" horiz-adv-x="1390" d="M49 1018q0 2 8 18q9 189 93 273q68 130 190 237q25 21 207 172l104 51q54 25 60 58l67 41l84 -21l144 27h86l82 10q42 5 90 -33v-16q11 -11 36 -25l46 -221l-17 -456l-18 -181v-75l-37 -365v-86l-17 -565q-26 -57 -30 -64q-15 -9 -25 -35l-22 5q-10 -3 -19 -25h-28l-15 8 q-28 -11 -41 -26q-7 11 -30 22l-17 -10q-2 1 -9.5 3.5t-12.5 4.5l-25 8q2 7 -2 37q-27 68 -29 64v358l45 485v92l23 246l14 238v158q0 56 -6 86q-17 20 -39 20q-51 0 -57 -25q-15 -55 -21 -141q-4 -85 -12 -139l-20 -412q0 9 8 -10q2 -7 6 -18q6 -18 6 -50q0 -83 -29 -112 q0 -17 -6 -51l-26 -533l-15 -137v-84q0 -7 -28 -43q-27 -35 -35 -35q-6 0 -8 2l-2 2q-14 -22 -31 -45l-12 10l-11 -4q-8 -2 -24 -2q-1 3 -17 27q-21 -5 -37 -17q-21 -15 -24 -41v13q-49 37 -49 51q0 1 1 4.5t1 5.5q-13 10 -21 10q-13 55 -10 70l51 721q-2 2 -22 2 q-2 1 -6.5 2t-13.5 3.5t-17 4.5l4 -2q-4 -2 -43 -2q-13 0 -68 14q-59 14 -69 21q-63 9 -146 76q-78 69 -104 137q-33 132 -33 209z" />
<glyph unicode="&#xb7;" horiz-adv-x="442" d="M61 670q-3 11 17 28q0 9 -2 19l-4 16q5 4 32 31q20 5 41 12q87 -35 146 -88l26 -96q3 -20 -22 -45q-36 -16 -90 -31q2 -2 14 -2v-20q-2 3 -5 6.5t-8 9t-9 10.5l-9 -16q-4 4 -28 24q-21 3 -51 23q-9 39 -48 119z" />
<glyph unicode="&#xb8;" horiz-adv-x="796" d="M90 -645l8 27q-2 14 -2 61q21 102 154 137q60 25 188 111q0 14 -12 14q-5 1 -14.5 2t-14.5 2v15q-39 3 -98 36q-10 30 -25 45q0 16 -14 41q-6 21 -6 74q0 116 92 320q37 16 39 16h41q139 -103 139 -197q0 -10 -4 -30q16 -27 57 -54q16 -11 30.5 -21.5t23 -16.5t10.5 -7 q87 -81 143 -184q3 -14 6 -28.5t6.5 -28.5t4.5 -19q2 -7 3.5 -16t2.5 -14.5t2 -8.5q4 -12 4 -2q0 -33 -37 -100q-71 -126 -188 -182q-12 -6 -223 -103q-18 -4 -21 -18h-244l4 8zM221 -770l12 8z" />
<glyph unicode="&#xb9;" horiz-adv-x="372" d="M66 821l4 8l8 -6l6 8q-3 10 -16 15v86q4 16 10 22v41l4 4l14 29q3 49 2 51q1 6 6 41q5 16 11 49q0 3 -2 5l-4 4q13 23 20 55v12q0 23 6 35q3 83 6 78l13 37q2 4 2 14q0 16 -6 37l14 332q-2 10 4 39q16 11 27 26l6 -6l4 10h14q0 -2 31 -14q8 -4 14 -16q57 -15 51 -121 l-12 -254q0 -1 -3 -31t-5 -51q0 -2 6 -8l-31 -287l-51 -281l-6 -10q-12 0 -18 6l-7 -6h-18l-12 -18q-30 6 -33 6l-47 57q-1 0 -2 -1t-2 -1z" />
<glyph unicode="&#xba;" horiz-adv-x="759" d="M90 1440q0 129 88 205q40 180 244 180q138 0 201 -60q95 -27 125 -120q53 -83 47 -140q3 -9 14 -20q-2 -4 -2 -15q0 -16 6 -43q-8 -15 -37 -102q-3 -9 -61 -88q2 -4 2 -10q-8 -6 -64 -31q-164 -20 -151 -22l-168 10q-8 3 -53.5 20.5t-79.5 32.5q-106 71 -103 180 q-8 8 -8 23zM348 1452q8 0 17 -12q10 10 22 10h90q29 0 105 43q0 5 6 14q-52 37 -111 37q-1 0 -5 -0.5t-12.5 -1.5t-17.5 -2q-20 -4 -41 -4l-6 6l-47 -67v-23z" />
<glyph unicode="&#xbb;" horiz-adv-x="1556" d="M63 862v113q0 37 41 78q40 37 72 37q50 0 141 -64q34 -30 68 -49q74 -41 78 -45q44 -22 76 -33q38 -24 137 -63q85 -32 131 -50l88 -118l43 -138q8 16 59 58q42 33 45 63q-58 38 -227 144q-126 81 -168 147q-45 51 -45 80v106q0 42 94 121l162 -57l291 -201l201 -114 l90 -97q4 -10 11 -24t18 -35.5t18 -36.5q-3 -29 4 -100q-57 -85 -207 -254q-99 -114 -287 -373q-34 -49 -53 -111q-6 -9 -22.5 -32t-24.5 -35q-4 -3 -25 -19t-38 -28q0 9 -11 20h-53q-3 0 -12 -6q-8 -4 -13 -4q-10 0 -49 20h-30q-5 11 -17 58q-7 7 -26 14q0 4 -7 21 q-1 4 -2 8.5t-1.5 6.5t-0.5 3v96q0 1 -1 3t-1 3q-2 2 -2 7q0 1 0.5 4.5l1.5 10.5t2 15q6 27 6 35q63 110 115 186q4 6 18.5 25.5t22.5 30.5q22 32 25 63q-203 -134 -328 -354q-18 -18 -49 -45q-9 -3 -43 18h-14q-35 -22 -74 -16q-38 9 -74 45q2 4 2 14q0 29 -37 41 q0 4 -6 19q-4 16 -4 20v121q0 55 246 348q-64 39 -295 189q-56 119 -60 110z" />
<glyph unicode="&#xbc;" horiz-adv-x="1808" d="M66 821l4 8l8 -6l6 8q-3 10 -16 15v86q4 16 10 22v41l4 4l14 29q3 49 2 51q1 6 6 41q5 16 11 49q0 3 -2 5l-4 4q13 23 20 55v12q0 23 6 35q3 83 6 78l13 37q2 4 2 14q0 16 -6 37l14 332q-2 10 4 39q16 11 27 26l6 -6l4 10h14q0 -2 31 -14q8 -4 14 -16q57 -15 51 -121 l-12 -254q0 -1 -3 -31t-5 -51q0 -2 6 -8l-31 -287l-51 -281l-6 -10q-12 0 -18 6l-7 -6h-18l-12 -18q-30 6 -33 6l-47 57q-1 0 -2 -1t-2 -1zM125 420q3 1 20 22q0 15 -10 45l25 56l22 22q28 45 92 121q5 0 27 31q31 31 49 45q1 1 15 22q9 8 32 31t72.5 72t95.5 94 q1 1 1.5 2.5t1 4.5t1.5 5q26 18 86 78q63 68 293 291q11 19 125 139q1 4 14 25q21 21 82 96q1 2 5 8t6 10q21 24 94 76l22 -6q16 -4 19 -12q41 -72 31 -111q-6 -12 -19 -47l-16 -16l6 -8q-1 -1 -5 -9.5t-7 -15.5q-8 -8 -31 -21q0 -6 4 -6q-10 -3 -10 -16q-3 0 -6 6 q-2 -2 -6.5 -6l-13.5 -12t-17 -15v-4h8q-8 -8 -16 -24l-13 4q-24 -15 -24 -37q-1 0 -9 -4l-6 -2q4 -8 4 -11q-3 0 -9.5 -1t-10.5 -1q-8 -11 -41 -34q0 -11 4 -15l-92 -73q0 -15 -27 -39q-25 -25 -28 -39q-24 -16 -31 -21v-10l-35 -23v-24q-27 -21 -51 -35l-1 -5q-1 -5 -1 -9 q-15 -9 -37 -31q0 -17 -6 -20q-35 -12 -41 -45q-19 -8 -45 -46q-40 -12 -37 -38q-35 -3 -41 -37q-12 -6 -18 -27q-13 -3 -31 -27q-19 -22 -31 -22q-2 -6 -2 -12l-180 -191q-2 -8 -2 -24q-18 -32 -49 -74q-11 -11 -58 -27q3 -2 17 -12q-11 0 -60 -27l-16 4l-1 2q-2 3 -4 4.5 t-5 2.5q-5 0 -9 -11l-10 6q-8 -8 -16 -6q-21 6 -2 35q-20 9 -37 29zM809 565q5 8 8 53q9 17 125 240v10l154 297q2 1 6.5 3t9.5 3.5t10 2.5q14 -10 25 -13q0 -9 43 -55v-16q2 -8 2 -15q0 -61 -86 -235l-90 -178q-2 -5 -6 -13v-12h49l223 14l154 21q7 30 39 135 q30 105 135 348q15 21 51 49h10q-7 0 3 -3q9 -3 28 -7q-3 -19 35 -49q1 -6 3 -15l3 -14l-6 -31q-34 -52 -80 -200q-33 -100 -58 -207l7 -6h55q71 0 106 -84q0 1 -2 -0.5t-8 -7.5q7 -6 8 -11q-12 -21 -51 -47l-143 2q-56 -56 -62 -155q-2 -53 -2 -168l2 -127q-15 -3 -12 -19 q-4 -3 -11.5 -6t-19 -7.5t-20.5 -8.5q-8 8 -21 8q-12 0 -14 -2q-4 2 -39 37l4 10h-12l-16 33v135l38 260l-4 4h-22l-8 -4q-6 -2 -11 -2l-118 -12q-4 2 -23 2l-100 -15q-15 5 -17 5l-24 -5h-53q-3 0 -9 -6q-3 6 -14 6q-17 -10 -27 -10l-33 1q1 1 3 1q-4 2 -9 4l-6 4l-12 -2 q-13 3 -41 25q-9 43 -49 55zM946 487l10 -4l5 4h-15z" />
<glyph unicode="&#xbd;" horiz-adv-x="1742" d="M66 821l4 8l8 -6l6 8q-3 10 -16 15v86q4 16 10 22v41l4 4l14 29q3 49 2 51q1 6 6 41q5 16 11 49q0 3 -2 5l-4 4q13 23 20 55v12q0 23 6 35q3 83 6 78l13 37q2 4 2 14q0 16 -6 37l14 332q-2 10 4 39q16 11 27 26l6 -6l4 10h14q0 -2 31 -14q8 -4 14 -16q57 -15 51 -121 l-12 -254q0 -1 -3 -31t-5 -51q0 -2 6 -8l-31 -287l-51 -281l-6 -10q-12 0 -18 6l-7 -6h-18l-12 -18q-30 6 -33 6l-47 57q-1 0 -2 -1t-2 -1zM125 420q3 1 20 22q0 15 -10 45l25 56l22 22q28 45 92 121q5 0 27 31q31 31 49 45q1 1 15 22q9 8 32 31t72.5 72t95.5 94 q1 1 1.5 2.5t1 4.5t1.5 5q26 18 86 78q63 68 293 291q11 19 125 139q1 4 14 25q21 21 82 96q1 2 5 8t6 10q21 24 94 76l22 -6q16 -4 19 -12q41 -72 31 -111q-6 -12 -19 -47l-16 -16l6 -8q-1 -1 -5 -9.5t-7 -15.5q-8 -8 -31 -21q0 -6 4 -6q-10 -3 -10 -16q-3 0 -6 6 q-2 -2 -6.5 -6l-13.5 -12t-17 -15v-4h8q-8 -8 -16 -24l-13 4q-24 -15 -24 -37q-1 0 -9 -4l-6 -2q4 -8 4 -11q-3 0 -9.5 -1t-10.5 -1q-8 -11 -41 -34q0 -11 4 -15l-92 -73q0 -15 -27 -39q-25 -25 -28 -39q-24 -16 -31 -21v-10l-35 -23v-24q-27 -21 -51 -35l-1 -5q-1 -5 -1 -9 q-15 -9 -37 -31q0 -17 -6 -20q-35 -12 -41 -45q-19 -8 -45 -46q-40 -12 -37 -38q-35 -3 -41 -37q-12 -6 -18 -27q-13 -3 -31 -27q-19 -22 -31 -22q-2 -6 -2 -12l-180 -191q-2 -8 -2 -24q-18 -32 -49 -74q-11 -11 -58 -27q3 -2 17 -12q-11 0 -60 -27l-16 4l-1 2q-2 3 -4 4.5 t-5 2.5q-5 0 -9 -11l-10 6q-8 -8 -16 -6q-21 6 -2 35q-20 9 -37 29zM809 82v37q24 30 37 43q96 86 209 196q5 4 143 174q127 195 127 287q0 58 -78 58l-145 -41q-4 0 -8 2l-127 -68q0 -6 -4 -14l-11 2l-71 -41q-20 -3 -35 0q-2 5 -25 35l-4 16l-4 14q0 9 2 15v18 q32 17 55 41q54 35 107 62q166 88 295 88q53 0 114 -37q69 -40 72 -97q7 -27 9 -26q1 0 1 2v-37q0 14 -2 -1q-1 -9 -6 -46q-12 -116 -205 -402q-34 -27 -61 -73q-3 -3 -31 -35q-36 -32 -71 -70l6 -4l358 49l94 -2l74 -12q44 -6 66 -31q0 -6 -2 -10q2 -2 6 -10v-41 q-5 -2 -21.5 -10.5t-27.5 -14.5q-9 -2 -35 -6h-39q2 0 -2 -2q-2 -2 -8 -4h-95l-141 -20q-9 -2 -22 2l-216 -48l-176 -20q-67 0 -88 53q-14 11 -14 29z" />
<glyph unicode="&#xbe;" horiz-adv-x="2076" d="M41 1724l43 19q7 14 14 16q46 26 66 33q40 25 162 66q63 14 106 14q13 0 62 -8q88 -12 159 -56q66 -66 60 -92q8 -8 8 -24q0 -61 -35 -117q-46 -36 -125 -127q27 -27 70 -41q67 -21 76 -27q47 -28 102 -63q48 -31 115 -113q73 -88 73 -135q-2 -3 -39 -82l-108 -53 q-35 -9 -107 -25q-7 -5 -24 -8q-147 -24 -154 -24h-35l-84 -11l-127 -4l-163 2q-23 10 -25 10l-12 15h-8q-3 6 -25 31q-3 13 -8 20q0 -3 6 21q0 6 -4 10q0 6 2 14q0 3 1 7t1 5q21 21 35 21l250 -2l174 10q4 2 12 4t18 2q125 12 232 76q0 4 2 4q-14 38 -117 115l-94 51 q-8 3 -39.5 15t-54.5 20q-39 6 -64 12q-27 3 -35 6l-2 2q-4 0 -6 -2l-33 10q-3 0 -12 -6l-6 6l-98 13l-41 65v8q0 7 10 17l-4 6q2 4 2 14q0 9 -2 15l41 28q2 -2 10 -2q22 0 103 23q3 1 27.5 12t43.5 19q66 31 96 83q27 27 27 39v13q-19 19 -31 22q-60 13 -90 13 q-14 0 -69 -9q-62 -16 -136 -55q-11 -5 -35.5 -18.5t-39.5 -20.5h-41l-29 31q2 4 2 16q-12 13 -20 15q0 6 -9 18q-12 0 -14 -4q0 8 2 10zM408 252q5 2 18 22q3 16 -10 45q2 4 6.5 14.5l9 21t8.5 20.5q3 2 23 22q10 18 94 121q6 7 16 19q31 35 58 57q0 1 14 22q40 36 201 197 l6 12q43 35 84 78l293 293q28 40 125 137q10 15 16 25q55 65 80 96q1 1 10 19q13 14 94 75l25 -6q10 -2 16 -12q43 -76 31 -111q0 -1 -2 -6t-7 -17t-9 -24q-7 -2 -17 -16l6 -8q-1 -1 -12 -23q-12 -12 -31 -20q0 -4 5 -9q-11 0 -11 -16q-3 0 -6 6q-15 -15 -35 -33q-2 -2 0 -4 h9q-10 -9 -17 -22l-12 2q-24 -15 -27 -37l-4 -2l-8 -4q2 -4 2 -10q-4 -2 -20 -2q-14 -18 -41 -35q0 -7 4 -15l-90 -73q-4 -16 -27 -39q-26 -23 -29 -39q-12 -6 -33 -21q3 -3 3 -10l-35 -22q-3 -3 0 -25q-25 -20 -52 -35q-1 -1 -1.5 -3t-1 -5.5t-1.5 -5.5l-36 -31 q0 -15 -7 -18q-35 -12 -41 -47q-20 -8 -45 -45q-37 -11 -34 -39q-38 -3 -41 -35q-15 -9 -21 -29q-10 -2 -31 -27q-22 -22 -30 -22q-4 -11 -2 -12l-179 -191q-4 -8 -4 -24q-17 -33 -49 -74q-4 -4 -57 -25q8 -8 18 -14q-11 0 -61 -27l-14 4q-7 7 -13 9q-2 0 -6 -11l-12 7 q-11 -7 -15 -7q-24 7 -2 35q-18 8 -36 29zM1092 397q6 17 8 54l123 239q2 2 2 10l151 297l27 9q14 -10 27 -13q0 -6 40 -55q0 -4 3 -16v-15q0 -47 -87 -235q-77 -171 -88 -178q-2 0 -8 -13v-10h49l226 14l151 19q3 12 16.5 56t22.5 79q32 107 137 348q20 27 52 49h10 q-5 0 1 -2q2 -1 12 -4l15 -4q-3 -19 37 -49q0 -6 2 -14t2 -15q0 -18 -6 -30q-31 -51 -80 -201q-40 -137 -57 -207l8 -6h56q71 0 106 -84q-4 -2 -10 -8q1 -1 3.5 -5t4.5 -6q-14 -21 -53 -47l-144 4q-58 -58 -61 -155q-2 -66 -2 -170l2 -125q-18 -7 -12 -21q-4 -3 -49 -22 q-11 8 -23 8t-14 -2l-5 5q-5 4 -14.5 13t-19.5 19l4 10q-2 2 -12 2l-15 31v137l37 258l-4 4h-23q-21 -6 -18 -6l-117 -12q-2 2 -22 2l-101 -15q-8 5 -18 5l-23 -5h-53q-5 0 -8 -6q-6 6 -16 6q-17 -10 -27 -10l-32 1q1 1 3 1l-16 8l-10 -2q-9 3 -41 25q-12 43 -49 55z M1159 891l2 2zM1227 322l12 -5l2 5h-14z" />
<glyph unicode="&#xbf;" horiz-adv-x="1284" d="M84 -86q9 26 68 166q3 3 129 117l19 12q20 12 58 36.5t82 53.5q51 24 110.5 53t87.5 42.5t40 17.5q130 56 237 69l15 15l31 348v98l20 270q13 27 33 84q25 54 88 54q1 0 3 -1t7 -2.5t10 -3.5q20 -4 23 -4q39 -57 80 -135q6 -64 12 -94l-31 -309v-86l-20 -490l-17 -6h-69 q-6 0 -41 -14q-35 -17 -49 -17q-5 0 -15 5q-6 2 -14 2q-29 0 -74 -25q-286 -93 -489 -272q-4 -8 -4 -23q0 -42 84 -45l155 -4l78 8q71 8 115 8q28 5 153 33q157 35 156 37q11 0 39 -4l20 24l33 -10l82 8q-8 -12 -14 -20q8 -8 8 -19q0 -4 -4 -12q9 -7 16.5 -11t11 -5t3.5 0 q-7 -14 -25 -41q0 -8 10 -8q-9 -20 -41 -43v-47q-110 -96 -202 -111q-48 -44 -164 -59q-8 -12 -8 -15l-29 4q-26 -16 -41 -16l-16 4q-16 3 -25 0q-5 -1 -13 -3l-17 -5h1q-12 0 -22 10q-3 -3 -9.5 -7t-15.5 -9.5t-16 -10.5h-76q-35 0 -84 9q-1 1 -35 18q-2 -2 -2 -10 q-83 -12 -94 -12q12 0 12 14q-110 49 -159 74q-86 49 -119 104q-8 12 -23 21q-20 36 -37 81q-16 101 -16 109zM987 1706q0 35 41 82q39 45 74 45q33 0 59 -23q30 -21 60 -41q12 -24 32 -49l15 -108q0 -21 -17 -60q-55 -41 -96 -41q-9 0 -18 9l-9 -9h-16q-20 0 -31 17 q-3 4 -10.5 12.5t-11.5 13.5q-15 0 -41 23q-27 24 -27 45q0 59 -4 84z" />
<glyph unicode="&#xc0;" horiz-adv-x="1232" d="M45 387v76h6l-4 4v2q1 1 4 25q57 51 80 96q47 47 59 98q7 14 26.5 50t27.5 50q22 60 63 117q7 16 60 150q17 28 24 41q8 27 8 37q72 146 136 290q12 28 63 111q4 5 45 90q47 127 105 256q16 7 47 23q35 -12 88 -23q72 -51 92 -74q4 -5 7.5 -12.5t8 -18.5t8.5 -18 q85 -109 222 -471q2 -2 16 -2q0 -19 10 -49q13 -33 13 -45q0 -7 -3 -16q1 -2 7 -6t10 -9q47 -125 149 -547l11 -20q46 -225 125 -361q0 -22 57 -133l-29 -22q0 -4 1 -12.5t1 -12.5q0 -22 -37 -162v119q-8 8 -14 17h21q-3 -5 -5 -7l-2 -4q3 0 9 -6v-35q-10 -10 -27 -14 q-10 -22 -27 -51h-123l-102 133q-21 118 -86 195q10 25 10 30q-11 15 -28 53q-43 56 -91 93q-42 42 -79 61q-28 14 -57 29.5t-33 17.5q-50 3 -99 27q-15 6 -28 6q-2 8 -7 18q-3 -7 -14 -20q-49 7 -119 31q-4 -4 -11 -8.5t-21 -14t-27 -18.5q-8 19 -19 30l-3 -3q-4 -2 -9 -7 q-4 2 -10 4.5t-8 3.5q20 -20 28 -32q-54 -6 -79 -16t-39 -29h-56l-10 10q-4 0 -11.5 -1t-10.5 -1l-78 -154l-2 -2q0 -4 4 -14q-26 -55 -43 -84q-25 0 -49 4l-9 -14h-36q-11 26 -27 34q-24 9 -39 21q0 12 2 16q-10 16 -14 41q-2 2 -6.5 9t-10.5 14.5t-12 15.5zM315 2370l4 18 q-4 8 -4 14q-3 13 11 43q20 35 59 41q69 6 115 -37q15 -4 37 -12l256 -174q144 -99 282 -129q9 -19 35 -33q35 -54 33 -63l26 -17q0 -9 -14 -20q0 -11 8 -19q-2 -2 -8 -7t-10 -9l4 -31q-66 -15 -66 -24q4 0 4 -8l-22 -2q-44 13 -133 36l-422 246q-54 31 -145 107 q-2 4 -23 10q-27 62 -27 70zM430 449q0 34 19 71l49 -22q-33 -33 -68 -49zM535 860q10 2 40 2q8 -2 18.5 -3.5t12.5 -2.5l6 -2q25 5 41 14l68 2q8 0 57 -14q46 -12 51 -12h2q12 6 19 6l240 -94q-2 5 -5 17.5t-8.5 35.5t-11.5 45q-28 124 -29 129l-78 246q-47 145 -108 239 q-26 -26 -57 -102q11 -14 -7 -53l-12 18l-24 -37l-7 21l-129 -283q2 -2 2 -16q-59 -65 -81 -156z" />
<glyph unicode="&#xc1;" horiz-adv-x="1228" d="M45 387v76h6l-4 4v2q1 1 4 25q57 51 80 96q47 47 59 98q7 14 26.5 50t27.5 50q22 60 63 117q7 16 60 150q17 28 24 41q8 27 8 37q72 146 136 290q12 28 63 111q4 5 45 90q47 127 105 256q16 7 47 23q35 -12 88 -23q72 -51 92 -74q4 -5 7.5 -12.5t8 -18.5t8.5 -18 q85 -109 222 -471q2 -2 16 -2q0 -19 10 -49q13 -33 13 -45q0 -7 -3 -16q1 -2 7 -6t10 -9q47 -125 149 -547l11 -20q46 -225 125 -361q0 -22 57 -133l-29 -22q0 -4 1 -12.5t1 -12.5q0 -22 -37 -162v119q-8 8 -14 17h21q-3 -5 -5 -7l-2 -4q3 0 9 -6v-35q-10 -10 -27 -14 q-10 -22 -27 -51h-123l-102 133q-21 118 -86 195q10 25 10 30q-11 15 -28 53q-43 56 -91 93q-42 42 -79 61q-28 14 -57 29.5t-33 17.5q-50 3 -99 27q-15 6 -28 6q-2 8 -7 18q-3 -7 -14 -20q-49 7 -119 31q-4 -4 -11 -8.5t-21 -14t-27 -18.5q-8 19 -19 30l-3 -3q-4 -2 -9 -7 q-4 2 -10 4.5t-8 3.5q20 -20 28 -32q-54 -6 -79 -16t-39 -29h-56l-10 10q-4 0 -11.5 -1t-10.5 -1l-78 -154l-2 -2q0 -4 4 -14q-26 -55 -43 -84q-25 0 -49 4l-9 -14h-36q-11 26 -27 34q-24 9 -39 21q0 12 2 16q-10 16 -14 41q-2 2 -6.5 9t-10.5 14.5t-12 15.5zM317 2036 q3 6 5 14q6 12 6 16q23 16 34 39q22 16 111 76.5t158 108.5q9 6 59.5 42.5t93.5 65.5q58 41 258 154q9 6 9 14l47 23q19 -10 39 -17v-26q11 -3 34 -19q12 -28 29 -28l10 4q0 -11 17 -25q-8 -12 -25 -29q0 -5 6 -8q-25 -25 -49 -55q-23 -17 -250 -162q-167 -110 -270 -190 q-9 -8 -21.5 -18.5t-32 -26.5t-32.5 -27q-41 -21 -88 -35q-1 1 -4 7t-6 10h-56l-28 24l-49 -4q7 14 16 23l-8 8q-13 13 -13 41zM430 449q0 34 19 71l49 -22q-33 -33 -68 -49zM535 860q10 2 40 2q8 -2 18.5 -3.5t12.5 -2.5l6 -2q25 5 41 14l68 2q8 0 57 -14q46 -12 51 -12h2 q12 6 19 6l240 -94q-2 5 -5 17.5t-8.5 35.5t-11.5 45q-28 124 -29 129l-78 246q-47 145 -108 239q-26 -26 -57 -102q11 -14 -7 -53l-12 18l-24 -37l-7 21l-129 -283q2 -2 2 -16q-59 -65 -81 -156z" />
<glyph unicode="&#xc2;" horiz-adv-x="1236" d="M45 387v76h6l-4 4v2q1 1 4 25q57 51 80 96q47 47 59 98q7 14 26.5 50t27.5 50q22 60 63 117q7 16 60 150q17 28 24 41q8 27 8 37q72 146 136 290q12 28 63 111q4 5 45 90q47 127 105 256q16 7 47 23q35 -12 88 -23q72 -51 92 -74q4 -5 7.5 -12.5t8 -18.5t8.5 -18 q85 -109 222 -471q2 -2 16 -2q0 -19 10 -49q13 -33 13 -45q0 -7 -3 -16q1 -2 7 -6t10 -9q47 -125 149 -547l11 -20q46 -225 125 -361q0 -22 57 -133l-29 -22q0 -4 1 -12.5t1 -12.5q0 -22 -37 -162v119q-8 8 -14 17h21q-3 -5 -5 -7l-2 -4q3 0 9 -6v-35q-10 -10 -27 -14 q-10 -22 -27 -51h-123l-102 133q-21 118 -86 195q10 25 10 30q-11 15 -28 53q-43 56 -91 93q-42 42 -79 61q-28 14 -57 29.5t-33 17.5q-50 3 -99 27q-15 6 -28 6q-2 8 -7 18q-3 -7 -14 -20q-49 7 -119 31q-4 -4 -11 -8.5t-21 -14t-27 -18.5q-8 19 -19 30l-3 -3q-4 -2 -9 -7 q-4 2 -10 4.5t-8 3.5q20 -20 28 -32q-54 -6 -79 -16t-39 -29h-56l-10 10q-4 0 -11.5 -1t-10.5 -1l-78 -154l-2 -2q0 -4 4 -14q-26 -55 -43 -84q-25 0 -49 4l-9 -14h-36q-11 26 -27 34q-24 9 -39 21q0 12 2 16q-10 16 -14 41q-2 2 -6.5 9t-10.5 14.5t-12 15.5zM307 1733 q0 19 29 69q21 0 39 13q7 4 55 59q22 25 176 197q33 28 103 108q24 24 63 33q3 -1 15.5 -3.5t21.5 -4.5q26 -18 59 -29q62 -51 170 -162q126 -129 164 -164q25 -45 43 -82q-34 -44 -45 -73l-10 -5q-11 -5 -21 -10l-42 -2h-3q-3 0 -12 6q-3 -1 -6.5 -2.5t-9 -4t-9.5 -3.5 q-17 17 -43 47t-34 39q-58 65 -226 197q-12 -4 -24 -4l-80 -74l4 -12q-2 -1 -8 -5.5t-8 -5.5l4 -16q4 0 -1 -1q-5 -2 -14 -3l-184 -223l-39 6q-25 -6 -35 -12q-1 1 -4.5 7t-5.5 11l-16 -2q4 4 4 12q-7 7 -29 11zM430 449q0 34 19 71l49 -22q-33 -33 -68 -49zM535 860 q10 2 40 2q8 -2 18.5 -3.5t12.5 -2.5l6 -2q25 5 41 14l68 2q8 0 57 -14q46 -12 51 -12h2q12 6 19 6l240 -94q-2 5 -5 17.5t-8.5 35.5t-11.5 45q-28 124 -29 129l-78 246q-47 145 -108 239q-26 -26 -57 -102q11 -14 -7 -53l-12 18l-24 -37l-7 21l-129 -283q2 -2 2 -16 q-59 -65 -81 -156z" />
<glyph unicode="&#xc3;" horiz-adv-x="1239" d="M45 387v76h6l-4 4v2q1 1 4 25q57 51 80 96q47 47 59 98q7 14 26.5 50t27.5 50q22 60 63 117q7 16 60 150q17 28 24 41q8 27 8 37q72 146 136 290q12 28 63 111q4 5 45 90q47 127 105 256q16 7 47 23q35 -12 88 -23q72 -51 92 -74q4 -5 7.5 -12.5t8 -18.5t8.5 -18 q85 -109 222 -471q2 -2 16 -2q0 -19 10 -49q13 -33 13 -45q0 -7 -3 -16q1 -2 7 -6t10 -9q47 -125 149 -547l11 -20q46 -225 125 -361q0 -22 57 -133l-29 -22q0 -4 1 -12.5t1 -12.5q0 -22 -37 -162v119q-8 8 -14 17h21q-3 -5 -5 -7l-2 -4q3 0 9 -6v-35q-10 -10 -27 -14 q-10 -22 -27 -51h-123l-102 133q-21 118 -86 195q10 25 10 30q-11 15 -28 53q-43 56 -91 93q-42 42 -79 61q-28 14 -57 29.5t-33 17.5q-50 3 -99 27q-15 6 -28 6q-2 8 -7 18q-3 -7 -14 -20q-49 7 -119 31q-4 -4 -11 -8.5t-21 -14t-27 -18.5q-8 19 -19 30l-3 -3q-4 -2 -9 -7 q-4 2 -10 4.5t-8 3.5q20 -20 28 -32q-54 -6 -79 -16t-39 -29h-56l-10 10q-4 0 -11.5 -1t-10.5 -1l-78 -154l-2 -2q0 -4 4 -14q-26 -55 -43 -84q-25 0 -49 4l-9 -14h-36q-11 26 -27 34q-24 9 -39 21q0 12 2 16q-10 16 -14 41q-2 2 -6.5 9t-10.5 14.5t-12 15.5zM295 2257 q1 2 8.5 18.5t19 40t25.5 49.5q12 9 49 43l195 172q143 76 274 76q46 0 174 -43q43 -21 113 -67q122 -95 123 -95q22 0 67 31q79 39 320 223q12 10 49 29q34 4 49 8q15 -6 66 -24v-8q10 -13 26 -13q2 -2 2 -4t-4 -14q15 -15 25 -23v-61q0 11 -24 -24l-5 -7 q-49 -56 -137 -141q-60 -43 -94 -82q-165 -124 -258 -127q-35 -9 -34 -11q1 -1 5 -1q-19 0 -49 10q-64 19 -68 20q-68 18 -180 121q-101 94 -149 94q-15 0 -78 -32q-65 -35 -92 -35l-248 -209l-12 2l-9 1.5t-4 0.5q-18 -5 -45 -16q-19 8 -47 16q-53 74 -53 82zM430 449 q0 34 19 71l49 -22q-33 -33 -68 -49zM535 860q10 2 40 2q8 -2 18.5 -3.5t12.5 -2.5l6 -2q25 5 41 14l68 2q8 0 57 -14q46 -12 51 -12h2q12 6 19 6l240 -94q-2 5 -5 17.5t-8.5 35.5t-11.5 45q-28 124 -29 129l-78 246q-47 145 -108 239q-26 -26 -57 -102q11 -14 -7 -53 l-12 18l-24 -37l-7 21l-129 -283q2 -2 2 -16q-59 -65 -81 -156z" />
<glyph unicode="&#xc4;" horiz-adv-x="1241" d="M45 387v76h6l-4 4v2q1 1 4 25q57 51 80 96q47 47 59 98q7 14 26.5 50t27.5 50q22 60 63 117q7 16 60 150q17 28 24 41q8 27 8 37q72 146 136 290q12 28 63 111q4 5 45 90q47 127 105 256q16 7 47 23q35 -12 88 -23q72 -51 92 -74q4 -5 7.5 -12.5t8 -18.5t8.5 -18 q85 -109 222 -471q2 -2 16 -2q0 -19 10 -49q13 -33 13 -45q0 -7 -3 -16q1 -2 7 -6t10 -9q47 -125 149 -547l11 -20q46 -225 125 -361q0 -22 57 -133l-29 -22q0 -4 1 -12.5t1 -12.5q0 -22 -37 -162v119q-8 8 -14 17h21q-3 -5 -5 -7l-2 -4q3 0 9 -6v-35q-10 -10 -27 -14 q-10 -22 -27 -51h-123l-102 133q-21 118 -86 195q10 25 10 30q-11 15 -28 53q-43 56 -91 93q-42 42 -79 61q-28 14 -57 29.5t-33 17.5q-50 3 -99 27q-15 6 -28 6q-2 8 -7 18q-3 -7 -14 -20q-49 7 -119 31q-4 -4 -11 -8.5t-21 -14t-27 -18.5q-8 19 -19 30l-3 -3q-4 -2 -9 -7 q-4 2 -10 4.5t-8 3.5q20 -20 28 -32q-54 -6 -79 -16t-39 -29h-56l-10 10q-4 0 -11.5 -1t-10.5 -1l-78 -154l-2 -2q0 -4 4 -14q-26 -55 -43 -84q-25 0 -49 4l-9 -14h-36q-11 26 -27 34q-24 9 -39 21q0 12 2 16q-10 16 -14 41q-2 2 -6.5 9t-10.5 14.5t-12 15.5zM315 1692 q22 35 52 82q-3 0 -15 -9q-12 12 -12 17l33 -6l-2 18h37q20 13 53 16q38 -23 114 -59q7 -7 7 -31q2 -3 11 -10t15 -12q-2 -24 -4 -45q-8 -8 -24 -37q-92 -29 -168 -29l-82 55q-15 15 -15 50zM430 449q0 34 19 71l49 -22q-33 -33 -68 -49zM535 860q10 2 40 2q8 -2 18.5 -3.5 t12.5 -2.5l6 -2q25 5 41 14l68 2q8 0 57 -14q46 -12 51 -12h2q12 6 19 6l240 -94q-2 5 -5 17.5t-8.5 35.5t-11.5 45q-28 124 -29 129l-78 246q-47 145 -108 239q-26 -26 -57 -102q11 -14 -7 -53l-12 18l-24 -37l-7 21l-129 -283q2 -2 2 -16q-59 -65 -81 -156zM748 1671l1 46 q1 -1 1 -3q15 30 20 39q87 35 166 41l86 -49q16 -16 16 -49q-1 -1 -43 -84q5 0 13 8q12 -12 12 -16q-1 1 -33 4l4 -19q-19 0 -35 -2q-18 -15 -53 -18q-36 22 -119 49q-8 5 -8 31q-12 6 -28 22z" />
<glyph unicode="&#xc5;" horiz-adv-x="1230" d="M45 387v76h6l-4 4v2q1 1 4 25q57 51 80 96q47 47 59 98q7 14 26.5 50t27.5 50q22 60 63 117q7 16 60 150q17 28 24 41q8 27 8 37q72 146 136 290q12 28 63 111q4 5 45 90q47 127 105 256q16 7 47 23q35 -12 88 -23q72 -51 92 -74q4 -5 7.5 -12.5t8 -18.5t8.5 -18 q85 -109 222 -471q2 -2 16 -2q0 -19 10 -49q13 -33 13 -45q0 -7 -3 -16q1 -2 7 -6t10 -9q47 -125 149 -547l11 -20q46 -225 125 -361q0 -22 57 -133l-29 -22q0 -4 1 -12.5t1 -12.5q0 -22 -37 -162v119q-8 8 -14 17h21q-3 -5 -5 -7l-2 -4q3 0 9 -6v-35q-10 -10 -27 -14 q-10 -22 -27 -51h-123l-102 133q-21 118 -86 195q10 25 10 30q-11 15 -28 53q-43 56 -91 93q-42 42 -79 61q-28 14 -57 29.5t-33 17.5q-50 3 -99 27q-15 6 -28 6q-2 8 -7 18q-3 -7 -14 -20q-49 7 -119 31q-4 -4 -11 -8.5t-21 -14t-27 -18.5q-8 19 -19 30l-3 -3q-4 -2 -9 -7 q-4 2 -10 4.5t-8 3.5q20 -20 28 -32q-54 -6 -79 -16t-39 -29h-56l-10 10q-4 0 -11.5 -1t-10.5 -1l-78 -154l-2 -2q0 -4 4 -14q-26 -55 -43 -84q-25 0 -49 4l-9 -14h-36q-11 26 -27 34q-24 9 -39 21q0 12 2 16q-10 16 -14 41q-2 2 -6.5 9t-10.5 14.5t-12 15.5zM430 449 q0 34 19 71l49 -22q-33 -33 -68 -49zM432 2177q0 50 43 74q10 10 35 10q18 54 82 135q50 17 63 17h115q3 -9 76 -37q21 -18 78 -41l75 -82q3 -6 24.5 -43t37.5 -66q43 -76 43 -110l-10 -97q-4 -7 -43 -51q-8 -4 -20 -10.5t-30 -16.5t-32 -18l-78 -12q-65 0 -92 -6 q-14 -3 -23 16q-26 0 -44.5 -0.5t-26.5 -1.5t-7 -2l-4 4l-143 72q-5 7 -29.5 36.5t-42.5 51.5q-47 124 -47 178zM535 860q10 2 40 2q8 -2 18.5 -3.5t12.5 -2.5l6 -2q25 5 41 14l68 2q8 0 57 -14q46 -12 51 -12h2q12 6 19 6l240 -94q-2 5 -5 17.5t-8.5 35.5t-11.5 45 q-28 124 -29 129l-78 246q-47 145 -108 239q-26 -26 -57 -102q11 -14 -7 -53l-12 18l-24 -37l-7 21l-129 -283q2 -2 2 -16q-59 -65 -81 -156zM702 2107q0 -32 99 -32q23 0 61 14q45 15 51 29q0 12 -2 18l-2 8q-43 29 -108 29q-66 0 -70 -4q2 -2 4 -2q-6 -9 -16 -25 q-17 -27 -17 -35z" />
<glyph unicode="&#xc6;" horiz-adv-x="2592" d="M14 190l6 9q0 2 -4 6q18 12 31 49q24 66 25 68q46 90 49 96q3 10 65 96q43 61 43 86q0 5 -6 14q-4 16 -4 17q0 -6 3 3l16 60q51 36 98 105q9 8 17 16t15 15.5t9 9.5q20 22 26 51l203 262l6 3q7 3 11 5q15 23 49 62q-3 12 0 28q12 16 38.5 46.5t39.5 45.5q43 52 49 93 q7 9 71 112q34 56 48 84q5 7 13.5 21t23 37.5t26.5 42.5q18 80 45 104q28 28 80 25l188 -13l213 17q67 3 78 -19l115 23h274l70 -8h133l176 -29q12 -24 39 -43v-25l23 -14q-3 -47 22 -53v-62l-4 -16l-6 -14q-12 -16 -27 -31q-17 10 -24 10q-29 0 -56 -18q-52 18 -75 18 q-5 0 -9 -2q-2 -2 -6 -2q-2 0 -18 8q-17 10 -19 10h-82q-13 0 -18 11q-24 -6 -41 -6l-283 6q-10 0 -40 -6q-2 0 -9 -1.5t-21.5 -4.5t-27.5 -5q-5 8 -24 23q-36 0 -56 4l-82 -16h-178q-10 0 -43 -23v-47q0 -6 6 -33t6 -33v-77l37 -336q0 -26 17 -54l135 15l78 -12l272 14 l207 -2l170 -31q11 0 41 10l203 -45q4 -2 16 -14q11 0 84 -51q0 -18 8 -37l10 -21v-24q-56 -35 -53 -60q-17 -14 -39 -14q-6 0 -10 2q-6 2 -12 2q-22 -22 -72 -22l-334 18q-3 1 -11.5 4t-14.5 4l-287 4l-320 -28q-1 0 -5 1t-7 1q-6 2 -12 2q-15 -24 -15 -43q0 12 3 0 q7 -26 8 -39q2 -22 22 -176q10 -55 49 -162l13 -12l299 -17q14 -3 35 8q21 -8 40 -8l111 13h66l290 8q49 0 187 -23q84 -40 143 -102q-2 -18 8 -78l8 -8l3 -4v-51q-18 -24 -76 -39l-84 -19l-64 8h-63l-698 -20q-69 4 -277 35q-91 31 -123 35q-38 35 -47 73q0 1 -27 174 q3 6 -12 49l-20 183l-43 188h-29l-166 -35l-254 -34l-84 12q-12 -4 -45 -43q-5 -8 -12 -31q-1 -1 -72 -100q-54 -74 -164 -287q-8 -37 -10 -55q-2 -5 -13 -26t-18 -38q-21 -21 -24 -33q-39 -6 -80 -26h-16q-5 10 -9 16q-41 0 -71 10q0 24 -29 74q-4 8 -4 27q0 14 2 22 q-13 9 -16 9q0 14 -9 38zM807 973q7 -14 4 -29q28 0 51 -2l244 33l2 10v19l-45 325l-5 -5q-4 -6 -9 -11h-15q0 -16 -24 -31q-8 -17 -31 -49v-12q-3 -2 -9 -6.5t-9 -6.5l-76 -116q6 -3 6 -13q-4 -3 -15 -10t-16 -10z" />
<glyph unicode="&#xc7;" horiz-adv-x="1716" d="M39 610q0 390 463 811q41 12 71 39q47 41 68 35q3 4 41 53q15 8 69.5 38t94.5 52q14 -4 26 -4l86 62l279 76h88q1 -4 7 -20.5t11 -27.5q21 -22 35 -32q-20 -9 -20 -29q0 -70 2 -72q2 2 2 4q4 -3 37 -36q-1 0 -27 -11l6 -20l-30 -25q2 -1 8.5 -3t15 -5t17.5 -6 q-37 -21 -58 -21q-8 0 -12 2l-14 -14q-1 0 -82 -14q-11 -7 -113 -51q-14 -5 -92 -41q-58 -36 -211 -117q-78 -73 -168 -131q-68 -71 -182 -211q-13 -7 -23 -14q-18 -9 -18 -33q0 -12 8 -23q-6 -7 -62 -63q0 3 2 -2t5 -17l-31 -112v-74q0 -9 29 -35q27 -24 41 -24 q3 -2 14 -12t20 -17q2 -1 18.5 -5.5t58 -16t83.5 -23.5q56 -10 123 -12l176 -7l197 13l266 30q15 0 27 -6l77 27q3 -6 15 -6l116 30h43l11 -14h71q7 -7 7 -22q4 -4 16 -4q-1 -2 -6 -17q16 -13 16 -12q-16 -8 -37 -29l-2 -4q0 -4 8 -4h31q0 2 -2 -2q-5 -10 -14 -37l20 -10 q-18 -3 -65 -47q-2 -6 -2 -15q0 -8 2 -12q-1 0 -4.5 0.5l-10.5 1.5l-14 2q-6 0 -12 -18q-46 -10 -94 -41l-97 -27q-12 0 -16 4q-14 -11 -14 -10q12 -16 30 -27q-4 -2 -20 -2q-15 0 -66 7q17 0 17 12h-19q-10 -10 -10 -21q-11 11 -31 11v-19l-24 -14q39 0 51 -6 q-10 0 -10 -11h-158q-6 0 -6 -6l-139 -24q24 0 90 -17q1 1 4 9.5t6 15.5h18l-4 -6l23 -4l16 10q0 -7 10 -17h54q-24 -3 -66 -18q-1 1 -5 2t-7.5 3t-7.5 5l-9 -10q-8 4 -26 4q-9 -5 -19 -12q24 -6 58 -6q-19 0 -39 -2q-36 -4 -37 -4q-5 0 8 10h-37l11 -8q0 -17 -19 -17h-205 l-16 15h-10l4 -11q-77 0 -162 -10q-14 11 -14 16l2 3q-15 6 -33 6q-9 0 -19 -2t-18 -2q-42 0 -51 20h-14l-8 -3q-5 -2 -9 -3l-139 49q2 4 10 4q6 0 12 -6h15q11 0 24 8q-24 12 -34 12q-5 0 -11 -6q-4 6 -65 31q-4 -4 -4 -14h-19q-3 13 -18 16l-27 10q-3 15 -6 15q4 0 4 6 q-6 6 -18 6q4 0 12 4l-12 8l-11 -10q-6 6 -16 6q-9 17 -16 37l-58 27q0 4 6 10q-10 3 -26 35q-15 4 -49 67q-11 100 -19 154zM545 -756l8 27q-2 14 -2 61q21 103 154 138q64 27 188 110q0 14 -12 14q-5 1 -14.5 2.5t-14.5 2.5v14q-37 3 -98 37q-10 30 -25 45q0 16 -14 41 q-6 21 -6 74q0 115 92 319q37 16 39 16h41q139 -103 139 -196q0 -11 -4 -31q15 -26 57 -53q16 -11 30.5 -21.5t23 -16.5t10.5 -7q86 -80 143 -185q5 -23 16 -75q8 -36 9 -39q4 -12 4 -2q0 -34 -37 -101q-71 -126 -189 -182q-22 -11 -54 -26t-82 -37t-87 -39q-17 -3 -20 -19 h-244l4 8zM676 -881l12 9zM1266 137q8 0 24 19h-18z" />
<glyph unicode="&#xc8;" horiz-adv-x="1392" d="M66 328q0 1 3 10.5t8 25t11 33.5q43 124 86 287q-2 6 -2 12q22 40 25 74l-15 66v79q13 17 37 72q18 41 47 35l49 154v26l-8 10h-31q-100 109 -118 211l35 133q59 41 59 43q6 0 12 -2q6 -4 12 -4q54 0 164 35q10 12 84 74q56 -29 72 -29q5 0 35 6q29 3 47 0l401 86 q20 0 23 -6q4 8 4 13l74 12q23 -3 71 -12q29 16 41 28q9 0 33 -6l123 25q10 -5 49 -13q11 14 31 23q12 0 12 -17q-9 -5 -35 -14q4 -4 27 -4l59 16l2 -2q0 -3 -6 -6q17 -24 17 -16v-23q2 -1 9.5 -3.5t12.5 -4.5q10 10 31 10q53 -12 88 -12q4 -6 4 -14q-52 -27 -49 -64 q-43 -31 -66 -45l8 -8q12 0 15 6q6 -12 6 -16q-4 0 -27 -13l-10 17q-10 -17 -31 -17q-27 0 -43 -4q4 -4 15 -4q-105 -42 -105 -45q-4 2 -10 6q-1 -3 -3.5 -6.5t-7.5 -10t-9 -11.5h-52q-49 -58 -112 -49q-103 -12 -103 -43q-13 0 -22 12q-74 -22 -68 -25q-19 0 -22 6 q-7 -7 -21 -28l-12 12q-2 -2 -14 -2q-17 0 -29 2q-6 -9 -6 -20q0 -12 6 -21q3 12 -10 12h-17q-14 -11 -14 -22l-33 4q-7 0 -26 -8q-21 -8 -31 -8l-15 6q-8 -8 -8 -23l-135 -59q-16 -53 -49 -129q1 -4 3.5 -19t4.5 -26l522 41h152q0 -31 -4 -31q-2 0 -2 2h67q-2 -5 4 -21 q-13 -14 -14 -14q16 -5 55 -24q-18 -25 -47 -33l-8 -17l4 -20v-25q-6 -9 -30 -18q2 -4 6 -16l-213 -72q-28 0 -37 6q-18 -15 -76 -23q-3 -4 -13.5 -15.5t-17.5 -18.5q-8 2 -22 2q-11 0 -15 -2l-4 2q-4 0 -4 -13q-1 0 -63 -10q-44 -9 -64 8l-155 -63q-26 0 -62 -19 q-30 -14 -61 -26q-12 -17 -29 -51q-24 -78 -37 -129v-39l666 51q1 0 3.5 -0.5t8 -1.5t10.5 -2q21 -6 23 -6h96q19 -4 82 -15q45 -5 125 -18q6 -2 37 -12t55 -17q8 -8 90 -86v-59l-20 -23l14 -16q-38 -15 -41 -21h4q-1 -4 -3 -11t-5.5 -16.5t-5.5 -17.5q-4 -2 -23 -2 q-25 0 -41 2q-4 -8 -4 -16q-26 -9 -39 -25q0 8 -18 17q-8 -2 -45 2q-28 4 -35 4q-24 0 -41 -14l14 -13q-26 0 -38 4q0 3 8 15q-4 2 -27 2q0 -4 2 -8l4 -9l-276 -6q-51 0 -64 -22l-12 10h-45l-207 -35q-19 0 -22 6q-5 -4 -11 -8q-10 -7 -10 -8h-35q-6 -6 -6 -21q0 9 -6 15 h-18q-11 -11 -11 -17q-27 -5 -98 -8q-9 -7 -47 -20l-158 -21h-114l-13 37q-83 59 -104 146q-12 49 -12 135zM354 2476l4 18q-4 8 -4 15q-3 13 11 43q20 35 59 41q69 6 115 -37q12 -3 36 -12l256 -174q144 -99 283 -129q9 -19 35 -33q35 -54 33 -64l26 -16q0 -10 -14 -21 q0 -10 8 -18q-2 -1 -8 -6t-10 -10l4 -31q-66 -15 -66 -25q4 0 4 -8l-22 -2q-89 25 -133 37l-422 246q-61 35 -146 106q-2 4 -22 10q-27 62 -27 70zM956 1354q4 -1 6.5 -2.5t3 -3t-0.5 -2.5q-3 8 -9 8z" />
<glyph unicode="&#xc9;" horiz-adv-x="1396" d="M66 328q0 1 3 10.5t8 25t11 33.5q43 124 86 287q-2 6 -2 12q22 40 25 74l-15 66v79q13 17 37 72q18 41 47 35l49 154v26l-8 10h-31q-100 109 -118 211l35 133q59 41 59 43q6 0 12 -2q6 -4 12 -4q54 0 164 35q10 12 84 74q56 -29 72 -29q5 0 35 6q29 3 47 0l401 86 q20 0 23 -6q4 8 4 13l74 12q23 -3 71 -12q29 16 41 28q9 0 33 -6l123 25q10 -5 49 -13q11 14 31 23q12 0 12 -17q-9 -5 -35 -14q4 -4 27 -4l59 16l2 -2q0 -3 -6 -6q17 -24 17 -16v-23q2 -1 9.5 -3.5t12.5 -4.5q10 10 31 10q53 -12 88 -12q4 -6 4 -14q-52 -27 -49 -64 q-43 -31 -66 -45l8 -8q12 0 15 6q6 -12 6 -16q-4 0 -27 -13l-10 17q-10 -17 -31 -17q-27 0 -43 -4q4 -4 15 -4q-105 -42 -105 -45q-4 2 -10 6q-1 -3 -3.5 -6.5t-7.5 -10t-9 -11.5h-52q-49 -58 -112 -49q-103 -12 -103 -43q-13 0 -22 12q-74 -22 -68 -25q-19 0 -22 6 q-7 -7 -21 -28l-12 12q-2 -2 -14 -2q-17 0 -29 2q-6 -9 -6 -20q0 -12 6 -21q3 12 -10 12h-17q-14 -11 -14 -22l-33 4q-7 0 -26 -8q-21 -8 -31 -8l-15 6q-8 -8 -8 -23l-135 -59q-16 -53 -49 -129q1 -4 3.5 -19t4.5 -26l522 41h152q0 -31 -4 -31q-2 0 -2 2h67q-2 -5 4 -21 q-13 -14 -14 -14q16 -5 55 -24q-18 -25 -47 -33l-8 -17l4 -20v-25q-6 -9 -30 -18q2 -4 6 -16l-213 -72q-28 0 -37 6q-18 -15 -76 -23q-3 -4 -13.5 -15.5t-17.5 -18.5q-8 2 -22 2q-11 0 -15 -2l-4 2q-4 0 -4 -13q-1 0 -63 -10q-44 -9 -64 8l-155 -63q-26 0 -62 -19 q-30 -14 -61 -26q-12 -17 -29 -51q-24 -78 -37 -129v-39l666 51q1 0 3.5 -0.5t8 -1.5t10.5 -2q21 -6 23 -6h96q19 -4 82 -15q45 -5 125 -18q6 -2 37 -12t55 -17q8 -8 90 -86v-59l-20 -23l14 -16q-38 -15 -41 -21h4q-1 -4 -3 -11t-5.5 -16.5t-5.5 -17.5q-4 -2 -23 -2 q-25 0 -41 2q-4 -8 -4 -16q-26 -9 -39 -25q0 8 -18 17q-8 -2 -45 2q-28 4 -35 4q-24 0 -41 -14l14 -13q-26 0 -38 4q0 3 8 15q-4 2 -27 2q0 -4 2 -8l4 -9l-276 -6q-51 0 -64 -22l-12 10h-45l-207 -35q-19 0 -22 6q-5 -4 -11 -8q-10 -7 -10 -8h-35q-6 -6 -6 -21q0 9 -6 15 h-18q-11 -11 -11 -17q-27 -5 -98 -8q-9 -7 -47 -20l-158 -21h-114l-13 37q-83 59 -104 146q-12 49 -12 135zM350 1880q2 6 4 14q6 12 6 17q24 17 35 39q21 15 110 75t159 109q9 6 59.5 43t93.5 66q51 36 258 153q8 5 8 14l47 23q11 -5 39 -16v-27q15 -4 35 -18 q13 -29 29 -29l10 4q0 -11 17 -25q-6 -9 -25 -28q0 -5 6 -8q-21 -21 -49 -56q-23 -17 -250 -162q-167 -110 -270 -190q-9 -8 -21.5 -18.5t-32 -26.5t-32.5 -27q-36 -18 -88 -34q-1 1 -2.5 3t-3.5 6t-5 7h-55l-29 24l-49 -4q6 12 17 23l-9 8q-12 12 -12 41zM956 1354 q4 -1 6.5 -2.5t3 -3t-0.5 -2.5q-3 8 -9 8z" />
<glyph unicode="&#xca;" horiz-adv-x="1398" d="M66 328q0 1 3 10.5t8 25t11 33.5q43 124 86 287q-2 6 -2 12q22 40 25 74l-15 66v79q13 17 37 72q18 41 47 35l49 154v26l-8 10h-31q-100 109 -118 211l35 133q59 41 59 43q6 0 12 -2q6 -4 12 -4q54 0 164 35q10 12 84 74q56 -29 72 -29q5 0 35 6q29 3 47 0l401 86 q20 0 23 -6q4 8 4 13l74 12q23 -3 71 -12q29 16 41 28q9 0 33 -6l123 25q10 -5 49 -13q11 14 31 23q12 0 12 -17q-9 -5 -35 -14q4 -4 27 -4l59 16l2 -2q0 -3 -6 -6q17 -24 17 -16v-23q2 -1 9.5 -3.5t12.5 -4.5q10 10 31 10q53 -12 88 -12q4 -6 4 -14q-52 -27 -49 -64 q-43 -31 -66 -45l8 -8q12 0 15 6q6 -12 6 -16q-4 0 -27 -13l-10 17q-10 -17 -31 -17q-27 0 -43 -4q4 -4 15 -4q-105 -42 -105 -45q-4 2 -10 6q-1 -3 -3.5 -6.5t-7.5 -10t-9 -11.5h-52q-49 -58 -112 -49q-103 -12 -103 -43q-13 0 -22 12q-74 -22 -68 -25q-19 0 -22 6 q-7 -7 -21 -28l-12 12q-2 -2 -14 -2q-17 0 -29 2q-6 -9 -6 -20q0 -12 6 -21q3 12 -10 12h-17q-14 -11 -14 -22l-33 4q-7 0 -26 -8q-21 -8 -31 -8l-15 6q-8 -8 -8 -23l-135 -59q-16 -53 -49 -129q1 -4 3.5 -19t4.5 -26l522 41h152q0 -31 -4 -31q-2 0 -2 2h67q-2 -5 4 -21 q-13 -14 -14 -14q16 -5 55 -24q-18 -25 -47 -33l-8 -17l4 -20v-25q-6 -9 -30 -18q2 -4 6 -16l-213 -72q-28 0 -37 6q-18 -15 -76 -23q-3 -4 -13.5 -15.5t-17.5 -18.5q-8 2 -22 2q-11 0 -15 -2l-4 2q-4 0 -4 -13q-1 0 -63 -10q-44 -9 -64 8l-155 -63q-26 0 -62 -19 q-30 -14 -61 -26q-12 -17 -29 -51q-24 -78 -37 -129v-39l666 51q1 0 3.5 -0.5t8 -1.5t10.5 -2q21 -6 23 -6h96q19 -4 82 -15q45 -5 125 -18q6 -2 37 -12t55 -17q8 -8 90 -86v-59l-20 -23l14 -16q-38 -15 -41 -21h4q-1 -4 -3 -11t-5.5 -16.5t-5.5 -17.5q-4 -2 -23 -2 q-25 0 -41 2q-4 -8 -4 -16q-26 -9 -39 -25q0 8 -18 17q-8 -2 -45 2q-28 4 -35 4q-24 0 -41 -14l14 -13q-26 0 -38 4q0 3 8 15q-4 2 -27 2q0 -4 2 -8l4 -9l-276 -6q-51 0 -64 -22l-12 10h-45l-207 -35q-19 0 -22 6q-5 -4 -11 -8q-10 -7 -10 -8h-35q-6 -6 -6 -21q0 9 -6 15 h-18q-11 -11 -11 -17q-27 -5 -98 -8q-9 -7 -47 -20l-158 -21h-114l-13 37q-83 59 -104 146q-12 49 -12 135zM424 1851q0 20 29 70q22 0 39 12q5 3 55 60q12 14 70.5 78.5t105.5 117.5q25 21 102 109q24 24 64 33q3 -1 15.5 -4t21.5 -5q23 -17 59 -28q62 -51 170 -162 q126 -129 164 -164q25 -45 43 -82q-33 -43 -45 -74l-11 -4l-20 -10l-42 -2h-3q-3 0 -12 6q-3 -1 -6.5 -2.5t-9 -4t-9.5 -3.5q-17 17 -44 48t-34 38q-60 67 -225 197q-12 -4 -24 -4l-80 -74l4 -12q-2 -1 -17 -11l4 -16q4 0 -1 -2q-5 -1 -13 -2l-184 -223l-39 6 q-23 -5 -35 -13q-1 1 -4.5 7.5t-5.5 11.5l-17 -2q5 5 5 12q-6 6 -29 10zM956 1354q4 -1 6.5 -2.5t3 -3t-0.5 -2.5q-3 8 -9 8z" />
<glyph unicode="&#xcb;" horiz-adv-x="1396" d="M66 328q0 1 3 10.5t8 25t11 33.5q43 124 86 287q-2 6 -2 12q22 40 25 74l-15 66v79q13 17 37 72q18 41 47 35l49 154v26l-8 10h-31q-100 109 -118 211l35 133q59 41 59 43q6 0 12 -2q6 -4 12 -4q54 0 164 35q10 12 84 74q56 -29 72 -29q5 0 35 6q29 3 47 0l401 86 q20 0 23 -6q4 8 4 13l74 12q23 -3 71 -12q29 16 41 28q9 0 33 -6l123 25q10 -5 49 -13q11 14 31 23q12 0 12 -17q-9 -5 -35 -14q4 -4 27 -4l59 16l2 -2q0 -3 -6 -6q17 -24 17 -16v-23q2 -1 9.5 -3.5t12.5 -4.5q10 10 31 10q53 -12 88 -12q4 -6 4 -14q-52 -27 -49 -64 q-43 -31 -66 -45l8 -8q12 0 15 6q6 -12 6 -16q-4 0 -27 -13l-10 17q-10 -17 -31 -17q-27 0 -43 -4q4 -4 15 -4q-105 -42 -105 -45q-4 2 -10 6q-1 -3 -3.5 -6.5t-7.5 -10t-9 -11.5h-52q-49 -58 -112 -49q-103 -12 -103 -43q-13 0 -22 12q-74 -22 -68 -25q-19 0 -22 6 q-7 -7 -21 -28l-12 12q-2 -2 -14 -2q-17 0 -29 2q-6 -9 -6 -20q0 -12 6 -21q3 12 -10 12h-17q-14 -11 -14 -22l-33 4q-7 0 -26 -8q-21 -8 -31 -8l-15 6q-8 -8 -8 -23l-135 -59q-16 -53 -49 -129q1 -4 3.5 -19t4.5 -26l522 41h152q0 -31 -4 -31q-2 0 -2 2h67q-2 -5 4 -21 q-13 -14 -14 -14q16 -5 55 -24q-18 -25 -47 -33l-8 -17l4 -20v-25q-6 -9 -30 -18q2 -4 6 -16l-213 -72q-28 0 -37 6q-18 -15 -76 -23q-3 -4 -13.5 -15.5t-17.5 -18.5q-8 2 -22 2q-11 0 -15 -2l-4 2q-4 0 -4 -13q-1 0 -63 -10q-44 -9 -64 8l-155 -63q-26 0 -62 -19 q-30 -14 -61 -26q-12 -17 -29 -51q-24 -78 -37 -129v-39l666 51q1 0 3.5 -0.5t8 -1.5t10.5 -2q21 -6 23 -6h96q19 -4 82 -15q45 -5 125 -18q6 -2 37 -12t55 -17q8 -8 90 -86v-59l-20 -23l14 -16q-38 -15 -41 -21h4q-1 -4 -3 -11t-5.5 -16.5t-5.5 -17.5q-4 -2 -23 -2 q-25 0 -41 2q-4 -8 -4 -16q-26 -9 -39 -25q0 8 -18 17q-8 -2 -45 2q-28 4 -35 4q-24 0 -41 -14l14 -13q-26 0 -38 4q0 3 8 15q-4 2 -27 2q0 -4 2 -8l4 -9l-276 -6q-51 0 -64 -22l-12 10h-45l-207 -35q-19 0 -22 6q-5 -4 -11 -8q-10 -7 -10 -8h-35q-6 -6 -6 -21q0 9 -6 15 h-18q-11 -11 -11 -17q-27 -5 -98 -8q-9 -7 -47 -20l-158 -21h-114l-13 37q-83 59 -104 146q-12 49 -12 135zM383 1673q3 5 11.5 18.5t18.5 30t21 33.5q-3 0 -14 -8q-12 12 -12 16l32 -6l-2 19h37q20 13 53 16q35 -21 115 -59q6 -6 6 -31q2 -3 11.5 -10.5t15.5 -12.5 q-2 -24 -4 -45q-10 -10 -25 -37q-89 -28 -168 -28l-82 55q-14 14 -14 49zM815 1653l1 46q1 -1 1 -3q6 12 21 39q87 35 166 41l86 -50q16 -16 16 -49q0 -1 -43 -84q3 0 12 9q12 -12 12 -17q-1 1 -32 4l4 -18q-19 0 -35 -2q-19 -16 -53 -19q-36 22 -119 49q-8 5 -8 31 q-12 6 -29 23zM956 1354q4 -1 6.5 -2.5t3 -3t-0.5 -2.5q-3 8 -9 8z" />
<glyph unicode="&#xcc;" horiz-adv-x="677" d="M31 2056l4 19q-4 8 -4 14q-3 14 10 43q20 35 59 41q69 6 115 -37q15 -4 37 -12l256 -174q144 -99 283 -129q10 -20 34 -33q35 -54 33 -64l27 -16q0 -8 -15 -20q0 -10 9 -19q-1 -2 -7.5 -7t-11.5 -9l4 -31q-65 -14 -65 -25q4 0 4 -8l-23 -2q-89 25 -133 37l-422 246 q-58 33 -145 106q-3 5 -23 11q-26 60 -26 69zM180 240l72 1200q2 13 6.5 45.5t7.5 54.5q1 4 2 13t2.5 18t3.5 18l45 105q31 73 74 82q4 -1 37 -15q19 -20 35 -37t23 -26l8 -8q34 -40 49 -86l10 -150l-37 -594l6 -145q-10 -17 -10 -33v-84l-16 -137v-82l-4 -293q0 -9 14 -23 q-7 0 -23 -16h-14q-6 2 -16 6q-42 -28 -35 -51q-43 -16 -76 -16q-20 0 -37 10q-14 9 -48 35t-52 39z" />
<glyph unicode="&#xcd;" horiz-adv-x="823" d="M41 1905q2 6 4 14q6 12 6 16q24 17 35 39q23 17 112 77.5t156 107.5q9 6 60 42.5t94 65.5q58 41 258 154q8 5 8 14l47 23q19 -10 39 -17v-26q13 -3 35 -19q13 -29 29 -29l6 4q2 0 4 1q0 -12 16 -25q-10 -15 -24 -29q0 -5 6 -8q-25 -25 -49 -55q-23 -17 -250 -162 q-174 -115 -271 -190q-9 -8 -21.5 -18.5t-32 -26.5t-32.5 -27q-41 -21 -88 -35q-1 1 -4 6.5t-6 9.5h-55l-29 25l-49 -4q6 12 16 22l-8 9q-12 12 -12 41zM315 240l72 1200q2 13 6.5 45.5t7.5 54.5q4 24 9 49l45 105q31 73 73 82q4 -1 37 -15q19 -20 35 -37t24 -26l7 -8 q34 -40 49 -86l10 -150l-37 -594l6 -145q-10 -17 -10 -33v-84l-16 -137v-82l-4 -293q0 -9 14 -23q-6 0 -22 -16h-15q-6 2 -16 6q-42 -28 -35 -51q-43 -16 -76 -16q-20 0 -37 10q-14 9 -48 35t-52 39z" />
<glyph unicode="&#xce;" horiz-adv-x="909" d="M37 1399q0 19 29 69q20 0 38 13q9 6 56 59q22 25 176 197q29 24 102 108q24 24 64 33q3 -1 15.5 -3.5t21.5 -4.5q26 -18 59 -29q62 -51 170 -162q117 -120 164 -163q25 -45 43 -82q-33 -43 -45 -74l-11 -4q-11 -5 -20 -10l4 -1q-7 -2 -49 -2q-2 0 -12 7q-3 -1 -11.5 -5 t-13.5 -6q-17 17 -44 48t-34 38q-60 67 -225 197q-12 -4 -25 -4l-79 -74l4 -12q-8 -4 -17 -10l4 -17q4 0 -1 -2q-5 -1 -13 -2l-184 -223l-39 6q-25 -6 -35 -12q-1 1 -4.5 7t-5.5 11l-17 -2q4 4 4 12q-8 8 -28 11zM362 240l72 1200q1 9 6.5 43t8.5 57q1 4 2 13t2.5 18t3.5 18 l45 105q31 73 73 82q4 -1 37 -15q19 -20 35 -37t23 -26l8 -8q34 -40 49 -86l10 -150l-37 -594l7 -145q-11 -18 -11 -33v-84l-16 -137v-82l-4 -293q0 -9 14 -23q-6 0 -22 -16h-15q-6 2 -16 6q-42 -28 -35 -51q-43 -16 -76 -16q-20 0 -37 10q-14 9 -48 35t-52 39z" />
<glyph unicode="&#xcf;" horiz-adv-x="690" d="M18 1626q22 35 52 82q-4 0 -15 -8q-12 12 -12 16l33 -6l-2 19h37q20 13 53 16q35 -21 115 -59q6 -6 6 -31q3 -2 12 -9.5t14 -13.5q-2 -24 -4 -45q-8 -8 -24 -37q-89 -28 -168 -28l-82 55q-15 15 -15 49zM190 240l72 1200q2 13 6.5 45.5t7.5 54.5q4 24 9 49l45 105 q31 73 73 82q4 -1 37 -15q19 -20 35 -37t23 -26l8 -8q34 -40 49 -86l10 -150l-37 -594l7 -145q-11 -18 -11 -33v-84l-16 -137v-82l-4 -293q0 -9 14 -23q-6 0 -22 -16h-15q-6 2 -16 6q-42 -28 -35 -51q-43 -16 -76 -16q-20 0 -37 10q-14 9 -48 35t-52 39zM451 1606l1 46 q1 -1 1 -3q15 30 20 39q87 35 166 41l86 -50q16 -16 16 -49q0 -1 -43 -84q5 0 13 8q12 -12 12 -16q-1 1 -33 4l4 -18q-19 0 -35 -2q-19 -16 -53 -19q-36 22 -119 49q-8 5 -8 31q-10 5 -28 23z" />
<glyph unicode="&#xd0;" horiz-adv-x="2535" d="M45 897q0 2 6 23l4 28q16 27 37 41q21 13 101 23q71 6 92 14l18 180v64l25 276q0 25 -15 49q-31 2 -49 7q-31 6 -57 32q-2 9 -6 23q-4 28 -4 29q-31 36 -31 49q0 8 6 20q8 38 10 43q11 31 35 45q177 25 227 25l162 18h56l155 6l287 -10l291 -51l18 4q63 -14 80 -14 q105 -27 291 -80q5 -2 225 -94q21 -8 92 -31q178 -85 305 -209q150 -147 150 -285q0 -54 -53 -143q-51 -87 -105 -131q-1 -1 -2.5 -4.5t-5 -10t-6.5 -12.5q-70 -26 -94 -73q-37 -21 -115 -93q-10 -3 -53 -22q-3 -6 -47 -76l-113 -59q-4 4 -8 4l-361 -254q-37 -11 -118 -86 q-34 -16 -54 -33q-61 -35 -85 -52.5t-27 -31.5q-45 0 -129 -78q-31 -10 -111 -51q-6 -12 -10 -22q3 0 -3 -3q-10 -6 -34 -14q-12 -6 -14 -18q-14 -3 -35 -31q-16 -8 -35 -8l-45 -62h-14l-70 -59h-14l-299 -240q-10 4 -45 4q-4 0 -25 -6q-19 -8 -25 -8h-18q-2 2 -11 12 t-16 17q-6 0 -39 10q-19 40 -22 59q-13 -3 -33 4q-3 16 8 27q-6 15 -22 31q0 10 10 20q-1 10 -2 19t-1.5 13t-0.5 5q4 1 41 45q97 73 258 178q54 54 154 107q77 71 151 110q43 43 152 111q6 6 18 21q118 87 338 215q56 47 244 180q23 3 98 55q504 334 528 504 q-41 63 -125 117q-118 75 -159 110q-5 0 -13 -4q-12 0 -32 17q-8 3 -74 18q-83 54 -203 63q-74 41 -78 41q-8 0 -18 -2t-16 -2l-211 37l-29 -6q-22 25 -84 25l-190 18q-18 0 -56 -10q-8 -2 -24 14h-17q-17 0 -57 -18h-76q-8 0 -16 4l-10 4l-142 -27l-8 -8l-27 -506l9 -12h49 l133 18h205l143 -36q23 -49 61 -66v-35q-14 -32 -14 -33q-25 -3 -47 -22q3 -6 14 -6q-8 -19 -14 -25q-5 -7 -33 -14q-26 -6 -26 -25l-95 -6l-313 -59h-18q-44 0 -58 -23l-18 -153q4 -11 12 -43l19 -467l-27 -23q3 -13 -18 -37q3 -13 -15 -41l-24 -30l-19 6q-4 -8 -28 -21 l-7 6h-45q-6 16 -22 41q-8 -8 -8 -14l-76 84l1 31q1 0 1 -2q0 3 -10 30q-7 24 -7 27v68l-8 534q-4 -2 -49 -2l-73 19h-1h-1h-1h-1l-1 1h-1h-1h-1l-1 1h-2q-2 2 -12 8t-17 10q-9 20 -51 88q-10 23 -10 43z" />
<glyph unicode="&#xd1;" horiz-adv-x="1603" d="M-4 446v58q0 19 33 78q31 60 34 82q96 158 179 458q118 429 135 475q11 32 88 109q3 0 39 4q16 2 39 2q33 0 94 -37q61 -42 72 -67q142 -129 256 -363q37 -75 103 -220.5t99 -213.5q114 -240 230 -356q67 91 190 512q105 357 148 569q0 52 8 125q0 9 12 43q8 21 8 43 q7 8 18 25t13 20l21 8q19 19 22 25q13 10 31 14q5 14 10 21q17 -7 78 -62l18 21q9 -21 25 -37h18q3 -16 -8 -37l8 -12q-6 -17 23 -54l-23 -139l-6 12l-10 -12l2 -10q0 -24 -21 -45q15 -19 15 -29l-10 4q-10 -7 -15 -14q-1 -4 -4.5 -26.5t-5.5 -39.5q8 -4 16 -20 q-18 -15 -36 -45l14 -10v-21q-18 -3 -25 -20l11 -7q-3 -9 -12 -29.5t-13 -31.5q0 -70 -21 -80l5 -8l-25 -31l10 -63l-20 -15l-2 -20l6 -10l-25 -23l8 -12q-15 -30 -26 -43l16 -19v-18q-1 -1 -9 -6t-15 -8v-25l26 -4l-18 -16q-9 -25 0 -66q-2 -25 -29 -63q0 -30 -10 -37 q-12 -9 -12 -35q-13 -27 -11 -29q2 -8 6.5 -18.5t4.5 -11.5q-27 -43 -39 -68l4 -8l12 10v-8q0 -20 -10 -43l-21 2l-6 -64l-20 -14q6 -24 8 -29q-13 -44 -29 -88l8 -26l-12 -25q4 -12 4 -27q0 -1 -1.5 -9.5t-5.5 -28.5t-7 -43l-21 -7q-4 -8 -12 -24.5t-12 -24.5 q-15 -30 -39 -37q-12 6 -49 11l-4 -9q-21 -12 -43 -12l6 -14q-8 -2 -43 -2q-46 0 -109 51q-230 178 -413 551q-5 10 -33 41q-8 31 -39 82q-3 4 -21.5 32t-27.5 44q-39 61 -68 176q-10 37 -80 155q-73 117 -106 150q-37 -61 -58 -172q-6 -31 -17 -93t-17 -92q-5 -29 -37 -88 q-44 -79 -47 -86v-6q0 -15 -41 -117q8 -33 8 -40q0 -42 -55 -105q-28 -32 -84 -92h-6q-20 0 -39 -16q-14 3 -23 16h-51l-6 20l-41 15q-6 17 -37 73zM461 1839q1 3 8.5 19t19 40t25.5 50q12 9 49 43l195 172q141 75 274 75q46 0 174 -43q43 -21 113 -67q120 -93 123 -94 q24 0 67 30q76 37 320 224q9 7 49 28q34 4 49 8q15 -6 66 -24v-8q10 -13 26 -13q2 -2 2 -4t-4 -14q15 -15 25 -23v-61q0 11 -24 -24l-5 -7q-49 -56 -137 -141q-60 -43 -94 -82q-165 -124 -258 -127q-35 -9 -34 -11q1 -1 5 -1q-19 0 -49 10q-13 4 -28.5 9t-25 8t-14.5 4 q-70 19 -180 120q-103 95 -149 95q-13 0 -78 -33q-65 -35 -92 -35l-248 -209l-12 2l-9 1.5t-4 0.5q-18 -5 -45 -16q-19 8 -47 16q-53 74 -53 82z" />
<glyph unicode="&#xd2;" horiz-adv-x="1828" d="M51 772q0 45 49 213q0 5 25 88q59 190 213 311q78 62 151 95l132 59q103 103 139 113q196 158 569 182q14 -5 23 -21l16 5l-4 16h22q7 -11 7 -14q-12 0 -21 -9q50 -16 76 -16q21 0 33 6q-20 4 -78 21q35 12 49 12q29 -9 86 -21q83 -22 115 -26q0 -5 22 -14q0 -9 -10 -19 l6 3l29 1l178 -92q11 0 31 4q2 0 2 -2l-10 -10q67 -49 86 -49q7 -18 20 -41q21 -3 31 16l139 -274q0 -19 -4 -31q3 -22 31 -47q-1 -1 -5 -2.5t-6 -3.5q5 -30 21 -90l-31 -220l-92 -270l-190 -215q0 -4 2 -12q2 -6 2 -15q4 11 -9 11h-12l-112 -107v-26q-1 1 -2.5 3t-3 5.5 t-3.5 5.5h-22l-180 -158q-40 -7 -86 -37h-25v-4q-90 -41 -98 -41q-5 0 -13 4l-147 -71h-16q-33 1 -31 6l-201 -27h-102l-180 27q-60 20 -189 61q-96 56 -164 105q-183 130 -229 358q-1 5 -5 22t-9 38t-9 43v108l-6 47v-4zM362 715q0 -18 17 -101q46 -82 102 -157 q3 -2 20 -15.5t31 -25.5q3 -2 14 -7.5l37 -18.5l50 -25q103 -50 125 -50q8 0 12 7q18 -21 61 -21l164 -6q47 0 99 18q199 39 397 156q243 141 367 336q32 73 55 143q10 30 24 58l5 122q0 68 -48 160q-46 93 -88 96q-9 9 -127 74q-25 6 -108 35q-175 39 -252 39l-133 -19 l-4 9l-144 -47q-6 12 -6 16t4 4l-24 -12q-14 -26 -33 -37q-24 -10 -66 -19q-32 -16 -92 -73q-19 -19 -48.5 -47.5t-39.5 -38.5l-82 -205q-7 -5 -10 -45q-10 -10 -25 -14q-9 6 -20 20q-3 -5 -27 -41q-4 3 -15.5 14t-18.5 17l-11 -17q-5 10 -2 29q-4 11 -33 43q-13 13 -26 10 q-31 -31 -33 -39q4 -8 4 -12q-15 -15 -24 -45q-3 0 -9 -2l-8 -4q4 -8 4 -16q0 -25 -18 -62q-3 -24 0 -27q-17 -60 -17 -61v-96zM735 2456l4 18q-4 8 -4 14q-3 14 10 43q20 35 60 41q69 6 115 -37q12 -3 36 -12l256 -174q144 -99 283 -129q9 -19 35 -33q35 -54 33 -63l26 -17 q0 -9 -14 -20q0 -11 8 -19q-1 -2 -7 -7t-11 -9l4 -31q-66 -15 -66 -24q4 0 4 -8l-22 -2q-44 13 -133 36l-422 246q-57 33 -146 107q-2 4 -22 10q-27 62 -27 70zM2017 526l13 9z" />
<glyph unicode="&#xd3;" horiz-adv-x="1826" d="M51 772q0 45 49 213q0 5 25 88q59 190 213 311q78 62 151 95l132 59q103 103 139 113q196 158 569 182q14 -5 23 -21l16 5l-4 16h22q7 -11 7 -14q-12 0 -21 -9q50 -16 76 -16q21 0 33 6q-20 4 -78 21q35 12 49 12q29 -9 86 -21q83 -22 115 -26q0 -5 22 -14q0 -9 -10 -19 l6 3l29 1l178 -92q11 0 31 4q2 0 2 -2l-10 -10q67 -49 86 -49q7 -18 20 -41q21 -3 31 16l139 -274q0 -19 -4 -31q3 -22 31 -47q-1 -1 -5 -2.5t-6 -3.5q5 -30 21 -90l-31 -220l-92 -270l-190 -215q0 -4 2 -12q2 -6 2 -15q4 11 -9 11h-12l-112 -107v-26q-1 1 -2.5 3t-3 5.5 t-3.5 5.5h-22l-180 -158q-40 -7 -86 -37h-25v-4q-90 -41 -98 -41q-5 0 -13 4l-147 -71h-16q-33 1 -31 6l-201 -27h-102l-180 27q-60 20 -189 61q-96 56 -164 105q-183 130 -229 358q-1 5 -5 22t-9 38t-9 43v108l-6 47v-4zM362 715q0 -18 17 -101q46 -82 102 -157 q3 -2 20 -15.5t31 -25.5q3 -2 14 -7.5l37 -18.5l50 -25q103 -50 125 -50q8 0 12 7q18 -21 61 -21l164 -6q47 0 99 18q199 39 397 156q243 141 367 336q32 73 55 143q10 30 24 58l5 122q0 68 -48 160q-46 93 -88 96q-9 9 -127 74q-25 6 -108 35q-175 39 -252 39l-133 -19 l-4 9l-144 -47q-6 12 -6 16t4 4l-24 -12q-14 -26 -33 -37q-24 -10 -66 -19q-32 -16 -92 -73q-19 -19 -48.5 -47.5t-39.5 -38.5l-82 -205q-7 -5 -10 -45q-10 -10 -25 -14q-9 6 -20 20q-3 -5 -27 -41q-4 3 -15.5 14t-18.5 17l-11 -17q-5 10 -2 29q-4 11 -33 43q-13 13 -26 10 q-31 -31 -33 -39q4 -8 4 -12q-15 -15 -24 -45q-3 0 -9 -2l-8 -4q4 -8 4 -16q0 -25 -18 -62q-3 -24 0 -27q-17 -60 -17 -61v-96zM412 1915q2 6 4 14q6 12 6 17q24 17 35 39q22 16 110.5 76t157.5 108q9 6 60 42.5t94 65.5q58 41 258 154q8 5 8 14l47 23q19 -9 39 -17v-26 q13 -3 35 -19q12 -28 28 -28l11 4q0 -12 16 -25q-6 -9 -25 -28q0 -5 7 -9q-30 -30 -50 -55q-32 -23 -249 -162q-174 -115 -271 -190q-9 -8 -21.5 -18.5t-32 -26.5t-32.5 -27q-41 -21 -88 -35q-1 1 -4 6.5t-6 10.5h-55l-29 24l-49 -4q7 14 16 23l-8 8q-12 12 -12 41z M2017 526l13 9z" />
<glyph unicode="&#xd4;" horiz-adv-x="1828" d="M51 772q0 45 49 213q0 5 25 88q59 190 213 311q78 62 151 95l132 59q103 103 139 113q196 158 569 182q14 -5 23 -21l16 5l-4 16h22q7 -11 7 -14q-12 0 -21 -9q50 -16 76 -16q21 0 33 6q-20 4 -78 21q35 12 49 12q29 -9 86 -21q83 -22 115 -26q0 -5 22 -14q0 -9 -10 -19 l6 3l29 1l178 -92q11 0 31 4q2 0 2 -2l-10 -10q67 -49 86 -49q7 -18 20 -41q21 -3 31 16l139 -274q0 -19 -4 -31q3 -22 31 -47q-1 -1 -5 -2.5t-6 -3.5q5 -30 21 -90l-31 -220l-92 -270l-190 -215q0 -4 2 -12q2 -6 2 -15q4 11 -9 11h-12l-112 -107v-26q-1 1 -2.5 3t-3 5.5 t-3.5 5.5h-22l-180 -158q-40 -7 -86 -37h-25v-4q-90 -41 -98 -41q-5 0 -13 4l-147 -71h-16q-33 1 -31 6l-201 -27h-102l-180 27q-60 20 -189 61q-96 56 -164 105q-183 130 -229 358q-1 5 -5 22t-9 38t-9 43v108l-6 47v-4zM362 715q0 -18 17 -101q46 -82 102 -157 q3 -2 20 -15.5t31 -25.5q3 -2 14 -7.5l37 -18.5l50 -25q103 -50 125 -50q8 0 12 7q18 -21 61 -21l164 -6q47 0 99 18q199 39 397 156q243 141 367 336q32 73 55 143q10 30 24 58l5 122q0 68 -48 160q-46 93 -88 96q-9 9 -127 74q-25 6 -108 35q-175 39 -252 39l-133 -19 l-4 9l-144 -47q-6 12 -6 16t4 4l-24 -12q-14 -26 -33 -37q-24 -10 -66 -19q-32 -16 -92 -73q-19 -19 -48.5 -47.5t-39.5 -38.5l-82 -205q-7 -5 -10 -45q-10 -10 -25 -14q-9 6 -20 20q-3 -5 -27 -41q-4 3 -15.5 14t-18.5 17l-11 -17q-5 10 -2 29q-4 11 -33 43q-13 13 -26 10 q-31 -31 -33 -39q4 -8 4 -12q-15 -15 -24 -45q-3 0 -9 -2l-8 -4q4 -8 4 -16q0 -25 -18 -62q-3 -24 0 -27q-17 -60 -17 -61v-96zM588 1997q0 21 28 69q21 0 39 13q9 6 56 59q22 25 176 197q29 24 102 108q24 24 64 33q3 -1 15.5 -3.5t21.5 -4.5q26 -18 59 -29 q62 -51 170 -162q117 -120 164 -163q25 -45 43 -82q-33 -43 -45 -74q-1 0 -11.5 -4.5t-19.5 -9.5l-42 -2h-3q-3 0 -12 6q-3 -1 -11.5 -5t-13.5 -6q-17 17 -44 48t-34 38q-60 67 -225 197q-12 -4 -25 -4l-79 -74l4 -12q-8 -4 -17 -10l4 -17q4 0 -1 -2l-13 -2l-184 -223l-39 6 q-26 -6 -35 -12q-1 2 -4.5 8t-5.5 10l-17 -2q4 4 4 12q-8 8 -28 11zM2017 526l13 9z" />
<glyph unicode="&#xd5;" horiz-adv-x="1826" d="M51 772q0 45 49 213q0 5 25 88q59 190 213 311q78 62 151 95l132 59q103 103 139 113q196 158 569 182q14 -5 23 -21l16 5l-4 16h22q7 -11 7 -14q-12 0 -21 -9q50 -16 76 -16q21 0 33 6q-20 4 -78 21q35 12 49 12q29 -9 86 -21q83 -22 115 -26q0 -5 22 -14q0 -9 -10 -19 l6 3l29 1l178 -92q11 0 31 4q2 0 2 -2l-10 -10q67 -49 86 -49q7 -18 20 -41q21 -3 31 16l139 -274q0 -19 -4 -31q3 -22 31 -47q-1 -1 -5 -2.5t-6 -3.5q5 -30 21 -90l-31 -220l-92 -270l-190 -215q0 -4 2 -12q2 -6 2 -15q4 11 -9 11h-12l-112 -107v-26q-1 1 -2.5 3t-3 5.5 t-3.5 5.5h-22l-180 -158q-40 -7 -86 -37h-25v-4q-90 -41 -98 -41q-5 0 -13 4l-147 -71h-16q-33 1 -31 6l-201 -27h-102l-180 27q-60 20 -189 61q-96 56 -164 105q-183 130 -229 358q-1 5 -5 22t-9 38t-9 43v108l-6 47v-4zM362 715q0 -18 17 -101q46 -82 102 -157 q3 -2 20 -15.5t31 -25.5q3 -2 14 -7.5l37 -18.5l50 -25q103 -50 125 -50q8 0 12 7q18 -21 61 -21l164 -6q47 0 99 18q199 39 397 156q243 141 367 336q32 73 55 143q10 30 24 58l5 122q0 68 -48 160q-46 93 -88 96q-9 9 -127 74q-25 6 -108 35q-175 39 -252 39l-133 -19 l-4 9l-144 -47q-6 12 -6 16t4 4l-24 -12q-14 -26 -33 -37q-24 -10 -66 -19q-32 -16 -92 -73q-19 -19 -48.5 -47.5t-39.5 -38.5l-82 -205q-7 -5 -10 -45q-10 -10 -25 -14q-9 6 -20 20q-3 -5 -27 -41q-4 3 -15.5 14t-18.5 17l-11 -17q-5 10 -2 29q-4 11 -33 43q-13 13 -26 10 q-31 -31 -33 -39q4 -8 4 -12q-15 -15 -24 -45q-3 0 -9 -2l-8 -4q4 -8 4 -16q0 -25 -18 -62q-3 -24 0 -27q-17 -60 -17 -61v-96zM500 2034q1 2 8.5 18.5t19 40t25.5 49.5q12 9 49 43l195 172q143 76 274 76q46 0 174 -43q37 -18 113 -68q120 -93 123 -94q22 0 67 31 q79 39 320 223q12 10 49 29q34 4 49 8q27 -11 66 -25v-8q9 -12 26 -12q2 -2 2 -4t-4 -14q15 -15 25 -23v-61q0 11 -24 -24l-5 -7q-49 -56 -137 -141q-60 -43 -94 -82q-165 -124 -258 -127q-36 -9 -34 -12q1 -1 5 -1q-16 0 -49 11q-64 19 -68 20q-68 18 -180 121 q-101 94 -150 94q-12 0 -77 -33q-64 -34 -92 -34l-248 -209l-12 2l-9 1.5t-4 0.5q-13 -3 -45 -17q-29 12 -47 17q-53 74 -53 82zM2017 526l13 9z" />
<glyph unicode="&#xd6;" horiz-adv-x="1828" d="M51 772q0 45 49 213q0 5 25 88q59 190 213 311q78 62 151 95l132 59q103 103 139 113q196 158 569 182q14 -5 23 -21l16 5l-4 16h22q7 -11 7 -14q-12 0 -21 -9q50 -16 76 -16q21 0 33 6q-20 4 -78 21q35 12 49 12q29 -9 86 -21q83 -22 115 -26q0 -5 22 -14q0 -9 -10 -19 l6 3l29 1l178 -92q11 0 31 4q2 0 2 -2l-10 -10q67 -49 86 -49q7 -18 20 -41q21 -3 31 16l139 -274q0 -19 -4 -31q3 -22 31 -47q-1 -1 -5 -2.5t-6 -3.5q5 -30 21 -90l-31 -220l-92 -270l-190 -215q0 -4 2 -12q2 -6 2 -15q4 11 -9 11h-12l-112 -107v-26q-1 1 -2.5 3t-3 5.5 t-3.5 5.5h-22l-180 -158q-40 -7 -86 -37h-25v-4q-90 -41 -98 -41q-5 0 -13 4l-147 -71h-16q-33 1 -31 6l-201 -27h-102l-180 27q-60 20 -189 61q-96 56 -164 105q-183 130 -229 358q-1 5 -5 22t-9 38t-9 43v108l-6 47v-4zM362 715q0 -18 17 -101q46 -82 102 -157 q3 -2 20 -15.5t31 -25.5q3 -2 14 -7.5l37 -18.5l50 -25q103 -50 125 -50q8 0 12 7q18 -21 61 -21l164 -6q47 0 99 18q199 39 397 156q243 141 367 336q32 73 55 143q10 30 24 58l5 122q0 68 -48 160q-46 93 -88 96q-9 9 -127 74q-25 6 -108 35q-175 39 -252 39l-133 -19 l-4 9l-144 -47q-6 12 -6 16t4 4l-24 -12q-14 -26 -33 -37q-24 -10 -66 -19q-32 -16 -92 -73q-19 -19 -48.5 -47.5t-39.5 -38.5l-82 -205q-7 -5 -10 -45q-10 -10 -25 -14q-9 6 -20 20q-3 -5 -27 -41q-4 3 -15.5 14t-18.5 17l-11 -17q-5 10 -2 29q-4 11 -33 43q-13 13 -26 10 q-31 -31 -33 -39q4 -8 4 -12q-15 -15 -24 -45q-3 0 -9 -2l-8 -4q4 -8 4 -16q0 -25 -18 -62q-3 -24 0 -27q-17 -60 -17 -61v-96zM647 1681q3 5 11.5 18.5t18.5 30t21 33.5q-3 0 -14 -8q-12 12 -12 17l33 -7l-3 19h37q19 13 54 16q38 -23 114 -59q6 -6 6 -31q2 -2 11.5 -9 t15.5 -13q-2 -16 -3 -33.5t-1 -12.5q-11 -11 -25 -36q-92 -29 -168 -29l-81 55q-15 15 -15 49zM1079 1661l1 46q1 -1 1 -3q6 12 21 39q87 35 166 41l86 -49q16 -16 16 -49q-1 -1 -43 -84q4 0 12 8q13 -13 13 -17q-1 1 -33 4l4 -18q-19 0 -35 -2q-18 -15 -53 -18 q-36 22 -119 49q-8 5 -8 30q-12 6 -29 23zM2017 526l13 9z" />
<glyph unicode="&#xd7;" horiz-adv-x="1280" d="M66 209q9 80 63 160q6 6 111 141l-111 72q-19 54 -43 98v82q0 18 27 53q28 36 47 41h20q41 0 185 -84l145 -84q-3 0 47.5 26t192.5 99q244 125 290 125q37 0 50 -10q45 -33 67 -43q31 -35 47 -66q-16 -69 -16 -74l-21 -20v-27q-33 -18 -98 -32q-19 -11 -139 -72 q-76 -50 -158 -105q76 -71 92 -86q72 -75 117 -167q1 -4 5 -16t12.5 -36.5t15.5 -46.5q-6 -42 -51 -84q3 -23 -7 -33q-12 0 -24 -2q-10 -2 -21 -2q-7 0 -34 15q-29 16 -41 16q-148 148 -166 164q-93 87 -152 117q-68 -21 -149 -117q-78 -91 -101 -164q-40 -37 -98 -67 q-37 9 -59 40q-30 44 -39 48z" />
<glyph unicode="&#xd8;" horiz-adv-x="2473" d="M-213 -203l420 451v39q0 1 -1 7.5t-3.5 21t-5.5 30.5t-5.5 31t-4 22t-1.5 9v161q0 -5 2 1q2 10 7 40q0 85 20 191q22 130 35 180q87 210 164 344q95 130 256 223q6 3 65 41q25 57 152 113q29 9 192 70l-6 16q5 -2 62 10q0 -16 -13 -16q-4 2 -10 6q-4 -4 -4 -6l4 -4 q29 0 41 2l14 2q9 9 9 14l-5 10q16 -4 27 -4q20 0 41 6l-2 -2q0 -3 43 -18q12 4 41 4q16 12 35 31q12 0 24 2q5 1 10.5 2t8.5 1.5t4 0.5q42 0 160 -31l118 -33q49 -12 125 -61l127 -80h19q6 6 24 18q165 87 256 134q45 24 150 61q53 16 127 16q2 0 6.5 1.5t14 4.5t18.5 5 q21 3 39 -9q23 -19 59 -79v-11q0 -18 6 -53q-43 -18 -61 -39q11 -19 14 -18l-195 -103l-276 -178q72 -113 86 -143q44 -85 51 -158q0 -6 2 -16q4 -20 4 -21v-75l21 -132q-3 -180 -60 -256q-42 -156 -100 -231q-130 -176 -348 -322q-149 -97 -385 -210q-22 0 -72 -13 q-180 -49 -237 -49q-45 0 -72 -6q-42 10 -68 10h-75l-195 47q4 -1 -2 -2.5t-43 -6.5h-1h-1h-1h-1h-1h-1h-1l-1 -1h-1h-1h-2q-10 10 -23 10v17q-22 6 -76 24q-1 1 -18.5 16t-43 36t-54.5 45l-424 -400h-33l-14 10q-4 -4 -4 -10h-33l-12 12q9 6 20 17l-25 18q-9 0 -12 -6 q-7 -2 -27 14q-28 -14 -32 -14l4 27q-15 15 -15 22q3 64 -20 80v90zM442 502q7 0 13 -6l483 426l748 559q8 0 8 4t-6 10l-226 61q-20 0 -76 -16q-11 -25 -34 -35q-3 -5 -21 -41h-80q10 0 -24 -12q-35 -12 -117 -37q-95 -19 -158 -57q-95 -33 -207 -127q-143 -122 -182 -223 q-28 -49 -47 -99q-15 -34 -67 -313zM612 176q47 -42 279 -80l129 -6q40 -3 123 19q228 23 555 241q2 1 12.5 8t24 15t28.5 16q144 129 203 209q96 137 96 285q0 21 -16 159q-15 65 -59 119q-8 34 -29 62q-6 7 -31 22l-143 -92q-8 4 -12 4q-7 -12 -27 -35q-111 -76 -270 -200 q-9 -3 -21 -9q-85 -70 -405 -317q-67 -71 -97 -86q-40 -44 -129 -117z" />
<glyph unicode="&#xd9;" horiz-adv-x="1687" d="M39 821v127q0 62 57 344q54 162 76 217q61 126 172 187q17 -4 41 -15q2 -4 47 -32l53 -138q-12 -24 -32 -92q-88 -109 -115 -200q-12 -40 -33 -179l6 -235q49 -342 197 -389q67 -20 63 -23q3 0 41 -6q11 -1 21 -2t14.5 -1.5t5.5 -0.5t9.5 1.5t30.5 6t44 8.5 q211 42 451 209q214 146 418 393q60 76 170 267q0 2 41 123q8 33 8 73q0 34 -6 64q-2 2 -2 6q0 8 6 20q-11 26 -11 35q0 76 101 183l31 -5q8 11 28 21q18 -38 33 -53h33l39 -72q12 -61 12 -72v-104q0 26 -30 -120q-6 -29 -13 -64q-186 -490 -395 -672q0 -15 -15 -33 q-44 -38 -299 -274q-147 -109 -342 -220q-16 -10 -32 -28q-26 -11 -43 -37q-27 -4 -129 -39q-73 -6 -115 -12q-11 -2 -25 -3.5t-22.5 -2.5t-12.5 -2l-8 -3h4q-47 0 -190 64v6q-165 109 -258 260l-53 131q-34 82 -31 121zM485 1759l4 19q-4 8 -4 14q-3 13 11 43q20 35 59 41 q69 6 115 -37q15 -4 37 -12l256 -174q144 -99 282 -129q9 -19 35 -33q35 -54 33 -64l26 -16q0 -9 -14 -20q0 -11 8 -19q-2 -2 -8 -7t-10 -9l4 -31q-66 -15 -66 -25q4 0 4 -8l-22 -2q-89 25 -133 37l-422 246q-58 33 -145 106q-3 5 -23 11q-27 62 -27 69z" />
<glyph unicode="&#xda;" horiz-adv-x="1613" d="M39 821v127q0 62 57 344q54 162 76 217q61 126 172 187q17 -4 41 -15q2 -4 47 -32l53 -138q-12 -24 -32 -92q-88 -109 -115 -200q-12 -40 -33 -179l6 -235q49 -342 197 -389q67 -20 63 -23q3 0 41 -6q11 -1 21 -2t14.5 -1.5t5.5 -0.5t9.5 1.5t30.5 6t44 8.5 q211 42 451 209q214 146 418 393q60 76 170 267q0 2 41 123q8 33 8 73q0 34 -6 64q-2 2 -2 6q0 8 6 20q-11 26 -11 35q0 76 101 183l31 -5q8 11 28 21q18 -38 33 -53h33l39 -72q12 -61 12 -72v-104q0 26 -30 -120q-6 -29 -13 -64q-186 -490 -395 -672q0 -15 -15 -33 q-44 -38 -299 -274q-147 -109 -342 -220q-16 -10 -32 -28q-26 -11 -43 -37q-27 -4 -129 -39q-73 -6 -115 -12q-11 -2 -25 -3.5t-22.5 -2.5t-12.5 -2l-8 -3h4q-47 0 -190 64v6q-165 109 -258 260l-53 131q-34 82 -31 121zM432 1909q2 6 4 14q6 12 6 16q24 17 35 39 q23 17 112 77.5t156 107.5q9 6 60 42.5t94 65.5q58 41 258 154q8 5 8 14l47 23q19 -9 39 -17v-26q13 -3 35 -19q12 -28 29 -28l10 4q0 -12 16 -25q-10 -15 -24 -29q0 -5 6 -8q-25 -25 -49 -55q-23 -17 -250 -162q-167 -110 -270 -190q-9 -8 -21.5 -18.5t-32 -26.5t-32.5 -27 q-41 -21 -88 -35q-1 1 -4.5 7t-6.5 10h-55l-29 24l-49 -4q6 12 17 23l-9 8q-12 12 -12 41z" />
<glyph unicode="&#xdb;" horiz-adv-x="1693" d="M39 821v127q0 62 57 344q54 162 76 217q61 126 172 187q17 -4 41 -15q2 -4 47 -32l53 -138q-12 -24 -32 -92q-88 -109 -115 -200q-12 -40 -33 -179l6 -235q49 -342 197 -389q67 -20 63 -23q3 0 41 -6q11 -1 21 -2t14.5 -1.5t5.5 -0.5t9.5 1.5t30.5 6t44 8.5 q211 42 451 209q214 146 418 393q60 76 170 267q0 2 41 123q8 33 8 73q0 34 -6 64q-2 2 -2 6q0 8 6 20q-11 26 -11 35q0 76 101 183l31 -5q8 11 28 21q18 -38 33 -53h33l39 -72q12 -61 12 -72v-104q0 26 -30 -120q-6 -29 -13 -64q-186 -490 -395 -672q0 -15 -15 -33 q-44 -38 -299 -274q-147 -109 -342 -220q-16 -10 -32 -28q-26 -11 -43 -37q-27 -4 -129 -39q-73 -6 -115 -12q-11 -2 -25 -3.5t-22.5 -2.5t-12.5 -2l-8 -3h4q-47 0 -190 64v6q-165 109 -258 260l-53 131q-34 82 -31 121zM469 1399q0 19 29 69q21 0 39 13q7 4 55 59 q22 25 176 197q29 24 102 108q24 24 64 33q3 -1 15.5 -3.5t21.5 -4.5q26 -18 59 -29q62 -51 170 -162q117 -120 164 -163q25 -45 43 -82q-33 -43 -45 -74q-1 0 -11.5 -4.5t-19.5 -9.5l4 -1q-7 -2 -49 -2q-2 0 -12 7q-3 -1 -11.5 -5t-13.5 -6q-17 17 -44 48t-34 38 q-60 67 -225 197q-12 -4 -24 -4l-80 -74l4 -12q-8 -4 -17 -10q3 -18 5 -17q4 0 -1 -1q-5 -2 -14 -3l-184 -223l-39 6q-25 -6 -35 -12q-1 1 -4.5 7t-5.5 11l-16 -2q4 4 4 12q-7 7 -29 11z" />
<glyph unicode="&#xdc;" horiz-adv-x="1697" d="M39 821v127q0 62 57 344q54 162 76 217q61 126 172 187q17 -4 41 -15q2 -4 47 -32l53 -138q-12 -24 -32 -92q-88 -109 -115 -200q-12 -40 -33 -179l6 -235q49 -342 197 -389q67 -20 63 -23q3 0 41 -6q11 -1 21 -2t14.5 -1.5t5.5 -0.5t9.5 1.5t30.5 6t44 8.5 q211 42 451 209q214 146 418 393q60 76 170 267q0 2 41 123q8 33 8 73q0 34 -6 64q-2 2 -2 6q0 8 6 20q-11 26 -11 35q0 76 101 183l31 -5q8 11 28 21q18 -38 33 -53h33l39 -72q12 -61 12 -72v-104q0 26 -30 -120q-6 -29 -13 -64q-186 -490 -395 -672q0 -15 -15 -33 q-44 -38 -299 -274q-147 -109 -342 -220q-16 -10 -32 -28q-26 -11 -43 -37q-27 -4 -129 -39q-73 -6 -115 -12q-11 -2 -25 -3.5t-22.5 -2.5t-12.5 -2l-8 -3h4q-47 0 -190 64v6q-165 109 -258 260l-53 131q-34 82 -31 121zM567 1618q3 5 11.5 18.5t18.5 30t21 33.5 q-3 0 -14 -8q-12 12 -12 16l33 -6l-2 18h36q21 14 54 17q45 -28 114 -60q7 -7 7 -30q2 -3 11 -10.5l15 -12.5q-2 -24 -4 -45q-10 -10 -25 -37q-92 -29 -167 -29l-82 56q-15 15 -15 49zM999 1597l1 46q1 -1 1 -3q6 12 21 39q87 35 166 41l86 -49q16 -16 16 -49q-1 -1 -43 -84 q5 0 13 8q12 -12 12 -16q-1 1 -33 4l4 -18q-11 0 -35 -3q-18 -15 -53 -18q-36 22 -119 49q-8 5 -8 31q-14 7 -29 22z" />
<glyph unicode="&#xdd;" horiz-adv-x="1226" d="M35 1640l8 103q30 16 49 51h39l80 -80q22 -29 41 -80q30 -49 53 -121l45 -137q28 -56 105 -229q18 -47 39 -90q23 -50 51 -86h16q60 70 158 149q53 82 94 115q14 19 31 49q10 16 28 45q42 53 142 164v12l127 127q0 12 6 27q53 64 203 217q4 1 25 4.5t38 5.5q10 -7 10 -24 q2 -2 10 -7.5t11 -7.5q9 -49 47 -49q2 -13 27 -98q0 -4 6 -19l-8 -8q4 -8 4 -10l-2 -2q-1 -3 -4.5 -13t-7 -21t-7.5 -23l-256 -461q-9 3 -22 -10q0 -3 4 -11q0 -20 -11 -39q-42 -81 -135 -227q-6 -13 -145 -274q-96 -170 -115 -258q-78 -175 -78 -353q0 -48 4 -73 q-22 -33 -43 -84q-13 3 -26 -23q-25 -4 -47 -14q-46 20 -94 35q-18 27 -33 30q-9 26 -33 70q0 27 -10 61q2 2 2 21q0 26 -2 49q14 134 45 297q14 20 28 33q19 16 19 35q-3 15 10 51q2 7 -4 22q14 34 41 82q-19 25 -43 25q-8 0 -20 -4l-19 18l-12 -8q-17 2 -62 29 q-22 35 -120 184q-149 323 -267 676q-24 116 -20 157zM272 2183q2 7 4 15q7 14 7 16q23 16 34 39q21 15 110 75t159 109q9 6 59.5 43t93.5 66q51 36 258 153q9 6 9 15l47 22q11 -6 39 -16v-27q14 -3 34 -18q13 -29 29 -29l10 4q0 -10 17 -24q-8 -12 -25 -29q0 -5 6 -8 q-21 -21 -49 -56q-10 -7 -250 -161q-158 -104 -270 -191q-9 -8 -21.5 -18.5t-32 -26.5t-32.5 -27q-36 -18 -88 -34q-1 1 -4 6.5t-6 9.5h-56l-28 25l-50 -5q6 12 17 23l-8 8q-13 13 -13 41z" />
<glyph unicode="&#xde;" horiz-adv-x="1548" d="M57 182q0 8 21 33l-6 211q0 39 26 121l-10 31v118q0 2 12 45q2 11 5.5 23.5t5.5 19t2 9.5q-2 4 -2 10q0 7 6 16q-2 4 -2 17q0 20 8 41q-1 19 -21 127q11 22 11 30l6 545l24 150q21 85 95 104q36 -9 45 -14q28 -14 41 -37q52 -30 55 -105l10 -282q27 -15 39 -15l152 11 q12 2 34 2q149 0 424 -90q161 -53 348 -228q171 -155 168 -317q15 -21 15 -49t-25 -80q-9 -90 -162 -178q-3 -2 -26 -31q0 -2 -60 -33q-60 -37 -98 -78q-22 -4 -68 -39q-29 -3 -73 -30q-40 -27 -60 -37q-44 -25 -217 -109q-135 -66 -223 -69q-37 -8 -117 -37q0 -11 -4 -15 q10 -10 15 -20q-2 -14 -2 -37q0 -35 8 -51q-11 -42 -11 -66q0 -6 9 -30q3 -8 5 -17l3 -13.5t2 -6.5q-8 -47 -8 -70v-98l24 -252q-2 -12 -8 -35q-8 -33 -8 -49q-6 -9 -21 -27q-8 4 -12 4q-9 0 -39 -18q-32 -16 -37 -16q-22 -28 -37 -31q-6 12 -16 37q0 5 -24 14 q-11 0 -25 -14q-19 13 -84 51q-1 6 -27 63q13 23 11 33l-15 68q-4 4 -14 4q-14 17 -35 57q-12 9 -33 27v702zM416 1010l26 -701h17l200 88l5 -1q5 -1 10 -1l12 -4q48 0 303 146q82 48 178 131q68 59 68 88q0 57 -102 159q-101 101 -177 113q-122 61 -245 55q-12 15 -62 15 q-74 0 -76 -4h2q-3 -2 -9.5 -8t-10.5 -9q-19 0 -29 10q-15 -6 -57 -30q-3 0 -33 6q-7 -9 -20 -53z" />
<glyph unicode="&#xdf;" horiz-adv-x="1638" d="M70 1362q-6 78 45 192q47 100 118 150q263 115 422 141q50 18 119 21l250 14q33 0 129 -16q9 -5 53 -23q278 -204 305 -383q1 -12 5 -30t4 -19q4 -24 4 -27l2 -2v-123q0 -53 -53 -124q-3 -9 -19 -15l10 -10q-13 -8 -28 -43q-3 6 -11 6q-24 -21 -24 -33q2 -2 8 -2q4 0 8 2 q-2 -4 -10 -17.5t-12 -21.5q-31 -25 -31 -38q0 -5 2 -7q-31 -28 -92 -77q-17 -25 -88 -142v-24q16 -14 157 -131q8 -6 36 -28t55.5 -45t54.5 -48q79 -71 110 -123q34 -52 64 -156q31 -109 31 -166q0 -128 -58 -247q-59 -121 -153 -185q-9 -9 -47 -57q-245 -192 -381 -377 q0 3 -11 14q-23 -23 -69 -51q-31 -25 -72 -82q-31 14 -33 21q-5 -5 -20 -15l-10 15l-19 -25q-9 3 -26 37q-10 13 -60 45v43l8 27q5 19 7 35q-2 10 -2 40q6 35 26 68q20 82 144 203q42 42 182 174q73 67 203 219q16 32 16 72q0 96 -55 157q-13 16 -164 138q-79 63 -137 102 q-36 34 -119 123q-2 9 -31 65q-16 37 -16 60q0 53 34 137q12 33 60 145q65 104 160 211q13 15 40.5 46t41.5 47q43 49 43 90q0 91 -82 137l-4 27q-10 13 -25 16q-122 16 -139 16q-40 0 -54 -20q-7 2 -55 10l-84 -20q-2 0 -6 4q-4 2 -12 2q8 0 -13 -6q-32 -9 -147 -37 q-1 0 -4.5 -3.5t-10 -9.5t-12.5 -12q-7 4 -24 -2q-98 -42 -127 -104q-24 -53 -21 -121l35 -1245q11 -49 8 -99q-12 -24 -12 -118q0 -2 16 -64q19 -62 19 -63v-54q-1 -1 -5.5 -4.5t-14 -10.5t-19.5 -15q-26 -19 -23 -31q3 10 -10 10h-12q-24 -24 -39 -61q-11 3 -33 34 q3 -10 -8 -10h-12q2 5 -4 33q-4 6 -17 26t-22 35l-82 816l-10 374z" />
<glyph unicode="&#xe0;" horiz-adv-x="1314" d="M47 276q0 35 80 218q68 74 102 77q20 20 148 105q48 20 207 88q141 35 141 37q3 0 9 -0.5l18 -1.5l24 -2q57 -3 64 -2q59 -26 59 -60v-8q19 -16 31 -43q4 -9 8.5 -19t6.5 -14.5t3 -7.5q6 2 19 2q46 0 86 -37q63 -100 116 -192q73 -124 99 -207q-8 -11 -33 -40t-41 -50 l-35 6q-1 -1 -6 -11t-10 -16q-9 4 -41 25q-26 -6 -115 65q-17 36 -90 138l-264 -199l4 -8q6 -6 6 -8q-10 -16 -39 -31q-4 -2 -21 -11t-28 -14q-70 -21 -123 -37.5t-75.5 -24t-20.5 -7.5q-154 0 -246 120q-43 116 -43 170zM215 1350l4 18q-4 8 -4 14q-3 14 10 43q20 35 60 41 q69 6 114 -36q7 -2 37 -13l256 -174q144 -99 283 -129q9 -19 35 -33q35 -53 32 -63l27 -17q0 -9 -14 -20q0 -10 8 -18q-2 -1 -8.5 -6.5t-10.5 -10.5l5 -31q-66 -15 -66 -24q4 0 4 -8l-22 -2q-77 22 -134 37l-421 245q-57 33 -146 107q-2 4 -22 10q-27 62 -27 70zM346 311 l57 -6q207 53 326 172q8 8 47 37h-53q-27 0 -125 -39q-43 -16 -113 -45q-67 -41 -135 -106z" />
<glyph unicode="&#xe1;" horiz-adv-x="1245" d="M47 276q0 35 80 218q68 74 102 77q20 20 148 105q48 20 207 88q141 35 141 37q3 0 9 -0.5l18 -1.5l24 -2q57 -3 64 -2q59 -26 59 -60v-8q19 -16 31 -43q4 -9 8.5 -19t6.5 -14.5t3 -7.5q6 2 19 2q46 0 86 -37q63 -100 116 -192q73 -124 99 -207q-8 -11 -33 -40t-41 -50 l-35 6q-1 -1 -6 -11t-10 -16q-9 4 -41 25q-26 -6 -115 65q-17 36 -90 138l-264 -199l4 -8q6 -6 6 -8q-10 -16 -39 -31q-4 -2 -21 -11t-28 -14q-70 -21 -123 -37.5t-75.5 -24t-20.5 -7.5q-154 0 -246 120q-43 116 -43 170zM154 887q2 6 4 14q6 12 6 17q25 18 35 38 q23 17 112 77.5t156 107.5q9 6 60 42.5t94 65.5q58 41 258 154q8 5 8 14l47 23q19 -10 39 -17v-26q13 -3 35 -19q12 -28 28 -28l11 4q0 -12 16 -25q-8 -12 -25 -29q0 -5 6 -8q-25 -25 -49 -55q-23 -17 -250 -162q-167 -110 -270 -190q-9 -8 -21.5 -18.5t-32 -26.5t-32.5 -27 q-41 -21 -88 -35q-1 1 -4 6.5t-6 10.5h-55l-29 24l-49 -4q7 14 16 23l-8 8q-12 12 -12 41zM346 311l57 -6q207 53 326 172q8 8 47 37h-53q-27 0 -125 -39q-43 -16 -113 -45q-67 -41 -135 -106z" />
<glyph unicode="&#xe2;" horiz-adv-x="1331" d="M47 276q0 35 80 218q68 74 102 77q20 20 148 105q48 20 207 88q141 35 141 37q3 0 9 -0.5l18 -1.5l24 -2q57 -3 64 -2q59 -26 59 -60v-8q19 -16 31 -43q4 -9 8.5 -19t6.5 -14.5t3 -7.5q6 2 19 2q46 0 86 -37q63 -100 116 -192q73 -124 99 -207q-8 -11 -33 -40t-41 -50 l-35 6q-1 -1 -6 -11t-10 -16q-9 4 -41 25q-26 -6 -115 65q-17 36 -90 138l-264 -199l4 -8q6 -6 6 -8q-10 -16 -39 -31q-4 -2 -21 -11t-28 -14q-70 -21 -123 -37.5t-75.5 -24t-20.5 -7.5q-154 0 -246 120q-43 116 -43 170zM176 926q0 19 29 69q21 0 39 13q7 4 55 59 q22 25 176 197q33 28 103 108q24 24 63 33q3 -1 15.5 -3.5t21.5 -4.5q26 -18 59 -29q62 -51 170 -162q126 -129 164 -164q29 -52 43 -81q-33 -43 -45 -74q-1 0 -11.5 -5t-19.5 -10l-42 -2h-3q-1 0 -12 7q-3 -1 -11.5 -5t-13.5 -6q-17 17 -43 47t-34 39q-58 65 -226 197 q-12 -4 -24 -4l-80 -74l4 -12q-4 -2 -16 -10l4 -17q4 0 -1 -1q-5 -2 -14 -3l-184 -223l-39 6q-26 -6 -35 -12q-1 2 -4.5 8t-5.5 10l-16 -2q4 4 4 12q-7 7 -29 11zM346 311l57 -6q207 53 326 172q8 8 47 37h-53q-27 0 -125 -39q-43 -16 -113 -45q-67 -41 -135 -106z" />
<glyph unicode="&#xe3;" horiz-adv-x="1282" d="M37 1253q1 3 8.5 19t19 40t25.5 50q12 9 49 43l195 172q143 76 274 76q46 0 174 -43q37 -18 113 -68q120 -93 123 -94q22 0 67 31q79 39 320 223q12 10 49 29q34 4 49 8q27 -11 66 -25v-8q9 -12 26 -12q2 -2 2 -4q0 -3 -4 -15q10 -10 25 -22v-62q0 10 -21 -18l-8 -12 q-55 -63 -137 -142q-60 -43 -94 -82q-165 -124 -258 -127q-35 -9 -34 -11q1 -1 5 -1q-19 0 -49 10q-13 4 -28.5 9t-25 8t-14.5 4q-68 18 -180 121q-101 94 -149 94q-13 0 -78 -33q-65 -35 -92 -35l-248 -209l-12 2l-9 1.5t-4 0.5q-18 -5 -45 -16q-19 8 -47 16q-53 74 -53 82 zM47 276q0 35 80 218q68 74 102 77q20 20 148 105q48 20 207 88q141 35 141 37q3 0 9 -0.5l18 -1.5l24 -2q57 -3 64 -2q59 -26 59 -60v-8q19 -16 31 -43q4 -9 8.5 -19t6.5 -14.5t3 -7.5q6 2 19 2q46 0 86 -37q63 -100 116 -192q73 -124 99 -207q-8 -11 -33 -40t-41 -50 l-35 6q-1 -1 -6 -11t-10 -16q-9 4 -41 25q-26 -6 -115 65q-17 36 -90 138l-264 -199l4 -8q6 -6 6 -8q-10 -16 -39 -31q-4 -2 -21 -11t-28 -14q-70 -21 -123 -37.5t-75.5 -24t-20.5 -7.5q-154 0 -246 120q-43 116 -43 170zM346 311l57 -6q207 53 326 172q8 8 47 37h-53 q-27 0 -125 -39q-43 -16 -113 -45q-67 -41 -135 -106z" />
<glyph unicode="&#xe4;" horiz-adv-x="1267" d="M47 276q0 35 80 218q68 74 102 77q20 20 148 105q48 20 207 88q141 35 141 37q3 0 9 -0.5l18 -1.5l24 -2q57 -3 64 -2q59 -26 59 -60v-8q19 -16 31 -43q4 -9 8.5 -19t6.5 -14.5t3 -7.5q6 2 19 2q46 0 86 -37q63 -100 116 -192q73 -124 99 -207q-8 -11 -33 -40t-41 -50 l-35 6q-1 -1 -6 -11t-10 -16q-9 4 -41 25q-26 -6 -115 65q-17 36 -90 138l-264 -199l4 -8q6 -6 6 -8q-10 -16 -39 -31q-4 -2 -21 -11t-28 -14q-70 -21 -123 -37.5t-75.5 -24t-20.5 -7.5q-154 0 -246 120q-43 116 -43 170zM260 1008q3 5 11.5 18.5t18.5 30t21 33.5 q-2 0 -14 -9q-12 12 -12 17l32 -6l-2 18h37q20 13 54 16q38 -23 114 -59q6 -6 6 -31q3 -2 12.5 -9.5t14.5 -12.5q-2 -24 -4 -45q-10 -10 -25 -37q-92 -29 -168 -29l-82 55q-14 14 -14 50zM346 311l57 -6q207 53 326 172q8 8 47 37h-53q-27 0 -125 -39q-43 -16 -113 -45 q-67 -41 -135 -106zM692 987l1 46q1 -1 1 -3q6 12 21 39q87 35 166 41l86 -49q16 -16 16 -49q-1 -1 -43 -84q4 0 12 8q13 -13 13 -16q-1 1 -33 4l4 -19q-19 0 -35 -2q-18 -15 -53 -18q-36 22 -119 49q-8 5 -8 31q-14 7 -29 22z" />
<glyph unicode="&#xe5;" horiz-adv-x="1239" d="M47 276q0 35 80 218q68 74 102 77q20 20 148 105q48 20 207 88q141 35 141 37q3 0 9 -0.5l18 -1.5l24 -2q57 -3 64 -2q59 -26 59 -60v-8q19 -16 31 -43q4 -9 8.5 -19t6.5 -14.5t3 -7.5q6 2 19 2q46 0 86 -37q63 -100 116 -192q73 -124 99 -207q-8 -11 -33 -40t-41 -50 l-35 6q-1 -1 -6 -11t-10 -16q-9 4 -41 25q-26 -6 -115 65q-17 36 -90 138l-264 -199l4 -8q6 -6 6 -8q-10 -16 -39 -31q-4 -2 -21 -11t-28 -14q-70 -21 -123 -37.5t-75.5 -24t-20.5 -7.5q-154 0 -246 120q-43 116 -43 170zM176 1151q0 50 43 74q10 10 35 10q18 54 82 135 q47 16 63 16h115q3 -8 76 -36q21 -18 78 -41l75 -82q3 -6 24.5 -43t37.5 -66q43 -76 43 -110l-10 -97q-4 -7 -43 -51q-8 -4 -20 -10.5t-30 -16.5t-32 -18l-78 -12q-65 0 -92 -6q-14 -3 -23 16q-26 0 -44.5 -0.5t-26.5 -1.5t-7 -2l-4 4l-143 72q-5 7 -29.5 36.5t-42.5 51.5 q-47 124 -47 178zM346 311l57 -6q207 53 326 172q8 8 47 37h-53q-27 0 -125 -39q-43 -16 -113 -45q-67 -41 -135 -106zM446 1081q0 -32 99 -32q23 0 61 14q45 15 51 29q0 12 -2 18l-2 8q-44 29 -108 29q-66 0 -70 -4q2 -2 4 -2q-6 -9 -16 -25q-17 -27 -17 -35z" />
<glyph unicode="&#xe6;" horiz-adv-x="1880" d="M12 936q0 21 23 88q143 125 438 125q57 0 141 -47q39 -19 123 -68q2 2 6 10q49 103 179 138q10 0 24 4q24 4 25 4q10 0 16 -4l6 -2l37 16l123 4q94 0 238 -43q37 -12 98 -67l36 -34t36 -33t26 -23q-3 -17 17 -33l22 -35q2 -4 2 -18q0 -7 -4 -39q12 -27 12 -31l-3 4 q-3 4 -7 8q-4 -4 -4 -10q0 -10 6 -19l-37 -26q0 -6 6 -12q-62 -216 -438 -283q-17 -3 -24 -16q6 -3 6 -9q84 -47 106 -47q3 -2 103 -43q55 -9 133 -12q25 -16 94 -25q94 -12 111 -18q9 -4 77 -39q0 -11 15 -29q14 -17 14 -22q0 -8 -2 -10q35 -21 35 -37v-37q-15 -21 -15 -41 q-6 -6 -22 -6q-10 -23 -10 -41l-33 4q-12 0 -18 -14l-91 -13q-12 0 -49 11q-14 0 -14 -15h-49q-14 2 -41 8q-41 9 -55 9q-52 10 -144 24q-144 50 -174 58q-51 26 -98 59q-43 4 -96 16l-216 -205q-16 0 -32 -8l14 -12q-4 0 -12.5 1t-12.5 1q-65 0 -77 -43q-48 3 -80 -10 l-10 6q-12 4 -17 4h-96q-23 0 -47 41q-11 -2 -31 -6q-16 16 -16 14q-68 36 -121 98q-66 75 -66 136q-14 22 -14 57q0 70 16 139q89 138 222 191q27 11 106 39t119 43q30 0 57 2q4 2 55 28q-27 41 -100 82q-74 33 -121 33q-67 0 -168 -37l-98 -35q-13 3 -33 7q-9 1 -19 2 t-15.5 1.5t-8.5 0.5q-6 8 -30 20q-54 105 -54 121zM383 287h27q13 0 176 63q21 24 63 66q0 5 -6 14h-18l-222 -98zM1006 823q0 -12 2 -18l49 -6q1 1 141 28q81 15 123 60q-60 31 -115 31q-200 0 -200 -95z" />
<glyph unicode="&#xe7;" horiz-adv-x="1253" d="M61 279q0 46 31 137q29 87 53 108q162 168 512 324q7 3 34 15.5t48 21.5q9 0 109 33q76 24 129 24q8 0 22 -2t29 -2q11 0 27 4l47 -135q-12 -27 -45 -64l4 -14q-3 -2 -31 -15t-106.5 -48t-149.5 -68q-12 -8 -43 -39q-114 -39 -182 -67q-88 -37 -133 -125q4 -4 4 -11 q56 -39 168 -39l463 52l123 -31l10 -23q3 -30 0 -77q-17 -33 -66 -58q-75 -40 -82 -47q0 -21 -24 -33q-61 -32 -199 -57q-53 -33 -102 -33q-15 0 -27 4q-22 -19 -68 -22q-42 -4 -67 -8l-117 16q-1 0 -2.5 -0.5t-5 -1.5t-6.5 -2q-8 -2 -17 -2l-71 20l-23 -4q-13 0 -71 21 q-40 17 -66 26q-109 121 -109 222zM322 -778l8 26q-2 14 -2 62q21 103 153 137q63 26 189 111q0 6 -4 10t-9 4q-5 1 -14 2t-14 2v14q-39 3 -99 37q-10 31 -24 45q0 16 -14 41q-7 25 -7 74q0 113 93 319q9 4 18.5 8.5t13.5 6.5t6 2h41q140 -103 140 -197q0 -10 -4 -30 q16 -27 57 -54q16 -11 30.5 -21.5t22.5 -16.5t10 -7q89 -83 144 -184q6 -31 16 -76q2 -7 3.5 -16t2.5 -14.5t2 -8.5q4 -12 4 -2q0 -35 -36 -100q-71 -126 -189 -182q-12 -6 -223 -103q-18 -4 -21 -18h-243l4 8zM453 -903l12 8z" />
<glyph unicode="&#xe8;" horiz-adv-x="1243" d="M66 406q0 96 84 237q95 154 206 199q4 2 33 2q51 42 170 71q108 27 182 27q68 0 156 -49q-2 -2 -2 -25l45 -10q0 -5 12 -20q0 -31 29 -97v-43q0 -8 -12 -20q6 -9 6 -23q0 -21 -19 -49q-1 -6 -2 -20t-2 -21q-12 -17 -69 -66.5t-109 -84.5q-49 -33 -127 -69t-131 -55 l-53 -20q20 -11 110 -26t158 -15q52 0 144 21.5t159 43.5l66 21q1 -1 14.5 -24t26.5 -40.5t26 -27.5q-20 -30 -34 -59q-15 0 -21 6q-15 -4 -35 -18q35 -15 58 -29q-13 -3 -56 -43q-73 -22 -127 -33q-27 -15 -37 -45l-253 -33q-277 18 -439 125q-117 120 -147 277 q-10 27 -10 35zM180 1473l4 18q-4 8 -4 14q-3 14 10 43q20 35 60 41q69 6 115 -37q12 -3 36 -12l256 -174q144 -99 283 -129q9 -19 35 -33q35 -54 33 -63l26 -17q0 -9 -14 -20q0 -11 8 -19q-2 -1 -8 -6t-10 -10l4 -31q-66 -15 -66 -24q4 0 4 -8l-22 -2q-44 13 -133 36 l-422 246q-57 33 -146 107q-2 4 -22 10q-27 62 -27 70zM377 512q12 0 22 -10q20 8 61.5 21.5t72.5 27t61 33.5q54 38 119 110q0 -3 -4 4t-11 23q-32 -13 -85 -29t-87 -37q-103 -65 -149 -143z" />
<glyph unicode="&#xe9;" horiz-adv-x="1243" d="M66 406q0 96 84 237q95 154 206 199q4 2 33 2q51 42 170 71q108 27 182 27q68 0 156 -49q-2 -2 -2 -25l45 -10q0 -5 12 -20q0 -31 29 -97v-43q0 -8 -12 -20q6 -9 6 -23q0 -21 -19 -49q-1 -6 -2 -20t-2 -21q-12 -17 -69 -66.5t-109 -84.5q-49 -33 -127 -69t-131 -55 l-53 -20q20 -11 110 -26t158 -15q52 0 144 21.5t159 43.5l66 21q1 -1 14.5 -24t26.5 -40.5t26 -27.5q-20 -30 -34 -59q-15 0 -21 6q-15 -4 -35 -18q35 -15 58 -29q-13 -3 -56 -43q-73 -22 -127 -33q-27 -15 -37 -45l-253 -33q-277 18 -439 125q-117 120 -147 277 q-10 27 -10 35zM92 1010q2 6 4 14q6 12 6 16q24 17 35 39q22 16 111 76.5t158 108.5q9 6 59.5 42.5t93.5 65.5q58 41 258 154q8 5 8 14l47 23q19 -10 39 -17v-26q13 -3 35 -19q12 -28 29 -28l10 4q0 -12 16 -25q-10 -15 -24 -29q0 -5 6 -8q-25 -25 -49 -55 q-23 -17 -250 -162q-167 -110 -270 -190q-9 -8 -21.5 -18.5t-32 -26.5t-32.5 -27q-41 -21 -88 -35q-1 1 -4.5 7t-6.5 10h-55l-29 24l-49 -4q6 12 17 23l-9 8q-12 12 -12 41zM377 512q12 0 22 -10q20 8 61.5 21.5t72.5 27t61 33.5q54 38 119 110q0 -3 -4 4t-11 23 q-32 -13 -85 -29t-87 -37q-103 -65 -149 -143z" />
<glyph unicode="&#xea;" horiz-adv-x="1169" d="M66 406q0 96 84 237q95 154 206 199q4 2 33 2q51 42 170 71q108 27 182 27q68 0 156 -49q-2 -2 -2 -25l45 -10q0 -5 12 -20q0 -31 29 -97v-43q0 -8 -12 -20q6 -9 6 -23q0 -21 -19 -49q-1 -6 -2 -20t-2 -21q-12 -17 -69 -66.5t-109 -84.5q-49 -33 -127 -69t-131 -55 l-53 -20q20 -11 110 -26t158 -15q52 0 144 21.5t159 43.5l66 21q1 -1 14.5 -24t26.5 -40.5t26 -27.5q-20 -30 -34 -59q-15 0 -21 6q-15 -4 -35 -18q35 -15 58 -29q-13 -3 -56 -43q-73 -22 -127 -33q-27 -15 -37 -45l-253 -33q-277 18 -439 125q-117 120 -147 277 q-10 27 -10 35zM170 1063q0 20 29 70q22 0 39 12q7 4 55 59q22 25 176 197q29 24 102 108q24 24 64 33q3 -1 15.5 -3.5t21.5 -4.5q26 -18 59 -29q62 -51 170 -162q117 -120 164 -163q25 -45 43 -82q-33 -43 -45 -74q-1 0 -11 -4.5t-20 -9.5l-42 -2h-3q-3 0 -12 6l-25 -10 q-17 17 -44 48t-34 38q-57 64 -225 196q-12 -4 -24 -4l-80 -74l4 -12q-8 -4 -17 -10q3 -18 5 -17q4 0 -1 -1q-5 -2 -14 -3l-184 -223l-39 6q-25 -6 -35 -12q-1 1 -4.5 7t-5.5 11l-16 -2q4 4 4 13q-6 6 -29 10zM377 512q12 0 22 -10q20 8 61.5 21.5t72.5 27t61 33.5 q54 38 119 110q0 -3 -4 4t-11 23q-32 -13 -85 -29t-87 -37q-103 -65 -149 -143z" />
<glyph unicode="&#xeb;" horiz-adv-x="1243" d="M66 406q0 96 84 237q95 154 206 199q4 2 33 2q51 42 170 71q108 27 182 27q68 0 156 -49q-2 -2 -2 -25l45 -10q0 -5 12 -20q0 -31 29 -97v-43q0 -8 -12 -20q6 -9 6 -23q0 -21 -19 -49q-1 -6 -2 -20t-2 -21q-12 -17 -69 -66.5t-109 -84.5q-49 -33 -127 -69t-131 -55 l-53 -20q20 -11 110 -26t158 -15q52 0 144 21.5t159 43.5l66 21q1 -1 14.5 -24t26.5 -40.5t26 -27.5q-20 -30 -34 -59q-15 0 -21 6q-15 -4 -35 -18q35 -15 58 -29q-13 -3 -56 -43q-73 -22 -127 -33q-27 -15 -37 -45l-253 -33q-277 18 -439 125q-117 120 -147 277 q-10 27 -10 35zM256 1157q3 5 11.5 18.5t18.5 30t21 33.5q-3 0 -14 -8q-12 12 -12 16l32 -6l-2 19h37q20 13 53 16q35 -21 115 -59q6 -6 6 -31q3 -2 12.5 -10t14.5 -13q-2 -24 -4 -45q-10 -10 -25 -37q-89 -28 -168 -28l-82 55q-14 14 -14 49zM377 512q12 0 22 -10 q20 8 61.5 21.5t72.5 27t61 33.5q54 38 119 110q0 -3 -4 4t-11 23q-32 -13 -85 -29t-87 -37q-103 -65 -149 -143zM688 1137l1 46q1 -1 1 -3q6 12 21 39q87 35 166 41l86 -50q16 -16 16 -49q-1 -1 -43 -84q4 0 12 8q13 -13 13 -16q-1 1 -33 4l4 -18q-19 0 -35 -2 q-19 -16 -53 -19q-36 22 -119 49q-8 5 -8 31q-12 6 -29 23z" />
<glyph unicode="&#xec;" horiz-adv-x="931" d="M27 1190l4 18q-4 8 -4 15q-3 14 10 43q20 35 59 41q69 6 115 -37q7 -2 37 -13l256 -174q144 -99 282 -129q9 -17 35 -32q35 -54 33 -64l27 -16q0 -9 -15 -21q0 -10 8 -18q-1 -2 -7 -7.5t-11 -9.5l4 -30q-65 -14 -65 -25q4 0 4 -8l-23 -2q-89 25 -133 37l-422 246 q-58 33 -145 106q-2 4 -23 10q-26 60 -26 70zM258 332l6 180l25 119q27 22 37 51l53 12q13 0 33 -14q16 -19 90 -100q33 -56 33 -103v-125q0 6 -3 -3l-2 -9q0 -11 -4 -51q-2 -29 -2 -90v-103l-30 -73l-23 4l-20 -15q-3 1 -10.5 5.5t-10.5 5.5q-3 -1 -10 -5t-10 -6 q-12 8 -84 25q-37 57 -64 203q-7 38 -4 92z" />
<glyph unicode="&#xed;" horiz-adv-x="894" d="M49 739q2 7 4 15q6 12 6 16q24 17 35 39q22 16 110.5 76t157.5 108q9 6 60 43t94 66q51 36 258 153q8 5 8 15l47 22q11 -6 39 -16v-27q15 -4 35 -18q13 -29 29 -29l10 4q0 -11 16 -24q-10 -15 -24 -29q0 -5 6 -8q-25 -25 -49 -55q-23 -17 -250 -162q-158 -104 -270 -191 q-11 -10 -41 -34t-45 -37q-41 -21 -88 -35q-1 1 -2.5 3t-3.5 6t-5 7h-55l-29 25l-49 -4q5 10 17 22l-9 8q-12 12 -12 41zM397 332l6 180l25 119q27 22 37 51l53 12q13 0 33 -14q16 -19 90 -100q33 -56 33 -103v-125q0 4 -2 -1l-2 -11q0 -11 -4 -51q-2 -29 -2 -90v-103 l-31 -73l-23 4l-6 -4t-7 -5.5t-7 -5.5q-3 1 -10.5 5.5t-10.5 5.5q-3 -1 -10 -5t-10 -6q-12 8 -84 25q-37 57 -64 203q-7 38 -4 92z" />
<glyph unicode="&#xee;" horiz-adv-x="1052" d="M37 702q0 20 29 70q21 0 38 12q7 5 56 60q12 14 70.5 78.5t105.5 117.5q25 21 102 109q24 24 64 33q3 -1 15.5 -3.5t21.5 -4.5q26 -18 59 -29q62 -51 170 -162q126 -129 164 -164q25 -45 43 -82q-34 -44 -45 -73l-10 -5q-11 -5 -21 -10l-42 -2h-3q-3 0 -12 6 q-3 -1 -6.5 -2.5t-9 -4t-9.5 -3.5q-17 17 -44 48t-34 38q-60 67 -225 197q-12 -4 -25 -4l-79 -74l4 -12q-2 -1 -17 -11l4 -16q4 0 -1 -2q-5 -1 -13 -2l-184 -223l-39 6q-23 -5 -35 -13q-1 1 -4.5 7.5t-5.5 11.5l-17 -2q4 4 4 12q-6 6 -28 10zM354 332l6 180l25 119 q27 22 37 51l53 12q13 0 33 -14q16 -19 90 -100q33 -56 33 -103v-125q0 4 -2 -1l-2 -11q0 -11 -4 -51q-2 -29 -2 -90v-103l-31 -73l-23 4l-20 -15q-3 1 -10.5 5.5t-10.5 5.5q-3 -1 -10 -5t-10 -6q-12 8 -84 25q-37 57 -64 203q-7 38 -4 92z" />
<glyph unicode="&#xef;" horiz-adv-x="823" d="M33 866q3 5 11.5 18.5t18.5 30t21 33.5q-3 0 -14 -8q-13 13 -13 16l33 -6l-2 19h37q20 13 53 16q35 -21 115 -59q6 -6 6 -31q2 -2 11.5 -9.5t15.5 -13.5q-2 -24 -4 -45q-11 -11 -25 -36q-92 -29 -168 -29l-82 55q-14 14 -14 49zM236 317l6 181l24 118q27 21 37 52l53 12 q13 0 33 -14q37 -43 90 -101q33 -56 33 -102v-125q0 4 -2 -1l-2 -11q0 -12 -4 -52q-2 -29 -2 -90v-102l-31 -74l-22 4l-21 -14l-20 10q-3 -1 -21 -10q-12 8 -84 25q-36 55 -63 202q-7 38 -4 92zM465 846l1 46q1 -1 1 -3q15 30 20 39q87 35 166 41l86 -49q17 -17 17 -50 q0 -1 -43 -84q3 0 12 9q12 -12 12 -17q-1 1 -32 4l4 -18q-19 0 -35 -2q-19 -16 -53 -19q-39 24 -119 50q-8 5 -8 30q-12 6 -29 23z" />
<glyph unicode="&#xf0;" horiz-adv-x="1200" d="M117 283q4 6 20 65q8 26 13 74q141 347 462 559q6 0 15 18l-90 187h-13q-16 0 -78 -80q-4 0 -9 -1t-11.5 -2.5t-9.5 -2.5q-18 -3 -27 6l-74 -64q-12 -3 -18 13q-8 -3 -18 -13q-15 5 -25 11v22q-9 12 -23 8q-6 15 -18 39q0 19 -8 58l-8 43q0 54 57 108l115 111l-133 229 q1 1 2.5 3t4 6t3.5 6q-11 102 -13 94q0 32 21 67q4 3 20.5 14.5t30.5 20.5h23l34 -22q65 -24 127 -107q29 -44 86 -121h13l340 250q0 -14 -2 -16l8 -8h74q9 -13 39 -29l-3 -8q-2 -6 -2 -19l9 -12l18 4q0 -8 -8 -16q0 -7 8 -15q-13 -32 -10 -47q-18 -21 -49 -69 q-7 -4 -16.5 -9.5t-24.5 -15t-25 -16.5l12 -13q-16 0 -18 2q-12 -11 -72 -61q0 -6 4 -14l-110 -154q11 -29 61 -117q12 -23 35 -65t65 -117t76 -137q29 -51 88 -193q37 -84 37 -172v-145q0 -4 -6 -31q-12 -161 -98 -256q-9 -4 -68 -55q-38 -30 -73 -35q-66 -56 -95 -74 q-55 -36 -104 -39l-131 -36q0 1 1 2t1 2q0 4 -8 4h-21q-2 -2 -2 -11q4 -7 23 -4q0 -4 2 -10t2 -10q-31 -16 -35 -17q-3 12 -18 33q-7 0 -64 11q-2 -1 -8 -5t-10 -6q-41 23 -68 23q-30 0 -49 -25q-28 -36 -39 -14q-19 39 -117 313q-2 9 -9 43.5t-11 59.5zM430 254 q0 -17 14 -39l58 -12q123 0 272 143q35 47 35 103v73q0 98 -45 207q-4 0 -10 6q-11 -11 -72 -41q-59 -27 -102 -73q-2 -4 -58 -89q-30 -47 -30 -77q-62 -154 -62 -201z" />
<glyph unicode="&#xf1;" horiz-adv-x="1196" d="M53 215v3v-1l17 129q5 47 16 100q3 23 13 75t14 73q9 69 59 203l53 24q33 -7 43 -10q0 -21 19 -37q9 -10 19 -20.5t11 -10.5q7 -29 27 -61q2 -8 5 -20.5t7.5 -32.5t8.5 -37q173 102 233 186q15 5 57 41q27 17 170 94q56 17 78 17q18 0 92 -51q65 -102 111 -310l-6 -166 l-31 -329l-41 -117q-10 -2 -37 -23h-16q-6 0 -23 17h-12l-18 -6q-2 2 -72 59q-17 49 -33 98l-2 107l19 289v75q-1 2 -3.5 5t-6 7t-5.5 7q-91 -42 -135 -68l-205 -217q-125 -134 -190 -254q-29 -16 -64 -16q-9 0 -39 12l-10 -16q-5 0 -35 6v27l-28 18q-1 0 -11.5 -4.5 t-19.5 -9.5q-14 33 -23 67q0 27 -4 51q0 7 -1 16.5t-1 10.5zM98 1518q1 1 9 18t19.5 40.5t25.5 49.5q12 9 49 43l194 172q143 76 275 76q46 0 174 -43q33 -16 112 -68q120 -93 123 -94q23 0 68 31q76 37 319 223q10 8 50 29q34 4 49 8q31 -13 65 -25v-8q9 -12 27 -12 q2 -2 2 -4q0 -3 -4 -15q14 -14 24 -22v-62q0 10 -23 -22q-2 -4 -5 -8q-49 -56 -138 -142q-62 -44 -94 -81q-165 -124 -258 -127q-35 -9 -33 -12q1 -1 5 -1q-17 0 -50 11q-65 20 -67 20q-68 18 -180 121q-101 94 -150 94q-13 0 -78 -33q-65 -35 -92 -35l-248 -208 q-6 1 -11.5 2t-8.5 1.5t-4 0.5q-13 -3 -45 -17q-29 12 -47 17q-54 76 -54 82z" />
<glyph unicode="&#xf2;" horiz-adv-x="1343" d="M74 410l10 94v147q0 5 18 66q23 69 25 84q21 53 154 139q18 5 71 18q15 11 33 19q4 -4 12 -4q19 6 58 18q62 19 100 19h193q30 0 73 -15q69 3 279 -131v-20q32 -28 90 -64q20 -20 86 -164q12 -70 12 -133q0 -78 -45 -129q-1 -3 -2.5 -8.5t-4.5 -15t-5 -17.5 q-21 -26 -109 -129q-16 -10 -93 -59.5t-116 -73.5q-232 -78 -346 -78h-67q-10 0 -25 9q-21 -3 -164 38q-61 38 -155 119q-12 21 -50 86q-32 111 -32 185zM244 1542l4 19q-4 8 -4 14q-3 14 10 43q20 35 59 41q69 6 115 -37q15 -4 37 -12l256 -174q144 -99 283 -129 q10 -20 34 -33q35 -54 33 -64l27 -16q0 -8 -15 -20q0 -10 9 -19q-2 -2 -8.5 -7t-10.5 -9l4 -31q-65 -14 -65 -25q4 0 4 -8l-23 -2q-89 25 -133 37l-422 246q-58 33 -145 106q-3 5 -23 11q-26 60 -26 69zM319 416l7 -21q28 -35 102 -65q76 -29 121 -29q128 23 139 23l162 63 q121 50 160 86q49 43 49 76v26q-83 132 -150 132q-1 0 -4 -1t-4 -1q-5 -5 -6 -5h-12q-21 34 -107 31l-110 -4l-246 -47l-12 -16v-37q0 -8 10 -31l-21 -21q2 -6 5 -12t4.5 -8.5t1.5 -3.5q-17 -14 -31 -21q0 -1 -3 -6t-11 -17.5t-15 -25.5q-29 -53 -29 -65z" />
<glyph unicode="&#xf3;" horiz-adv-x="1341" d="M74 410l10 94v147q0 5 18 66q23 69 25 84q21 53 154 139q18 5 71 18q15 11 33 19q4 -4 12 -4q19 6 58 18q62 19 100 19h193q30 0 73 -15q69 3 279 -131v-20q32 -28 90 -64q20 -20 86 -164q12 -70 12 -133q0 -78 -45 -129q-1 -3 -2.5 -8.5t-4.5 -15t-5 -17.5 q-21 -26 -109 -129q-16 -10 -93 -59.5t-116 -73.5q-232 -78 -346 -78h-67q-10 0 -25 9q-21 -3 -164 38q-61 38 -155 119q-12 21 -50 86q-32 111 -32 185zM119 1163q2 7 4 15q6 12 6 16q24 17 35 39q22 16 110.5 76t157.5 108q9 6 60 43t94 66q51 36 258 153q8 5 8 15l47 22 q11 -6 39 -16v-27q15 -4 35 -18q13 -29 28 -29l11 4q0 -11 16 -24q-10 -15 -24 -29q0 -5 6 -8q-21 -21 -49 -56q-10 -7 -250 -161q-165 -109 -271 -191q-11 -10 -41 -34t-45 -37q-41 -21 -88 -35q-1 1 -4 6.5t-6 9.5h-55l-29 25l-49 -4q6 12 16 22l-8 8q-12 12 -12 41z M319 416l7 -21q28 -35 102 -65q76 -29 121 -29q128 23 139 23l162 63q121 50 160 86q49 43 49 76v26q-83 132 -150 132q-1 0 -4 -1t-4 -1q-5 -5 -6 -5h-12q-21 34 -107 31l-110 -4l-246 -47l-12 -16v-37q0 -8 10 -31l-21 -21q2 -6 5 -12t4.5 -8.5t1.5 -3.5q-17 -14 -31 -21 q0 -1 -3 -6t-11 -17.5t-15 -25.5q-29 -53 -29 -65z" />
<glyph unicode="&#xf4;" horiz-adv-x="1353" d="M74 410l10 94v147q0 5 18 66q23 69 25 84q21 53 154 139q18 5 71 18q15 11 33 19q4 -4 12 -4q19 6 58 18q62 19 100 19h193q30 0 73 -15q69 3 279 -131v-20q32 -28 90 -64q20 -20 86 -164q12 -70 12 -133q0 -78 -45 -129q-1 -3 -2.5 -8.5t-4.5 -15t-5 -17.5 q-21 -26 -109 -129q-16 -10 -93 -59.5t-116 -73.5q-232 -78 -346 -78h-67q-10 0 -25 9q-21 -3 -164 38q-61 38 -155 119q-12 21 -50 86q-32 111 -32 185zM205 1161q0 22 28 70q22 0 39 12q7 5 56 60q12 14 70.5 78.5t105.5 117.5q25 21 102 109q23 23 64 32q3 -1 15.5 -3.5 t21.5 -4.5q23 -17 59 -28q62 -51 170 -162q126 -129 164 -164q25 -45 43 -82q-33 -43 -45 -74l-11 -4q-11 -5 -20 -10l-42 -2h-3q-3 0 -12 6l-25 -10q-17 17 -44 48t-34 38q-57 64 -225 196q-12 -4 -25 -4l-79 -73q0 -1 4 -13q-8 -4 -17 -10l4 -16q4 0 -1 -2q-5 -1 -13 -2 l-184 -224l-39 7q-23 -5 -35 -13q-1 2 -4.5 8.5t-5.5 10.5l-17 -2q4 4 4 12q-6 6 -28 10zM319 416l7 -21q28 -35 102 -65q76 -29 121 -29q128 23 139 23l162 63q121 50 160 86q49 43 49 76v26q-83 132 -150 132q-1 0 -4 -1t-4 -1q-5 -5 -6 -5h-12q-21 34 -107 31l-110 -4 l-246 -47l-12 -16v-37q0 -8 10 -31l-21 -21q2 -6 5 -12t4.5 -8.5t1.5 -3.5q-17 -14 -31 -21q0 -1 -3 -6t-11 -17.5t-15 -25.5q-29 -53 -29 -65z" />
<glyph unicode="&#xf5;" horiz-adv-x="1363" d="M72 1448q1 2 8.5 18.5t19 40t25.5 49.5q12 9 49 43l195 173q141 75 274 75q46 0 174 -43q43 -21 113 -67q122 -95 123 -95q22 0 67 31q79 39 320 223q12 10 49 29q34 4 49 8q15 -6 66 -24v-8q10 -13 26 -13q2 -2 2 -4t-4 -14q15 -15 25 -23v-61q0 11 -24 -24q-2 -3 -5 -7 q-49 -56 -137 -141q-60 -43 -94 -82q-165 -124 -258 -127q-35 -9 -34 -11q1 -1 5 -1q-19 0 -49 10q-64 19 -68 20q-68 18 -180 121q-101 94 -150 94q-14 0 -77 -32q-65 -35 -93 -35l-247 -209l-12 2l-9 1.5t-4 0.5q-18 -5 -45 -16q-19 8 -47 16q-53 74 -53 82zM74 410l10 94 v147q0 5 18 66q23 69 25 84q21 53 154 139q18 5 71 18q15 11 33 19q4 -4 12 -4q19 6 58 18q62 19 100 19h193q30 0 73 -15q69 3 279 -131v-20q32 -28 90 -64q20 -20 86 -164q12 -70 12 -133q0 -78 -45 -129q-1 -3 -2.5 -8.5t-4.5 -15t-5 -17.5q-21 -26 -109 -129 q-16 -10 -93 -59.5t-116 -73.5q-232 -78 -346 -78h-67q-10 0 -25 9q-21 -3 -164 38q-61 38 -155 119q-12 21 -50 86q-32 111 -32 185zM319 416l7 -21q28 -35 102 -65q76 -29 121 -29q128 23 139 23l162 63q121 50 160 86q49 43 49 76v26q-83 132 -150 132q-1 0 -4 -1t-4 -1 q-5 -5 -6 -5h-12q-21 34 -107 31l-110 -4l-246 -47l-12 -16v-37q0 -8 10 -31l-21 -21q2 -6 5 -12t4.5 -8.5t1.5 -3.5q-17 -14 -31 -21q0 -1 -3 -6t-11 -17.5t-15 -25.5q-29 -53 -29 -65z" />
<glyph unicode="&#xf6;" horiz-adv-x="1353" d="M74 410l10 94v147q0 5 18 66q23 69 25 84q21 53 154 139q18 5 71 18q15 11 33 19q4 -4 12 -4q19 6 58 18q62 19 100 19h193q30 0 73 -15q69 3 279 -131v-20q32 -28 90 -64q20 -20 86 -164q12 -70 12 -133q0 -78 -45 -129q-1 -3 -2.5 -8.5t-4.5 -15t-5 -17.5 q-21 -26 -109 -129q-16 -10 -93 -59.5t-116 -73.5q-232 -78 -346 -78h-67q-10 0 -25 9q-21 -3 -164 38q-61 38 -155 119q-12 21 -50 86q-32 111 -32 185zM268 1235q3 5 11.5 18.5t18.5 30t21 33.5q-3 0 -14 -8q-12 12 -12 16l33 -6l-2 18h36q21 14 54 17q45 -28 114 -60 q7 -7 7 -30q3 -2 12 -10t14 -13q-2 -24 -4 -45q-10 -10 -25 -37q-92 -29 -167 -29l-82 56q-15 15 -15 49zM319 416l7 -21q28 -35 102 -65q76 -29 121 -29q128 23 139 23l162 63q121 50 160 86q49 43 49 76v26q-83 132 -150 132q-1 0 -4 -1t-4 -1q-5 -5 -6 -5h-12 q-21 34 -107 31l-110 -4l-246 -47l-12 -16v-37q0 -8 10 -31l-21 -21q2 -6 5 -12t4.5 -8.5t1.5 -3.5q-17 -14 -31 -21q0 -1 -3 -6t-11 -17.5t-15 -25.5q-29 -53 -29 -65zM700 1214l1 46q1 -1 1 -3q6 12 21 39q87 35 166 41l86 -49q16 -16 16 -49q0 -1 -43 -84q5 0 13 8 q12 -12 12 -16q-1 1 -33 4l4 -18q-11 0 -35 -3q-18 -15 -53 -18q-36 22 -119 49q-8 5 -8 31q-14 7 -29 22z" />
<glyph unicode="&#xf7;" horiz-adv-x="2037" d="M29 502q15 15 39 45q2 7 -15 24v27q0 12 35 53q26 32 43 45q27 0 90 13l49 -11q35 0 72 4l715 58q20 1 86 10l321 4l47 10h56l366 62q2 -1 9 -6.5t12 -8.5h28q-9 0 31 -21q1 0 2 -1l33 -80v-117q-4 -2 -20 -10.5t-27 -15.5l2 2q2 -2 2 -23q-80 -10 -119 -22 q-32 -29 -51 -29l-313 -6l-897 -82q-11 0 -23 2t-24 2q-15 0 -46 -4q-29 -2 -61 -2l-54 -14h3l-12 4q-6 2 -15 2q-26 0 -84 -21v-24q-23 -3 -35 20q-24 -24 -30 -24h-135l-5 -5l15 -14h26q-18 -10 -39 -10q-12 0 -18 2q8 24 27 39q-6 12 -25 12q4 20 4 47q-2 1 -8.5 5.5 t-16 11.5t-20.5 14q-26 17 -20 33zM53 379q16 -6 13 -14q0 1 -13 14zM891 84v63q13 10 39 46q0 7 -10 20q13 26 59 88q12 36 51 47q4 1 25 6.5t37 10.5q73 -24 114 -105l27 -121q-5 -39 -111 -139q-6 0 -14 -2t-16 -2q-11 -19 -25 -27q-66 0 -94 -4q-10 13 -21 45l-20 -4 q-4 10 -19 37t-22 41zM961 1001v35q12 0 20 8q-3 0 -20 17q8 0 12 -4q8 17 31.5 64l39.5 79q16 12 68 45q30 -3 92 -28q49 -43 49 -103q0 -11 -4 -39q8 -28 8 -31v-32q-15 -15 -18 -21q0 -26 -25 -57q-23 -33 -51 -33q-34 -24 -33 -29h-81q-12 12 -35 62q-1 0 -4.5 -0.5 t-10 -1.5t-12.5 -2z" />
<glyph unicode="&#xf8;" horiz-adv-x="1845" d="M-12 -317q0 68 20 98l-6 22q0 21 21 56q24 80 73 184q2 3 10.5 18.5t24 44.5t33.5 60q49 88 49 100l-80 127q-80 127 -80 244q0 39 43 215q118 233 248 354q34 17 59 49q40 32 248 150q8 0 111 53q92 47 213 47q90 0 303 -78h18q69 49 168 142l37 18q3 12 80 68 q79 55 107 55h102l115 -125q0 -7 8 -26t8 -25q0 -17 -35 -55q-39 -36 -43 -49q-115 -47 -235 -164q46 -101 127 -136l57 -301l-31 -215l-112 -200q-28 -73 -140 -164q-70 -58 -166 -133q-2 0 -10 4l-291 -154q-8 -3 -26 15q-7 -3 -27.5 -10.5t-32.5 -12.5q4 -4 19 -4 q-8 0 -14 -6q8 -1 47 -10l-82 -2l-70 -17l-332 115q-24 -28 -59 -76q-9 -29 -51 -68q-6 -11 -31 -86q0 -12 -16 -12l-99 -239q-6 -7 -16 -17l-21 21q-3 -4 -17.5 -20t-23.5 -27q-16 31 -22 36h-33q-8 -8 -26 -20q-11 11 -54 35l-41 108q-8 -14 -20 -14l-4 8q-2 6 -2 19z M455 598l491 537h-28q-6 2 -21 -9q-37 -16 -113 -26l-73 -51q-3 -3 -11 -7q-21 -30 -41 -55q-18 -9 -49 -37q-41 -68 -104 -182q-54 -102 -51 -170zM715 317q54 -22 88 -22q41 0 90 24q52 6 297 142l123 123q38 38 100 153q24 46 35 111l10 39q0 12 -8 31v14q0 32 -25 63 q-29 29 -59 29q-17 0 -55 -23v-12q3 -6 -8 -12q-47 -57 -132 -113q0 -15 -26 -41q-15 -12 -29 -26h-20q-10 -37 -58 -88l-123 -123v-21q-11 -14 -34 -24q-11 -27 -41 -37q-7 -34 -33 -62q-2 -2 -18.5 -21t-28.5 -34q-14 -24 -45 -70z" />
<glyph unicode="&#xf9;" horiz-adv-x="1161" d="M84 467q0 40 20 119q61 47 84 47q124 -62 127 -182q3 -53 64 -129q74 -35 74 -37h32q4 1 15 4t31.5 9.5t39.5 12.5q70 45 140 101q77 68 86 137q8 16 16 47q4 12 20 62t27 87q33 102 66 144q6 0 12 -2q8 -2 18 -2h33q4 -11 25 -29q15 -26 61 -100q6 -26 0 -62 q-5 -27 8 -47q-29 -141 -49 -217q-15 -62 -84 -184q-67 -94 -108 -135q-76 -79 -146 -91q-29 -10 -86 -36q-107 -17 -112 -17q-228 0 -398 350q-16 98 -16 150zM154 1444l4 18q-4 8 -4 15q-3 14 10 43q20 35 59 41q69 6 115 -37q7 -2 37 -13l256 -174q144 -99 282 -129 q9 -17 35 -32q35 -54 33 -64l27 -16q0 -9 -15 -21q0 -10 8 -18q-1 -2 -7 -7.5t-11 -9.5l4 -30q-65 -14 -65 -25q4 0 4 -8l-23 -2q-89 25 -133 37l-422 245q-54 31 -145 107q-2 4 -23 10q-26 60 -26 70z" />
<glyph unicode="&#xfa;" horiz-adv-x="1177" d="M78 854q2 6 4 14q6 12 6 17q24 17 35 39q22 16 110.5 76t157.5 108q9 6 60 43t94 66q51 36 258 153q8 5 8 14l47 23q11 -6 39 -16v-27q15 -4 35 -18q13 -29 29 -29l10 4q0 -12 16 -25q-8 -12 -24 -28q0 -5 6 -8q-21 -21 -49 -56q-23 -17 -250 -162q-174 -115 -271 -190 q-9 -8 -21.5 -18.5t-32 -26.5t-32.5 -27q-41 -21 -88 -35q-1 1 -4 7t-6 10h-55l-29 24l-49 -4q7 14 16 23l-8 8q-12 12 -12 41zM84 467q0 40 20 119q61 47 84 47q124 -62 127 -182q3 -53 64 -129q74 -35 74 -37h32q4 1 15 4t31.5 9.5t39.5 12.5q70 45 140 101q77 68 86 137 q8 16 16 47q4 12 20 62t27 87q33 102 66 144q6 0 12 -2q8 -2 18 -2h33q4 -11 25 -29q15 -26 61 -100q6 -26 0 -62q-5 -27 8 -47q-29 -141 -49 -217q-15 -62 -84 -184q-67 -94 -108 -135q-76 -79 -146 -91q-29 -10 -86 -36q-107 -17 -112 -17q-228 0 -398 350q-16 98 -16 150 z" />
<glyph unicode="&#xfb;" horiz-adv-x="1150" d="M84 467q0 40 20 119q61 47 84 47q124 -62 127 -182q3 -53 64 -129q74 -35 74 -37h32q4 1 15 4t31.5 9.5t39.5 12.5q70 45 140 101q77 68 86 137q8 16 16 47q4 12 20 62t27 87q33 102 66 144q6 0 12 -2q8 -2 18 -2h33q4 -11 25 -29q15 -26 61 -100q6 -26 0 -62 q-5 -27 8 -47q-29 -141 -49 -217q-15 -62 -84 -184q-67 -94 -108 -135q-76 -79 -146 -91q-29 -10 -86 -36q-107 -17 -112 -17q-228 0 -398 350q-16 98 -16 150zM86 1040q0 20 29 70q22 0 39 12q5 3 55 60q12 14 70.5 78.5t105.5 117.5q25 21 102 109q24 24 64 33 q3 -1 15.5 -4t21.5 -5q23 -17 59 -28q62 -51 170 -162q126 -129 164 -164q25 -45 43 -82q-33 -43 -45 -74q-1 0 -11 -4.5t-20 -9.5l-42 -2h-3q-3 0 -12 6q-3 -1 -6.5 -2.5t-9 -4t-9.5 -3.5q-17 17 -44 48t-34 38q-60 67 -225 197q-12 -4 -24 -4l-80 -74l4 -12q-2 -1 -17 -11 q3 -15 5 -16q4 0 -1 -1q-5 -2 -14 -3l-184 -223l-39 6q-23 -5 -35 -13q-1 2 -4.5 8.5t-5.5 10.5l-16 -2q4 4 4 12q-6 6 -29 10z" />
<glyph unicode="&#xfc;" horiz-adv-x="1155" d="M84 467q0 40 20 119q61 47 84 47q124 -62 127 -182q3 -53 64 -129q74 -35 74 -37h32q4 1 15 4t31.5 9.5t39.5 12.5q70 45 140 101q77 68 86 137q8 16 16 47q4 12 20 62t27 87q33 102 66 144q6 0 12 -2q8 -2 18 -2h33q4 -11 25 -29q15 -26 61 -100q6 -26 0 -62 q-5 -27 8 -47q-29 -141 -49 -217q-15 -62 -84 -184q-67 -94 -108 -135q-76 -79 -146 -91q-29 -10 -86 -36q-107 -17 -112 -17q-228 0 -398 350q-16 98 -16 150zM143 1036q22 35 52 82q-4 0 -15 -8q-12 12 -12 16l33 -6l-2 19h37q20 13 53 16q38 -23 114 -59q7 -7 7 -31 q3 -2 12 -9.5t14 -13.5q-2 -24 -4 -45q-9 -9 -24 -36q-92 -29 -168 -29l-82 55q-15 15 -15 49zM575 1016q0 49 2 46q1 -1 1 -3q15 30 20 39q87 35 166 41l86 -49q16 -16 16 -50q0 -1 -43 -84q4 0 13 9q12 -12 12 -17q-1 1 -33 4l4 -18q-19 0 -35 -2q-19 -16 -53 -19 q-39 24 -119 50q-8 5 -8 30q-12 6 -29 23z" />
<glyph unicode="&#xfd;" horiz-adv-x="1081" d="M78 596q0 45 22 109q14 16 58 57h14q17 0 94 -74q21 -35 33 -86q1 -5 4.5 -20.5t10.5 -46t14 -60.5q24 -110 57 -110q80 0 227 120q124 105 195 197q20 4 41 20q18 -6 53 -6q46 -55 51 -61q15 -5 21 -8q43 -52 43 -131q0 -121 -115 -502q-11 -39 -166 -465q4 -4 15 -4 h-15l-94 -223l-102 -328q-11 -8 -58 -57q-8 0 -32 -9q-21 -8 -29 -8q-7 2 -23 6q-10 10 -23.5 25t-35 39t-37.5 41q-22 81 -31 151l31 146l96 282l189 449q-4 12 -8 20q-100 -32 -154 -32q-161 0 -264 213q-82 171 -82 356zM82 981q2 6 4 14q6 12 6 17q24 17 35 39 q22 16 110.5 76t157.5 108q9 6 60 42.5t94 65.5q58 41 258 154q8 5 8 14l47 23q11 -5 39 -16v-27q15 -4 35 -18q13 -29 29 -29l10 4q0 -12 16 -25q-8 -12 -24 -28q0 -6 6 -9q-25 -25 -49 -55q-23 -17 -250 -162q-174 -115 -271 -190q-9 -8 -21.5 -18.5t-32 -26.5t-32.5 -27 q-41 -21 -88 -35q-1 1 -4 6.5t-6 10.5h-55l-29 24l-49 -4q7 14 16 23l-8 8q-12 12 -12 41z" />
<glyph unicode="&#xfe;" horiz-adv-x="1349" d="M121 145q0 11 16 27l-4 168q0 34 21 98l-9 23v94l11 37q10 38 10 41q-2 2 -2 8t4 14q-2 4 -2 13q0 16 8 32q-2 25 -16 103q8 13 8 24l-12 553q18 109 24 125q22 66 72 78q13 -3 76 -47q33 -20 36 -78l25 -344q15 -10 31 -10l121 8q130 6 366 -72q132 -44 279 -180 q138 -126 135 -254q10 -20 10 -39q0 -25 -18 -65q-6 -72 -129 -142q-14 -14 -23 -26q-32 -11 -125 -86q-10 0 -55 -33q-22 -2 -59 -25q-4 -2 -20.5 -11.5t-27.5 -16.5q-8 -4 -29.5 -15t-63 -32t-81.5 -41q-106 -53 -178 -56q-27 -5 -92 -28q0 -9 -4 -13q4 -4 12 -16 q-2 -12 -2 -31q0 -24 6 -39q-8 -24 -8 -53l6 -21l8 -32q-6 -43 -6 -57v-78l21 -201q0 3 -2 -2q-6 -14 -15 -61q-3 -11 -14 -25q-2 2 -10 2q-9 0 -31 -14q-23 -13 -29 -13q-15 -21 -30 -24q-4 8 -13 29l-20 12q-6 0 -18 -12q-11 8 -68 41q-2 12 -21 51q9 15 9 26l-13 54 q-4 4 -12 4l-27 45q-2 3 -11 10t-15 12v561zM408 807l20 -559h14l160 67q6 0 10 -2q6 -2 13 -2q41 0 241 117q76 47 144 104q53 47 53 72q0 48 -82 127q-81 81 -141 90q-96 48 -197 45q-10 13 -49 13q-57 0 -62 -5h3q-2 -2 -8 -5.5t-9 -6.5q-14 0 -22 8q-5 -3 -47 -24h-1 q-2 0 -9 1t-15 3q-8 -12 -16 -43z" />
<glyph unicode="&#xff;" horiz-adv-x="1087" d="M78 596q0 45 22 109q14 16 58 57h14q17 0 94 -74q21 -35 33 -86q1 -5 4.5 -20.5t10.5 -46t14 -60.5q24 -110 57 -110q80 0 227 120q124 105 195 197q20 4 41 20q18 -6 53 -6q46 -55 51 -61q15 -5 21 -8q43 -52 43 -131q0 -121 -115 -502q-11 -39 -166 -465q4 -4 15 -4 h-15l-94 -223l-102 -328q-11 -8 -58 -57q-8 0 -32 -9q-21 -8 -29 -8q-7 2 -23 6q-10 10 -23.5 25t-35 39t-37.5 41q-22 81 -31 151l31 146l96 282l189 449q-4 12 -8 20q-100 -32 -154 -32q-161 0 -264 213q-82 171 -82 356zM211 1044q3 5 11.5 18.5t18.5 30t21 33.5 q-3 0 -14 -8q-12 12 -12 17l32 -7l-2 19h37q20 13 53 16q35 -21 115 -59q6 -6 6 -31q3 -3 12.5 -10t14.5 -12q-2 -24 -4 -45q-10 -10 -25 -37q-92 -29 -168 -29l-82 55q-14 14 -14 49zM643 1024l1 46q1 -1 1 -3q6 12 21 39q87 35 165 41l87 -49q16 -16 16 -49q-1 -1 -43 -84 q4 0 12 8q12 -12 12 -17q-2 2 -32 5l4 -19q-19 0 -35 -2q-18 -15 -53 -18q-36 22 -119 49q-8 5 -8 30q-12 6 -29 23z" />
<glyph unicode="&#x152;" horiz-adv-x="3506" d="M25 725l16 199q0 -14 6 9q5 16 12 50q2 6 10.5 29.5t14.5 42.5q102 301 475 551q66 54 223 141l234 129q55 -17 176 -14l686 22l791 -22l464 -4q7 0 13 2q4 2 12 2l32 -7q39 -7 101 -16q8 -4 34 -18t44 -23q30 -36 47 -59q4 -4 4 -27l27 -20q-4 -30 -17 -74q2 -4 4 -6 q7 -7 7 -8l-68 -43q-3 0 -7.5 1t-6.5 1t-6 -1t-5 -1q-1 -2 -2 -7t-3 -11.5t-5 -12.5q-20 0 -53 -10q-32 14 -76 14l-133 18h-76q-39 0 -92 17q-15 -6 -43 -6q-37 0 -80 16q-17 -10 -37 -10l-94 -10l-176 26l-467 10q-41 0 -53 -24q-4 -2 -23 -2l-4 -17q7 -6 81.5 -76.5 t129.5 -123.5q133 -130 133 -205v-215l9 -8l536 55l219 14q7 0 22.5 1t22.5 1q211 0 338 -127q6 -37 6 -65q0 -92 -86 -92h-112l-174 -21h-58l-577 -90l-4 8l-256 -22q-31 -42 -56 -76q-5 -5 -2 -14l-4 2q-4 0 -8 -4q3 -9 0 -21l-129 -151q3 -1 15.5 -4t21.5 -5l239 35 q17 -10 35 -10l535 61h61l266 21l123 -12l7 4l143 -6l61 -13q21 -21 74 -45l57 -127q-2 -6 -34 -92q-3 -6 -48 -25q-56 -18 -69 -18l-371 -25q0 13 4 17q-2 4 -28 4q-2 -2 -2 -6t4 -8q-3 1 -10.5 2.5t-21.5 5t-28 6.5q-82 -21 -61 -21q7 0 -2 3l-47 8q-9 -15 -74 -27 q-10 10 -29 10q-22 -14 -47 -14q-8 0 -14 2l-8 2l-105 -20q-28 6 -78 0q-22 -3 -42 -5.5t-29.5 -4t-10.5 -1.5q-21 0 -28 11l-135 -35q-7 -4 -7 -21h-112q-6 0 -17 -8q-32 -4 -71 -4q-5 0 -13 -8t-14 -8h-207q4 4 4 8q0 1 -1 3t-1 3l-53 4q-3 24 -35 37q-20 14 -39 57 q-23 51 -32 66q-43 -31 -66 -45q-29 -6 -53 -21q-32 -16 -53 -30q-73 -9 -150 -62q-22 0 -80 -10q10 -7 31 -4l-223 -17l-320 15l-37 26q0 5 6 11q-2 2 -28 12l-166 49q-367 189 -475 498q-2 8 -37 102q0 27 -12 82zM332 713q0 -253 229 -369h19q12 -18 145 -59 q137 -39 195 -39h79q26 0 125 18q4 1 78 8q11 4 43 16.5t92.5 36t120.5 46.5q131 75 191 112q4 4 12.5 15t18.5 22.5t20 22.5q28 17 45 32q51 58 129 154q35 55 106 217q39 85 39 152q0 1 -0.5 4l-1.5 9t-2 13q-2 14 -2 29q-14 11 -37 41q-14 0 -24 10q0 11 -10 21 q-16 0 -27 8q0 11 -14 31q-32 22 -82 61q-204 101 -252 119q-4 1 -19.5 6t-47.5 16t-66 21q-13 0 -21 -4q-15 10 -27 20q-18 0 -24 -6q-11 15 -82 27q-41 14 -74 14h-123q-76 0 -135 -39q-120 -76 -172 -113q-82 -54 -174 -143q-2 -2 -104 -100q-20 -31 -66 -88 q-100 -160 -100 -342zM2011 -45l14 -4z" />
<glyph unicode="&#x153;" horiz-adv-x="2236" d="M39 481q0 11 8 47q3 91 90 209q94 128 201 191q238 141 493 135l134 -4q42 -3 98 -35q6 -4 35.5 -20.5t52.5 -30.5q22 -20 76 -80q53 53 141 127q151 80 289 80q62 0 201 -39q34 -21 102 -51q61 -46 117 -107q20 -23 49 -92q31 -76 31 -106q0 -5 -1 -13.5t-2 -20.5 t-2 -22l-2 -12q-3 -57 0 -66l-51 -34q-102 -31 -266 -56q-169 -27 -207 -37q-66 -3 -182 -26q0 6 -6 -12q40 -52 184 -82q48 -28 127 -25l207 8l137 -14q25 -46 57 -78q-4 -17 -32 -74q-24 -50 -19 -65l-196 -84h-185q-109 0 -252 51q-144 52 -200 94q-39 29 -107 76 q-6 0 -24 -12q-38 -51 -191 -127q-162 -81 -221 -78l-164 6q-12 -4 -29 -16q-8 3 -20 6t-32 7.5t-34 8.5q-54 14 -75 39q-7 3 -18.5 8.5t-29.5 14.5t-34 16q-25 25 -56 41q-4 4 -18 16.5t-39 34.5t-51 45q-32 57 -78 166q0 1 -0.5 6.5t-1.5 18t-2 26.5q-2 16 -2 41zM346 483 q0 -112 162 -188q108 -27 141 -27q55 0 174 64q145 79 213 164q39 79 39 127q0 140 -125 192l-78 6q-7 10 -22 10q-30 0 -80 -20q-33 10 -41 10t-135 -53l-107 -66q-141 -111 -141 -219zM1495 723q0 -14 8 -14q27 0 56 2q11 1 24.5 2t20.5 1.5t10 0.5l74 20l6 -6l159 29 q-5 10 -67 51q-62 12 -66 12q-76 0 -106 -24q-54 0 -119 -74z" />
<glyph unicode="&#x178;" horiz-adv-x="1218" d="M35 1640l8 103q30 16 49 51h39l80 -80q22 -29 41 -80q30 -49 53 -121l45 -137q28 -56 105 -229q18 -47 39 -90q23 -50 51 -86h16q60 70 158 149q53 82 94 115q14 19 31 49q10 16 28 45q42 53 142 164v12l127 127q0 12 6 27q53 64 203 217q4 1 25 4.5t38 5.5q10 -7 10 -24 q2 -2 10 -7.5t11 -7.5q9 -49 47 -49q2 -13 27 -98q0 -4 6 -19l-8 -8q4 -8 4 -10l-2 -2q-1 -3 -4.5 -13t-7 -21t-7.5 -23l-256 -461q-9 3 -22 -10q0 -3 4 -11q0 -20 -11 -39q-42 -81 -135 -227q-6 -13 -145 -274q-96 -170 -115 -258q-78 -175 -78 -353q0 -48 4 -73 q-22 -33 -43 -84q-13 3 -26 -23q-25 -4 -47 -14q-46 20 -94 35q-18 27 -33 30q-9 26 -33 70q0 27 -10 61q2 2 2 21q0 26 -2 49q14 134 45 297q14 20 28 33q19 16 19 35q-3 15 10 51q2 7 -4 22q14 34 41 82q-19 25 -43 25q-8 0 -20 -4l-19 18l-12 -8q-17 2 -62 29 q-22 35 -120 184q-149 323 -267 676q-24 116 -20 157zM276 1675q22 35 52 82q-4 0 -15 -8q-12 12 -12 16l33 -6l-2 19h37q20 13 53 16q35 -21 115 -59q6 -6 6 -31q2 -2 11 -9.5t15 -13.5q-2 -24 -4 -45q-8 -8 -24 -37q-89 -28 -168 -28l-82 55q-15 15 -15 49zM709 1655l1 46 q1 -1 1 -3q15 30 20 39q87 35 166 41l86 -49q16 -16 16 -50q-1 -1 -43 -84q4 0 13 9q12 -12 12 -17q-1 1 -33 4l4 -18q-18 0 -34 -2q-19 -16 -54 -19q-39 24 -119 50q-8 5 -8 30q-10 5 -28 23z" />
<glyph unicode="&#x2c6;" horiz-adv-x="972" d="M37 1399q0 19 29 69q20 0 38 13q9 6 56 59q22 25 176 197q29 24 102 108q24 24 64 33q3 -1 15.5 -3.5t21.5 -4.5q26 -18 59 -29q62 -51 170 -162q117 -120 164 -163q25 -45 43 -82q-33 -43 -45 -74l-11 -4q-11 -5 -20 -10l4 -1q-7 -2 -49 -2q-2 0 -12 7q-3 -1 -11.5 -5 t-13.5 -6q-17 17 -44 48t-34 38q-60 67 -225 197q-12 -4 -25 -4l-79 -74l4 -12q-8 -4 -17 -10l4 -17q4 0 -1 -2q-5 -1 -13 -2l-184 -223l-39 6q-25 -6 -35 -12q-1 1 -4.5 7t-5.5 11l-17 -2q4 4 4 12q-8 8 -28 11z" />
<glyph unicode="&#x2dc;" horiz-adv-x="1570" d="M70 1376q1 3 8.5 19t19 40t25.5 50q12 9 49 43l195 172q143 76 274 76q46 0 174 -43q37 -18 113 -68q120 -93 123 -94q22 0 67 31q79 39 320 223q9 7 49 28q10 1 49 11q23 -13 66 -25v-10q9 -12 26 -12q2 -2 2 -5q0 -2 -4 -14q10 -10 25 -22v-60q0 10 -21 -21l-8 -12 q-49 -56 -137 -141q-53 -35 -94 -82q-162 -122 -258 -125q-34 -11 -34 -13l5 -1q-19 0 -49 10q-13 4 -28.5 9t-25 8t-14.5 4q-68 18 -180 121q-101 94 -150 94q-12 0 -77 -33q-65 -35 -93 -35l-247 -207q-6 0 -12 0.5t-9 1t-4 0.5q-18 -5 -45 -16q-19 8 -47 16 q-53 74 -53 82z" />
<glyph unicode="&#x2000;" horiz-adv-x="1371" />
<glyph unicode="&#x2001;" horiz-adv-x="2742" />
<glyph unicode="&#x2002;" horiz-adv-x="1371" />
<glyph unicode="&#x2003;" horiz-adv-x="2742" />
<glyph unicode="&#x2004;" horiz-adv-x="914" />
<glyph unicode="&#x2005;" horiz-adv-x="685" />
<glyph unicode="&#x2006;" horiz-adv-x="457" />
<glyph unicode="&#x2007;" horiz-adv-x="457" />
<glyph unicode="&#x2008;" horiz-adv-x="342" />
<glyph unicode="&#x2009;" horiz-adv-x="548" />
<glyph unicode="&#x200a;" horiz-adv-x="152" />
<glyph unicode="&#x2010;" horiz-adv-x="1492" d="M68 573q0 37 16 80q3 3 20.5 18.5t30.5 28.5l174 2l371 -20l188 12q5 0 54 17q3 -1 10 -5t10 -6l211 25q63 -37 119 -59q29 -41 61 -111q3 -5 13.5 -21.5t17.5 -29.5v-19q-8 -4 -35 -45q-39 -26 -110 -32l-359 -27h-266q-163 0 -215 -25q-5 0 -14 6q-3 1 -6.5 2t-5.5 2 t-3 1h-8q-4 -2 -4 -7t6 -8q-9 -6 -29 -6q-2 3 -8 10.5t-8 10.5h-106q-8 7 -74 57q-6 28 -29 51q-22 61 -22 98zM446 354l13 6q-3 -9 -13 -6z" />
<glyph unicode="&#x2011;" horiz-adv-x="1492" d="M68 573q0 37 16 80q3 3 20.5 18.5t30.5 28.5l174 2l371 -20l188 12q5 0 54 17q3 -1 10 -5t10 -6l211 25q63 -37 119 -59q29 -41 61 -111q3 -5 13.5 -21.5t17.5 -29.5v-19q-8 -4 -35 -45q-39 -26 -110 -32l-359 -27h-266q-163 0 -215 -25q-5 0 -14 6q-3 1 -6.5 2t-5.5 2 t-3 1h-8q-4 -2 -4 -7t6 -8q-9 -6 -29 -6q-2 3 -8 10.5t-8 10.5h-106q-8 7 -74 57q-6 28 -29 51q-22 61 -22 98zM446 354l13 6q-3 -9 -13 -6z" />
<glyph unicode="&#x2012;" horiz-adv-x="1492" d="M68 573q0 37 16 80q3 3 20.5 18.5t30.5 28.5l174 2l371 -20l188 12q5 0 54 17q3 -1 10 -5t10 -6l211 25q63 -37 119 -59q29 -41 61 -111q3 -5 13.5 -21.5t17.5 -29.5v-19q-8 -4 -35 -45q-39 -26 -110 -32l-359 -27h-266q-163 0 -215 -25q-5 0 -14 6q-3 1 -6.5 2t-5.5 2 t-3 1h-8q-4 -2 -4 -7t6 -8q-9 -6 -29 -6q-2 3 -8 10.5t-8 10.5h-106q-8 7 -74 57q-6 28 -29 51q-22 61 -22 98zM446 354l13 6q-3 -9 -13 -6z" />
</font>
</defs>
</svg>
