<?xml version="1.0" encoding="utf-8"?>
<!-- Generated by IcoMoon.io -->
<!DOCTYPE svg PUBLIC "-//W3C//DTD SVG 1.1//EN" "http://www.w3.org/Graphics/SVG/1.1/DTD/svg11.dtd">
<svg version="1.1" xmlns="http://www.w3.org/2000/svg" xmlns:xlink="http://www.w3.org/1999/xlink" width="32" height="32" viewBox="0 0 32 32">
<path d="M30.5 22.688c-0.188-0.375-0.313-0.75-0.5-1.125-0.25-0.563-0.5-1.125-0.75-1.625v-0.063c-2.25-4.813-4.625-9.688-7.063-14.5l-0.125-0.188c-0.25-0.5-0.5-1-0.75-1.5-0.313-0.563-0.688-1.188-1.188-1.75-1.063-1.25-2.5-1.938-4.063-1.938-1.625 0-3.063 0.688-4.125 1.938-0.5 0.563-0.813 1.188-1.125 1.75-0.313 0.5-0.563 1-0.813 1.5l-0.125 0.188c-2.438 4.813-4.813 9.688-7.063 14.5v0.063c-0.25 0.5-0.5 1.063-0.75 1.625-0.125 0.375-0.313 0.75-0.438 1.125-0.438 1.188-0.563 2.313-0.438 3.5 0.375 2.375 1.938 4.375 4.188 5.313 0.813 0.313 1.75 0.5 2.625 0.5 0.313 0 0.563 0 0.875-0.063 1.063-0.125 2.125-0.5 3.188-1.063 1.313-0.75 2.563-1.813 4-3.313 1.375 1.5 2.688 2.563 3.938 3.313 1.063 0.563 2.188 0.938 3.25 1.063 0.25 0.063 0.563 0.063 0.813 0.063 0.938 0 1.813-0.188 2.625-0.5 2.25-0.938 3.813-2.938 4.188-5.313 0.125-1.188 0-2.313-0.375-3.5zM16.063 24.375c-1.75-2.188-2.875-4.25-3.25-5.938-0.188-0.75-0.188-1.375-0.125-2 0.063-0.5 0.25-0.938 0.5-1.313 0.625-0.875 1.688-1.375 2.875-1.375 1.125 0 2.188 0.5 2.813 1.375 0.25 0.375 0.438 0.813 0.5 1.313 0.125 0.625 0.063 1.25-0.125 2-0.375 1.688-1.5 3.75-3.188 5.938zM28.813 25.875c-0.188 1.688-1.313 3.063-2.875 3.75-0.75 0.313-1.625 0.375-2.5 0.313-0.813-0.125-1.563-0.375-2.438-0.875-1.125-0.625-2.313-1.625-3.625-3.063 2.125-2.625 3.438-5 3.875-7.125 0.25-1 0.313-1.875 0.125-2.75-0.125-0.813-0.375-1.5-0.813-2.188-1-1.438-2.688-2.25-4.5-2.25-1.875 0-3.563 0.813-4.563 2.25-0.438 0.688-0.688 1.375-0.813 2.188-0.125 0.875-0.125 1.75 0.125 2.75 0.5 2.125 1.813 4.5 3.875 7.125-1.313 1.438-2.5 2.438-3.625 3.063-0.813 0.5-1.625 0.75-2.438 0.875-0.875 0.063-1.688 0-2.5-0.313-1.5-0.688-2.625-2.063-2.875-3.75-0.125-0.813-0.063-1.625 0.25-2.5 0.125-0.313 0.25-0.625 0.438-1 0.25-0.5 0.5-1.063 0.75-1.563v-0.063c2.188-4.813 4.563-9.625 7-14.438l0.125-0.188c0.25-0.5 0.5-1 0.75-1.438 0.313-0.563 0.563-1 0.938-1.438 0.688-0.813 1.563-1.188 2.563-1.188s1.875 0.375 2.5 1.188c0.375 0.438 0.625 0.875 0.938 1.375 0.25 0.5 0.5 1 0.75 1.5l0.125 0.188c2.438 4.813 4.813 9.625 7 14.438v0c0.25 0.563 0.5 1.063 0.75 1.625 0.188 0.375 0.313 0.688 0.438 1 0.313 0.875 0.375 1.688 0.25 2.5z"></path>
</svg>
