<?xml version="1.0" encoding="utf-8"?>
<!-- Generated by IcoMoon.io -->
<!DOCTYPE svg PUBLIC "-//W3C//DTD SVG 1.1//EN" "http://www.w3.org/Graphics/SVG/1.1/DTD/svg11.dtd">
<svg version="1.1" xmlns="http://www.w3.org/2000/svg" xmlns:xlink="http://www.w3.org/1999/xlink" width="32" height="32" viewBox="0 0 32 32">
<path d="M28.438 23.875c-3.938 1.688-8.188 2.5-12.125 2.5-5.75 0-11.313-1.563-15.813-4.188-0.375-0.25-0.688 0.188-0.375 0.438 4.188 3.813 9.688 6.063 15.813 6.063 4.375 0 9.5-1.375 13-3.938 0.563-0.438 0.063-1.125-0.5-0.875zM31.875 21.938c-0.375-0.5-3.688-0.875-5.688 0.5-0.313 0.25-0.25 0.5 0.125 0.5 1.125-0.125 3.625-0.438 4.063 0.125s-0.5 2.938-0.938 4c-0.125 0.313 0.188 0.438 0.438 0.188 1.875-1.563 2.375-4.875 2-5.313zM17.75 10.125c-1.813 0.188-4.188 0.313-5.875 1.063-2 0.875-3.375 2.563-3.375 5.125 0 3.25 2.063 4.875 4.688 4.875 2.25 0 3.438-0.563 5.188-2.313 0.563 0.875 0.75 1.25 1.75 2.125 0.25 0.125 0.563 0.125 0.75-0.063v0c0.625-0.563 1.75-1.563 2.438-2.063 0.25-0.25 0.188-0.563 0-0.875-0.563-0.75-1.188-1.438-1.188-2.875v-4.875c0-2.063 0.125-3.938-1.375-5.375-1.188-1.125-3.188-1.563-4.688-1.563-3 0-6.313 1.125-7 4.813-0.063 0.375 0.188 0.563 0.438 0.625l3.063 0.313c0.25 0 0.5-0.25 0.563-0.563 0.25-1.25 1.313-1.875 2.5-1.875 0.625 0 1.375 0.25 1.75 0.813 0.438 0.625 0.375 1.5 0.375 2.25v0.438zM17.125 16.625c-0.438 0.875-1.25 1.438-2.125 1.438-1.188 0-1.938-0.938-1.938-2.313 0-2.625 2.438-3.125 4.688-3.125v0.688c0 1.188 0 2.188-0.625 3.313z"></path>
</svg>
