<?xml version="1.0" encoding="utf-8"?>
<!-- Generated by IcoMoon.io -->
<!DOCTYPE svg PUBLIC "-//W3C//DTD SVG 1.1//EN" "http://www.w3.org/Graphics/SVG/1.1/DTD/svg11.dtd">
<svg version="1.1" xmlns="http://www.w3.org/2000/svg" xmlns:xlink="http://www.w3.org/1999/xlink" width="32" height="32" viewBox="0 0 32 32">
<path d="M15.813 12.625c1.438-0.188 2.5-0.438 3.188-0.75 1.125-0.438 1.688-1.25 1.688-2.188 0-1.25-0.438-2.125-1.313-2.563-0.875-0.5-2.188-0.75-3.875-0.75-1.875 0-3.188 0.5-4 1.375-0.563 0.688-0.938 1.625-1.125 2.813h-7.625c0.125-2.688 0.875-4.813 2.188-6.5 2.125-2.688 5.688-4.063 10.813-4.063 3.375 0 6.313 0.688 8.938 2 2.563 1.313 3.875 3.813 3.875 7.438v13.938c0 0.938 0 2.125 0.063 3.5 0.063 1 0.188 1.75 0.438 2.125 0.313 0.375 0.688 0.688 1.188 0.938v1.125h-8.625c-0.25-0.625-0.438-1.188-0.5-1.75-0.125-0.563-0.188-1.125-0.25-1.813-1.063 1.188-2.375 2.188-3.813 3-1.688 1-3.625 1.5-5.75 1.5-2.75 0-5.063-0.75-6.875-2.313s-2.688-3.813-2.688-6.688c0-3.75 1.438-6.438 4.313-8.125 1.625-0.875 3.938-1.563 7-1.938zM20.688 16.313c-0.5 0.313-1.063 0.563-1.563 0.75s-1.188 0.438-2.125 0.563l-1.813 0.313c-1.688 0.313-2.875 0.688-3.625 1.125-1.25 0.688-1.875 1.813-1.875 3.313 0 1.375 0.375 2.375 1.125 3 0.75 0.563 1.688 0.875 2.813 0.875 1.688 0 3.313-0.5 4.75-1.5 1.5-1 2.25-2.813 2.313-5.5z"></path>
</svg>
