<?xml version="1.0" encoding="utf-8"?>
<!-- Generated by IcoMoon.io -->
<!DOCTYPE svg PUBLIC "-//W3C//DTD SVG 1.1//EN" "http://www.w3.org/Graphics/SVG/1.1/DTD/svg11.dtd">
<svg version="1.1" xmlns="http://www.w3.org/2000/svg" xmlns:xlink="http://www.w3.org/1999/xlink" width="32" height="32" viewBox="0 0 32 32">
<path d="M27.75 10c-1.063 0-1.938 0.938-1.938 2v7.75c0 1.063 0.875 1.938 1.938 1.938s1.938-0.875 1.938-1.938v-7.75c0-1.063-0.875-2-1.938-2zM4.25 10c-1.063 0-1.938 0.938-1.938 2v7.75c0 1.063 0.875 1.938 1.938 1.938s1.938-0.875 1.938-1.938v-7.75c0-1.063-0.875-2-1.938-2zM7.375 10.063v14.125c0 0.875 0.688 1.563 1.5 1.563h1.75v4.25c0 1.125 0.875 2 1.938 2s1.938-0.875 1.938-2v-4.25h3.063v4.25c0 1.125 0.875 2 1.938 2s1.938-0.875 1.938-2v-4.25h1.75c0.813 0 1.5-0.688 1.5-1.563v-14.125zM20.125 2.75l1.563-2.313c0.125-0.125 0.063-0.313-0.063-0.375-0.125-0.125-0.25-0.063-0.375 0.063l-1.625 2.438c-1.125-0.438-2.313-0.688-3.625-0.688s-2.5 0.25-3.625 0.688l-1.625-2.438c-0.125-0.125-0.25-0.188-0.375-0.063-0.125 0.063-0.188 0.25-0.063 0.375l1.563 2.313c-2.5 1.188-4.313 3.438-4.563 6.063h17.375c-0.25-2.625-2.063-4.875-4.563-6.063zM12.375 6.438c-0.563 0-1-0.438-1-0.938 0-0.563 0.438-1 1-1 0.5 0 0.938 0.438 0.938 1 0 0.5-0.438 0.938-0.938 0.938zM19.75 6.438c-0.5 0-0.938-0.438-0.938-0.938 0-0.563 0.438-1 0.938-1 0.563 0 1 0.438 1 1 0 0.5-0.438 0.938-1 0.938z"></path>
</svg>
