<?xml version="1.0" encoding="utf-8"?>
<!-- Generated by IcoMoon.io -->
<!DOCTYPE svg PUBLIC "-//W3C//DTD SVG 1.1//EN" "http://www.w3.org/Graphics/SVG/1.1/DTD/svg11.dtd">
<svg version="1.1" xmlns="http://www.w3.org/2000/svg" xmlns:xlink="http://www.w3.org/1999/xlink" width="32" height="32" viewBox="0 0 32 32">
<path d="M4.75 22.688c0-1.313 0.313-2.313 0.875-3.063 0.5-0.625 1.25-1.125 2.313-1.375-0.313-0.875-0.5-1.5-0.5-1.875 0-0.688 0.375-1.438 1.125-2.188s1.5-1.125 2.188-1.125c0.313 0 0.75 0.125 1.25 0.313-1-2.875-1.75-5.063-2.188-6.563-0.5-1.688-0.75-2.875-0.75-3.563 0-1 0.25-1.813 0.75-2.375s1.25-0.875 2.125-0.875c1.5 0 3.313 3.063 5.438 9.25l0.5 1.563c0.125-0.313 0.25-0.688 0.375-1.063 2.125-6.125 4-9.125 5.625-9.125 0.875 0 1.5 0.25 2 0.813s0.75 1.313 0.75 2.188c0 0.625-0.25 1.813-0.75 3.563-0.438 1.5-1.125 3.625-2.063 6.25 1.188 0.313 2.063 0.875 2.563 1.688 0.563 0.938 0.875 2.313 0.875 4.188 0 3.75-1.125 6.75-3.375 9.125s-5.063 3.563-8.563 3.563c-1.375 0-2.688-0.25-4-0.75-1.25-0.438-2.313-1.125-3.375-2.063-1.063-1-1.813-2.063-2.375-3.125-0.5-1.125-0.813-2.25-0.813-3.375zM6.813 22.563c0 0.5 0.125 1.125 0.438 1.875 0.25 0.625 0.688 1.313 1.25 2.063 0.813 1.125 1.813 1.938 3 2.563 1.188 0.563 2.563 0.875 4.063 0.875 2.688 0 4.938-1 6.813-3.063 1.813-2 2.75-4.563 2.75-7.625 0-0.938-0.063-1.688-0.188-2.188s-0.313-0.813-0.625-1.125c-0.563-0.438-1.688-0.875-3.313-1.25-1.688-0.375-3.438-0.563-5.313-0.563-0.438 0-0.75 0.063-0.875 0.188-0.125 0.063-0.188 0.313-0.188 0.625 0 0.875 0.5 1.5 1.438 1.875 1.063 0.438 2.75 0.625 5.188 0.625h0.875c0.313 0 0.563 0.125 0.688 0.375 0.188 0.125 0.313 0.438 0.375 0.938-0.375 0.375-0.938 0.688-1.75 1-0.75 0.25-1.313 0.5-1.625 0.813-0.875 0.563-1.5 1.313-2 2.125s-0.75 1.625-0.75 2.375c0 0.438 0.125 0.938 0.313 1.563 0.25 0.688 0.375 1.125 0.375 1.375v0.188l-0.125 0.438c-0.938-0.063-1.625-0.5-2.063-1.25-0.313-0.688-0.5-1.563-0.563-2.563-0.063 0-0.188 0-0.375 0h-0.375c0.063 0.125 0.063 0.25 0.063 0.375 0 0.625-0.25 1.188-0.75 1.625-0.438 0.438-1 0.625-1.688 0.625-0.938 0-1.938-0.438-2.938-1.375-1.063-1-1.563-1.938-1.563-2.875 0-0.125 0.063-0.313 0.125-0.5 0-0.125 0.188-0.375 0.5-0.688 0.5 0.688 0.875 1.125 1.063 1.375 0.875 1.25 1.688 1.875 2.375 1.875 0.188 0 0.375-0.063 0.563-0.188 0.125-0.125 0.188-0.25 0.188-0.313 0-0.188-0.125-0.5-0.375-0.938-0.188-0.313-0.563-0.875-1.188-1.688-0.563-0.75-1.063-1.25-1.375-1.563-0.313-0.25-0.563-0.438-0.688-0.438-0.438 0-0.813 0.25-1.188 0.688-0.375 0.5-0.563 1.063-0.563 1.75zM9.625 16.563c0 0.25 0.188 0.75 0.5 1.438 0.313 0.563 0.75 1.25 1.438 2.125 0.625 0.813 1.188 1.5 1.75 1.938 0.5 0.438 0.875 0.625 1.125 0.625 0.125 0 0.313-0.063 0.438-0.25 0.125-0.125 0.188-0.313 0.188-0.5 0-0.25-0.188-0.813-0.563-1.813-0.438-1.063-0.875-2-1.438-2.875-0.438-0.75-0.875-1.25-1.188-1.563-0.375-0.313-0.688-0.438-1-0.438-0.25 0-0.5 0.125-0.75 0.438-0.313 0.375-0.5 0.625-0.5 0.875zM11.063 3c0 0.75 0.25 1.813 0.75 3.375 0.438 1.5 1.125 3.438 2.063 5.938 0.188-0.125 0.5-0.188 0.875-0.188 0 0 0.063 0 0.188 0.063 0.125 0 0.25 0 0.313 0 0.125 0 0.375 0 0.875 0.063l-2.188-6.313c-0.563-1.625-1.063-2.75-1.375-3.25-0.313-0.438-0.563-0.625-0.813-0.625-0.188 0-0.375 0.063-0.5 0.25s-0.188 0.438-0.188 0.688zM16.25 19c0.188 0.5 0.375 1 0.625 1.563 0.375-0.438 0.813-0.875 1.25-1.188-0.125 0-0.313-0.063-0.5-0.063-0.188-0.063-0.375-0.063-0.438-0.063-0.438-0.125-0.75-0.188-0.938-0.25zM19.563 12.625l2.063 0.375c0.938-2.625 1.688-4.688 2.188-6.25 0.5-1.688 0.813-2.688 0.813-3 0-0.375-0.125-0.625-0.25-0.813-0.063-0.125-0.25-0.188-0.5-0.188s-0.563 0.25-0.938 0.813c-0.375 0.625-0.875 1.688-1.375 3.188z"></path>
</svg>
