<?xml version="1.0" encoding="utf-8"?>
<!-- Generated by IcoMoon.io -->
<!DOCTYPE svg PUBLIC "-//W3C//DTD SVG 1.1//EN" "http://www.w3.org/Graphics/SVG/1.1/DTD/svg11.dtd">
<svg version="1.1" xmlns="http://www.w3.org/2000/svg" xmlns:xlink="http://www.w3.org/1999/xlink" width="32" height="32" viewBox="0 0 32 32">
<path d="M28.938 10.75c-2.25 0.75-3.75 3.875-3.75 6.188 0 3 1.688 6.125 4.438 6.875-0.75 2.625-2.875 5.938-4.813 7.313-0.813 0.563-1.75 0.813-2.938 0.813-0.75 0-1.625-0.125-2.813-0.625-0.938-0.438-1.813-0.625-2.375-0.625-0.5 0-1.563 0.313-3 0.875-0.813 0.25-1.5 0.438-1.938 0.438-1.313 0-2.438-0.563-3.625-1.5-3.688-3.375-5.75-8.313-5.75-13.5 0-5.063 3.188-9.938 8.125-9.938 1.5 0 2.563 0.313 3.563 0.813 0.938 0.563 1.75 0.75 2.625 0.75 0.688 0 1.5-0.125 2.25-0.438 1.938-0.75 3.188-1.125 3.938-1.125 1.875 0 3.375 0.563 4.625 1.688 0.5 0.5 1 1.188 1.438 2zM15.813 7.25c0-1.75 0.75-3.313 1.938-4.813 1.188-1.313 2.813-2.125 4.563-2.438 0 1.813-0.625 3.625-1.813 5.063-1.375 1.5-2.875 2.188-4.688 2.188z"></path>
</svg>
