<?xml version="1.0" encoding="utf-8"?>
<!-- Generated by IcoMoon.io -->
<!DOCTYPE svg PUBLIC "-//W3C//DTD SVG 1.1//EN" "http://www.w3.org/Graphics/SVG/1.1/DTD/svg11.dtd">
<svg version="1.1" xmlns="http://www.w3.org/2000/svg" xmlns:xlink="http://www.w3.org/1999/xlink" width="32" height="32" viewBox="0 0 32 32">
<path d="M20.5 10.188c2.563 0.375 4.188-2.375 4.563-4.438 0.313-2.063-1.375-4.5-3.188-4.938-1.813-0.375-4.063 2.5-4.25 4.438-0.25 2.313 0.313 4.625 2.875 4.938zM5.75 16.875c3.5-0.75 3-4.938 2.938-5.813-0.188-1.438-1.875-3.875-4.063-3.688-2.813 0.25-3.25 4.313-3.25 4.313-0.375 1.875 0.938 5.938 4.375 5.188zM12.188 9.875c1.938 0 3.5-2.188 3.5-4.938s-1.563-4.938-3.5-4.938c-1.875 0-3.438 2.188-3.438 4.938s1.563 4.938 3.438 4.938zM9.438 24.125c-0.063 0.25-0.313 1-0.125 1.688 0.375 1.438 1.688 1.5 1.688 1.5h1.813v-4.438h-1.938c-0.875 0.25-1.313 0.938-1.438 1.25zM30.688 13.688c0-1-0.813-4-3.875-4-3.125 0-3.5 2.875-3.5 4.875 0 1.875 0.188 4.563 4 4.438 3.75-0.063 3.375-4.313 3.375-5.313zM26.813 22.438c0 0-4-3.063-6.313-6.375-3.125-4.938-7.625-2.938-9.125-0.438s-3.813 4.063-4.125 4.5c-0.313 0.375-4.813 2.813-3.813 7.188 1 4.438 4.5 4.313 4.5 4.313s2.563 0.25 5.5-0.375c3-0.688 5.563 0.125 5.563 0.125s7 2.375 8.875-2.125c1.875-4.5-1.063-6.813-1.063-6.813zM14.875 29.125h-4.5c-1.938-0.438-2.75-1.75-2.813-2-0.125-0.188-0.688-1.25-0.375-3.063 0.813-2.75 3.25-2.938 3.25-2.938h2.375v-3l2.063 0.063zM23.313 29.063h-5.188c-2.063-0.5-2.125-1.938-2.125-1.938v-5.75l2.125-0.063v5.188c0.125 0.563 0.813 0.688 0.813 0.688h2.125v-5.813h2.25z"></path>
</svg>
