<?xml version="1.0" encoding="utf-8"?>
<!-- Generated by IcoMoon.io -->
<!DOCTYPE svg PUBLIC "-//W3C//DTD SVG 1.1//EN" "http://www.w3.org/Graphics/SVG/1.1/DTD/svg11.dtd">
<svg version="1.1" xmlns="http://www.w3.org/2000/svg" xmlns:xlink="http://www.w3.org/1999/xlink" width="32" height="32" viewBox="0 0 32 32">
<path d="M17.625 32h-3.25c-7.063 0-12.75-5.75-12.75-12.813v-16c0-1.75 1.438-3.188 3.188-3.188s3.188 1.438 3.188 3.188v16c0 3.563 2.875 6.438 6.375 6.438h3.25c3.5 0 6.375-2.563 6.375-5.625 0-3.125-1.75-5.625-3.188-5.625h-6.438c-1.75 0-3.188-1.438-3.188-3.188s1.438-3.188 3.188-3.188h6.438c5.313 0 9.563 5.375 9.563 12s-5.688 12-12.75 12z"></path>
</svg>
