<?xml version="1.0" encoding="utf-8"?>
<!-- Generated by IcoMoon.io -->
<!DOCTYPE svg PUBLIC "-//W3C//DTD SVG 1.1//EN" "http://www.w3.org/Graphics/SVG/1.1/DTD/svg11.dtd">
<svg version="1.1" xmlns="http://www.w3.org/2000/svg" xmlns:xlink="http://www.w3.org/1999/xlink" width="32" height="32" viewBox="0 0 32 32">
<path d="M28.813 9.25h-8v-1.875h8zM15.563 16.813c0.625 0.875 0.938 1.875 0.938 3.125 0 1-0.188 1.875-0.563 2.563-0.438 0.75-0.938 1.313-1.563 1.813-0.688 0.438-1.438 0.75-2.25 1-0.813 0.188-1.688 0.313-2.563 0.313h-9.563v-19.875h9.25c0.938 0 1.813 0.188 2.625 0.375 0.75 0.188 1.375 0.5 1.938 0.875s1 0.938 1.313 1.563c0.313 0.563 0.438 1.375 0.438 2.313s-0.188 1.813-0.688 2.438c-0.438 0.688-1.125 1.25-2 1.625 1.25 0.375 2.125 1 2.688 1.875zM4.188 13.75h4.5c0.813 0 1.438-0.063 1.938-0.438s0.75-0.875 0.75-1.75c0-0.438-0.063-0.813-0.25-1.125-0.188-0.25-0.375-0.5-0.688-0.688-0.25-0.125-0.563-0.313-0.938-0.375s-0.75-0.125-1.125-0.125h-4.188zM12.188 19.688c0-1-0.313-1.688-0.875-2.125s-1.313-0.625-2.25-0.625h-4.875v5.438h4.75c0.438 0 0.875-0.063 1.25-0.125 0.375-0.125 0.688-0.25 1-0.438s0.563-0.438 0.688-0.813c0.188-0.313 0.313-0.75 0.313-1.313zM32 19.5h-10.313c0 1 0.375 2.188 1 2.75 0.563 0.563 1.438 0.875 2.5 0.875 0.813 0 1.5-0.25 2.063-0.688 0.563-0.375 0.875-0.688 1.063-1.313h3.438c-0.563 1.938-1.438 3-2.563 3.75s-2.5 1.188-4.125 1.188c-1.125 0-2.125-0.188-3.063-0.563-0.875-0.375-1.625-0.875-2.25-1.5-0.625-0.688-1.125-1.5-1.5-2.438-0.313-0.875-0.5-1.875-0.5-3 0-1.063 0.188-2.063 0.563-3 0.313-0.938 0.813-1.688 1.438-2.375 0.688-0.688 1.438-1.188 2.313-1.625 0.938-0.375 1.938-0.563 3-0.563 1.188 0 2.25 0.25 3.188 0.688 0.875 0.5 1.625 1.125 2.188 1.875 0.625 0.813 1 1.75 1.25 2.75s0.375 2.25 0.313 3.188zM28.063 16.938c-0.125-0.938-0.438-1.688-0.875-2.188-0.5-0.563-1.313-0.813-2.25-0.813-0.625 0-1.125 0.125-1.563 0.375-0.375 0.188-0.75 0.438-1 0.75s-0.375 0.625-0.5 1c-0.125 0.313-0.188 0.563-0.188 0.875z"></path>
</svg>
