<?xml version="1.0" encoding="utf-8"?>
<!-- Generated by IcoMoon.io -->
<!DOCTYPE svg PUBLIC "-//W3C//DTD SVG 1.1//EN" "http://www.w3.org/Graphics/SVG/1.1/DTD/svg11.dtd">
<svg version="1.1" xmlns="http://www.w3.org/2000/svg" xmlns:xlink="http://www.w3.org/1999/xlink" width="32" height="32" viewBox="0 0 32 32">
<path d="M29.75 12.188h-1.375c-1.375 0-2.125-0.938-2.125-1.938v-0.875c0-4.563-5.063-9.375-9.375-9.375h-6.75c-5.688 0-10.125 4.5-10.125 10.188v12.125c0 5.313 4.563 9.688 9.313 9.688h12.813c5.25 0 9.875-4.438 9.875-9.813v-7.688c0-1.438-0.5-2.313-2.25-2.313zM10.125 8.313h5.813c1 0 1.875 0.875 1.875 1.938 0 1-0.875 1.938-1.875 1.938h-5.813c-1 0-1.875-0.938-1.875-1.938s0.875-1.938 1.875-1.938zM21.688 23.688h-11.563c-1 0-1.875-0.75-1.875-1.75 0-1.063 0.875-1.75 1.875-1.75h11.563c1 0 1.875 0.688 1.875 1.75 0 1-0.875 1.75-1.875 1.75z"></path>
</svg>
