<?xml version="1.0" encoding="utf-8"?>
<!-- Generated by IcoMoon.io -->
<!DOCTYPE svg PUBLIC "-//W3C//DTD SVG 1.1//EN" "http://www.w3.org/Graphics/SVG/1.1/DTD/svg11.dtd">
<svg version="1.1" xmlns="http://www.w3.org/2000/svg" xmlns:xlink="http://www.w3.org/1999/xlink" width="32" height="32" viewBox="0 0 32 32">
<path d="M27.688 0l-6.813 1.375v10.063c-1.5-2-3.688-2.938-6.438-2.938-2.938 0-5.563 1.063-7.688 3.188-2.375 2.313-3.688 5.25-3.688 8.563 0 3.625 1.375 6.688 4 9.063 2.063 1.813 4.438 2.688 7.25 2.688 2.688 0 4.75-0.75 6.813-2.688v2.563h6.5v-31.875zM15.813 25.875c-3.5 0-6-2.438-6-5.688 0-3.063 2.5-5.688 5.75-5.688 3.125 0 5.563 2.5 5.563 5.813 0 3.188-2.438 5.563-5.313 5.563z"></path>
</svg>
