<?xml version="1.0" encoding="utf-8"?>
<!-- Generated by IcoMoon.io -->
<!DOCTYPE svg PUBLIC "-//W3C//DTD SVG 1.1//EN" "http://www.w3.org/Graphics/SVG/1.1/DTD/svg11.dtd">
<svg version="1.1" xmlns="http://www.w3.org/2000/svg" xmlns:xlink="http://www.w3.org/1999/xlink" width="32" height="32" viewBox="0 0 32 32">
<path d="M0 23.188h5.813v1.75h-5.813zM0 20.875h5.813v1.75h-5.813zM0 18.563h5.813v1.75h-5.813zM0 16.25h5.813v1.75h-5.813zM0 13.938h5.813v1.75h-5.813zM6.5 23.188h5.875v1.75h-5.875zM6.5 20.875h5.875v1.75h-5.875zM6.5 18.563h5.875v1.75h-5.875zM13.063 23.188h5.875v1.75h-5.875zM13.063 20.875h5.875v1.75h-5.875zM13.063 18.563h5.875v1.75h-5.875zM13.063 16.25h5.875v1.75h-5.875zM13.063 13.938h5.875v1.75h-5.875zM13.063 11.688h5.875v1.75h-5.875zM13.063 9.375h5.875v1.75h-5.875zM19.625 23.188h5.813v1.75h-5.813zM19.625 20.875h5.813v1.75h-5.813zM19.625 18.563h5.813v1.75h-5.813zM19.625 16.25h5.813v1.75h-5.813zM19.625 13.938h5.813v1.75h-5.813zM26.188 23.188h5.813v1.75h-5.813zM26.188 20.875h5.813v1.75h-5.813zM26.188 18.563h5.813v1.75h-5.813zM26.188 16.25h5.813v1.75h-5.813zM26.188 13.938h5.813v1.75h-5.813zM26.188 11.688h5.813v1.75h-5.813zM26.188 9.375h5.813v1.75h-5.813zM26.188 7.063h5.813v1.75h-5.813z"></path>
</svg>
