<?xml version="1.0" encoding="utf-8"?>
<!-- Generated by IcoMoon.io -->
<!DOCTYPE svg PUBLIC "-//W3C//DTD SVG 1.1//EN" "http://www.w3.org/Graphics/SVG/1.1/DTD/svg11.dtd">
<svg version="1.1" xmlns="http://www.w3.org/2000/svg" xmlns:xlink="http://www.w3.org/1999/xlink" width="32" height="32" viewBox="0 0 32 32">
<path d="M30.188 17.125c-1.5-1.813-3.375-2.938-5.5-3.813-2.75-1.125-5.625-1.563-8.563-1.625-0.188 0-0.438 0-0.75 0 0-1 0-1.938 0-3-1.313 0.125-2.563 0.313-4.188 0.438 0 0.188 0 0.25 0 0.375 0 0.75 0 1.563 0 2.313 0.063 0.25-0.063 0.375-0.313 0.438-2.125 0.438-4.125 1.125-6 2.25-1.438 0.875-2.688 1.938-3.625 3.375-1.125 1.688-1.563 3.563-1.063 5.5 5.125 0 10.063 0 15.188 0 0-3.188 0-6.125 0-9.188 0.625 0 1.313 0 1.938 0 1.625 0.125 3.25 0.375 4.75 1 2 0.938 3.375 2.375 3.938 4.5 0.063 0.125 0.063 0.5 0.125 0.5-1.813 0-3.375 0-5.313 0 0 0 0-0.313 0-0.438 0-1.188 0-2.438 0-3.688 0-0.25-0.063-0.375-0.313-0.375-0.813-0.188-1.5-0.313-2.313-0.438-0.5-0.063-1.25-0.063-1.563-0.125 0 2.813 0 5.688 0 8.25 5.125 0 10.063 0 15.188 0 0.063-0.625 0.188-0.938 0.188-1.375 0.063-1.875-0.625-3.438-1.813-4.875zM11.188 20.188c-1.938 0-3.5 0-5.25 0 0.125-2.25 2.688-5.063 5.25-5.375 0 1.75 0 3.438 0 5.375z"></path>
</svg>
