<?xml version="1.0" encoding="utf-8"?>
<!-- Generated by IcoMoon.io -->
<!DOCTYPE svg PUBLIC "-//W3C//DTD SVG 1.1//EN" "http://www.w3.org/Graphics/SVG/1.1/DTD/svg11.dtd">
<svg version="1.1" xmlns="http://www.w3.org/2000/svg" xmlns:xlink="http://www.w3.org/1999/xlink" width="32" height="32" viewBox="0 0 32 32">
<path d="M16.438 12.188h-1.688v7.625h1.688c2.563 0 4.375-1.25 4.375-3.813v0c0-2.5-1.813-3.813-4.375-3.813zM16.563 0.438c-8.5 0-15.375 7-15.375 15.563 0 2.313 0.5 4.5 1.375 6.438l-2.563 6.313 6.625-0.875c2.688 2.25 6.125 3.688 9.938 3.688 8.563 0 15.438-7 15.438-15.563s-6.875-15.563-15.438-15.563zM24.938 15.938c0 4.5-3.125 7.75-8.625 7.75h-5.75v-15.375h5.813c5.438 0 8.563 3.125 8.563 7.625z"></path>
</svg>
