<?xml version="1.0" encoding="utf-8"?>
<!-- Generated by IcoMoon.io -->
<!DOCTYPE svg PUBLIC "-//W3C//DTD SVG 1.1//EN" "http://www.w3.org/Graphics/SVG/1.1/DTD/svg11.dtd">
<svg version="1.1" xmlns="http://www.w3.org/2000/svg" xmlns:xlink="http://www.w3.org/1999/xlink" width="32" height="32" viewBox="0 0 32 32">
<path d="M22.875 10.25c5.688 0.063 9.063 3.625 5.25 8.438-1.75 2.188-4.688 4.438-8.625 5.813-0.188 0.063-0.375 0.125-0.563 0.188-0.438 0.125-0.75 0.25-1.125 0.375-0.875 0.25-1.625 0.438-2.5 0.625-0.875 0.125-1.688 0.313-2.5 0.375-0.563 0.063-1.125 0.063-1.625 0.063-3.688 0.125-6.438-0.875-7.313-3-1.063-2.563 1.125-6.125 5.5-8.875-3.25 1.313-9.125 4.375-9.375 8.75v0.563c0.063 0.438 0.125 0.875 0.25 1.375 0.938 2.938 5.375 4.313 10.938 3.813 0.563 0 1.125-0.063 1.688-0.188 0.813-0.125 1.625-0.25 2.5-0.438 0.813-0.25 1.625-0.438 2.5-0.688 0.188-0.063 0.375-0.125 0.5-0.188 0.438-0.125 0.75-0.25 1.125-0.375 4.875-1.813 8.438-4.125 10.563-6.813 1.25-1.563 1.813-3 2-4.313v-0.938c-0.375-3.188-4.125-5.063-9.188-4.563zM19.125 8.688c0.125 0 0.25-0.063 0.375-0.063 0.813-0.188 1.188-1.063 1.25-2.125 0-1.063-0.375-1.938-1.25-2.063-0.063-0.063-0.188-0.063-0.25-0.063-0.75 0-1.188 0.438-1.438 1.063-0.125 0.313-0.188 0.688-0.188 1.063 0 0.5 0.063 0.938 0.188 1.313 0.25 0.5 0.625 0.875 1.313 0.875zM19.125 9c-0.375 0-0.688 0.063-0.938 0.125l0.063 0.063 0.125 0.313 0.063 0.25 0.125 0.25 0.063 0.25v0.313l0.063 0.313v0.563l-0.063 0.25-0.063 0.625v0.563l-0.063 0.25-0.125 0.625-0.25 1-0.063 0.188-0.063 0.25v0.125l-0.063 0.125-0.063 0.313v0.188l-0.063 0.188v0.063l-0.063 0.375v0.25l-0.063 0.188v0.25l-0.063 0.25v0.188l-0.063 0.25v0.188l-0.063 0.25v0.188c0.063 0.688 0.063 1.25 0.125 1.563 0 0.375 0.063 0.625 0.188 0.813 0.188 0.25 0.438 0.313 0.875 0.375 0.375-0.063 0.625-0.125 0.813-0.313 0.188-0.125 0.25-0.438 0.375-0.875 0.188-1 0.563-4.063 0.938-5.438 0.5-1.938 1.75-5.438-1.313-5.688-0.125 0-0.25 0-0.375 0zM15.313 8.063c1.25 0 1.813-1.125 1.813-2.5 0-1.313-0.563-2.438-1.75-2.438h-0.063c-1.188 0-1.75 1.125-1.75 2.438 0 1.375 0.563 2.5 1.75 2.5zM12.875 13.75c0.063 0.438 0.188 0.875 0.313 1.25 0.375 1.563 0.75 5.125 0.875 6.188 0.125 1.125 0.5 1.313 1.313 1.438 0.75-0.063 1.125-0.313 1.25-1.438 0.125-1.063 0.5-4.625 0.875-6.188 0.125-0.375 0.25-0.813 0.313-1.25 0.375-1.438 0.625-3.125 0-4.188-0.375-0.688-1.125-1.125-2.5-1.125-1.313 0-2.125 0.438-2.5 1.125-0.563 1.063-0.313 2.75 0.063 4.188zM11.188 8.625c0.125 0 0.25 0 0.375 0 0.688 0 1.063-0.313 1.313-0.875 0.125-0.313 0.188-0.75 0.188-1.25-0.063-0.375-0.125-0.75-0.188-1.063-0.25-0.688-0.75-1.063-1.438-1.063-0.063 0-0.125 0-0.188 0-0.938 0.125-1.313 1.063-1.25 2.125 0 1.063 0.375 1.938 1.188 2.125zM10.813 20.188c0.063 0.438 0.188 0.688 0.375 0.875s0.438 0.313 0.813 0.313c0.438 0 0.688-0.125 0.875-0.375 0.063-0.188 0.188-0.438 0.188-0.813 0.063-0.313 0.063-0.875 0.125-1.563v0-0.25l-0.063-0.188v-0.25l-0.063-0.25v-0.188l-0.063-0.25v-0.25l-0.063-0.188v-0.25l-0.063-0.188v-0.188l-0.063-0.188v-0.188l-0.063-0.188v-0.125l-0.063-0.188v-0.125l-0.063-0.188-0.063-0.25-0.063-0.313-0.25-1-0.063-0.313-0.063-0.25-0.063-0.313v-0.25l-0.125-0.625v-0.813l0.125-0.625 0.125-0.5 0.125-0.25 0.125-0.313 0.063-0.063c-0.25-0.063-0.563-0.125-0.938-0.125-0.125 0-0.25 0-0.375 0.063-3.063 0.25-1.813 3.75-1.313 5.688 0.375 1.375 0.813 4.438 0.938 5.438z"></path>
</svg>
