<?xml version="1.0" encoding="utf-8"?>
<!-- Generated by IcoMoon.io -->
<!DOCTYPE svg PUBLIC "-//W3C//DTD SVG 1.1//EN" "http://www.w3.org/Graphics/SVG/1.1/DTD/svg11.dtd">
<svg version="1.1" xmlns="http://www.w3.org/2000/svg" xmlns:xlink="http://www.w3.org/1999/xlink" width="32" height="32" viewBox="0 0 32 32">
<path d="M15.938 0.125c-8.813 0-16 7.188-16 16s7.188 16 16 16c8.875 0 16-7.188 16-16s-7.125-16-16-16zM26.563 7.5c1.875 2.313 3.063 5.25 3.063 8.5-0.438-0.125-4.938-1-9.5-0.438-0.125-0.25-0.188-0.5-0.313-0.688-0.25-0.688-0.563-1.375-0.875-2 5-2.063 7.313-5 7.625-5.375zM15.938 2.438c3.5 0 6.688 1.313 9.063 3.438-0.188 0.375-2.25 3.125-7.125 4.938-2.25-4.063-4.75-7.438-5.125-8 1.063-0.25 2.125-0.375 3.188-0.375zM10.188 3.75c0.313 0.5 2.75 3.875 5.063 7.938-6.438 1.688-12.063 1.625-12.688 1.625 0.938-4.25 3.75-7.75 7.625-9.563zM2.313 16.125c0-0.125 0-0.25 0-0.438 0.563 0.063 7.188 0.125 14.063-1.938 0.375 0.75 0.75 1.563 1.063 2.313-0.188 0.063-0.313 0.125-0.5 0.188-7.063 2.25-10.813 8.5-11.125 9-2.188-2.438-3.5-5.625-3.5-9.125zM15.938 29.813c-3.125 0-6.063-1.125-8.375-2.875 0.25-0.563 3-5.875 10.75-8.563 0 0 0.063 0 0.063-0.063 1.938 5 2.75 9.188 2.938 10.375-1.625 0.688-3.438 1.125-5.375 1.125zM23.625 27.438c-0.188-0.813-0.875-4.813-2.688-9.75 4.313-0.688 8.063 0.438 8.5 0.625-0.563 3.813-2.75 7.063-5.813 9.125z"></path>
</svg>
