<?xml version="1.0" encoding="utf-8"?>
<!-- Generated by IcoMoon.io -->
<!DOCTYPE svg PUBLIC "-//W3C//DTD SVG 1.1//EN" "http://www.w3.org/Graphics/SVG/1.1/DTD/svg11.dtd">
<svg version="1.1" xmlns="http://www.w3.org/2000/svg" xmlns:xlink="http://www.w3.org/1999/xlink" width="32" height="32" viewBox="0 0 32 32">
<path d="M22.938 5.938c0 0 0 0-0.063 0-1.375-0.875-2.75-1.313-4.125-2.125-0.188-0.063-0.313-0.188-0.5-0.313-0.938-0.625-2.25-2.188-3.375-3.5 0 0 0 0 0 0s0 0 0 0c-0.063 0.688-0.188 1.188-0.313 1.625-0.313 0.938-0.688 1.5-1.188 1.875 0 0.063-0.063 0.063-0.125 0.125-1.563 1.25-2.563 1.625-3.938 2.313-0.063 0.063-0.25 0.188-0.438 0.313-0.813 0.5-2.25 1.5-3.625 3.063-1.688 2-3.25 4.875-3.25 8.875 0 2.563 0.688 4.875 1.875 6.875 1.25 2.125 3.063 3.875 5.25 5.063 0 0.063 0 0.063 0 0.063 0.063 0 0.125 0 0.125 0.063 0.063 0 0.063 0 0.125 0.063 0 0 0.063 0 0.125 0.063 0 0 0.063 0 0.125 0.063 0 0 0 0 0.063 0 0 0.063 0.063 0.063 0.125 0.125 0 0 0 0 0 0 1.938 0.938 4.125 1.438 6.313 1.438 7.438 0 13.875-5.375 13.875-13.563s-6.063-11.875-7.063-12.5zM23.125 29.125c-0.125 0.125-1.563 1.125-3.188 1.25-1.688 0.188-3.938 0.25-5.313-0.938-0.188-0.25-0.125-0.563 0-0.688 0.188-0.125 0.313-0.188 0.5-0.188s0.125 0 0.25 0.063c0.563 0.5 1.5 0.875 3.5 0.875 1.938 0 3.375-0.563 3.938-1 0.313-0.25 0.438-0.063 0.438 0.063 0.063 0.125 0.125 0.313-0.125 0.563zM17.75 26.313c0.313-0.313 0.875-0.813 1.438-1.063 0.5-0.188 0.813-0.125 1.25-0.125 0.5 0 1.063 0 1.438 0.25s0.563 0.813 0.688 1.125c0.125 0.313 0 0.5-0.25 0.625-0.188 0.125-0.25 0.063-0.438-0.375-0.25-0.375-0.438-0.813-1.5-0.813s-1.438 0.375-1.938 0.813c-0.5 0.438-0.688 0.625-0.875 0.375s-0.125-0.5 0.188-0.813zM25.938 26.563c-1.125-0.125-3.375-3.563-4.75-3.625-1.813-0.063-5.688 3.75-8.75 3.75-1.813 0-2.375-0.313-3-0.688-0.938-0.688-1.375-1.625-1.375-3 0.063-2.375 2.313-4.625 5.125-4.688 3.625 0 6.125 3.563 7.938 3.563 1.5-0.063 4.5-3.063 5.938-3.063 1.563 0 1.938 1.625 1.938 2.563s-0.25 2.688-1 3.75c-0.75 1.063-1.25 1.5-2.063 1.438z"></path>
</svg>
