<?xml version="1.0" encoding="utf-8"?>
<!-- Generated by IcoMoon.io -->
<!DOCTYPE svg PUBLIC "-//W3C//DTD SVG 1.1//EN" "http://www.w3.org/Graphics/SVG/1.1/DTD/svg11.dtd">
<svg version="1.1" xmlns="http://www.w3.org/2000/svg" xmlns:xlink="http://www.w3.org/1999/xlink" width="32" height="32" viewBox="0 0 32 32">
<path d="M32 17.125v-1.875c-0.25-4.625-2.313-14.188-15.625-14.188-15.813-0.063-16.438 12.313-16.375 15.5 0 0-0.75 14.375 16 14.375 14.375 0 15.063-9 15.063-9h-6.625c0 0-1.25 5-8.438 4.813-9.188-0.125-9.563-9.063-9.563-9.063h25.5c0 0 0.063-0.188 0.063-0.563zM6.625 13.313c0 0 0.5-8.063 9.563-8.063 9.125 0 9.125 8.063 9.125 8.063z"></path>
</svg>
