<?xml version="1.0" encoding="utf-8"?>
<!-- Generated by IcoMoon.io -->
<!DOCTYPE svg PUBLIC "-//W3C//DTD SVG 1.1//EN" "http://www.w3.org/Graphics/SVG/1.1/DTD/svg11.dtd">
<svg version="1.1" xmlns="http://www.w3.org/2000/svg" xmlns:xlink="http://www.w3.org/1999/xlink" width="32" height="32" viewBox="0 0 32 32">
<path d="M6.063 10.313c0-0.625-0.438-1.188-1.063-1.375h-3.938c-0.625 0.188-1.063 0.75-1.063 1.375 0 0.75 0.625 1.375 1.375 1.375h3.313c0.813 0 1.375-0.625 1.375-1.375zM30.063 6.813c-1.625-2.5-4.5-3.813-9.313-3.813-0.688 0-1.375 0.063-2 0.125-0.125 0-0.25 0-0.375 0 0 0 0 0-0.063 0 0 0-0.063 0-0.125 0.063-2.5 0.25-3.938 0.25-3.938 0.25h-6.5c-0.75 0-1.375 0.625-1.375 1.375 0 0.813 0.625 1.375 1.375 1.375h5.875c0.75 0 1.375 0.625 1.375 1.375 0 0.688-0.438 1.188-1.063 1.375-0.063 0-0.188 0-0.313 0h-5c-0.563 0.188-1.063 0.75-1.063 1.375 0 0.75 0.625 1.375 1.375 1.375h1.25c0.75 0 1.375 0.625 1.375 1.375s-0.625 1.375-1.375 1.375h-6.313c-0.75 0-1.375 0.625-1.375 1.375s0.625 1.375 1.375 1.375h6c0.75 0 1.375 0.625 1.375 1.375s-0.625 1.375-1.375 1.375h-0.688c-0.75 0-1.375 0.625-1.375 1.375s0.625 1.375 1.375 1.375h2.688c0.813 0 1.375 0.625 1.375 1.375s-0.563 1.375-1.375 1.375h-0.563c-0.875 0-1.5 0.688-1.5 1.5s0.625 1.5 1.5 1.5h3.063c0 0 1.875 0.063 3.813 0.25 0.438 0.063 0.875 0.125 1.25 0.188 0.188 0 0.313 0 0.375 0 0.688 0.063 1.313 0.063 2 0.063 3.5 0 6.688-0.75 8.375-1.438 0.313-0.125 0.563-0.313 0.563-0.688 0-0.063 0-0.188-0.063-0.188l-0.563-2.188c-0.125-0.375-0.313-0.563-0.625-0.563 0 0-0.125 0-0.25 0.063-1.688 0.5-3.75 1.125-6.75 1.125-2.813 0-4.75-0.438-6.063-1.688-1.125-1.125-1.688-2.438-1.75-4.75h16.438c0.5 0 0.75-0.438 0.75-0.875 0.063-0.688 0.063-1.625 0.063-2.25 0.063-3.625-0.375-6.625-1.875-8.688zM26.563 16.438c-1.438 0-2.625-1.188-2.625-2.625s1.188-2.563 2.625-2.563c1.188 0 2.188 0.813 2.5 1.875-0.188-0.25-0.5-0.375-0.75-0.375-0.625 0-1.063 0.5-1.063 1.063s0.438 1.063 1.063 1.063c0.313 0 0.563-0.125 0.75-0.375-0.313 1.125-1.313 1.938-2.5 1.938z"></path>
</svg>
