<?xml version="1.0" encoding="utf-8"?>
<!-- Generated by IcoMoon.io -->
<!DOCTYPE svg PUBLIC "-//W3C//DTD SVG 1.1//EN" "http://www.w3.org/Graphics/SVG/1.1/DTD/svg11.dtd">
<svg version="1.1" xmlns="http://www.w3.org/2000/svg" xmlns:xlink="http://www.w3.org/1999/xlink" width="32" height="32" viewBox="0 0 32 32">
<path d="M20.063 9.813c1.063 5.625-2.375 9.063-6.625 7.875 6.25-10.25-2.875-10.313-0.063-17.688-4.313 3.063-8.563 11.563-8.563 17.75 0 8.688 4.563 14.188 10.688 14.25 5.938 0.063 11.688-5.625 11.688-11.188 0-6.375-3.438-8.875-7.125-11zM15.5 29.813c-6.063 0.125-11.063-6.375-5.438-15.563-1.188 5.313 2 9.313 5.063 9.313 3.438 0.063 5.438-3.188 6.438-7.375 5.5 4.188 3 13.438-6.063 13.625z"></path>
</svg>
