<?xml version="1.0" encoding="utf-8"?>
<!-- Generated by IcoMoon.io -->
<!DOCTYPE svg PUBLIC "-//W3C//DTD SVG 1.1//EN" "http://www.w3.org/Graphics/SVG/1.1/DTD/svg11.dtd">
<svg version="1.1" xmlns="http://www.w3.org/2000/svg" xmlns:xlink="http://www.w3.org/1999/xlink" width="32" height="32" viewBox="0 0 32 32">
<path d="M16 0c-8.813 0-16 7.188-16 16s7.188 16 16 16c8.813 0 16-7.188 16-16s-7.188-16-16-16zM12.313 4.75c1.75 0 3.125 1.375 3.125 3.125 0 1.813-1.375 3.188-3.125 3.188-1.813 0-3.188-1.375-3.188-3.188 0-1.75 1.375-3.125 3.188-3.125zM4.25 16c0-1.75 1.438-3.188 3.188-3.188s3.125 1.438 3.125 3.188c0 1.75-1.375 3.188-3.125 3.188s-3.188-1.438-3.188-3.188zM12.313 27.25c-1.813 0-3.188-1.375-3.188-3.125 0-1.813 1.375-3.188 3.188-3.188 1.75 0 3.125 1.375 3.125 3.188 0 1.75-1.375 3.125-3.125 3.125zM19.875 17.625h-5.375v-3.25h5.375zM26.063 22.063c-1.125 1.688-2.688 3-4.5 3.875l-1.25-2.75c2.75-1.25 4.438-4 4.438-7.125 0-1.625-0.438-3.125-1.25-4.438-0.75-1.25-1.875-2.25-3.188-2.875l1.313-2.688c1.813 0.875 3.313 2.25 4.438 4s1.688 3.813 1.688 6c0 2.125-0.563 4.25-1.688 6z"></path>
</svg>
