<?xml version="1.0" encoding="utf-8"?>
<!-- Generated by IcoMoon.io -->
<!DOCTYPE svg PUBLIC "-//W3C//DTD SVG 1.1//EN" "http://www.w3.org/Graphics/SVG/1.1/DTD/svg11.dtd">
<svg version="1.1" xmlns="http://www.w3.org/2000/svg" xmlns:xlink="http://www.w3.org/1999/xlink" width="32" height="32" viewBox="0 0 32 32">
<path d="M32 19.5c0 2.063-0.25 4.125-1 6.125-1.313 3.375-3.75 5.313-7.25 6.063-1.063 0.25-2.125 0.313-3.188 0.313-6 0-12 0-18 0-0.063 0-0.188 0-0.25 0 0 0 0-0.063 0-0.063 1.125-1.125 2.25-2.25 3.375-3.375 3.125-3.125 6.25-6.25 9.313-9.313 0.063-0.063 0.063-0.125 0.125-0.125 0.188-0.188 0.313-0.313 0.563-0.188s0.313 0.313 0.313 0.563c0 1.563 0 3.188 0 4.75 0 0.125 0 0.25 0 0.313s0.125 0.063 0.125 0.063c1.375 0 2.75 0 4.063-0.063 0.5-0.063 1.063-0.188 1.5-0.375 1.5-0.5 2.313-1.625 2.563-3.125 0.188-0.813 0.25-1.625 0.25-2.5 0.063-2.813 0.063-5.688 0.063-8.563 0-0.188 0-0.313 0.188-0.438 2.313-2.375 4.625-4.688 7-7 0.063-0.063 0.063-0.188 0.125-0.25 0.063 0 0.125 0 0.125 0.063s0 0.188 0 0.25c0 5.625 0 11.25 0 16.875zM7.438 22c0-2.813 0-5.625 0.063-8.375 0-0.875 0.063-1.75 0.188-2.625 0.313-1.625 1.188-2.75 2.813-3.25 0.313-0.125 0.688-0.25 1-0.25 1.5-0.063 2.938-0.063 4.438-0.125 0 0 0.063 0.063 0.063 0.063 0 0.063 0 0.188 0 0.25 0 1.563 0 3.125 0 4.688 0 0.125-0.063 0.188 0 0.25 0.063 0.188 0.188 0.313 0.313 0.438s0.313 0 0.5-0.125c0.063-0.063 0.125-0.125 0.188-0.188 4.188-4.188 8.313-8.313 12.5-12.5 0.063-0.063 0.125-0.25 0.25-0.25-0.188 0-0.25 0-0.313 0-6 0-12 0-18 0-1.063 0-2.125 0.063-3.125 0.313-3.625 0.75-6.125 2.813-7.375 6.313-0.688 1.938-0.938 3.938-0.938 5.938 0 5.625 0 11.25 0 16.813 0 0.125 0 0.188 0 0.313 0.125-0.063 0.188-0.125 0.25-0.188 2.313-2.375 4.688-4.688 7-7.063 0.125-0.125 0.188-0.25 0.188-0.438z"></path>
</svg>
