<?xml version="1.0" encoding="utf-8"?>
<!-- Generator: Adobe Illustrator 16.0.0, SVG Export Plug-In . SVG Version: 6.00 Build 0)  -->
<!DOCTYPE svg PUBLIC "-//W3C//DTD SVG 1.1//EN" "http://www.w3.org/Graphics/SVG/1.1/DTD/svg11.dtd">
<svg version="1.1" id="Layer_1" xmlns="http://www.w3.org/2000/svg" xmlns:xlink="http://www.w3.org/1999/xlink" x="0px" y="0px"
	 width="66.98px" height="68.005px" viewBox="0 0 66.98 68.005" enable-background="new 0 0 66.98 68.005" xml:space="preserve">
<path d="M37.737,66.588c-8.921-0.116-18.312-1.274-26.998-3.592c-1.878-0.58-1.174-3.36,0.822-2.897
	c7.747,1.854,15.612,3.013,23.594,3.36c7.982,0.348,18.664,0.464,24.886-5.214c3.169-2.897,3.052-8.112,3.287-12.052
	c0.352-5.793,0.235-11.703-0.118-17.497c-0.234-5.793-0.821-11.703-1.525-17.497c-0.353-3.128-2.113-8.227-0.587-11.008
	c0.118-0.231,0.47-0.231,0.587-0.116c2.7,2.086,2.582,7.996,3.052,11.124c0.939,6.953,1.409,13.789,1.761,20.742
	c0.352,8.458,2.113,21.668-4.343,28.389C56.519,66.472,45.484,66.588,37.737,66.588z
    M0.761,64.039c-1.174-0.811-0.939-2.201,0.352-2.781c3.991-1.622,7.63-4.171,11.621-5.794
	c1.174-0.463,1.761,1.275,0.822,1.854c-3.052,1.854-6.104,3.592-9.156,5.446c0.939,0.463,1.878,0.927,2.817,1.391
	c1.526,0.579,3.052,0.695,4.46,1.391c1.057,0.463,0.587,1.854-0.235,2.201C8.156,68.906,3.461,65.893,0.761,64.039z"/>
</svg>
