<?xml version="1.0" encoding="utf-8"?>
<!-- Generator: Adobe Illustrator 16.0.0, SVG Export Plug-In . SVG Version: 6.00 Build 0)  -->
<!DOCTYPE svg PUBLIC "-//W3C//DTD SVG 1.1//EN" "http://www.w3.org/Graphics/SVG/1.1/DTD/svg11.dtd">
<svg version="1.1" id="Layer_1" xmlns="http://www.w3.org/2000/svg" xmlns:xlink="http://www.w3.org/1999/xlink" x="0px" y="0px"
	 width="61.068px" height="85.485px" viewBox="0 0 61.068 85.485" enable-background="new 0 0 61.068 85.485" xml:space="preserve">
<path d="M48.789,84.208c-1.806-7.636-5.74-14.758-6.412-22.65c-0.107-1.55,1.873-1.787,2.704-1.065
	c1.106,1.009,2.771,2.312,4.149,3.749c0.369-3.931,1.86-7.556,2.793-11.474c0.927-3.637,0.443-7.306-0.751-10.709
	c-0.865,0.825-1.867,1.507-2.873,2.328c-8.161,5.447-34.606,8.379-36.116-6.284c-0.944-8.321,9.799-15.681,17.281-15.938
	c9.882-0.344,18.071,5.745,22.829,13.87c2.331-3.325,3.549-7.377,3.927-11.73c0.625-9.131-5.295-15.733-13.405-19.007
	C28.094-0.658,7.543,3.671,1.407,19.573C1.11,20.27-0.018,20.245,0,19.401C0.727-0.7,30.822-2.848,44.67,2.522
	c15.806,6.117,18.77,25.175,9.2,36.921c0.401,0.994,0.94,2.131,1.198,3.262c2.508,7.793-1.452,14.599-2.462,22.033
	c1.855-0.944,3.851-1.885,5.574-3.253c1.291-0.956,3.387-0.066,2.783,1.75c-2.424,7.543-4.287,15.239-9.083,21.605
	C51.011,85.804,49.037,85.76,48.789,84.208z M49.79,38.931c-0.95-1.709-2.041-3.421-3.278-4.855
	c-7.964-9.883-23.161-11.626-30.196,0.317c-3.227,5.556,3.611,8.942,7.957,10.164c6.308,1.828,13.662,1.006,19.643-1.535
	C46.2,41.806,48.063,40.44,49.79,38.931z M50.952,69.343L50.952,69.343c-0.003,0.141-0.289,0.275-0.429,0.272
	c-1.542-0.456-2.783-1.75-4.021-3.184c1.169,4.528,3.05,8.79,4.361,13.32c2.349-4.168,3.862-8.777,5.378-13.527
	c-1.57,0.81-3.137,1.479-4.434,2.716C51.519,69.215,51.233,69.349,50.952,69.343z"/>
</svg>
