<?xml version="1.0" encoding="UTF-8" standalone="no"?>
<!-- Generator: Adobe Illustrator 16.0.0, SVG Export Plug-In . SVG Version: 6.00 Build 0)  -->

<svg
   xmlns="http://www.w3.org/2000/svg"
   version="1.1"
   id="Layer_1"
   x="0px"
   y="0px"
   width="66.004669"
   height="65.010963"
   viewBox="0 0 66.004672 65.010964"
   xml:space="preserve">
   <path d="m 64.629497,28.383303 c -0.113,8.659 -1.237,17.773 -3.486,26.205 -0.563,1.823 -3.262,1.139 -2.812,-0.798 1.8,-7.52 2.924,-15.153 3.262,-22.9 0.337,-7.748 0.45,-18.116 -5.061,-24.1540003 -2.813,-3.077 -7.873,-2.963 -11.698,-3.191 -5.623,-0.342 -11.358,-0.228 -16.982,0.114 -5.623,0.228 -11.359,0.798 -16.982,1.482 -3.0370003,0.341 -7.9850003,2.05 -10.68400025,0.569 -0.225,-0.114 -0.225,-0.456 -0.113,-0.569 2.02399995,-2.621 7.75999995,-2.507 10.79700025,-2.963 6.748,-0.911 13.384,-1.36699996 20.132,-1.70899996 8.21,-0.341 21.031,-2.05100004 27.554,4.21599996 5.96,5.4680003 6.073,16.1780003 6.073,23.6980003 z m -2.474,35.889 c -0.788,1.139 -2.137,0.911 -2.699,-0.342 -1.575,-3.874 -4.049,-7.405 -5.624,-11.279 -0.45,-1.139 1.237,-1.709 1.799,-0.797 1.8,2.962 3.486,5.925 5.286,8.887 0.45,-0.911 0.9,-1.823 1.35,-2.734 0.563,-1.481 0.675,-2.962 1.35,-4.33 0.45,-1.025 1.799,-0.57 2.137,0.228 1.124,3.19 -1.8,7.747 -3.599,10.367 z"/>
</svg>
