<?xml version="1.0" encoding="utf-8"?>
<!-- Generator: Adobe Illustrator 16.0.0, SVG Export Plug-In . SVG Version: 6.00 Build 0)  -->
<!DOCTYPE svg PUBLIC "-//W3C//DTD SVG 1.1//EN" "http://www.w3.org/Graphics/SVG/1.1/DTD/svg11.dtd">
<svg version="1.1" id="Layer_1" xmlns="http://www.w3.org/2000/svg" xmlns:xlink="http://www.w3.org/1999/xlink" x="0px" y="0px"
	 width="33.325px" height="63.521px" viewBox="0 0 33.325 63.521" enable-background="new 0 0 33.325 63.521" xml:space="preserve">
<path d="M4.085,63.042c1.947-2.555,4.145-4.8,6.604-6.831c0.82-0.677,0.391-2.046-0.635-2.146
	c-0.839-0.083-1.668-0.26-2.507-0.343c-0.684-8.31-0.529-16.537,0.203-24.896c0.509-7.055,0.701-16.604,4.687-22.652
	c3.092-4.62,9.224-4.772,13.68-2.247c1.874,1.038,3.31,2.696,4.243,4.683c1.091,2.287,0.132,4.371,0.469,6.678
	c0.065,0.291,0.429,0.421,0.727,0.261c3.978-3.112,0.387-9.625-2.373-12.172c-3.878-3.604-10.011-4.4-14.669-2.019
	c-6.932,3.483-7.44,13.38-8.285,20.022C4.817,31.852,4.002,42.95,5.311,53.5c-0.932-0.092-1.78-0.081-2.74,0.108
	c-0.187-0.019-0.289,0.066-0.391,0.15c-0.578-0.815-2.321-0.324-2.171,1.017c0.29,2.776,0.86,5.58,1.821,8.233
	C2.324,63.721,3.554,63.652,4.085,63.042z M7.223,56.058c-1.248,1.203-2.496,2.405-3.67,3.806c-0.429-1.369-0.663-2.813-0.896-4.257
	c0.093,0.009,0.187,0.018,0.373,0.037C4.455,55.5,5.843,55.731,7.223,56.058z"/>
</svg>
