<?xml version="1.0" encoding="UTF-8" standalone="no"?>
<!-- Generator: Adobe Illustrator 16.0.0, SVG Export Plug-In . SVG Version: 6.00 Build 0)  -->

<svg
   xmlns="http://www.w3.org/2000/svg"
   version="1.1"
   id="Layer_1"
   x="0px"
   y="0px"
   width="21.776247"
   height="68.005569"
   viewBox="0 0 21.776246 68.005572" >
    <path d="m 12.268615,66.588467 c -2.9002608,-0.116 -5.9533207,-1.274 -8.7771816,-3.592 -0.610547,-0.58 -0.3816731,-3.36 0.2672362,-2.897 2.5185875,1.854 5.0755373,3.013 7.6705244,3.36 2.594987,0.348 6.067757,0.464 8.09056,-5.214 1.030257,-2.897 0.99222,-8.112 1.068619,-12.052 0.114437,-5.793 0.0764,-11.703 -0.03836,-17.497 -0.07607,-5.793 -0.266911,-11.703 -0.495785,-17.497 C 19.939464,8.0714673 19.36728,2.9724673 19.86339,0.19146731 c 0.03836,-0.231 0.152799,-0.231 0.190836,-0.116 0.877783,2.08599999 0.839421,7.99599999 0.99222,11.12399969 0.305274,6.953 0.458073,13.789 0.57251,20.742 0.114437,8.458 0.686947,21.668 -1.411931,28.389 -1.832291,6.142 -5.419823,6.258 -7.93841,6.258 z m -12.02107811,-2.549 c -0.38167313,-0.811 -0.30527348,-2.201 0.11443692,-2.781 1.29749359,-1.622 2.48055029,-4.171 3.77804379,-5.794 0.3816731,-0.463 0.5725097,1.275 0.2672362,1.854 -0.9922201,1.854 -1.9844401,3.592 -2.9766602,5.446 0.3052735,0.463 0.6105469,0.927 0.9158204,1.391 0.4961101,0.579 0.9922201,0.695 1.4499678,1.391 0.3436358,0.463 0.1908365,1.854 -0.0764,2.201 -1.0682946,1.159 -2.594662,-1.854 -3.47244521,-3.708 z" />
</svg>
