<?xml version="1.0" encoding="utf-8"?>
<!-- Generated by IcoMoon.io -->
<!DOCTYPE svg PUBLIC "-//W3C//DTD SVG 1.1//EN" "http://www.w3.org/Graphics/SVG/1.1/DTD/svg11.dtd">
<svg version="1.1" xmlns="http://www.w3.org/2000/svg" xmlns:xlink="http://www.w3.org/1999/xlink" width="32" height="32" viewBox="0 0 32 32">
<path d="M24.625 0c0 0-14.688 0-17.063 0-2.313 0-3 1.75-3 2.875s0 27.125 0 27.125c0 1.25 0.625 1.75 1 1.875 0.438 0.188 1.438 0.313 2.063-0.438 0 0 8.063-9.375 8.188-9.5 0.25-0.188 0.25-0.188 0.438-0.188 0.438 0 3.563 0 5.25 0 2.188 0 2.5-1.563 2.75-2.5 0.188-0.75 2.313-11.688 3.063-15.188 0.5-2.625-0.125-4.063-2.688-4.063zM24.25 19.25c0.188-0.75 2.313-11.688 3.063-15.188zM23.625 4.625l-0.688 3.75c-0.125 0.375-0.625 0.813-1.063 0.813-0.5 0-6.688 0-6.688 0-0.75 0-1.25 0.5-1.25 1.25v0.813c0 0.75 0.5 1.25 1.25 1.25 0 0 5.125 0 5.688 0 0.5 0 1 0.625 0.938 1.188-0.125 0.563-0.688 3.375-0.75 3.688-0.063 0.25-0.375 0.813-1.063 0.813-0.5 0-4.563 0-4.563 0-0.875 0-1.125 0.125-1.688 0.813s-5.563 6.75-5.563 6.75c-0.063 0.063-0.125 0.063-0.125 0v-21.188c0-0.5 0.438-1.063 1.063-1.063 0 0 13.125 0 13.688 0 0.5 0 0.938 0.5 0.813 1.125z"></path>
</svg>
