<?xml version="1.0" encoding="utf-8"?>
<!-- Generated by IcoMoon.io -->
<!DOCTYPE svg PUBLIC "-//W3C//DTD SVG 1.1//EN" "http://www.w3.org/Graphics/SVG/1.1/DTD/svg11.dtd">
<svg version="1.1" xmlns="http://www.w3.org/2000/svg" xmlns:xlink="http://www.w3.org/1999/xlink" width="32" height="32" viewBox="0 0 32 32">
<path d="M30.25 11.125c0-2.25-0.75-4.125-2.125-5.563 0.25-0.5 0.938-2.625-0.188-5.5 0 0-1.75-0.563-5.688 2.125-1.688-0.438-3.438-0.688-5.25-0.688-1.75 0-3.5 0.25-5.188 0.688-4-2.688-5.688-2.125-5.688-2.125-1.188 2.875-0.438 5-0.25 5.5-1.313 1.438-2.125 3.313-2.125 5.563 0 8 4.875 9.75 9.5 10.313-0.625 0.5-1.188 1.438-1.375 2.75-1.188 0.563-4.188 1.438-6-1.75 0 0-1.125-1.938-3.188-2.125 0 0-2.063 0-0.188 1.25 0 0 1.375 0.688 2.313 3.063 0 0 1.25 3.688 7 2.438 0.063 1.75 0.063 4.438 0.063 4.938h10.313c0-0.688 0-4 0-6.75 0-1.938-0.625-3.188-1.375-3.875 4.625-0.5 9.438-2.25 9.438-10.25zM4.125 21.313c-0.063 0.063-0.25 0.125-0.375 0.063s-0.25-0.25-0.188-0.313c0.063-0.125 0.188-0.188 0.375-0.063 0.125 0.063 0.188 0.188 0.188 0.313zM4.938 22.25c-0.063 0.063-0.313 0-0.438-0.125s-0.125-0.313-0.063-0.438c0.125-0.063 0.313-0.063 0.438 0.125 0.125 0.125 0.188 0.313 0.063 0.438zM5.75 23.438c-0.125 0.063-0.313 0-0.438-0.188s-0.125-0.438 0-0.5c0.125-0.063 0.313 0 0.438 0.188s0.125 0.375 0 0.5zM6.875 24.563c-0.125 0.125-0.375 0.125-0.5-0.063-0.188-0.188-0.25-0.375-0.125-0.5 0.125-0.188 0.375-0.125 0.5 0.063 0.188 0.125 0.25 0.375 0.125 0.5zM8.438 25.25c-0.063 0.188-0.313 0.25-0.5 0.188-0.25-0.063-0.438-0.25-0.375-0.438s0.313-0.25 0.563-0.188c0.188 0.063 0.375 0.25 0.313 0.438zM9.688 25.688c-0.25 0-0.438-0.125-0.438-0.313s0.188-0.313 0.438-0.313c0.25 0 0.438 0.125 0.438 0.313s-0.188 0.313-0.438 0.313zM11.313 25.5c-0.25 0.063-0.438-0.063-0.5-0.25 0-0.125 0.188-0.313 0.438-0.375s0.438 0.063 0.5 0.25c0 0.125-0.188 0.313-0.438 0.375z"></path>
</svg>
