<?xml version="1.0" encoding="utf-8"?>
<!-- Generated by IcoMoon.io -->
<!DOCTYPE svg PUBLIC "-//W3C//DTD SVG 1.1//EN" "http://www.w3.org/Graphics/SVG/1.1/DTD/svg11.dtd">
<svg version="1.1" xmlns="http://www.w3.org/2000/svg" xmlns:xlink="http://www.w3.org/1999/xlink" width="32" height="32" viewBox="0 0 32 32">
<path d="M23.063 0.625v3.188c-1.625-2.375-4.313-3.75-7.313-3.75-6 0-10 4.563-10 11.438 0 3 0.813 5.688 2.313 7.688 1.688 2.313 4.188 3.563 7.313 3.563s6.063-1.375 7.688-3.625v3.313c0 4.875-2.25 7.125-7.25 7.125-4.188 0-6.313-1.75-6.5-5.125v-0.75h-2.25l0.063 0.688c0.125 4.813 3.313 7.625 8.813 7.625 6.25 0 9.688-3.375 9.688-9.563v-21.813h-2.563zM23.625 11.5c0 4.438-2.438 8.875-7.875 8.875-4.5 0-7.438-3.5-7.438-8.875 0-4.188 2-9.063 7.75-9.063 2 0 3.688 0.688 5 2 1.688 1.688 2.625 4.25 2.563 7.063z"></path>
</svg>
