<?xml version="1.0" encoding="utf-8"?>
<!-- Generated by IcoMoon.io -->
<!DOCTYPE svg PUBLIC "-//W3C//DTD SVG 1.1//EN" "http://www.w3.org/Graphics/SVG/1.1/DTD/svg11.dtd">
<svg version="1.1" xmlns="http://www.w3.org/2000/svg" xmlns:xlink="http://www.w3.org/1999/xlink" width="32" height="32" viewBox="0 0 32 32">
<path d="M10.25 14.063c0 1.375 0 2.688 0 4 1.875 0 3.75 0 5.625 0-0.25 1.313-1 2.438-2.063 3.188-0.688 0.438-1.5 0.75-2.25 0.875-0.813 0.125-1.688 0.188-2.5 0-0.813-0.125-1.563-0.5-2.25-1-1.125-0.75-1.938-1.875-2.375-3.125-0.438-1.313-0.438-2.688 0-4 0.313-0.875 0.813-1.75 1.5-2.438 0.813-0.813 1.938-1.438 3.063-1.688 1-0.188 2.063-0.188 3 0.125 0.875 0.25 1.625 0.688 2.25 1.313 0.625-0.625 1.25-1.25 1.875-1.875 0.313-0.375 0.688-0.688 1-1-0.938-0.938-2.063-1.625-3.313-2.063-2.188-0.813-4.688-0.813-6.938-0.063-2.5 0.875-4.625 2.75-5.813 5.063-0.375 0.813-0.688 1.688-0.875 2.625-0.438 2.188-0.125 4.563 0.875 6.625 0.688 1.313 1.625 2.5 2.813 3.375 1.125 0.875 2.375 1.563 3.75 1.938 1.688 0.438 3.5 0.438 5.25 0 1.563-0.313 3-1.063 4.188-2.125 1.25-1.188 2.125-2.688 2.563-4.313 0.563-1.75 0.625-3.625 0.313-5.438-3.25 0-6.438 0-9.688 0zM32 14.313h-3.5v-3.5h-2.563v3.5h-3.5v2.563h3.5v3.5h2.563v-3.5h3.5z"></path>
</svg>
