<?xml version="1.0" encoding="utf-8"?>
<!-- Generated by IcoMoon.io -->
<!DOCTYPE svg PUBLIC "-//W3C//DTD SVG 1.1//EN" "http://www.w3.org/Graphics/SVG/1.1/DTD/svg11.dtd">
<svg version="1.1" xmlns="http://www.w3.org/2000/svg" xmlns:xlink="http://www.w3.org/1999/xlink" width="32" height="32" viewBox="0 0 32 32">
<path d="M31.625 14.938c-0.063-0.625-0.125-1.313-0.25-1.938-5 0-10.063 0-15.063 0 0 2.063 0 4.188 0 6.25 0 0 0 0 0 0s0 0 0 0c2.938 0 5.813 0 8.75 0-0.375 2-1.563 3.813-3.25 4.938 0 0 0 0 0 0-1.063 0.688-2.25 1.188-3.5 1.375-1.25 0.25-2.563 0.25-3.813 0-1.313-0.25-2.5-0.813-3.563-1.563-1.563-1.063-2.813-2.688-3.5-4.438-0.063-0.125-0.125-0.313-0.188-0.438 0 0 0 0 0 0s0 0 0.063 0c-0.688-2-0.688-4.25-0.063-6.25 0.5-1.375 1.313-2.688 2.375-3.75 1.25-1.313 2.938-2.25 4.75-2.688 1.563-0.313 3.188-0.25 4.688 0.188 1.313 0.438 2.5 1.125 3.438 2.063 1-1 2-1.938 2.938-2.938 0.563-0.5 1.063-1.063 1.563-1.563 0 0 0 0 0 0s0 0 0 0c-1.5-1.438-3.25-2.5-5.125-3.188-3.438-1.313-7.313-1.313-10.75-0.125-3.938 1.313-7.25 4.25-9.125 7.938-0.625 1.25-1.063 2.625-1.375 4-0.688 3.5-0.188 7.188 1.375 10.375 1.063 2.063 2.563 3.875 4.375 5.313 1.688 1.375 3.688 2.375 5.813 2.938 2.688 0.75 5.5 0.75 8.188 0.125 2.438-0.563 4.688-1.75 6.563-3.438 1.938-1.75 3.313-4.125 4.063-6.625 0.563-2.125 0.813-4.313 0.625-6.563z"></path>
</svg>
