<?xml version="1.0" encoding="utf-8"?>
<!-- Generated by IcoMoon.io -->
<!DOCTYPE svg PUBLIC "-//W3C//DTD SVG 1.1//EN" "http://www.w3.org/Graphics/SVG/1.1/DTD/svg11.dtd">
<svg version="1.1" xmlns="http://www.w3.org/2000/svg" xmlns:xlink="http://www.w3.org/1999/xlink" width="32" height="32" viewBox="0 0 32 32">
<path d="M16 0c-8.813 0-16 7.188-16 16s7.188 16 16 16c8.813 0 16-7.188 16-16s-7.188-16-16-16zM25.375 19.188c-1.188-0.5-2.188-1.5-2.938-2.563-0.813-1.188-1.688-2.375-2.625-3.5-0.938-1-1.875-2-2.938-2.938-1-0.875-2.125-1.75-3.375-2.375-0.875-0.375-1.688-0.688-2.563-0.938-0.125 0-0.375-0.125-0.5 0 0 0.063 0 0.188 0 0.313 0.063 0.188 0.063 0.313 0.063 0.5 0.313 2.25 0.375 4.563-0.313 6.688-0.375 1.125-1 2.188-1.938 3-0.688 0.688-1.75 1.375-2.813 1.313-0.188 0-0.375 0-0.563-0.063-1.125-0.375-1.188-1.625-1.188-2.625-0.063-1.063 0.063-2.125 0.375-3.188 0.063-0.313 0.188-0.625 0.25-0.938 1.25-3.563 4.063-6.438 7.625-7.688 1.375-0.5 2.75-0.75 4.188-0.75 4.188 0 8.125 2.125 10.438 5.625 0.563 0.875 1 1.813 1.375 2.75v0c0.063 0.375 0.188 0.688 0.25 1 0.313 1.063 0.438 2.125 0.438 3.188-0.063 2-0.688 4.25-3.25 3.188z"></path>
</svg>
