<?xml version="1.0" encoding="utf-8"?>
<!-- Generated by IcoMoon.io -->
<!DOCTYPE svg PUBLIC "-//W3C//DTD SVG 1.1//EN" "http://www.w3.org/Graphics/SVG/1.1/DTD/svg11.dtd">
<svg version="1.1" xmlns="http://www.w3.org/2000/svg" xmlns:xlink="http://www.w3.org/1999/xlink" width="32" height="32" viewBox="0 0 32 32">
<path d="M31.063 17.563l-0.188-0.375c-0.375-0.5-0.75-1.063-1.25-1.438-0.5-0.313-1-0.5-1.5-0.75 1.375-0.688 2.375-1.625 2.813-2.875 0.313-0.938 0.25-1.75-0.188-2.563v-0.125c-0.563-0.875-1.313-1.5-2.438-1.813-0.625-0.125-1.438-0.125-2.125-0.063l-1.438 0.313 0.5-1.125c0.438-1.438 0.313-2.875-0.5-4.188l-0.125-0.188c-0.688-1.125-1.688-1.813-3-2.188-1.438-0.375-2.688-0.188-4 0.438-1.25 0.688-2.125 1.75-2.563 3.063v0.125l-0.063 0.313-0.125-0.313-0.5-0.813c-0.688-1.125-1.625-1.813-2.75-2.125-1-0.25-1.813-0.125-2.625 0.313-0.938 0.563-1.5 1.5-1.75 2.75-0.188 1.313 0 2.563 0.688 3.813l0.313 0.5-1.063-0.375c-1.375-0.313-2.625-0.125-3.875 0.563-1.313 0.625-2.125 1.625-2.688 2.875-0.5 1.313-0.438 2.5 0.188 3.625 0.25 0.5 0.688 0.938 1.063 1.188 0.5 0.563 1.188 0.875 2 1l0.313 0.063-0.688 0.625c-0.625 0.5-1 1.188-1.188 1.875-0.25 0.813-0.125 1.625 0.313 2.375 0.25 0.375 0.438 0.688 0.813 0.938 0.375 0.313 0.813 0.5 1.375 0.563 0.938 0.25 2 0.25 3.125-0.125l-0.813 1.375-0.25 0.563c-0.438 1.438-0.313 2.688 0.375 4 0.313 0.5 0.688 0.938 1.063 1.375 0.563 0.5 1.188 0.813 2 1 1.375 0.375 2.75 0.313 4.063-0.313 1.25-0.688 2.063-1.813 2.438-3.125l0.063-0.25c0.875 0.938 1.688 1.563 2.563 1.75 0.938 0.313 1.813 0.25 2.625-0.313 0.75-0.438 1.313-1.188 1.563-2.125 0.25-1 0.25-2 0-3.125 0.5 0.313 0.938 0.563 1.438 0.688 1.438 0.438 2.75 0.375 4-0.313 1.188-0.625 2-1.75 2.438-3.125 0.375-1.375 0.25-2.688-0.438-3.938zM24.563 10.063l0.5-0.25c0.813-0.375 1.625-0.438 2.438-0.375 0.75 0.125 1.313 0.438 1.563 1l0.188 0.563-0.125 0.5c-0.313 0.813-1 1.438-2.125 1.938-0.438 0.188-0.938 0.313-1.438 0.375l-5.563 0.688-0.125-0.313-0.063-0.125 0.188-0.25zM16.875 4.375c0.25-0.938 0.875-1.625 1.688-2.063s1.688-0.563 2.563-0.25c0.938 0.25 1.625 0.75 2 1.5 0.25 0.438 0.375 1 0.375 1.625l-0.125 0.938c-0.188 0.5-0.438 1-0.688 1.375l-4.063 4.938c-0.375-0.313-0.875-0.5-1.313-0.75l-0.438-5.063-0.063-1.813zM9.188 4.5c0-0.813 0.313-1.375 0.875-1.688 0.25-0.25 0.688-0.25 1.063-0.063 0.813 0.25 1.438 0.813 2 1.938 0.25 0.5 0.438 0.938 0.563 1.438l0.875 5.375-0.688 0.188-4-4.375-0.188-0.438c-0.375-0.813-0.625-1.563-0.5-2.375zM2.5 14.063c-0.313-0.688-0.313-1.375-0.063-2.063 0.313-0.813 0.875-1.5 1.75-1.875 0.813-0.438 1.625-0.563 2.563-0.375l1.188 0.5 4 2.875c-0.375 0.5-0.625 0.938-0.75 1.375l-6.5 0.813-0.438-0.063c-0.813-0.188-1.375-0.5-1.75-1.188zM15.063 27.375l-0.063 0.438c-0.313 0.813-0.813 1.5-1.625 1.875-0.813 0.438-1.688 0.5-2.5 0.313-0.875-0.25-1.563-0.813-1.938-1.5-0.25-0.438-0.438-1-0.438-1.563l0.25-1c0.125-0.5 0.313-0.938 0.688-1.313l3.813-4.5c0.438 0.25 0.875 0.438 1.375 0.5 0.063 1.563 0.25 3.188 0.438 4.938zM13.563 18.313c-0.563-0.5-0.875-1.313-0.875-2.125s0.313-1.438 0.875-2.125c0.563-0.438 1.313-0.813 2.125-0.813s1.625 0.375 2.063 0.813c0.688 0.688 0.938 1.313 0.938 2.125s-0.25 1.625-0.938 2.125c-0.563 0.625-1.25 0.938-2.063 0.938s-1.563-0.313-2.125-0.938zM21.938 26.25c-0.125 0.813-0.375 1.375-0.938 1.625-0.313 0.188-0.625 0.188-1 0.188-0.875-0.25-1.563-0.938-2.063-2l-0.5-1.5-0.688-3.938 0.75-0.25 0.625-0.313 1.875 1.938 1.188 1.438 0.188 0.438c0.438 0.75 0.625 1.5 0.563 2.375zM29.688 20.938c-0.25 0.938-0.75 1.563-1.563 1.938-0.813 0.438-1.563 0.563-2.5 0.25-0.563-0.125-0.875-0.375-1.188-0.75l-4.75-3.875 0.313-0.688 0.125-0.563 5.125-0.438 1.75-0.063 0.5 0.063c0.625 0.188 1.313 0.625 1.625 1.313 0.5 0.5 0.688 1.125 0.688 1.938z"></path>
</svg>
