<?xml version="1.0" encoding="utf-8"?>
<!-- Generated by IcoMoon.io -->
<!DOCTYPE svg PUBLIC "-//W3C//DTD SVG 1.1//EN" "http://www.w3.org/Graphics/SVG/1.1/DTD/svg11.dtd">
<svg version="1.1" xmlns="http://www.w3.org/2000/svg" xmlns:xlink="http://www.w3.org/1999/xlink" width="32" height="32" viewBox="0 0 32 32">
<path d="M0 15.125c0 7.875 6.5 14.25 14.563 14.25 2.313 0 4.5-0.563 6.438-1.5l11 3.25-3.563-11.438c0.5-1.438 0.75-3 0.75-4.563 0-7.875-6.5-14.25-14.563-14.25s-14.625 6.375-14.625 14.25zM24.5 15.125c0 1.188-0.25 2.375-0.625 3.438l1.813 5.125 0.188 0.5c0 0 0-0.063 0-0.063l0.625 1.688-2.313-0.563-5-1.563c-1.375 0.688-2.938 1.063-4.625 1.063-5.438 0.063-9.875-4.313-9.875-9.625s4.438-9.625 9.938-9.688c5.438 0 9.875 4.375 9.875 9.688z"></path>
</svg>
