<?xml version="1.0" encoding="utf-8"?>
<!-- Generated by IcoMoon.io -->
<!DOCTYPE svg PUBLIC "-//W3C//DTD SVG 1.1//EN" "http://www.w3.org/Graphics/SVG/1.1/DTD/svg11.dtd">
<svg version="1.1" xmlns="http://www.w3.org/2000/svg" xmlns:xlink="http://www.w3.org/1999/xlink" width="32" height="32" viewBox="0 0 32 32">
<path d="M0 9.563h3.313v12.75h-3.313zM10.375 9.563l-0.75 5.938-0.5-3.25c-0.125-1-0.25-1.938-0.375-2.688h-4.313v12.75h2.938v-8.438l1.188 8.438h2.063l1.188-8.625v8.625h2.875v-12.75zM19.875 11.813c0.188 0.063 0.25 0.25 0.313 0.375 0 0.188 0.063 0.563 0.063 1.125v4.938c0 0.875-0.063 1.375-0.188 1.563s-0.438 0.313-0.875 0.313v-8.438c0.313 0 0.563 0.063 0.688 0.125zM19.813 22.313c0.813 0 1.375-0.063 1.813-0.125 0.375-0.125 0.75-0.25 1-0.438 0.25-0.25 0.438-0.563 0.563-0.938s0.188-1.125 0.188-2.313v-4.438c0-1.25-0.063-2-0.125-2.438s-0.25-0.813-0.563-1.125c-0.313-0.313-0.75-0.563-1.25-0.75-0.625-0.125-1.5-0.188-3.125-0.188h-2.5v12.75zM28.813 19.188c0 0.625-0.063 1-0.125 1.188s-0.313 0.25-0.5 0.25c-0.25 0-0.375-0.063-0.438-0.188-0.063-0.188-0.063-0.563-0.063-1.125v-3.375c0-0.563 0-0.938 0.063-1.063s0.188-0.25 0.438-0.25c0.188 0 0.438 0.125 0.5 0.25 0.063 0.188 0.125 0.5 0.125 1.063zM24.5 9.563v12.75h2.938l0.188-0.813c0.25 0.313 0.625 0.563 0.938 0.75 0.313 0.125 0.813 0.25 1.188 0.25 0.5 0 0.938-0.125 1.313-0.438 0.375-0.25 0.625-0.563 0.75-0.938 0.063-0.375 0.125-0.938 0.125-1.688v-3.688c0-0.75 0-1.25-0.063-1.5 0-0.188-0.125-0.438-0.313-0.688-0.125-0.313-0.375-0.5-0.688-0.625-0.375-0.125-0.75-0.188-1.188-0.188-0.375 0-0.875 0.063-1.188 0.25-0.313 0.125-0.625 0.375-0.875 0.688v-4.188h-3.125z"></path>
</svg>
