<?xml version="1.0" encoding="utf-8"?>
<!-- Generated by IcoMoon.io -->
<!DOCTYPE svg PUBLIC "-//W3C//DTD SVG 1.1//EN" "http://www.w3.org/Graphics/SVG/1.1/DTD/svg11.dtd">
<svg version="1.1" xmlns="http://www.w3.org/2000/svg" xmlns:xlink="http://www.w3.org/1999/xlink" width="32" height="32" viewBox="0 0 32 32">
<path d="M31.938 3.313c-0.188-1.875-1.75-3.313-3.688-3.313-8.188 0-16.375 0-24.563 0-0.25 0-0.438 0-0.688 0.063-1.813 0.375-3 1.875-3 3.688 0 4.063 0 8.188 0 12.25s0 8.125 0 12.25c0 0.188 0 0.375 0 0.625 0.25 1.75 1.813 3.125 3.625 3.125 8.25 0 16.438 0 24.688 0 0.188 0 0.313 0 0.438 0 1.813-0.25 3.188-1.813 3.188-3.625 0-8.25 0-16.5 0-24.75 0-0.063 0-0.188 0-0.313zM22.125 4.938c0-0.688 0.563-1.25 1.25-1.25 1.188 0 2.438 0 3.625 0 0.75 0 1.25 0.563 1.25 1.25 0.063 1.25 0.063 2.438 0 3.688 0 0.688-0.5 1.25-1.188 1.25-0.625 0-1.25 0-1.875 0s-1.188 0-1.813 0c-0.688 0-1.25-0.563-1.25-1.25 0-1.25 0-2.438 0-3.688zM16 9.875c3.375 0 6.125 2.75 6.125 6.125s-2.75 6.125-6.125 6.125c-3.438 0-6.188-2.75-6.188-6.125s2.75-6.125 6.188-6.125zM28.188 13.688c0 4.438 0.063 8.875 0.063 13.375 0 0.688-0.5 1.25-1.25 1.25-7.375 0-14.813 0-22.125 0-0.75 0-1.375-0.563-1.375-1.313 0-4.438 0-8.875 0-13.313 0-0.063 0 0.063 0-0.25 1 0 2 0 2.938 0-0.625 2.563-0.313 4.875 0.813 7.125 0.875 1.688 2.188 3 3.813 3.938 3.25 1.875 7.25 1.75 10.375-0.313 1.75-1.188 3-2.75 3.75-4.75 0.75-1.938 0.813-3.75 0.313-6 0.938 0 1.688 0 2.688 0 0 0.313 0 0.188 0 0.25z"></path>
</svg>
