<?xml version="1.0" encoding="utf-8"?>
<!-- Generated by IcoMoon.io -->
<!DOCTYPE svg PUBLIC "-//W3C//DTD SVG 1.1//EN" "http://www.w3.org/Graphics/SVG/1.1/DTD/svg11.dtd">
<svg version="1.1" xmlns="http://www.w3.org/2000/svg" xmlns:xlink="http://www.w3.org/1999/xlink" width="32" height="32" viewBox="0 0 32 32">
<path d="M1.875 10h5.75v21.438h-5.75zM13.188 23.188c1.75 2 4.438 3.375 7.313 3.375 2.688 0 4.438-1.625 4.438-3.875 0-4-5.75-4.438-9.875-6.938-2.5-1.375-4.375-3.5-4.375-7.063 0-5.5 5.063-8.688 10.25-8.688 3.188 0 6 0.688 8.938 2.938l-3.063 4.5c-1.313-1.188-3.313-2-5.313-2-2.188 0-4.813 0.938-4.813 3.375 0 4.938 14.25 3.438 14.25 13.875 0 5.563-4.938 9.313-10.438 9.313-4.125 0-8-1.75-11.188-4.563zM1.063 3.75c0-2.125 1.625-3.75 3.75-3.75s3.75 1.625 3.75 3.75c0 2.125-1.625 3.75-3.75 3.75s-3.75-1.625-3.75-3.75z"></path>
</svg>
