<?xml version="1.0" encoding="utf-8"?>
<!-- Generated by IcoMoon.io -->
<!DOCTYPE svg PUBLIC "-//W3C//DTD SVG 1.1//EN" "http://www.w3.org/Graphics/SVG/1.1/DTD/svg11.dtd">
<svg version="1.1" xmlns="http://www.w3.org/2000/svg" xmlns:xlink="http://www.w3.org/1999/xlink" width="32" height="32" viewBox="0 0 32 32">
<path d="M28.625 1.438c0-0.438-0.063-0.938-0.438-1.25-0.5-0.375-1.188-0.125-1.75 0-2.688 0.5-5.438 1.063-8.125 1.625-1.375 0.313-2.75 0.563-4.125 0.813-0.688 0.188-1.375 0.313-2 0.438-0.5 0.125-0.938 0.313-1.25 0.75-0.313 0.5-0.188 1-0.188 1.563 0 0.688 0 1.438 0 2.125 0 1.438 0 2.813 0 4.25 0 2.813 0 4 0 6.813v0.063c0 0.75 0 1.438 0 2.188 0 0.625 0.125 1.313 0 2-0.188 1.125-1.375 1.188-2.313 1.438-1.125 0.25-2.438 0.438-3.438 1.125-1.625 1.063-2.063 3.313-1 4.938 1.188 1.875 3.688 2 5.563 1.313 1.063-0.375 2-1.063 2.563-2.063 0.5-1.063 0.5-2.375 0.5-3.563 0-2.813 0-5.625 0-8.5l-0.063-4.25c0-0.625-0.063-1.313 0-1.938 0.125-1.063 1.25-1 2.063-1.188 2.75-0.563 5.563-1.125 8.313-1.688 0.688-0.125 1.375-0.313 2.063-0.438 0.438-0.125 1-0.313 1.375-0.063 0.438 0.25 0.375 0.875 0.375 1.25 0 0.688 0 1.375 0 2.125 0 1.375 0 2.75 0 4.125 0 0.75 0 1.438 0 2.188 0 0.625 0.063 1.313 0 1.938-0.25 1.188-1.438 1.25-2.375 1.438-1.125 0.25-2.438 0.5-3.375 1.125-1.625 1.125-2.063 3.375-1.063 5 1.188 1.813 3.688 2 5.625 1.313 1-0.375 2-1.063 2.5-2.063 0.563-1.125 0.5-2.375 0.5-3.563 0-2.875 0-5.688 0-8.5 0-2.875 0-5.688 0-8.5 0-1.5 0.063-2.938 0.063-4.375z"></path>
</svg>
