<?xml version="1.0" encoding="utf-8"?>
<!-- Generated by IcoMoon.io -->
<!DOCTYPE svg PUBLIC "-//W3C//DTD SVG 1.1//EN" "http://www.w3.org/Graphics/SVG/1.1/DTD/svg11.dtd">
<svg version="1.1" xmlns="http://www.w3.org/2000/svg" xmlns:xlink="http://www.w3.org/1999/xlink" width="32" height="32" viewBox="0 0 32 32">
<path d="M17.063 23.25c0.25 0.125 0.5-0.063 0.75-0.125 2.75-0.813 5.688-1.813 8.688-2.75 1.188-0.375 2.313-0.813 2.875-0.438 0.438 0.25 0.625 0.875 0.813 1.375 0.063 0.25 0.063 0.563 0.125 0.875 0.063 0.188 0.188 0.375 0.188 0.625 0 0.063-0.063 0.188-0.063 0.188 0.125 0.625 0.313 0.875 0.375 1.5 0 0.063-0.063 0.313-0.063 0.563s-0.125 0.688-0.313 0.938c0 0-0.188 0-0.188 0.063 0 0 0.063 0.063 0.063 0.125-0.063 0-0.25 0-0.25 0.063-0.25 0.563-3.188 1.25-4.125 1.5l-9.938 3.188c-2.063 0.625-3.813 1.313-4.688 1-1.313-0.5-2.188-4.375-2.938-6.75-1.25-3.875-2.063-7-3.313-10.5-0.063-0.125-0.063-0.375-0.188-0.5-0.063-0.125-0.125-0.125-0.188-0.313-0.375-1-0.5-2.313-1.063-3.375-0.063-0.063-0.188-0.125-0.188-0.25-0.25-0.563-0.375-1.25-0.625-1.938-0.438-1.25-0.875-2.125-1.25-3.688-0.25-0.688-0.438-1.375-0.375-1.75 0.063-0.125 0.375-0.563 0.625-0.75 0.188-0.188 0.563-0.25 1-0.438 1.188-0.563 5.375-2.125 6.5-1.563 1 0.563 1.563 3.188 2.25 5.313 0.625 2.063 1.125 4.063 1.688 5.875z"></path>
</svg>
