<?xml version="1.0" encoding="utf-8"?>
<!-- Generated by IcoMoon.io -->
<!DOCTYPE svg PUBLIC "-//W3C//DTD SVG 1.1//EN" "http://www.w3.org/Graphics/SVG/1.1/DTD/svg11.dtd">
<svg version="1.1" xmlns="http://www.w3.org/2000/svg" xmlns:xlink="http://www.w3.org/1999/xlink" width="32" height="32" viewBox="0 0 32 32">
<path d="M24.375 24.875c-6.313 0-8.563-2.875-9.688-6.375l-1.188-3.688c-0.875-2.688-1.938-4.75-5.125-4.75-2.25 0-4.5 1.625-4.5 6.125 0 3.5 1.75 5.688 4.313 5.688 2.875 0 4.75-2.125 4.75-2.125l1.188 3.188c0 0-2 1.938-6.125 1.938-5.125 0-8-3-8-8.563 0-5.813 2.875-9.188 8.25-9.188 4.875 0 7.313 1.75 8.875 6.5l1.188 3.688c0.875 2.688 2.438 4.625 6.125 4.625 2.5 0 3.813-0.563 3.813-1.938 0-1.063-0.625-1.813-2.5-2.25l-2.5-0.625c-3-0.688-4.25-2.25-4.25-4.75 0-4 3.25-5.25 6.563-5.25 3.75 0 6 1.313 6.313 4.625l-3.688 0.438c-0.125-1.563-1.125-2.188-2.875-2.188-1.625 0-2.563 0.688-2.563 1.938 0 1.125 0.438 1.75 2.063 2.125l2.375 0.5c3.125 0.75 4.813 2.313 4.813 5.25 0 3.688-3.063 5.063-7.625 5.063z"></path>
</svg>
