<?xml version="1.0" encoding="utf-8"?>
<!-- Generated by IcoMoon.io -->
<!DOCTYPE svg PUBLIC "-//W3C//DTD SVG 1.1//EN" "http://www.w3.org/Graphics/SVG/1.1/DTD/svg11.dtd">
<svg version="1.1" xmlns="http://www.w3.org/2000/svg" xmlns:xlink="http://www.w3.org/1999/xlink" width="32" height="32" viewBox="0 0 32 32">
<path d="M23.938 16.375c-0.438-0.5-1.188-0.75-2.25-0.75-1.375 0-2.313 0.438-2.875 1.188-0.563 0.813-0.813 1.938-0.813 3.375v10.938c0 0.188-0.063 0.375-0.25 0.563-0.125 0.125-0.375 0.25-0.563 0.25h-5.75c-0.188 0-0.375-0.125-0.563-0.25-0.125-0.188-0.25-0.375-0.25-0.563v-20.188c0-0.188 0.125-0.375 0.25-0.563 0.188-0.125 0.375-0.25 0.563-0.25h5.563c0.188 0 0.375 0.063 0.5 0.125s0.188 0.25 0.25 0.438c0 0.188 0.063 0.375 0.063 0.438s0 0.25 0 0.5c1.438-1.375 3.375-2 5.688-2 2.688 0 4.75 0.625 6.25 1.938 1.5 1.375 2.25 3.313 2.25 5.938v13.625c0 0.188-0.063 0.375-0.25 0.563-0.125 0.125-0.375 0.25-0.563 0.25h-5.875c-0.188 0-0.375-0.125-0.563-0.25-0.125-0.188-0.25-0.375-0.25-0.563v-12.313c0-1.063-0.188-1.875-0.563-2.438zM6.625 6.688c-0.75 0.75-1.688 1.125-2.75 1.125s-2-0.375-2.75-1.125c-0.75-0.75-1.125-1.625-1.125-2.75 0-1.063 0.375-1.938 1.125-2.688s1.688-1.188 2.75-1.188c1.063 0 2 0.438 2.75 1.188s1.125 1.625 1.125 2.688c0 1.125-0.375 2-1.125 2.75zM7.563 10.938v20.188c0 0.188-0.125 0.375-0.25 0.563-0.188 0.125-0.375 0.25-0.563 0.25h-5.75c-0.188 0-0.375-0.125-0.563-0.25-0.125-0.188-0.25-0.375-0.25-0.563v-20.188c0-0.188 0.125-0.375 0.25-0.563 0.188-0.125 0.375-0.25 0.563-0.25h5.75c0.188 0 0.375 0.125 0.563 0.25 0.125 0.188 0.25 0.375 0.25 0.563z"></path>
</svg>
