<?xml version="1.0" encoding="utf-8"?>
<!-- Generated by IcoMoon.io -->
<!DOCTYPE svg PUBLIC "-//W3C//DTD SVG 1.1//EN" "http://www.w3.org/Graphics/SVG/1.1/DTD/svg11.dtd">
<svg version="1.1" xmlns="http://www.w3.org/2000/svg" xmlns:xlink="http://www.w3.org/1999/xlink" width="32" height="32" viewBox="0 0 32 32">
<path d="M31.75 7.313l-10.125-5.063c-0.063 0-0.063 0-0.125 0-0.125 0-0.313 0.063-0.375 0.125l-6.188 10.188 6.938 11.313 10-16.188c0.063-0.125 0-0.313-0.125-0.375zM11.625 9v10.938l9.75 4.875zM22.188 25.188l8.938 4.5c0.438 0.25 0.875 0 0.875-0.563v-19.875zM10.5 7.375l-9.313-4.625-0.625-0.375c-0.063 0-0.125-0.063-0.188-0.063-0.125 0-0.188 0.063-0.25 0.125s-0.125 0.188-0.125 0.375v21.313c0 0.375 0.25 0.813 0.563 0.938l9.188 4.625c0.125 0.063 0.25 0.125 0.375 0.125 0.313 0 0.5-0.25 0.5-0.688v-21.563c0-0.063 0-0.125-0.125-0.188z"></path>
</svg>
