<?xml version="1.0" encoding="utf-8"?>
<!-- Generated by IcoMoon.io -->
<!DOCTYPE svg PUBLIC "-//W3C//DTD SVG 1.1//EN" "http://www.w3.org/Graphics/SVG/1.1/DTD/svg11.dtd">
<svg version="1.1" xmlns="http://www.w3.org/2000/svg" xmlns:xlink="http://www.w3.org/1999/xlink" width="32" height="32" viewBox="0 0 32 32">
<path d="M24.188 0.813c-0.25 0-0.5 0.25-0.75 0.25-0.75 0-1.375 0.625-2 0.5-0.625-0.063-1.188 1-1.938 1h-0.188c-0.188 0-0.375-1.188-0.438-1.25-3.313 4.5-4.438 10.313-5.938 16.438-0.813-1.5-1.563-3.063-2.313-4.625-1.375-2.625-2.75-5.438-4.25-7.688-0.438 0-0.875-0.063-1.313-0.063-1.75 0-3.375 0.313-4.875 0.75l-0.063 4.125c-0.188 7.063-0.375 13.125 1.438 18.875 0.313 0.063 0.688 0.125 1 0.125 2.125 0 4-1.063 4.813-1.5 0.188-1.813-0.063-3.188-0.313-4.688-0.125-0.75-0.25-1.563 0.188-2.563 1.188 1.625 2.313 3.375 3.375 5.125 0.688 1.125 1.375 2.25 1.938 3.188 0.313 0.063 0.688 0.063 1 0.063 0.813 0 1.563-0.125 2.313-0.188 0.75-0.125 1.5-0.25 2.375-0.25l0.5 0.188c0.938-2.125 1-5.375 1.063-8.438 0.063-2.875 0.125-5.813 1.375-8 1.375 6.375 3.25 12.563 5.75 18.875 0.813-0.125 1.813-0.438 2.688-0.688 0.688-0.188 1.25-0.438 1.75-0.438 0.25 0 0.438 0.125 0.625 0.25-1.5-4.063-2.438-8.625-3.313-13.125-1.188-5.813-2.438-11.688-4.5-16.25z"></path>
</svg>
