<?xml version="1.0" encoding="utf-8"?>
<!-- Generated by IcoMoon.io -->
<!DOCTYPE svg PUBLIC "-//W3C//DTD SVG 1.1//EN" "http://www.w3.org/Graphics/SVG/1.1/DTD/svg11.dtd">
<svg version="1.1" xmlns="http://www.w3.org/2000/svg" xmlns:xlink="http://www.w3.org/1999/xlink" width="32" height="32" viewBox="0 0 32 32">
<path d="M29.25 25.438c-0.188 0-0.375-0.063-0.563-0.188-0.5-0.313-0.625-1-0.313-1.5 1-1.438 1.5-3.188 1.5-4.938 0-1.813-0.5-3.5-1.5-4.938-0.313-0.5-0.188-1.188 0.313-1.5 0.438-0.313 1.125-0.188 1.438 0.313 1.25 1.813 1.875 3.938 1.875 6.125s-0.625 4.313-1.875 6.125c-0.188 0.313-0.5 0.5-0.875 0.5zM26.188 23.688c-0.188 0-0.375-0.063-0.563-0.188-0.5-0.313-0.625-1-0.313-1.438 0.688-1 1-2.125 1-3.25 0-1.188-0.313-2.25-1-3.25-0.313-0.5-0.188-1.125 0.313-1.438 0.5-0.375 1.125-0.25 1.438 0.25 0.938 1.313 1.375 2.875 1.375 4.438s-0.438 3.125-1.375 4.438c-0.188 0.313-0.5 0.438-0.875 0.438zM21.25 14.188c-0.438-4.25-4.063-7.625-8.438-7.625-3.625 0-6.813 2.313-8 5.75-2.688 0.375-4.813 2.75-4.813 5.563 0 3.125 2.563 5.688 5.688 5.688h14.5c2.625 0 4.75-2.125 4.75-4.75 0-2.25-1.563-4.188-3.688-4.625zM20.188 21.438h-14.5c-1.938 0-3.563-1.625-3.563-3.563s1.625-3.5 3.563-3.5c0.938 0 1.813 0.313 2.5 1 0.438 0.438 1.063 0.438 1.5 0 0.438-0.375 0.438-1.063 0-1.5-0.75-0.75-1.625-1.25-2.625-1.5 1-2.188 3.25-3.688 5.75-3.688 3.5 0 6.313 2.813 6.313 6.313 0 0.688-0.063 1.375-0.313 2-0.188 0.563 0.125 1.125 0.688 1.313 0.125 0.063 0.25 0.063 0.313 0.063 0.5 0 0.875-0.25 1.063-0.75 0.125-0.375 0.25-0.813 0.313-1.25 0.938 0.375 1.625 1.313 1.625 2.438 0 1.438-1.125 2.625-2.625 2.625z"></path>
</svg>
