<?xml version="1.0" encoding="utf-8"?>
<!-- Generated by IcoMoon.io -->
<!DOCTYPE svg PUBLIC "-//W3C//DTD SVG 1.1//EN" "http://www.w3.org/Graphics/SVG/1.1/DTD/svg11.dtd">
<svg version="1.1" xmlns="http://www.w3.org/2000/svg" xmlns:xlink="http://www.w3.org/1999/xlink" width="32" height="32" viewBox="0 0 32 32">
<path d="M31.938 18.5c-0.063-1.313-0.125-2.563-0.5-3.813-0.313-1.188-0.875-2.313-1.563-3.375-0.625-0.938-1.438-1.875-2.5-2.438-1-0.5-2.063-0.625-3.188-0.5-2.625 0.313-4.625 2.125-6.313 4.125-0.875 1-1.688 2.125-2.5 3.25-0.188 0.375-0.438 0.688-0.625 1.063-0.188 0.25-0.313 0.625-0.563 0.813-0.438 0.438-0.688-1.063-0.75-1.313-0.75-2.75-1.438-5.625-2.688-8.25-0.5-1.063-1.063-2.125-1.875-2.938-0.875-0.875-1.938-0.938-3.188-0.938-0.563 0.125-1.063 0.125-1.563 0.625-0.5 0.438-1 0.875-1.438 1.313s-0.813 1-1.375 1.313c-0.438 0.25-1 0.188-1.188 0.688-0.313 0.563 0.063 1.188 0.063 1.813 0 0.688 0.125 2.125 0.125 2.125s0 1.5 0 2.25c0 0.375 0 0.75 0 1.125 0 0.313 0 0.938 0 0.938v8.938c0 0-0.125 1.313 0.188 1.75 0.25 0.438 0.813 0.375 1.25 0.375 0.875 0.063 2 0.125 2.125-0.938 0.125-0.688 0.063-1.375 0.063-2.063 0-0.75 0-1.563 0-2.313 0-3-0.5-6.063 0.063-9.063 0.125-0.875 0.625-2.875 1.875-2.563 1.125 0.25 1.875 1.75 2.25 2.688 1.063 2.75 1.625 5.688 2.25 8.563 0.125 0.75 0.25 1.5 0.5 2.188 0.125 0.5 0.25 1.063 0.75 1.25 0.938 0.563 2.313-0.063 3.063-0.688 1.063-0.813 1.75-1.875 2.313-3.063 0.688-1.313 1.313-2.625 1.938-4 0.563-1.125 0.938-2.375 2-3.188 0.875-0.625 2.125-1.063 3.188-0.938 2.875 0.188 3.563 4.063 3.625 6.313 0.063 1.5-0.125 3-0.188 4.5-0.063 0.75-0.063 1.5-0.063 2.25 0 0.313-0.063 0.75 0.125 1.063 0.375 0.625 1.625 0.375 2.188 0.313 0.813-0.063 1.125-0.438 1.438-1.25 0.438-1.313 0.625-2.625 0.688-4.063 0.063-1.313 0.125-2.625 0-3.938z"></path>
</svg>
