<?xml version="1.0" encoding="utf-8"?>
<!-- Generated by IcoMoon.io -->
<!DOCTYPE svg PUBLIC "-//W3C//DTD SVG 1.1//EN" "http://www.w3.org/Graphics/SVG/1.1/DTD/svg11.dtd">
<svg version="1.1" xmlns="http://www.w3.org/2000/svg" xmlns:xlink="http://www.w3.org/1999/xlink" width="32" height="32" viewBox="0 0 32 32">
<path d="M31.938 21.938c0.125-0.375 0.063-0.813 0.063-1.25 0-0.375-0.063-0.75-0.125-1.125 0-0.063 0-0.063 0-0.125s0-0.188-0.063-0.25c0 0 0 0 0-0.063 0 0 0-0.063 0-0.125-0.125-0.5-0.25-0.938-0.375-1.375-0.125-0.25-0.188-0.563-0.375-0.813 0 0 0 0 0-0.063-0.063-0.125-0.125-0.313-0.25-0.438 0-0.063 0-0.063 0-0.063-0.063-0.125-0.125-0.25-0.25-0.375 0-0.063-0.063-0.125-0.125-0.188 0-0.063-0.063-0.125-0.125-0.188 0 0 0-0.063-0.063-0.063 0 0 0-0.063-0.063-0.063 0-0.063-0.063-0.125-0.125-0.125 0 0 0 0 0 0s0 0 0 0c0-0.063 0-0.063-0.063-0.063 0-0.063 0-0.125-0.063-0.125 0 0-0.063 0-0.063 0 0-0.125-0.063-0.125-0.125-0.188s-0.125-0.125-0.188-0.188c0.063-0.125 0-0.188-0.063-0.25-0.063-0.25-0.188-0.5-0.438-0.688 0-0.063 0-0.063-0.063-0.063-0.063-0.125-0.063-0.188-0.063-0.313-0.063-0.188 0-0.375-0.063-0.563 0 0 0-0.063 0-0.063 0-0.188 0-0.313-0.063-0.438 0-0.063 0-0.125 0-0.125 0-0.125 0-0.25-0.063-0.375 0 0 0-0.063-0.063-0.063 0.063-0.125 0-0.188-0.063-0.313 0 0 0 0 0-0.063 0 0 0-0.063 0-0.063-0.063-0.438-0.188-0.875-0.313-1.25-0.063-0.25-0.063-0.438-0.188-0.625 0 0 0 0-0.063-0.063-0.188-0.5-0.375-1-0.625-1.5-0.125-0.188-0.25-0.438-0.375-0.625 0-0.063-0.063-0.063-0.063-0.063 0-0.063 0-0.125-0.063-0.188 0 0 0 0-0.063 0 0-0.125-0.125-0.25-0.25-0.375 0 0 0-0.063 0-0.063s0-0.063-0.063-0.063c0 0 0 0-0.063 0 0-0.063 0-0.063-0.063-0.063 0-0.063-0.063-0.125-0.125-0.188 0 0 0-0.063-0.063-0.063 0 0 0 0 0 0-0.063-0.125-0.125-0.25-0.25-0.313 0 0-0.063-0.063-0.063-0.125s-0.063-0.063-0.125-0.063c0-0.063-0.063-0.125-0.063-0.125 0-0.063-0.063-0.063-0.063-0.063-0.063-0.063-0.063-0.063-0.063-0.063 0-0.063 0-0.063-0.063-0.063 0-0.125-0.063-0.125-0.125-0.125-0.063-0.125-0.188-0.25-0.313-0.313-0.063-0.063-0.125-0.125-0.188-0.188 0-0.063 0-0.063-0.063-0.063 0-0.063 0-0.063-0.063-0.063 0-0.063 0-0.063-0.063-0.063 0 0 0 0 0 0s0 0 0 0c-0.063-0.125-0.188-0.188-0.313-0.313 0 0 0-0.063-0.063-0.063 0-0.063-0.063-0.125-0.125-0.125-0.063-0.063-0.063-0.125-0.125-0.125 0-0.063-0.063-0.125-0.125-0.125-0.063-0.063-0.063-0.063-0.125-0.125 0 0 0-0.063-0.063-0.063 0.188-0.125 0.188-0.125 0.125-0.125 0-0.063-0.063-0.125-0.125-0.125 0 0-0.063 0-0.063-0.063s-0.063-0.063-0.063-0.063c0 0-0.063 0-0.063-0.063 0 0-0.063-0.063-0.063-0.063-0.063-0.063-0.125-0.125-0.188-0.125 0-0.063-0.063-0.125-0.125-0.125-0.125-0.063-0.188-0.125-0.313-0.25-0.063-0.063-0.125-0.125-0.25-0.125-0.063-0.063-0.125-0.063-0.188-0.125-0.188-0.125-0.438-0.25-0.688-0.313-0.063 0-0.063 0-0.063 0-0.125-0.063-0.25-0.063-0.375-0.063s-0.188 0-0.25 0-0.25 0-0.375 0.063c-0.063 0-0.063 0-0.063 0-0.313 0.063-0.563 0.125-0.813 0.313-0.063 0.125-0.063 0.125-0.125 0.188-0.063 0-0.188 0.063-0.25 0.188 0 0 0 0-0.063 0.063-0.063 0-0.125 0.063-0.125 0.125-0.063 0.063-0.125 0.125-0.125 0.125-0.063 0.063-0.125 0.063-0.125 0.125 0 0 0 0 0.063 0 0 0-0.063 0-0.063 0-0.063 0.063-0.063 0.063-0.063 0.063-0.063 0-0.063 0.063-0.125 0.125-0.313 0.438-0.5 1-0.5 1.563 0 0.688 0 1.438 0 2.125 0 0.813 0.063 1.625 0 2.438 0 0.688-0.313 1.25-0.938 1.563-0.313 0.125-0.563 0.063-0.813 0.063 0 0 0 0-0.063 0-0.188-0.063-0.5-0.125-0.688-0.313-0.125-0.063-0.25-0.188-0.375-0.313 0-0.063 0-0.063-0.063-0.063-0.375-0.438-0.5-1-0.5-1.625 0-1.563 0-3.063 0-4.625 0-0.375-0.063-0.75-0.188-1.063-0.563-1.375-2.188-2.125-3.563-1.563-1.75 0.688-3.313 1.75-4.563 3.188-2.313 2.5-3.5 5.5-3.625 8.938 0 0.438-0.063 0.813-0.375 1.188-0.125 0.125-0.25 0.25-0.313 0.438-1 1.688-1.438 3.5-1.5 5.438-0.063 0.688-0.063 1.375 0.063 2.063 0 0.188-0.063 0.25-0.188 0.375-0.688 0.688-0.938 1.5-0.5 2.438 0.188 0.438 0.5 0.813 0.875 1.125 0.375 0.25 0.75 0.5 1.125 0.688 0.125 0.063 0.25 0.188 0.313 0.25 0.438 0.625 0.875 1.125 1.5 1.5 0.375 0.313 0.813 0.5 1.25 0.5s0.938-0.063 1.375-0.125c0.063 0 0.125 0 0.188-0.063 0.125-0.063 0.125-0.25 0.125-0.313 0.063-0.125 0.063-0.188 0.25-0.125 0.25 0.063 0.5 0.063 0.75 0.125 0.188 0.063 0.313 0 0.375-0.063s0.188-0.063 0.25-0.063c0.875 0.188 1.75 0.313 2.625 0.375 1.063 0.125 2.125 0.188 3.188 0.25 1.625 0.063 3.25 0.063 4.875 0 0.063 0 0.125 0 0.188 0.063 0.063 0.188 0.25 0.25 0.438 0.188 0 0 0 0.063 0 0.063 0.063 0.063 0.063 0.063 0.125 0.063 0.063 0.063 0.125 0.125 0.188 0.125 0 0 0 0.063 0 0.063 0.125 0.063 0.25 0.125 0.438 0.188 0 0 0 0 0.063 0s0.063 0.063 0.188 0.063c0 0 0 0 0.063 0 0 0 0.063 0.063 0.063 0.063 0.438 0 0.875 0 1.313-0.063 0 0 0.063 0 0.125 0 0.188 0 0.5 0 0.688-0.063 0.063 0 0.063 0 0.125 0 0.375-0.063 0.75-0.188 1.063-0.438 0 0 0 0 0-0.063 0.813-0.688 1-2 0.375-2.813-0.063-0.063-0.063-0.125-0.063-0.125 0-0.063 0.063-0.063 0.125-0.063s0.125 0 0.25 0c0 0.063 0 0.063 0 0.125-0.125 0.125-0.063 0.188 0.063 0.313 0.125 0.188 0.375 0.313 0.563 0.438 0.5 0.25 0.938 0.25 1.438-0.125 0.25-0.188 0.375-0.438 0.563-0.688 0.375-0.438 0.625-0.938 0.813-1.5 0.438-1.188 0.563-2.438 0.563-3.688 0.063-0.75 0-1.5-0.063-2.313-0.125-0.875-0.25-1.75-0.5-2.625-0.125-0.5-0.313-1.063-0.563-1.563-0.188-0.5-0.438-0.938-0.75-1.375-0.063-0.063-0.063-0.063-0.063-0.125 0.063-0.063 0.125-0.063 0.188-0.063 0.313 0 0.563 0 0.875 0 0.125 0.063 0.188 0.125 0.313 0.188 0.063 0.125 0.25 0.188 0.313 0.313 0.5 0.563 0.938 1.25 1.188 2 0.563 1.375 0.813 2.813 0.938 4.313 0.063 1.125 0 2.25-0.25 3.375-0.063 0.313-0.188 0.625-0.438 0.875s-0.625 0.375-1 0.563c-0.063 0-0.188 0.063-0.188 0.125-0.125 0.25-0.188 0.438-0.25 0.625s-0.25 0.375-0.25 0.625c-0.063 0.063-0.063 0.063-0.063 0.125-0.125 0-0.125 0.125-0.188 0.188-0.125 0.125-0.188 0.188-0.188 0.375 0 0-0.063 0-0.063 0-0.125 0-0.125 0.063-0.188 0.125-0.125 0.125-0.25 0.25-0.375 0.375-0.375 0.375-0.938 0.438-1.438 0.313-0.063 0-0.125 0-0.125 0.063 0.375 0.125 0.75 0.125 1.188 0.063 0.5 0 1 0 1.5-0.25 0.688-0.313 1.25-0.813 1.75-1.375 0.063-0.125 0.188-0.188 0.188-0.313 0 0 0.063-0.063 0.063-0.063s0.063 0 0-0.063c0.063-0.063 0.188-0.188 0.25-0.313 0 0 0.063 0 0-0.063 0 0 0 0 0.063 0 0.063-0.063 0.063-0.063 0.063-0.125s0-0.063 0-0.063c0.063 0 0.063-0.063 0.063-0.063 0-0.063 0.063-0.125 0.063-0.188 0.063 0 0.063-0.063 0.063-0.063 0-0.063 0-0.063 0-0.125 0.063 0 0.063 0 0.063-0.063 0 0 0-0.063 0-0.125 0.063 0 0.063-0.063 0.063-0.125s0.063-0.063 0.063-0.063c0.063-0.063 0.063-0.188 0.063-0.313 0 0 0.063-0.063 0.063-0.063s0.063-0.063 0-0.063 0.063-0.125 0.063-0.125c0.063 0 0.063-0.063 0-0.125 0 0 0 0 0-0.063 0.125-0.188 0.188-0.375 0.188-0.625 0 0 0 0 0-0.063 0.063-0.063 0.063-0.125 0.063-0.25 0 0 0-0.063 0-0.063 0.063-0.063 0.125-0.188 0.063-0.25 0 0 0-0.063 0-0.125 0.063-0.063 0.063-0.25 0.063-0.375 0 0 0-0.063 0-0.063 0.125-0.188 0.125-0.313 0.063-0.438zM19.063 14c0.313-0.188 0.563-0.313 0.813-0.563 0.313-0.25 0.5-0.438 0.688-0.75 0.063 0 0.125-0.063 0.188-0.125 0.813-1.063 1.188-2.313 1.25-3.625 0-0.063 0-0.125 0-0.125-0.125-0.125-0.063-0.313-0.063-0.438 0-0.5 0-1 0-1.438 0-0.063 0-0.125-0.063-0.188 0-0.063 0-0.125 0-0.125 0.063-0.063 0.063-0.063 0.125 0 0.063 0 0.063 0.125 0.125 0.125 0 0.063 0.063 0.063 0.063 0.063 0.125 0.125 0.188 0.25 0.313 0.313 0.125 0.188 0.25 0.25 0.375 0.375 0.125 0.188 0.188 0.313 0.313 0.438 0.688 1 1.25 2.063 1.625 3.25 0.125 0.375 0.25 0.75 0.25 1.125 0.063 0.375 0 0.688 0 1.063 0 0.063 0 0.125-0.125 0.188-0.25 0.188-0.438 0.375-0.625 0.625 0 0.063 0 0.063 0 0.063 0 0.125 0 0.125-0.063 0.125-0.938 0-1.875 0-2.75 0-0.375 0-0.688 0-1 0.063 0 0 0 0-0.063 0 0 0 0 0-0.063 0-0.75 0.063-1.5 0.063-2.25 0.125-0.063 0-0.188 0.063-0.25 0.063-0.188 0.125-0.188 0.125-0.313-0.125 0.438-0.063 1-0.25 1.5-0.5zM4.75 10.813c0.063-0.188 0.063-0.313 0.125-0.5 0 0 0 0 0-0.063 0.125-0.313 0.25-0.688 0.313-1.063 0 0 0 0 0 0 0.188-0.25 0.25-0.438 0.313-0.688 0 0 0 0 0.063-0.063s0.063-0.125 0.125-0.188c0-0.063 0-0.063 0-0.063 0.063 0 0.063-0.063 0.063-0.125 0 0 0 0 0-0.063 0.063-0.063 0.063-0.125 0.125-0.188 0 0 0 0 0-0.063 0.063 0 0.063 0 0.063-0.063 0 0 0 0 0-0.063 0.063 0 0.063 0 0.063-0.063 0 0 0 0 0.063-0.063 0.063 0 0.063-0.063 0.125-0.188 0 0 0-0.063 0.063-0.125 0 0 0.063 0 0.063-0.063s0.063-0.125 0.063-0.125c0 0 0.063-0.063 0.063-0.125 0 0 0 0 0 0 0.063-0.063 0.063-0.125 0.063-0.188 0.063-0.063 0.063-0.125 0.125-0.188 0 0 0.063 0 0.063-0.063s0.063-0.063 0.063-0.063c0 0 0.063-0.063 0.063-0.063 0-0.063 0.063-0.125 0.125-0.188 0.063 0 0.063-0.063 0.063-0.125 0 0 0.063 0 0.063 0 0-0.063 0.063-0.063 0.063-0.125 0.063-0.063 0.063-0.063 0.063-0.063 0.063 0 0.063-0.063 0.063-0.063 0.063-0.063 0.063-0.125 0.125-0.125 0.063-0.063 0.063-0.063 0.063-0.125 0.063-0.063 0.063-0.063 0.063-0.063 0.063 0 0.063-0.063 0.063-0.063 0.063 0 0.063-0.063 0.063-0.125 0.063 0 0.125-0.063 0.125-0.125 0.25-0.188 0.5-0.438 0.688-0.625 0.063-0.063 0.125-0.063 0.125-0.125 0.063 0 0.063-0.063 0.063-0.063 0.063 0 0.063-0.063 0.063-0.063 0-0.063 0.063-0.063 0.063-0.125-0.125 0.188-0.125 0.25-0.125 0.313 0.125-0.063 0.188-0.125 0.25-0.188 0.125-0.125 0.313-0.25 0.5-0.375 0 0 0.063-0.063 0.063-0.063 0.125-0.063 0.188-0.125 0.25-0.188 0.063 0 0.063 0 0.125-0.063 0 0 0 0 0 0 0.063 0 0.063-0.063 0.125-0.063 0 0 0 0 0 0 0.063 0 0.063-0.063 0.125-0.063 0 0 0 0 0 0 0.063 0 0.125-0.063 0.188-0.125 0 0 0 0 0 0 0.063 0 0.063 0 0.125-0.063 0 0 0 0 0 0 0.063 0 0.063 0 0.125-0.063 0 0 0 0 0 0 0.063 0 0.063 0 0.125-0.063 0 0 0.063 0 0.125-0.063 0.125 0 0.25-0.063 0.313-0.188 0 0 0.063 0 0.063 0 0.063 0 0.063 0 0.125-0.063 0 0 0 0 0 0 0.25-0.063 0.5-0.188 0.75-0.313 1.063-0.5 2.125 0.313 2.125 1.313 0 1.438 0 2.938 0 4.313 0 0.125 0 0.188-0.125 0.188-0.25-0.063-0.438-0.063-0.625-0.063-0.125 0-0.188 0-0.188-0.125 0-0.063 0-0.188-0.063-0.313 0-1.313 0-2.625 0-3.938 0-0.063 0-0.125-0.063-0.188 0.063-0.063 0-0.063-0.063-0.125 0 0-0.063-0.063-0.063-0.063-0.125-0.125-0.25-0.125-0.375-0.063-0.125 0-0.25 0.063-0.375 0.125-0.375 0.188-0.75 0.313-1 0.563 0 0-0.063 0-0.063 0-0.125 0.063-0.25 0.125-0.375 0.25-0.063 0-0.125 0.063-0.125 0.063s0 0.063-0.063 0.063-0.125 0.125-0.188 0.188c0.063-0.063 0.125-0.125 0.188-0.188-0.188 0.063-0.313 0.188-0.438 0.313 0 0 0 0-0.063 0s-0.063 0.063-0.125 0.125c0 0 0 0 0 0-0.063 0-0.125 0.063-0.125 0.125 0 0-0.063 0-0.063 0.063 0 0 0 0-0.063 0s-0.063 0.063-0.125 0.125-0.188 0.188-0.25 0.25c-0.063 0.063-0.125 0.125-0.188 0.188 0 0-0.063 0-0.063 0.063 0 0 0 0-0.063 0.063-0.063 0-0.063 0-0.063 0.063-0.063 0-0.125 0.063-0.125 0.125-0.063 0.063-0.125 0.125-0.188 0.188s-0.063 0.063-0.063 0.125-0.063 0.063-0.063 0.063c0 0-0.063 0.063-0.063 0.063s-0.063 0.063-0.063 0.063c0 0-0.063 0.063-0.063 0.063s0 0 0 0.063c-0.063 0-0.125 0.125-0.125 0.25-0.063 0-0.063 0.063-0.063 0.063-0.063 0-0.063 0.063-0.063 0.063 0 0.063-0.063 0.063-0.063 0.063-0.125 0.125-0.25 0.313-0.375 0.5 0 0 0 0 0 0-0.063 0.125-0.188 0.25-0.188 0.375 0 0 0 0 0 0-0.125 0.125-0.188 0.25-0.188 0.375-0.063 0-0.063 0.063-0.063 0.125-0.063 0-0.063 0-0.063 0.063s0 0.063-0.063 0.063c0 0 0 0.063-0.063 0.063-0.375 0.688-0.625 1.375-0.813 2.125-0.063 0.125-0.125 0.188-0.25 0.125-0.25-0.063-0.5-0.063-0.75 0-0.125 0.063-0.125 0-0.125-0.063-0.313 0-0.313 0-0.313 0zM4.563 12.063c0-0.438 0.313-0.75 0.688-0.75 0.438 0 0.813 0.313 0.813 0.75 0 0.375-0.375 0.625-0.75 0.688-0.438 0-0.75-0.313-0.75-0.688zM7.438 27.688c-0.188 0-0.375-0.125-0.563-0.188 0 0-0.063 0-0.063-0.063 0 0 0.063 0 0.063 0 0.188 0 0.375-0.063 0.563 0 0.063 0.063 0.188 0.063 0.188 0.125 0 0.125-0.125 0.063-0.188 0.125zM11.5 28.188c-0.188 0-0.438 0-0.688 0-0.75 0-1.625-0.125-2.375-0.25-0.125-0.063-0.25-0.063-0.375-0.125 0-0.063-0.125-0.063-0.063-0.125 0-0.063 0.063-0.063 0.125-0.063s0.125-0.063 0.25-0.063c1 0.125 2 0.25 3.063 0.438 0 0 0.063 0 0.063 0.063 0.063 0 0.125 0 0.063 0.063 0 0.063 0 0.063-0.063 0.063zM13.375 27.25c-0.438 0-0.75 0-1.125 0.063-0.5 0-0.938-0.063-1.375-0.125-0.5 0-0.938-0.063-1.375-0.125-0.188-0.063-0.375-0.063-0.5-0.063-0.188 0-0.25-0.188-0.313-0.25-0.25-0.063-0.5-0.125-0.813-0.188 0.313 0.063 0.563 0.125 0.813 0.188 0.125-0.063 0.063-0.125 0.063-0.188-0.125-0.25 0-0.563 0-0.813 0-0.375 0-0.875-0.063-1.25-0.063-0.188-0.125-0.375-0.125-0.625 0-0.875 0.063-1.688 0-2.563 0-0.188 0-0.375 0-0.563-0.063-0.438-0.063-0.813-0.063-1.25 0-0.063 0-0.125 0-0.188-0.063-0.5-0.125-1.063-0.188-1.625 0-0.375-0.063-0.75-0.063-1.063-0.063-0.313-0.125-0.563-0.188-0.875-0.063-0.25-0.125-0.438-0.125-0.688 0.125-0.125 0.25-0.188 0.438-0.188 1.688 0 3.375 0 5.125 0 0.375 0 0.563 0.188 0.563 0.563 0 0.688 0 1.25 0 1.938 0 0.75 0 1.563 0 2.313 0 0.438-0.188 0.688-0.563 0.688-0.063 0-0.125 0.063-0.125 0.125s0 0.125 0 0.125c0 0.125 0 0.25 0.063 0.313 0 0.125 0.188 0.063 0.25 0.063 0.188 0.063 0.375 0.25 0.375 0.563s0 0.688 0 1c0 1.313 0 2.625 0 3.938-0.063 0.438-0.313 0.75-0.688 0.75zM14.5 14.438c-0.125-0.063-0.313 0-0.438 0.063-0.063 0-0.063 0-0.063 0-0.063-0.063-0.125-0.063-0.188-0.063-0.25-0.125-0.563-0.125-0.813-0.063-0.438 0-0.938 0-1.438 0 0-0.063-0.063-0.063-0.063-0.063-1.125 0-2.188 0-3.25 0-0.188 0-0.375 0-0.5 0.063 0 0 0 0-0.063 0-0.188 0-0.313 0.125-0.5 0.125-0.063 0-0.188 0-0.188-0.063 0 0 0-0.063 0-0.125 0 0.063 0 0.063 0 0.063-0.063 0.25 0 0.5 0 0.75 0.063 0.688 0.125 1.375 0.125 2.063 0 0.188 0 0.375 0.063 0.563 0 0.063 0 0.125 0 0.188s0 0.063 0 0.125c0 0.188 0 0.375 0.063 0.5-0.063 0.063-0.063 0.125-0.063 0.188 0.063 0.75 0.063 1.5 0.063 2.25 0 1.125 0 2.25-0.188 3.375 0 0.188-0.063 0.25-0.25 0.25-0.313 0-0.563-0.063-0.813 0s-0.375 0-0.563-0.188c-0.125-0.125-0.063-0.25-0.125-0.375 0-0.813 0-1.563-0.063-2.313 0.063-0.188 0.063-0.438 0-0.688 0-0.125 0-0.25 0-0.375 0.063 0 0.063-0.063 0-0.063 0-0.063 0-0.125 0-0.125 0.125-0.125 0.063-0.25 0-0.375 0-0.375 0.063-0.75 0-1.125 0-0.25 0-0.563 0-0.813s0-0.563-0.063-0.813c0-0.5 0-0.938 0-1.438 0-0.313 0-0.625-0.063-1 0-0.438 0-0.813-0.063-1.188 0-0.188 0.188-0.313 0.375-0.313s0.313 0 0.5 0c0.188 0 0.313 0 0.5 0 0.125 0 0.188-0.125 0.25-0.25 0-0.063-0.125-0.063-0.188-0.125 0 0-0.063 0-0.063 0 0-0.125 0-0.188 0-0.313 0.063-0.125 0.063-0.313 0-0.438 0.125-0.063 0.313 0 0.375-0.063 0.125 0 0.063-0.063 0.125-0.125 0.125-0.5 0.188-0.938 0.375-1.375 0.375-1.063 0.875-2.063 1.563-2.938 0.125-0.188 0.25-0.313 0.375-0.5 0 0 0.063-0.063 0.063-0.063s0.063 0 0.063-0.063c0 0 0.063 0 0.063-0.063 0 0 0-0.063 0-0.063s0 0.063 0 0.063c0.25-0.25 0.563-0.563 0.875-0.875 0.063 0 0.063-0.063 0.125-0.063 0.313-0.313 0.688-0.5 1-0.75 0.125-0.063 0.188-0.063 0.188 0.063 0 0.938 0 1.875 0 2.813 0 0.125-0.063 0.188-0.125 0.25-0.188 0.063-0.313 0.188-0.313 0.375 0.063 0.75 0.188 1.438 0.438 2.125 0.125 0.375 0.313 0.75 0.563 1.063 0.188 0.313 0.313 0.563 0.563 0.75 0.125 0.188 0.25 0.313 0.438 0.438 0.063 0.125 0.25 0.25 0.375 0.313 0.188 0.188 0.438 0.313 0.688 0.438 0.188 0.125 0.375 0.188 0.625 0.313-0.125 0.063-0.25 0-0.25 0.063-0.063 0-0.125 0-0.125 0zM14.813 27.813c0.75 0 1.563 0 2.313 0-0.75 0.063-1.563 0.063-2.313 0zM19.625 29.938c-0.063 0-0.063 0-0.125-0.063 0-0.063 0.063-0.063 0.063-0.063 0.063 0 0.125 0 0.125 0.063s-0.063 0.063-0.063 0.063zM20.063 28.938c-0.125 0.063-0.188 0.063-0.188-0.063 0-0.313-0.125-0.688-0.125-1 0-0.188-0.188-0.375-0.313-0.438-0.063 0-0.125 0.063-0.125-0.063 0-0.063 0.063-0.125 0.125-0.125 0.25-0.125 0.625 0.063 0.688 0.313 0.125 0.313 0.188 0.625 0.188 1-0.063 0.125-0.063 0.313-0.25 0.375zM21.25 27.5c0.125 0.063-0.063 0.125-0.063 0.25 0 0.063-0.063-0.063-0.125-0.063-0.125 0.063-0.188-0.125-0.375-0.125 0 0 0-0.063 0-0.063 0-0.063 0.063-0.063 0.063-0.125 0-0.125 0.063-0.125 0.125-0.125 0.063-0.063 0.125-0.125 0.25-0.125 0 0 0.063 0 0.063 0.063 0.063 0.125 0.063 0.125 0.188 0.125-0.125 0.063-0.188 0.063-0.125 0.188zM26.5 18.563c-0.063 0-0.063 0.063-0.063 0.125-0.063 0.063-0.125 0.125-0.188 0.125 0 0-0.063 0-0.063 0.063-0.188 0-0.438 0-0.625 0-0.313 0-0.563 0-0.813 0 0 0 0 0-0.063 0 0 0 0-0.063-0.063 0-0.063-0.063-0.125-0.125-0.188-0.25 0-0.188 0-0.375 0-0.563 0-0.5 0.063-0.438-0.5-0.375-0.125 0-0.125 0.063-0.125 0.125 0 0.5 0 1.063 0 1.563 0 0.125 0.063 0.188 0.25 0.188 0.563-0.063 1.188 0 1.813-0.063 0.313 0 0.5 0.25 0.5 0.563 0 0.563 0 1.188 0 1.813 0 0.125-0.063 0.188-0.188 0.188-0.063 0.063-0.188 0.063-0.313 0.063-0.313 0.063-0.688 0-1.063 0.063-0.188 0-0.375 0-0.563 0-0.125 0-0.188 0-0.313 0s-0.125 0.063-0.125 0.188c0 0.625 0 1.188 0 1.813 0 0 0 0.063 0.063 0.063 0 0 0 0 0.063 0 0.125 0.063 0.188 0 0.25 0 0.188 0 0.188-0.063 0.188-0.188 0-0.188 0-0.438 0-0.625 0-0.313 0.063-0.5 0.375-0.625 0.25 0 0.5-0.063 0.813-0.063 0.063 0.063 0.188 0.063 0.313 0 0.063 0 0.125 0 0.188 0 0.063 0.063 0.063 0.063 0.063 0 0.188 0.063 0.25 0.188 0.313 0.313 0 0-0.063 0.063-0.063 0.125 0 0.938 0 1.813 0 2.75 0 0.25-0.063 0.438-0.188 0.625-0.125 0.063-0.25 0.063-0.375 0.063-0.25 0-0.5 0-0.75 0.063-0.063 0-0.188 0-0.25 0.063-0.125 0-0.313-0.063-0.438 0-0.063 0-0.063 0-0.125 0-0.125-0.125-0.188-0.188-0.313-0.25s-0.688-0.25-1.625-0.313c-0.25 0-0.438 0.063-0.688 0.063-0.5 0.063-0.938 0.125-1.5 0.313 0 0.063-0.063 0.063-0.188 0.188-0.25 0.125-0.438 0.25-0.688 0.25-0.563 0-1.125 0.063-1.625 0.063-0.125 0-0.25 0-0.375 0.063-0.125 0-0.313 0-0.438 0-0.063 0-0.188 0-0.25 0-0.438 0.063-1 0.063-1.438 0.063-0.313 0-0.5-0.125-0.5-0.438 0-0.25 0-0.5 0-0.75 0-3.5 0-6.938 0-10.438 0-0.375 0.188-0.563 0.563-0.563 0.5 0 1.063 0 1.625 0 0.438 0 0.625 0.188 0.625 0.625 0 2.75 0 5.563 0 8.313 0 0.438 0 0.438 0.438 0.438 0.125 0 0.188-0.063 0.188-0.188 0-0.563 0-1.063 0-1.563 0-0.438 0.188-0.688 0.688-0.688 0.188 0 0.375 0.063 0.563 0 0.063 0 0.125 0 0.188 0 0.125 0 0.25 0 0.375 0 0.438 0 0.625 0.125 0.625 0.563 0 1.125-0.063 2.25 0 3.313 0 0.125 0 0.188 0 0.25 0.188-0.063 0.375-0.063 0.563-0.125 0-0.563 0-1.125 0-1.625 0-2 0-3.875 0-5.875 0-0.563 0-1.188 0-1.813 0-0.063 0-0.125 0-0.188 0.063-0.313 0-0.688 0-1s0.25-0.5 0.563-0.5c0.25 0 0.563 0 0.813 0 0.5 0 1 0 1.5 0 0.75 0 1.5 0 2.25 0 0.063 0 0.125 0.063 0.125 0.063 0.063 0 0.125 0.063 0.125 0.125 0.063 0.188 0.063 0.375 0.063 0.563-0.063 0.375-0.125 0.75-0.063 1.125 0 0.625 0.063 1.125 0.063 1.688 0 0.063 0 0.063 0 0.063zM26.813 10.063c-0.313-0.875-0.688-1.625-1.188-2.375-0.063-0.063-0.063-0.125-0.188-0.188 0 0.125 0 0.25 0.063 0.375 0 0 0 0.063-0.063 0.125 0 0.063-0.063-0.063-0.063-0.063-0.063-0.063-0.063-0.063-0.125-0.063 0 0 0-0.063 0-0.063 0-0.063 0-0.063-0.063-0.063-0.063-0.063-0.063-0.125-0.125-0.188 0-0.063 0-0.063-0.063-0.063-0.063-0.063-0.063-0.125-0.125-0.188 0-0.063-0.063-0.063-0.125-0.125 0 0 0 0 0-0.063s0-0.063-0.063-0.063c-0.063-0.125-0.188-0.188-0.25-0.25 0-0.063 0-0.063-0.063-0.063-0.125-0.188-0.188-0.25-0.313-0.375 0-0.125-0.125-0.125-0.188-0.125 0-0.063 0-0.063-0.063-0.063 0-0.063 0-0.063-0.063-0.063 0-0.063 0-0.063-0.063-0.063-0.125-0.125-0.25-0.25-0.375-0.375 0-0.063-0.063-0.063-0.063-0.063-0.125-0.125-0.188-0.188-0.313-0.25 0-0.125 0-0.125-0.063-0.125-0.25-0.188-0.438-0.313-0.688-0.438 0-0.063 0-0.063-0.063-0.063 0 0 0-0.063-0.063-0.063-0.125-0.063-0.188-0.188-0.313-0.125s-0.063 0.188-0.063 0.313c0 1 0 1.938 0 2.875 0 0.125 0 0.313 0 0.438-0.063 0-0.063 0.063-0.063 0-0.188-0.063-0.25-0.063-0.25 0.188 0 0.125-0.063 0.188-0.188 0.125-0.25 0-0.5 0-0.75 0-0.063 0-0.125-0.063-0.125-0.125-0.125-0.25-0.125-0.5-0.125-0.688-0.063-0.938-0.063-1.875-0.063-2.813 0.063-0.375 0.063-0.688 0.188-1.063 0.25-0.5 0.813-0.875 1.375-0.875 0.25 0 0.5 0.125 0.75 0.25 0.938 0.563 1.75 1.25 2.438 2 1.375 1.5 2.375 3.188 2.938 5.063 0.125 0.313 0.25 0.688 0.313 1 0 0.125 0 0.188-0.188 0.125-0.125-0.063-0.313-0.063-0.438 0-0.188 0-0.25-0.063-0.313-0.188-0.125-0.375-0.25-0.75-0.375-1.125zM28.125 12.625c-0.25 0.25-0.438 0.25-0.688 0 0 0-0.063 0-0.063 0-0.125-0.125-0.25-0.313-0.125-0.5 0.063-0.25 0.25-0.375 0.5-0.375 0.188 0 0.438 0.188 0.5 0.375 0.063 0.063 0.063 0.188 0.063 0.25 0 0.125-0.125 0.188-0.188 0.25zM10.938 22.75c-0.125 0-0.125 0-0.125 0.125 0 0.25 0 0.563 0 0.813 0 0.188 0 0.438 0 0.625 0 0.438 0 0.438 0.438 0.375 0.125 0 0.188-0.063 0.125-0.188 0-0.438 0-0.875 0-1.375 0-0.438 0-0.438-0.438-0.375zM11.063 17.563c-0.063 0-0.125 0-0.125 0.125 0 0.313 0 0.563 0 0.813s0 0.438 0 0.625c0 0.438 0 0.438 0.438 0.438 0.125 0 0.188-0.063 0.188-0.188 0-0.438 0-0.938 0-1.375 0-0.5 0-0.5-0.5-0.438z"></path>
</svg>
