<?xml version="1.0" encoding="utf-8"?>
<!-- Generated by IcoMoon.io -->
<!DOCTYPE svg PUBLIC "-//W3C//DTD SVG 1.1//EN" "http://www.w3.org/Graphics/SVG/1.1/DTD/svg11.dtd">
<svg version="1.1" xmlns="http://www.w3.org/2000/svg" xmlns:xlink="http://www.w3.org/1999/xlink" width="32" height="32" viewBox="0 0 32 32">
<path d="M26.438 17.438c3.063 0 5.563 2.438 5.563 5.563 0 1 0 2.813 0 2.813h-11.188c0 0 0-1.813 0-2.813 0-3.125 2.5-5.563 5.625-5.563zM21.313 11.313c0-2.813 2.25-5.125 5.125-5.125 2.813 0 5.125 2.313 5.125 5.125 0 2.875-2.313 5.125-5.125 5.125-2.875 0-5.125-2.25-5.125-5.125zM14.875 18.313c2.75 0 5 2.25 5 5 0 0.875 0 2.5 0 2.5h-9.938c0 0 0-1.625 0-2.5 0-2.75 2.188-5 4.938-5zM10.313 12.75c0-2.563 2.063-4.625 4.563-4.625 2.563 0 4.625 2.063 4.625 4.625 0 2.5-2.063 4.563-4.625 4.563s-4.563-2.063-4.563-4.563zM4.438 19.063c2.5 0 4.5 2 4.5 4.5 0 0.813 0 2.25 0 2.25h-8.938c0 0 0-1.438 0-2.25 0-2.5 2-4.5 4.438-4.5zM0.313 14.063c0-2.313 1.875-4.125 4.125-4.125 2.313 0 4.125 1.813 4.125 4.125 0 2.25-1.813 4.125-4.125 4.125-2.25 0-4.125-1.875-4.125-4.125z"></path>
</svg>
