<?xml version="1.0" encoding="utf-8"?>
<!-- Generated by IcoMoon.io -->
<!DOCTYPE svg PUBLIC "-//W3C//DTD SVG 1.1//EN" "http://www.w3.org/Graphics/SVG/1.1/DTD/svg11.dtd">
<svg version="1.1" xmlns="http://www.w3.org/2000/svg" xmlns:xlink="http://www.w3.org/1999/xlink" width="32" height="32" viewBox="0 0 32 32">
<path d="M17.125 27.375l2.75-2c0-0.125 0-0.188 0-0.25 0-1.25 1-2.313 2.25-2.313s2.313 1.063 2.313 2.313c0 1.25-1.063 2.25-2.313 2.25-0.438 0-0.875-0.125-1.188-0.375l-3.813 2.75v2.25h-2.25v-6.75l-3.875-2.813c-0.375 0.188-0.75 0.313-1.125 0.313-1.25 0-2.313-1.063-2.313-2.313s1.063-2.25 2.313-2.25c1.25 0 2.25 1 2.25 2.25 0 0.125 0 0.25-0.063 0.375l2.813 2.063v-6.75l-3.875-2.813c-0.375 0.188-0.75 0.313-1.125 0.313-1.25 0-2.313-1.063-2.313-2.313s1.063-2.25 2.313-2.25c1.25 0 2.25 1 2.25 2.25 0 0.125 0 0.313-0.063 0.438l2.813 2v-6.313l-3.938-2.875c-0.313 0.188-0.688 0.313-1.063 0.313-1.25 0-2.313-1-2.313-2.25s1.063-2.313 2.313-2.313c1.25 0 2.25 1.063 2.25 2.313 0 0.125 0 0.25-0.063 0.375l2.813 2.063v-5.063h2.25v9.563l2.75-2c0-0.125 0-0.25 0-0.313 0-1.25 1-2.313 2.25-2.313s2.313 1.063 2.313 2.313c0 1.25-1.063 2.25-2.313 2.25-0.438 0-0.813-0.125-1.188-0.313l-3.813 2.75v6.313l2.75-2c0-0.125 0-0.188 0-0.25 0-1.313 1-2.313 2.25-2.313s2.313 1 2.313 2.313c0 1.25-1.063 2.25-2.313 2.25-0.438 0-0.813-0.125-1.188-0.375l-3.813 2.813v6.688z"></path>
</svg>
