<?xml version="1.0" encoding="utf-8"?>
<!-- Generated by IcoMoon.io -->
<!DOCTYPE svg PUBLIC "-//W3C//DTD SVG 1.1//EN" "http://www.w3.org/Graphics/SVG/1.1/DTD/svg11.dtd">
<svg version="1.1" xmlns="http://www.w3.org/2000/svg" xmlns:xlink="http://www.w3.org/1999/xlink" width="32" height="32" viewBox="0 0 32 32">
<path d="M16 16.188c4.5 0 8.125-3.625 8.125-8.063 0-4.5-3.625-8.125-8.125-8.125s-8.125 3.625-8.125 8.125c0 4.438 3.625 8.063 8.125 8.063zM16 4.125c2.188 0 4 1.75 4 4 0 2.188-1.813 3.938-4 3.938s-4-1.75-4-3.938c0-2.25 1.813-4 4-4zM25.313 17.188c-0.438-0.938-1.688-1.688-3.375-0.375-2.313 1.813-5.938 1.813-5.938 1.813s-3.625 0-5.938-1.813c-1.688-1.313-2.938-0.563-3.375 0.375-0.813 1.625 0.063 2.375 2.125 3.688 1.75 1.125 4.125 1.5 5.625 1.688l-1.25 1.313c-1.813 1.75-3.563 3.5-4.813 4.75-0.688 0.688-0.688 1.875 0 2.625l0.25 0.188c0.75 0.75 1.875 0.75 2.625 0l4.75-4.75c1.813 1.813 3.563 3.563 4.813 4.75 0.688 0.75 1.875 0.75 2.625 0l0.188-0.188c0.75-0.75 0.75-1.938 0-2.625l-6.063-6.063c1.563-0.188 3.938-0.563 5.625-1.688 2.063-1.313 2.938-2.063 2.125-3.688z"></path>
</svg>
