<?xml version="1.0" encoding="utf-8"?>
<!-- Generated by IcoMoon.io -->
<!DOCTYPE svg PUBLIC "-//W3C//DTD SVG 1.1//EN" "http://www.w3.org/Graphics/SVG/1.1/DTD/svg11.dtd">
<svg version="1.1" xmlns="http://www.w3.org/2000/svg" xmlns:xlink="http://www.w3.org/1999/xlink" width="32" height="32" viewBox="0 0 32 32">
<path d="M20 6.813v6.25l2.188 1.375c0.063 0 0.188 0 0.25 0l9.375-6.375c0-0.75-0.688-1.25-1.063-1.25zM20 15.375l2 1.375c0.25 0.188 0.625 0 0.625 0-0.375 0.188 9.188-6.125 9.188-6.125v11.5c0 1.25-0.813 1.75-1.688 1.75h-10.125v-8.5zM9.625 12.5c-0.688 0-1.188 0.313-1.625 0.938-0.375 0.625-0.563 1.5-0.563 2.563s0.188 1.875 0.563 2.5c0.438 0.625 0.938 0.938 1.625 0.938 0.625 0 1.188-0.313 1.563-0.875 0.375-0.625 0.563-1.438 0.563-2.563 0-1.063-0.188-1.938-0.563-2.563s-0.875-0.938-1.563-0.938zM0.188 3.625v24.5l18.625 3.875v-32zM12.625 20c-0.75 1-1.813 1.563-3.063 1.563s-2.25-0.5-3-1.5c-0.813-1-1.188-2.313-1.188-3.938 0-1.688 0.375-3.063 1.188-4.125s1.813-1.625 3.125-1.625c1.25 0 2.25 0.5 3 1.563 0.75 1 1.125 2.313 1.125 3.938 0 1.688-0.375 3.063-1.188 4.125z"></path>
</svg>
