<?xml version="1.0" encoding="utf-8"?>
<!-- Generated by IcoMoon.io -->
<!DOCTYPE svg PUBLIC "-//W3C//DTD SVG 1.1//EN" "http://www.w3.org/Graphics/SVG/1.1/DTD/svg11.dtd">
<svg version="1.1" xmlns="http://www.w3.org/2000/svg" xmlns:xlink="http://www.w3.org/1999/xlink" width="32" height="32" viewBox="0 0 32 32">
<path d="M12 22.125c-0.063 0.125-0.063 0.188-0.063 0.313 0 1.625 0 3.188 0 4.813 0 0.25 0.063 0.313 0.313 0.375 4.5 1.375 8.563 0.5 12.063-2.625 2.188-1.938 3.438-4.438 3.875-7.313 0.813-6.063-2.875-11.75-8.75-13.438-6.813-1.938-13.75 2.125-15.313 8.938-0.25 0.875-0.313 1.813-0.313 2.688-0.063 5.25-0.063 10.5-0.063 15.688 0 0.438 0 0.438-0.375 0.438-1 0-2.063 0-3.063 0-0.25 0-0.313-0.063-0.313-0.313 0-5.375-0.063-10.813 0-16.188 0.063-2.875 0.875-5.5 2.438-7.938 2.5-3.938 6.063-6.375 10.625-7.313 1.375-0.25 2.813-0.313 4.188-0.188 3.563 0.25 6.75 1.625 9.438 4 2.25 2 3.813 4.5 4.688 7.375 0.313 1.063 0.5 2.125 0.563 3.188 0.188 2.25 0 4.375-0.75 6.5-1.688 4.75-4.875 8-9.563 9.875-1.813 0.688-3.75 1-5.688 1-2.313 0-4.563 0-6.813 0-0.438 0-0.438 0-0.438-0.438 0-5.25 0-10.5 0-15.75 0.063-3.375 2.625-6.438 6-7 4-0.688 7.625 1.75 8.5 5.688 0.875 4-1.875 8.063-5.875 8.688-1.813 0.313-3.5 0-5.063-0.938-0.063-0.063-0.188-0.063-0.25-0.125z"></path>
</svg>
