<?xml version="1.0" encoding="utf-8"?>
<!-- Generated by IcoMoon.io -->
<!DOCTYPE svg PUBLIC "-//W3C//DTD SVG 1.1//EN" "http://www.w3.org/Graphics/SVG/1.1/DTD/svg11.dtd">
<svg version="1.1" xmlns="http://www.w3.org/2000/svg" xmlns:xlink="http://www.w3.org/1999/xlink" width="32" height="32" viewBox="0 0 32 32">
<path d="M19.875 0h-11.563c-0.75 0-1.438 0.563-1.563 1.375l-4.625 29.5c-0.125 0.625 0.313 1.125 0.938 1.125h5.5c0.75 0 1.438-0.563 1.563-1.375l1.25-7.938c0.125-0.813 0.813-1.375 1.563-1.375h3.688c7.563 0 11.938-3.625 13.125-10.938 0.5-3.188 0-5.688-1.5-7.438-1.625-1.938-4.563-2.938-8.375-2.938zM21.188 10.813c-0.625 4.125-3.813 4.125-6.875 4.125h-1.688l1.188-7.75c0.063-0.438 0.5-0.813 0.938-0.813h0.813c2.063 0 4.063 0 5.063 1.188 0.625 0.75 0.813 1.75 0.563 3.25z"></path>
</svg>
