<?xml version="1.0" encoding="utf-8"?>
<!-- Generated by IcoMoon.io -->
<!DOCTYPE svg PUBLIC "-//W3C//DTD SVG 1.1//EN" "http://www.w3.org/Graphics/SVG/1.1/DTD/svg11.dtd">
<svg version="1.1" xmlns="http://www.w3.org/2000/svg" xmlns:xlink="http://www.w3.org/1999/xlink" width="32" height="32" viewBox="0 0 32 32">
<path d="M25.125 4c-2.438-2.563-5.625-4-8.938-4-7.188 0-13 6-13 13.375 0 4.75 3.563 10 5.125 12.063 2.313 3.063 5.75 6.563 7.875 6.563 2.563 0 7.063-5.875 7.5-6.563 1.563-2.063 5.125-7.375 5.125-12.063 0-3.5-1.313-6.875-3.688-9.375zM16.188 30.875c-2.688 0-11.875-10.438-11.875-17.5 0-6.688 5.25-12.25 11.875-12.25 6.25 0 11.5 5.563 11.5 12.25 0 7.063-9.188 17.5-11.5 17.5zM16.188 5.688c-0.625 0-1.25 0.063-1.875 0.188 1 0.438 1.688 1.438 1.688 2.563 0 1.563-1.25 2.75-2.813 2.75s-2.813-1.188-2.813-2.75c0 0 0 0 0 0-0.938 1.188-1.5 2.75-1.5 4.5 0 3.688 3.188 6.813 7.313 6.813 3.75 0 6.938-3.125 6.938-6.813 0-4.125-3.188-7.25-6.938-7.25z"></path>
</svg>
