<?xml version="1.0" encoding="utf-8"?>
<!-- Generated by IcoMoon.io -->
<!DOCTYPE svg PUBLIC "-//W3C//DTD SVG 1.1//EN" "http://www.w3.org/Graphics/SVG/1.1/DTD/svg11.dtd">
<svg version="1.1" xmlns="http://www.w3.org/2000/svg" xmlns:xlink="http://www.w3.org/1999/xlink" width="32" height="32" viewBox="0 0 32 32">
<path d="M21.5 3.75h-20.313c-0.688 0-1.188 0.5-1.188 1.125v22.25c0 0.625 0.5 1.125 1.188 1.125h20.313l10.5-12.25zM12.938 23.375c-4.938 0-6.563-0.188-6.563-0.188s0.25-3.938 2.063-4.625c1.75-0.688 2.188-0.625 2.813-1 0 0 0.063 0 0.063 0v-1.063c-0.625-0.5-1.063-1.313-1.375-2.188-0.313-0.375-0.5-0.75-0.5-1.188 0-0.313 0.125-0.625 0.25-0.875 0.125-2.188 1.5-3.625 3.25-3.625 1.688 0 3.125 1.438 3.188 3.625 0.188 0.25 0.25 0.563 0.25 0.875 0 0.438-0.188 0.813-0.5 1.188-0.25 0.875-0.75 1.688-1.313 2.188v1.063c0 0 0 0 0 0 0.625 0.375 1.063 0.313 2.875 1s2.063 4.625 2.063 4.625c0 0-1.688 0.188-6.563 0.188z"></path>
</svg>
