<?xml version="1.0" encoding="utf-8"?>
<!-- Generated by IcoMoon.io -->
<!DOCTYPE svg PUBLIC "-//W3C//DTD SVG 1.1//EN" "http://www.w3.org/Graphics/SVG/1.1/DTD/svg11.dtd">
<svg version="1.1" xmlns="http://www.w3.org/2000/svg" xmlns:xlink="http://www.w3.org/1999/xlink" width="32" height="32" viewBox="0 0 32 32">
<path d="M18.438 15.313l4.125-4.125-6.25-3.625c0 0-12.25-7.063-12.938-7.438-0.063-0.063-0.125-0.125-0.25-0.125zM29.563 15.25c-0.563-0.313-5.375-3.125-6.313-3.688l-4.25 4.25 4.313 4.375c1.188-0.688 5.563-3.188 6.188-3.563 0.75-0.438 0.688-1.063 0.063-1.375zM2.188 0.063c-0.125 0.188-0.25 0.438-0.25 0.75 0 1.438 0 15.125 0 15.125s0 14.75 0 15.375c0 0.188 0.063 0.313 0.125 0.438l15.875-15.938zM18.438 16.375l-15.625 15.625c0.063 0 0.188-0.063 0.25-0.125 0.625-0.375 13.25-7.625 13.25-7.625l6.375-3.688z"></path>
</svg>
