<?xml version="1.0" encoding="utf-8"?>
<!-- Generated by IcoMoon.io -->
<!DOCTYPE svg PUBLIC "-//W3C//DTD SVG 1.1//EN" "http://www.w3.org/Graphics/SVG/1.1/DTD/svg11.dtd">
<svg version="1.1" xmlns="http://www.w3.org/2000/svg" xmlns:xlink="http://www.w3.org/1999/xlink" width="32" height="32" viewBox="0 0 32 32">
<path d="M31.938 21.375c-0.313-1.5-2.688-2.313-6.438-2.625-2.625-0.188-5.25 0.438-7.813 1.313l-0.438 0.125v-11.313c0-0.938 2-0.875 2 0.188v8.813c4.063 1.188 6.125-0.625 6.188-5.125 0-3.813-2.563-6.063-6.75-7.188l-6.625-1.688v13.375l-2 0.688 2 0.625v3.375l-4.75 1.625c-1.625 0.563-2.938-0.75-1.5-1.25l1.188-0.438-4.438-1.375c-1.375 0.438-2.625 1.438-2.563 2.813s3.313 1.75 5.75 2.125c2.313 0.375 4.438 0.188 6.313-0.5v-1.438 3l5.188 1.688v-0.125l0.063 0.125 4.5-1.625 7.5-2.625-4.875-1.5-7.188 2.438v-1.688l4.563-1.563 2.688-0.938c2.813-0.5 3.938 0.438 1.25 1.313l-1.313 0.438 4.875 1.5h0.063c1.938-0.688 2.813-1.688 2.625-2.563zM2.563 20.5l4.438 1.375 5.063-1.813v-1.5l-2-0.625-7.375 2.5c-0.063 0-0.063 0.063-0.125 0.063z"></path>
</svg>
