<?xml version="1.0" encoding="utf-8"?>
<!-- Generated by IcoMoon.io -->
<!DOCTYPE svg PUBLIC "-//W3C//DTD SVG 1.1//EN" "http://www.w3.org/Graphics/SVG/1.1/DTD/svg11.dtd">
<svg version="1.1" xmlns="http://www.w3.org/2000/svg" xmlns:xlink="http://www.w3.org/1999/xlink" width="32" height="32" viewBox="0 0 32 32">
<path d="M32 5.5c0-0.875 0.063-1.688-0.438-2.438-0.375-0.563-1-1.063-1.625-1.25-0.875-0.25-1.813-0.188-2.625-0.125-3.75 0-7.563-0.063-11.313-0.063-0.438 0-0.813 0-1.25 0-0.5 0-1 0-1.563 0-1.813 0-3.688 0-5.563 0-0.938 0-1.875 0-2.813 0-0.5 0-1 0-1.5 0-0.438 0-0.813 0-1.188 0.125-1.313 0.375-2.125 1.625-2.125 3 0 1.875 0 3.75 0 5.625 0 1.813-0.063 3.688 0.063 5.563 0.125 1.688 0.625 3.438 1.313 5 1.313 2.813 3.438 5.188 6.063 6.875 2.875 1.813 6.313 2.688 9.688 2.438 3.313-0.25 6.5-1.563 9.063-3.688 2.438-1.938 4.188-4.563 5.125-7.5 0.5-1.688 0.688-3.5 0.688-5.25 0-1.813 0-3.688 0-5.563 0-0.938 0-1.875 0-2.75zM25.625 12.75c-0.188 0.813-1 1.375-1.563 1.938-1.438 1.375-2.875 2.75-4.313 4.063-0.75 0.75-1.438 1.438-2.188 2.125-0.563 0.5-1.313 0.75-2.063 0.563-0.875-0.188-1.5-1-2.063-1.563-0.75-0.688-1.438-1.375-2.125-2-1.438-1.375-2.875-2.75-4.313-4.188-1.063-1.063-0.875-3 0.625-3.625 0.688-0.25 1.5-0.188 2.063 0.188 0.375 0.313 0.75 0.625 1.063 1 0.375 0.313 0.75 0.688 1.063 1 1.438 1.375 2.75 2.75 4.188 4 1.625-1.5 3.25-3.063 4.875-4.625 0.688-0.625 1.313-1.5 2.313-1.688 0.75-0.125 1.563 0.188 2.063 0.75 0.438 0.563 0.625 1.375 0.375 2.063z"></path>
</svg>
