<?xml version="1.0" encoding="utf-8"?>
<!-- Generated by IcoMoon.io -->
<!DOCTYPE svg PUBLIC "-//W3C//DTD SVG 1.1//EN" "http://www.w3.org/Graphics/SVG/1.1/DTD/svg11.dtd">
<svg version="1.1" xmlns="http://www.w3.org/2000/svg" xmlns:xlink="http://www.w3.org/1999/xlink" width="32" height="32" viewBox="0 0 32 32">
<path d="M21.125 20.125c-0.375 0.375-0.625 0.688-1 1-0.5 0.5-0.938 0.938-1.5 1.313-1.313 1-2.875 1.25-4.5 0.938-1.563-0.313-2.625-1.313-3.313-2.75-0.063-0.063-0.063-0.125-0.125-0.188 0 0 0-0.063 0-0.063-0.25 0.375-0.438 0.688-0.625 1-1.063 1.438-2.5 2.188-4.313 2.188-1 0.063-2-0.063-2.938-0.5-1.938-0.813-2.75-2.438-2.813-4.188 1 0 2 0 3 0 0.063 0.125 0.063 0.25 0.063 0.375 0.25 0.875 0.688 1.563 1.625 1.75 1 0.25 1.875 0.063 2.625-0.688 0.875-1 1-2.688 0.25-3.813s-2.5-1.438-3.688-0.625c-0.125 0.125-0.313 0.25-0.438 0.438-0.188 0.313-0.5 0.375-0.813 0.313-0.688 0-1.438 0-2.188 0 0.5-2.75 1-5.438 1.5-8.188 2.75 0 5.563 0 8.313 0 0 0.813 0 1.625 0 2.438-0.125 0-0.188 0-0.313 0-1.875 0-3.688 0-5.563 0-0.188 0-0.25 0.063-0.313 0.25-0.188 1-0.375 2-0.5 2.938-0.063 0.063-0.063 0.125 0 0.188 1.125-1 2.438-1.25 3.875-1s2.438 1.188 3.188 2.5c0.063-0.188 0.125-0.313 0.188-0.438 1-2 2.938-3 5.125-2.688 1.375 0.188 2.5 0.75 3.5 1.688 0.563 0.563 1.125 1.125 1.688 1.75 0.063-0.063 0.125-0.125 0.188-0.188 0.563-0.625 1.125-1.25 1.75-1.813 0.813-0.75 1.75-1.313 2.875-1.438 2.063-0.313 4.438 0.375 5.5 2.688 0.813 1.875 0.75 3.75-0.188 5.563-0.813 1.688-2.25 2.5-4.125 2.625-1.438 0.063-2.688-0.375-3.813-1.25-0.688-0.563-1.25-1.125-1.813-1.688-0.125-0.125-0.25-0.25-0.375-0.438zM15.375 20.5c0.625 0 1.25-0.188 1.813-0.5 0.75-0.438 1.375-1.125 2.063-1.75 0.063-0.125 0.125-0.188 0-0.25-0.5-0.5-1-1-1.563-1.438-0.438-0.438-0.938-0.75-1.5-0.875-1.438-0.438-2.688 0.188-3.063 1.563-0.063 0.25-0.063 0.438-0.063 0.625-0.125 1.563 0.875 2.625 2.313 2.625zM22.813 18.063c0.625 0.625 1.188 1.125 1.75 1.625 0.688 0.563 1.438 0.813 2.313 0.813 1.188 0 1.938-0.625 2.188-1.75 0.063-0.375 0.063-0.813 0.063-1.125-0.188-1.375-1.25-2.188-2.625-2.125-0.813 0.125-1.438 0.5-2 1s-1.125 1-1.688 1.563z"></path>
</svg>
