<?xml version="1.0" encoding="utf-8"?>
<!-- Generated by IcoMoon.io -->
<!DOCTYPE svg PUBLIC "-//W3C//DTD SVG 1.1//EN" "http://www.w3.org/Graphics/SVG/1.1/DTD/svg11.dtd">
<svg version="1.1" xmlns="http://www.w3.org/2000/svg" xmlns:xlink="http://www.w3.org/1999/xlink" width="32" height="32" viewBox="0 0 32 32">
<path d="M30.125 18.5c-0.938-2.25-2.25-3.875-3.188-4.25 0-0.125 0-0.25 0-0.438 0-0.813-0.25-1.625-0.625-2.25 0-0.063 0-0.125 0-0.188 0-0.375-0.125-0.75-0.25-1.063-0.25-5.75-4-10.313-10.063-10.313s-9.813 4.563-10.063 10.313c-0.188 0.313-0.25 0.688-0.25 1.063 0 0.063 0 0.125 0 0.188-0.375 0.625-0.625 1.438-0.625 2.25 0 0.188 0 0.313 0 0.438-0.938 0.375-2.25 2-3.188 4.25-1.188 2.813-1.375 5.5-0.438 6 0.688 0.313 1.75-0.438 2.688-1.938 0.375 1.625 1.375 3 2.688 4.188-1.375 0.5-2.313 1.375-2.313 2.375 0 1.563 2.5 2.875 5.625 2.875 2.813 0 5.125-1.063 5.563-2.438 0.125 0 0.563 0 0.625 0 0.438 1.375 2.813 2.438 5.563 2.438 3.125 0 5.688-1.313 5.688-2.875 0-1-0.938-1.875-2.375-2.375 1.375-1.188 2.313-2.563 2.688-4.188 1 1.5 2 2.25 2.688 1.938 0.938-0.5 0.75-3.188-0.438-6zM13.125 10.313c-1.688-0.188-2.063-3.313-1.25-4.813 0.313-0.5 0.813-0.938 1.438-0.938 1.125 0 1.813 1.438 1.813 2.813s-0.625 3.063-2 2.938zM19.125 10.313c-0.188 0.063-0.563 0.125-0.813 0-1.625-0.438-1.938-3.438-1.063-4.813 0.25-0.438 0.688-0.875 1.25-0.938 0.125-0.063 0.438-0.063 0.625 0 1.875 0.75 1.813 5.063 0 5.75zM18.688 6.625c-0.5-0.25-0.938 0.125-1.063 0.5-0.063 0.313-0.188 0.813 0.25 0.875 0.188-0.188 0.125-0.875 0.5-0.813s0.125 0.875 0.688 0.75c0.188-0.5 0-1.188-0.375-1.313zM14.125 6.313c-0.875 0.125-0.875 2.25 0.063 2.313s1-2.438-0.063-2.313z"></path>
</svg>
