<?xml version="1.0" encoding="utf-8"?>
<!-- Generated by IcoMoon.io -->
<!DOCTYPE svg PUBLIC "-//W3C//DTD SVG 1.1//EN" "http://www.w3.org/Graphics/SVG/1.1/DTD/svg11.dtd">
<svg version="1.1" xmlns="http://www.w3.org/2000/svg" xmlns:xlink="http://www.w3.org/1999/xlink" width="32" height="32" viewBox="0 0 32 32">
<path d="M17 24.938c-1.125-2.125-2.438-4.375-4.938-4.375-0.5 0-1 0.125-1.438 0.313l-0.875-1.75c1.063-0.875 2.75-1.563 4.938-1.563 3.375 0 5.125 1.625 6.5 3.688 0.875-1.813 1.25-4.188 1.25-7.188 0-7.438-2.313-11.25-7.813-11.25-5.375 0-7.625 3.813-7.625 11.25s2.25 11.188 7.625 11.188c0.875 0 1.625-0.125 2.375-0.313zM18.313 27.563c-1.188 0.313-2.438 0.5-3.688 0.5-7.125 0-14.125-5.75-14.125-14 0-8.375 7-14.063 14.125-14.063 7.313 0 14.188 5.688 14.188 14.063 0 4.688-2.188 8.438-5.313 10.875 1 1.563 2.063 2.563 3.563 2.563 1.563 0 2.188-1.25 2.375-2.188h2.063c0.125 1.25-0.5 6.625-6.375 6.625-3.563 0.063-5.438-2-6.813-4.375z"></path>
</svg>
