<?xml version="1.0" encoding="utf-8"?>
<!-- Generated by IcoMoon.io -->
<!DOCTYPE svg PUBLIC "-//W3C//DTD SVG 1.1//EN" "http://www.w3.org/Graphics/SVG/1.1/DTD/svg11.dtd">
<svg version="1.1" xmlns="http://www.w3.org/2000/svg" xmlns:xlink="http://www.w3.org/1999/xlink" width="32" height="32" viewBox="0 0 32 32">
<path d="M6.188 13.375l2.688-1.938c-0.625-5.313 2.625-9.25 2.625-9.25s-0.688 0.313-6.063 3.75c-5.375 3.438-5.438 4.813-5.438 4.813v13.938l4.875 7.313h7.375l-7.375-11.688c-1.563-2.313-0.938-5.438 1.313-6.938zM24.563 15.5c-2.563 1.563-5.938 0.938-7.75-1.563-1.75-2.438-1.313-5.875 1-7.813 0.063-0.125 0.188-0.188 0.313-0.25 0.125-0.125 0.188-0.188 0.313-0.25l7.875-5.625h-11.438l-0.688 0.438c-5.188 3.813-6.375 11.188-2.625 16.438l0.75 1c3.813 5.25 11.188 6.438 16.438 2.625l3.25-2.375v-8z"></path>
</svg>
