<?xml version="1.0" encoding="utf-8"?>
<!-- Generated by IcoMoon.io -->
<!DOCTYPE svg PUBLIC "-//W3C//DTD SVG 1.1//EN" "http://www.w3.org/Graphics/SVG/1.1/DTD/svg11.dtd">
<svg version="1.1" xmlns="http://www.w3.org/2000/svg" xmlns:xlink="http://www.w3.org/1999/xlink" width="32" height="32" viewBox="0 0 32 32">
<path d="M29 6.688c-6.688-7.625-16.875-2.875-16.875-2.875-0.563 0.25-0.938 0.438-1.25 0.688s-0.563 0.5-0.688 0.75c-0.438 0.938-0.75 1.875-1 2.75-1.188 1.563-2.063 3.438-2.375 5.5-1.188 1.688-1.938 3.688-2.063 5.75-2.875-0.75-4.75-1.688-4.75-1.688 1.625 0.938 3.188 1.688 4.75 2.188 0 1 0.125 2 0.375 3 0.625 2.188 1.938 3.938 3.625 5.313-1-1.125-1.75-2.438-2.188-3.875-0.375-1.313-0.438-2.625-0.313-3.938 0.313 0.125 0.688 0.188 1.063 0.313 1.438 4.375 5.25 7.625 9.938 8.375 1.688 0.75 3.438 0.938 5.063 0.438 0.813-0.313 1.5-0.688 2.125-1.188 0.188-0.188 0.375-0.375 0.563-0.563 3.188-1.688 5.563-4.688 6.375-8.313 0 0.188 0 0.25 0 0.25s2.5-7.313-2.375-12.875zM9 8.75c-0.25 1.188-0.375 2.125-0.438 2.75-0.5 0.438-0.938 0.938-1.375 1.5 0.375-1.563 0.938-3 1.813-4.25zM8.563 14.625c0.063 1.563 0.375 3.125 0.938 4.75 0.063 0.25 0.125 0.5 0.25 0.688-0.813-0.063-1.625-0.125-2.375-0.25-0.188-0.813-0.375-1.625-0.438-2.438 0.438-1 0.938-1.938 1.625-2.75zM6.313 19.563c0.125-0.5 0.25-1.063 0.438-1.563 0.063 0.563 0.125 1.188 0.313 1.75-0.25-0.063-0.5-0.125-0.75-0.188zM7.625 20.625c0.875 0.188 1.688 0.375 2.5 0.438 1.438 3.375 3.688 5.938 6.125 7.375-4-1-7.25-3.938-8.625-7.813zM25.313 27.125c-0.063-0.188-0.688 0.125-0.688 0.125-0.438 0.25-0.875 0.5-1.313 0.625-3.938 1.25-8.5-1.625-11.188-6.625 6.875 0.313 11.563-2.313 11.563-2.313s1.125 0 0.938-1.563c-0.25-1.563-1.375-0.375-1.375-0.375-3.813 2.5-7.938 3.25-11.688 3.188-0.313-0.688-0.563-1.375-0.813-2.063-0.563-1.688-0.813-3.313-0.875-4.938 1.313-1.25 3.063-2.25 5-2.813 1.75-0.5 3.563-0.625 5.25-0.375 0 0 0.313 0.188 0.25-0.625-0.125-0.813-0.688-0.938-0.688-0.938-1.938-0.375-4.063-0.313-6.125 0.25-1.313 0.438-2.5 1-3.625 1.75 0.125-0.938 0.375-1.875 0.625-2.688 0 0 0.313-0.875 1.688-1.563 1.875-0.75 7.625-2.625 11.313-1.063 6.313 2.688 7.563 9.063 7.75 12.375-0.313 4.125-2.625 7.625-6 9.625z"></path>
</svg>
