<?xml version="1.0" encoding="utf-8"?>
<!-- Generated by IcoMoon.io -->
<!DOCTYPE svg PUBLIC "-//W3C//DTD SVG 1.1//EN" "http://www.w3.org/Graphics/SVG/1.1/DTD/svg11.dtd">
<svg version="1.1" xmlns="http://www.w3.org/2000/svg" xmlns:xlink="http://www.w3.org/1999/xlink" width="32" height="32" viewBox="0 0 32 32">
<path d="M32 15.75c0-1.75-1.375-3.125-3.125-3.125-1 0-1.875 0.438-2.438 1.188-2.5-1.813-6-2.938-9.938-3l2.313-6.875 5.75 1.375c0.125 0 0.188 0 0.25 0 0.063 1.313 1.125 2.375 2.5 2.375s2.438-1.125 2.438-2.5c0-1.375-1.063-2.438-2.438-2.438-1.063 0-1.875 0.563-2.313 1.438 0 0-0.063-0.063-0.125-0.063l-6.313-1.5c-0.313-0.063-0.625 0.125-0.688 0.375l-2.688 7.813c-3.813 0.125-7.188 1.188-9.688 2.938-0.563-0.688-1.375-1.125-2.375-1.125-1.75 0-3.125 1.375-3.125 3.125 0 1.25 0.75 2.375 1.875 2.875-0.125 0.438-0.188 0.938-0.188 1.438 0 5.125 6.375 9.313 14.25 9.313s14.25-4.188 14.25-9.313c0-0.438-0.063-0.938-0.188-1.375 1.188-0.5 2-1.625 2-2.938zM8.688 18.25c0-1.25 1.063-2.313 2.313-2.313s2.313 1.063 2.313 2.313c0 1.25-1.063 2.313-2.313 2.313s-2.313-1.063-2.313-2.313zM21.188 24.625c-1.063 1.063-2.75 1.563-5.188 1.563s-4.125-0.5-5.188-1.563c-0.125-0.125-0.125-0.375 0-0.563 0.125-0.125 0.375-0.125 0.5 0 0.938 0.938 2.438 1.375 4.688 1.375 2.188 0 3.75-0.438 4.688-1.375 0.125-0.125 0.375-0.125 0.5 0 0.125 0.188 0.125 0.438 0 0.563zM21.063 20.563c-1.313 0-2.375-1-2.375-2.313 0-1.25 1.063-2.313 2.375-2.313 1.25 0 2.25 1.063 2.25 2.313 0 1.313-1 2.313-2.25 2.313z"></path>
</svg>
