<?xml version="1.0" encoding="utf-8"?>
<!-- Generated by IcoMoon.io -->
<!DOCTYPE svg PUBLIC "-//W3C//DTD SVG 1.1//EN" "http://www.w3.org/Graphics/SVG/1.1/DTD/svg11.dtd">
<svg version="1.1" xmlns="http://www.w3.org/2000/svg" xmlns:xlink="http://www.w3.org/1999/xlink" width="32" height="32" viewBox="0 0 32 32">
<path d="M16 22.063c0 0 0 0 0 0s0 0 0 0zM7.438 15.688c0.063-0.438 0.188-0.875 0.25-1.313 0.125-0.438 0.063-0.938 0.063-1.375v-2.438c0-1.25 0-2.438 0-3.625-0.25 0-0.563 0.063-0.75 0.125-0.75 0.25-1.375 0.438-1.938 0.75-2.313 1.125-4.063 3.125-4.813 5.875-0.688 2.563 0 5.313 1.063 7 0.25 0.375 0.563 0.938 0.875 1.188 0.313 0 0.563-0.25 0.75-0.438 0.438-0.25 0.875-0.563 1.25-0.875 0.188-0.125 0.313-0.313 0.5-0.438 1.25-1.063 2.125-2.688 2.75-4.438zM16 22.063c0 0 0 0 0 0s0 0 0 0zM9.938 20.25c-0.188-0.375-0.313-0.75-0.5-1.125-0.063-0.188-0.125-0.375-0.188-0.563v0c-0.188 0.375-0.375 0.688-0.563 1-0.313 0.625-0.688 1.188-1.063 1.688-0.563 0.688-1.125 1.375-1.75 1.875-0.313 0.313-0.688 0.563-1 0.875 0 0 0 0.063 0 0.063 0.188 0.063 0.375 0.188 0.563 0.25 0.438 0.188 0.875 0.375 1.313 0.5 1.625 0.438 3.625 0.313 5.125-0.125 0.375-0.125 1.25-0.375 1.5-0.625v0c-0.375-0.188-0.688-0.5-1-0.75-0.938-0.875-1.75-1.875-2.438-3.063zM31.688 13.688c-0.688-2.813-2.438-4.75-4.75-5.938-0.563-0.25-1.188-0.5-1.938-0.688-0.188-0.063-0.5-0.125-0.75-0.125 0 1.188 0 2.375-0.063 3.625v2.375c0 0.5 0 1 0.063 1.438 0.125 0.438 0.25 0.875 0.313 1.313 0.625 1.75 1.5 3.375 2.75 4.438 0.188 0.125 0.313 0.25 0.5 0.438 0.375 0.313 0.813 0.625 1.25 0.875 0.188 0.125 0.438 0.438 0.75 0.438 0.313-0.25 0.625-0.813 0.875-1.188 1.063-1.688 1.75-4.438 1-7zM24.375 21.25c-0.375-0.5-0.75-1.063-1.063-1.688-0.188-0.313-0.375-0.625-0.563-1v0c-0.063 0.188-0.125 0.375-0.188 0.563-0.188 0.375-0.313 0.75-0.5 1.125-0.688 1.188-1.5 2.188-2.438 3-0.313 0.313-0.625 0.625-1 0.813v0c0.25 0.25 1.125 0.5 1.5 0.625 1.5 0.438 3.5 0.563 5.125 0.125 0.438-0.125 0.875-0.313 1.313-0.5 0.188-0.063 0.375-0.188 0.563-0.25 0-0.063 0-0.063 0-0.063-0.313-0.313-0.688-0.563-1-0.875-0.625-0.5-1.188-1.188-1.75-1.875zM21.125 15.813c0.125-0.375 0.188-0.813 0.25-1.25 0.125-0.375 0.063-0.938 0.063-1.438v-2.688c0-1.188 0-2.313 0-3.5-0.063 0-0.063 0-0.125 0-0.375 0.063-0.625 0.063-1.188 0.25-0.688 0.188-1.375 0.563-1.938 0.875-0.625 0.313-1.063 0.813-1.563 1.188-0.188 0.125-0.438 0.375-0.625 0.625 0 0 0 0 0 0s0 0.063 0 0.063c0.25 0.313 0.5 0.625 0.688 0.938 0.5 0.688 0.938 1.5 1.188 2.438 0.625 2.125 0.375 4.813-0.438 6.5-0.313 0.563-0.563 1.063-0.938 1.5-0.125 0.25-0.313 0.438-0.5 0.688 0 0 0 0 0 0s0 0 0 0.063c0 0 0.063 0 0.063 0 0.75-0.438 1.375-1.188 2-1.688 0.438-0.313 0.75-0.75 1.063-1.125 0.813-1 1.5-2.063 2-3.438zM16 22c-0.188-0.25-0.375-0.438-0.5-0.688-0.375-0.438-0.688-0.938-0.938-1.5-0.813-1.688-1.125-4.375-0.438-6.563 0.25-0.875 0.688-1.688 1.125-2.375 0.25-0.313 0.5-0.625 0.75-0.938 0 0 0-0.063 0-0.063s0 0 0 0c-0.188-0.25-0.438-0.5-0.625-0.625-0.5-0.375-1-0.875-1.563-1.188s-1.25-0.688-1.938-0.875c-0.563-0.188-0.813-0.188-1.188-0.25-0.063 0-0.063 0-0.125 0 0 1.188 0 2.313 0 3.5v2.688c0 0.5-0.063 1.063 0.063 1.438 0.063 0.438 0.125 0.875 0.25 1.25 0.5 1.375 1.188 2.438 2 3.438 0.313 0.375 0.625 0.813 1.063 1.125 0.625 0.5 1.25 1.25 2 1.688 0 0 0 0 0.063 0 0-0.063 0-0.063 0-0.063s0 0 0 0z"></path>
</svg>
