<?xml version="1.0" encoding="utf-8"?>
<!-- Generated by IcoMoon.io -->
<!DOCTYPE svg PUBLIC "-//W3C//DTD SVG 1.1//EN" "http://www.w3.org/Graphics/SVG/1.1/DTD/svg11.dtd">
<svg version="1.1" xmlns="http://www.w3.org/2000/svg" xmlns:xlink="http://www.w3.org/1999/xlink" width="32" height="32" viewBox="0 0 32 32">
<path d="M0 17.938c0-3.188 0-6.438 0-9.625 3.313 0 6.563 0 9.875 0 0.188 0.063 0.313 0.063 0.438 0.063 0.375 0.063 0.75 0.125 1.063 0.188 0.75 0.125 1.438 0.438 2.063 0.813 0.563 0.313 1.125 0.688 1.625 1.188 1.125 1.125 2.188 2.25 3.313 3.375 0.063 0 0.125 0.063 0.125 0.063-0.875 0.938-1.813 1.813-2.688 2.75-1.063-1.063-2.125-2.188-3.188-3.188-0.438-0.5-0.938-0.813-1.5-1.063-0.438-0.188-0.875-0.25-1.375-0.25-1.938 0-3.813 0-5.75 0-0.063 0-0.125 0-0.125 0 0 0.625 0 1.25 0 1.875 0.063 0 0.063 0 0.188 0 1.75 0 3.5 0 5.313 0 0.125 0 0.313 0 0.438 0.063 0.5 0.063 1 0.25 1.375 0.688 1.375 1.375 2.75 2.75 4.125 4.125 0.125 0.125 0.313 0.313 0.5 0.5 0.313 0.25 0.688 0.375 1.063 0.375 3.375 0 6.688 0 10.063 0 0 0 0.063 0 0.125 0-2.375-2.438-4.75-4.813-7.125-7.188 0.938-0.875 1.813-1.75 2.688-2.688 0 0 0.063 0.063 0.125 0.063 2.938 3 5.938 6 8.875 8.938 0.125 0.125 0.188 0.188 0.25 0.313s0.063 0.25 0.125 0.438c0 0.063 0 0.063 0 0.125 0 0-0.063 0.063-0.063 0.063 0 0.313-0.125 0.5-0.313 0.688-0.813 0.813-1.688 1.688-2.5 2.5-0.25 0.25-0.5 0.375-0.813 0.438-0.125 0.063-0.188 0.063-0.375 0.063-4.125 0-8.313 0-12.438 0-0.125 0-0.188 0-0.25-0.063-0.5-0.063-0.938-0.25-1.313-0.625-1.5-1.438-2.938-3-4.438-4.5-0.438-0.375-0.875-0.563-1.438-0.563-2.688 0.063-5.375 0.063-8.063 0.063z"></path>
</svg>
