<?xml version="1.0" encoding="utf-8"?>
<!-- Generated by IcoMoon.io -->
<!DOCTYPE svg PUBLIC "-//W3C//DTD SVG 1.1//EN" "http://www.w3.org/Graphics/SVG/1.1/DTD/svg11.dtd">
<svg version="1.1" xmlns="http://www.w3.org/2000/svg" xmlns:xlink="http://www.w3.org/1999/xlink" width="32" height="32" viewBox="0 0 32 32">
<path d="M11.313 16c0 0.125-0.063 0.25-0.063 0.313l11.5 5.75c0.938-0.875 2.188-1.375 3.563-1.375 3.125 0 5.625 2.563 5.625 5.625 0 3.188-2.5 5.688-5.625 5.688s-5.625-2.5-5.625-5.688c0-0.125 0.063-0.188 0.063-0.313l-11.5-5.688c-0.938 0.813-2.188 1.313-3.563 1.313-3.188 0-5.688-2.5-5.688-5.625s2.5-5.688 5.625-5.688c1.375 0 2.688 0.563 3.625 1.375l11.438-5.75c0-0.063 0-0.188 0-0.313 0-3.125 2.563-5.625 5.688-5.625s5.625 2.5 5.625 5.625c0 3.125-2.5 5.688-5.625 5.688-1.375 0-2.688-0.5-3.625-1.375l-11.5 5.75c0 0.063 0.063 0.188 0.063 0.313z"></path>
</svg>
