<?xml version="1.0" encoding="utf-8"?>
<!-- Generated by IcoMoon.io -->
<!DOCTYPE svg PUBLIC "-//W3C//DTD SVG 1.1//EN" "http://www.w3.org/Graphics/SVG/1.1/DTD/svg11.dtd">
<svg version="1.1" xmlns="http://www.w3.org/2000/svg" xmlns:xlink="http://www.w3.org/1999/xlink" width="32" height="32" viewBox="0 0 32 32">
<path d="M30.875 19.375c0.25-1 0.313-2.125 0.313-3.188 0-8.313-6.688-15.063-15-15.063-0.875 0-1.75 0.063-2.563 0.188-1.375-0.813-2.938-1.313-4.688-1.313-4.813 0-8.688 3.938-8.688 8.75 0 1.563 0.438 3.125 1.188 4.375-0.188 1-0.313 2-0.313 3.063 0 8.313 6.75 15 15.063 15 0.938 0 1.813-0.063 2.75-0.25 1.188 0.688 2.625 1.063 4.125 1.063 4.813 0 8.688-3.938 8.688-8.75 0-1.375-0.313-2.688-0.875-3.875zM23.75 23.313c-0.688 1-1.688 1.75-3.063 2.313-1.313 0.563-2.875 0.813-4.688 0.813-2.125 0-3.938-0.375-5.375-1.125-1-0.5-1.875-1.25-2.5-2.188s-0.938-1.813-0.938-2.688c0-0.563 0.188-1.063 0.625-1.438s0.938-0.563 1.563-0.563c0.5 0 0.938 0.125 1.313 0.438s0.688 0.75 0.875 1.313c0.313 0.563 0.563 1.125 0.875 1.5s0.75 0.75 1.25 1c0.563 0.25 1.313 0.375 2.188 0.375 1.25 0 2.313-0.25 3.063-0.813 0.75-0.5 1.125-1.125 1.125-1.875 0-0.563-0.188-1.063-0.625-1.438-0.375-0.375-0.938-0.625-1.563-0.875-0.688-0.188-1.625-0.438-2.75-0.688-1.563-0.313-2.938-0.688-4-1.188-1.063-0.438-1.938-1.063-2.563-1.875s-1-1.813-1-3c0-1.125 0.375-2.188 1.063-3.063s1.625-1.563 2.938-2c1.25-0.5 2.688-0.688 4.375-0.688 1.375 0 2.563 0.125 3.5 0.438 1 0.313 1.875 0.75 2.5 1.25 0.688 0.5 1.188 1.063 1.5 1.625s0.438 1.188 0.438 1.75c0 0.5-0.188 1-0.625 1.438-0.375 0.438-0.938 0.625-1.563 0.625-0.5 0-0.938-0.125-1.25-0.375s-0.563-0.688-0.938-1.188c-0.375-0.75-0.813-1.313-1.313-1.688s-1.375-0.563-2.5-0.563c-1.125 0-2 0.188-2.625 0.625-0.625 0.375-0.938 0.875-0.938 1.438 0 0.313 0.063 0.625 0.313 0.875 0.188 0.25 0.5 0.5 0.875 0.688s0.813 0.375 1.188 0.438c0.438 0.125 1.125 0.313 2.125 0.563 1.188 0.25 2.313 0.5 3.313 0.813 1 0.375 1.875 0.75 2.563 1.188 0.75 0.5 1.313 1.063 1.688 1.813 0.438 0.688 0.625 1.625 0.625 2.625 0 1.25-0.375 2.375-1.063 3.375z"></path>
</svg>
