<?xml version="1.0" encoding="utf-8"?>
<!-- Generated by IcoMoon.io -->
<!DOCTYPE svg PUBLIC "-//W3C//DTD SVG 1.1//EN" "http://www.w3.org/Graphics/SVG/1.1/DTD/svg11.dtd">
<svg version="1.1" xmlns="http://www.w3.org/2000/svg" xmlns:xlink="http://www.w3.org/1999/xlink" width="32" height="32" viewBox="0 0 32 32">
<path d="M11.813 9.75c-2.063 0-3.75 1.563-3.75 3.5s1.688 3.5 3.75 3.5c2.063 0 3.75-1.563 3.75-3.5s-1.688-3.5-3.75-3.5zM20.688 9.688c-2.063 0-3.75 1.563-3.75 3.5 0 2 1.688 3.563 3.75 3.563 2.125 0 3.813-1.563 3.813-3.563 0-1.938-1.688-3.5-3.813-3.5zM30.563 15.25c-0.125 0.063-0.188 0.188-0.5 0.25v-12.375c0-1.75-1.125-3.125-2.688-3.125h-22.438c-1.563 0-3 1.375-3 3.125v12.375c0-0.063-0.188-0.188-0.313-0.25-1-0.688-1.563 0.25-1 1.125 1.188 1.375 3.313 3.125 6.688 4.5-3.563 11.938 8.563 13.875 8.375 7.688 0 0.125 0-3.438 0-6 0.375 0.063 0.625 0.125 0.875 0.188 0 2.563 0 5.938 0 5.813-0.188 6.188 11.938 4.25 8.438-7.688 3.313-1.375 5.438-3.125 6.563-4.5 0.625-0.875-0.063-1.813-1-1.125zM28.5 16.438c-4.188 2.313-7.938 1.938-9.938 1.875-1.5-0.125-2 0.563-2.063 1.5-0.313-0.25-0.688-0.563-1.063-0.875-0.063-0.063-0.063-0.125-0.125-0.188-0.375-0.313-0.813-0.5-1.688-0.438-1.938 0.063-5.938 0.438-9.813-1.813v-12c0-2.188 0.5-2.875 2.5-2.875h19.875c1.875 0 2.313 0.875 2.313 2.875z"></path>
</svg>
