<?xml version="1.0" encoding="utf-8"?>
<!-- Generated by IcoMoon.io -->
<!DOCTYPE svg PUBLIC "-//W3C//DTD SVG 1.1//EN" "http://www.w3.org/Graphics/SVG/1.1/DTD/svg11.dtd">
<svg version="1.1" xmlns="http://www.w3.org/2000/svg" xmlns:xlink="http://www.w3.org/1999/xlink" width="32" height="32" viewBox="0 0 32 32">
<path d="M9 6.313c2.938 0 4.375-1.75 4.188-3.313-0.188-1.313-1.438-2.5-3.875-2.563-2 0-3.313 1.5-3.5 2.938-0.188 1.5 0.75 3 3.188 2.938zM23.75 5.938c2.813-0.125 4-1.563 4.063-2.938 0-1.625-1.5-3.188-4.063-3-2 0.188-3.25 1.563-3.375 3-0.25 1.563 0.813 3.125 3.375 2.938zM25.5 12.25c-7 0.688-7.375 0.75-20.313 1.063-5.438 0-4.25 18.688 7.375 18.688 11.063 0 24.5-20.938 12.938-19.75zM12.875 28.688c-10.188 0-8.813-12.125-7.063-12.188 11.75-0.438 14.813-0.938 19-0.938 4.313 0-3.875 13.125-11.938 13.125z"></path>
</svg>
