<?xml version="1.0" encoding="utf-8"?>
<!-- Generated by IcoMoon.io -->
<!DOCTYPE svg PUBLIC "-//W3C//DTD SVG 1.1//EN" "http://www.w3.org/Graphics/SVG/1.1/DTD/svg11.dtd">
<svg version="1.1" xmlns="http://www.w3.org/2000/svg" xmlns:xlink="http://www.w3.org/1999/xlink" width="32" height="32" viewBox="0 0 32 32">
<path d="M16.313 1.688c1.188 0 5.313 0.313 7.25 4.688 0.625 1.438 0.5 4.063 0.375 6.125-0.063 0.375-0.063 0.688-0.063 1v0.125l0.063 0.063c0.063 0.063 0.375 0.438 1.125 0.438v0c0.5 0 1.063-0.188 1.688-0.438 0.063-0.063 0.188-0.063 0.313-0.063s0.313 0 0.438 0.063v0c0.313 0.125 0.5 0.313 0.5 0.5 0 0.125-0.063 0.5-1.188 0.938-0.063 0.063-0.25 0.063-0.375 0.125-0.75 0.25-1.813 0.563-2.188 1.438-0.25 0.5-0.188 1.063 0.125 1.75 0.188 0.313 2.25 4.938 6.875 5.75 0 0 0 0 0 0.063-0.125 0.188-0.625 0.813-3.688 1.313-0.5 0.063-0.625 0.625-0.75 1.25-0.063 0.25-0.125 0.438-0.188 0.688-0.063 0.063-0.063 0.063-0.125 0.063 0 0 0 0 0 0-0.188 0-0.375 0-0.625-0.063-0.438-0.063-1.063-0.188-1.813-0.188-0.438 0-0.875 0.063-1.313 0.125-1 0.125-1.75 0.688-2.563 1.25-1.125 0.813-2.25 1.625-4 1.625-0.063 0-0.125 0-0.25 0v0c-0.063 0-0.063 0-0.125 0-1.75 0-2.875-0.813-4-1.625-0.813-0.563-1.625-1.125-2.563-1.25-0.438-0.063-0.875-0.125-1.313-0.125-0.75 0-1.375 0.125-1.813 0.188-0.25 0.063-0.438 0.125-0.625 0.125-0.125 0-0.125 0-0.125-0.125-0.063-0.188-0.125-0.438-0.188-0.688-0.125-0.625-0.25-1.188-0.75-1.25-3.125-0.5-3.625-1.125-3.688-1.313 0-0.063 0-0.063 0-0.063 4.625-0.813 6.688-5.438 6.813-5.75 0.375-0.625 0.375-1.25 0.188-1.688-0.375-0.875-1.438-1.25-2.188-1.5-0.188 0-0.313-0.063-0.438-0.125-0.938-0.375-1.188-0.75-1.188-0.938 0.063-0.313 0.563-0.563 0.938-0.563 0.063 0 0.125 0 0.188 0.063 0.688 0.313 1.25 0.438 1.75 0.438 0.813 0 1.188-0.375 1.25-0.438l0.063-0.063v-0.125c0-0.313-0.063-0.625-0.063-1-0.125-2.063-0.313-4.688 0.375-6.125 1.938-4.313 6.063-4.688 7.25-4.688 0 0 0.563 0 0.563 0s0.063 0 0.063 0zM16.313 0.938c-0.063 0-0.063 0-0.063 0-0.188 0-0.563 0-0.563 0-0.688 0-2.125 0.125-3.688 0.813-0.875 0.375-1.625 0.875-2.313 1.563-0.813 0.75-1.438 1.688-1.938 2.75-0.75 1.625-0.563 4.313-0.438 6.5v0c0 0.25 0.063 0.5 0.063 0.688-0.125 0.063-0.313 0.125-0.563 0.125-0.375 0-0.875-0.125-1.375-0.375-0.188-0.063-0.375-0.125-0.563-0.125-0.313 0-0.688 0.125-0.938 0.25-0.375 0.25-0.625 0.563-0.688 0.875-0.063 0.25-0.063 0.688 0.438 1.125 0.25 0.25 0.688 0.5 1.188 0.688 0.125 0.063 0.313 0.125 0.5 0.188 0.563 0.188 1.438 0.438 1.688 1 0.125 0.313 0.063 0.688-0.125 1.125-0.063 0-0.063 0-0.063 0-0.063 0.125-0.563 1.313-1.625 2.5-0.563 0.688-1.188 1.313-1.938 1.75-0.813 0.563-1.75 0.875-2.688 1.063-0.375 0.063-0.688 0.375-0.625 0.75 0 0.125 0 0.25 0.063 0.375 0.125 0.313 0.5 0.625 1.063 0.938 0.688 0.313 1.75 0.563 3.125 0.813 0.063 0.125 0.125 0.438 0.188 0.688s0.125 0.5 0.188 0.75c0.125 0.25 0.313 0.625 0.875 0.625 0.188 0 0.438-0.063 0.75-0.125 0.375-0.063 0.938-0.188 1.688-0.188 0.375 0 0.75 0.063 1.188 0.125 0.75 0.125 1.438 0.563 2.25 1.125 1.125 0.813 2.438 1.75 4.375 1.75 0.063 0 0.125 0 0.188 0s0.125 0 0.25 0c1.938 0 3.25-0.938 4.375-1.75 0.813-0.563 1.5-1 2.25-1.125 0.438-0.063 0.813-0.125 1.25-0.125 0.625 0 1.188 0.063 1.625 0.188 0.313 0.063 0.563 0.063 0.75 0.063h0.063c0.375 0 0.688-0.188 0.813-0.563 0.063-0.25 0.125-0.5 0.188-0.75s0.125-0.563 0.188-0.688c1.375-0.25 2.438-0.5 3.125-0.813 0.563-0.313 0.938-0.563 1.063-0.938 0.063-0.125 0.063-0.25 0.063-0.375 0.063-0.375-0.25-0.688-0.625-0.75-4.25-0.688-6.188-5.125-6.25-5.313 0 0 0 0 0 0-0.25-0.438-0.313-0.813-0.188-1.125 0.25-0.5 1.125-0.813 1.75-1 0.125-0.063 0.313-0.125 0.438-0.188 0.563-0.188 1-0.438 1.313-0.75s0.375-0.625 0.375-0.875c0-0.5-0.438-0.938-1.063-1.188-0.188-0.063-0.438-0.125-0.688-0.125-0.188 0-0.438 0-0.625 0.125-0.5 0.25-0.938 0.375-1.375 0.375-0.188 0-0.313-0.063-0.438-0.063 0.063-0.25 0.063-0.438 0.063-0.625v-0.125c0.125-2.125 0.313-4.875-0.375-6.438-0.5-1.125-1.188-2.063-2-2.813-0.625-0.688-1.438-1.188-2.313-1.563-1.5-0.688-2.938-0.813-3.625-0.813z"></path>
</svg>
