<?xml version="1.0" encoding="utf-8"?>
<!-- Generated by IcoMoon.io -->
<!DOCTYPE svg PUBLIC "-//W3C//DTD SVG 1.1//EN" "http://www.w3.org/Graphics/SVG/1.1/DTD/svg11.dtd">
<svg version="1.1" xmlns="http://www.w3.org/2000/svg" xmlns:xlink="http://www.w3.org/1999/xlink" width="32" height="32" viewBox="0 0 32 32">
<path d="M0.625 21.125h-0.625v-3.875h0.625zM2.25 22.375h-0.625v-6.063h0.625zM3.5 22.75h-0.625v-7.063h0.625zM4.813 23.063h-0.625v-7.063h0.625zM6.375 23.063h-0.625v-9.313h0.625zM7.688 23.063h-0.625v-10.563h0.625zM9.25 23.063h-0.625v-11.25h0.625zM10.563 23.063h-0.625v-11.563h0.625zM12.188 23.063h-0.688v-11.25h0.688zM13.438 23.063h-0.625v-10.875h0.625zM14.75 23.063h-0.688v-12.188h0.688zM16.313 23.063h-0.625v-13.125h0.625zM28.063 22.938c-0.063 0-10.938 0-10.938 0-0.25 0-0.5-0.188-0.5-0.438v-12.5c0-0.25 0.125-0.375 0.438-0.5 0.75-0.313 1.625-0.438 2.5-0.438 3.625 0 6.625 2.75 6.938 6.313 0.5-0.188 1-0.313 1.563-0.313 2.188 0 3.938 1.75 3.938 3.938s-1.75 3.938-3.938 3.938z"></path>
</svg>
