<?xml version="1.0" encoding="utf-8"?>
<!-- Generated by IcoMoon.io -->
<!DOCTYPE svg PUBLIC "-//W3C//DTD SVG 1.1//EN" "http://www.w3.org/Graphics/SVG/1.1/DTD/svg11.dtd">
<svg version="1.1" xmlns="http://www.w3.org/2000/svg" xmlns:xlink="http://www.w3.org/1999/xlink" width="32" height="32" viewBox="0 0 32 32">
<path d="M25.813 25.938c-0.375 0.625-1.25 0.875-1.875 0.438-5.313-3.188-11.938-3.938-19.75-2.125-0.75 0.125-1.5-0.313-1.688-1.063s0.313-1.5 1.063-1.688c8.563-1.938 15.875-1.125 21.813 2.5 0.688 0.375 0.875 1.25 0.438 1.938zM28.563 19.813c-0.5 0.813-1.563 1.063-2.375 0.563-6.063-3.688-15.25-4.75-22.438-2.625-0.875 0.313-1.875-0.25-2.188-1.125-0.25-0.938 0.25-1.938 1.188-2.188 8.188-2.5 18.313-1.313 25.25 2.938 0.813 0.563 1.125 1.625 0.563 2.438zM31.688 12.688c-0.563 1-1.875 1.313-2.875 0.75-7.25-4.313-19.188-4.688-26.125-2.625-1.063 0.375-2.25-0.25-2.625-1.375-0.313-1.125 0.313-2.313 1.438-2.625 7.938-2.438 21.125-1.938 29.5 3 1 0.625 1.313 1.875 0.688 2.875z"></path>
</svg>
