<?xml version="1.0" encoding="utf-8"?>
<!-- Generated by IcoMoon.io -->
<!DOCTYPE svg PUBLIC "-//W3C//DTD SVG 1.1//EN" "http://www.w3.org/Graphics/SVG/1.1/DTD/svg11.dtd">
<svg version="1.1" xmlns="http://www.w3.org/2000/svg" xmlns:xlink="http://www.w3.org/1999/xlink" width="32" height="32" viewBox="0 0 32 32">
<path d="M9.875 19.563c0 0 0.063-1.813 0.438-2.375s0.813-1 1.375-1.313c0.563-0.25 0.938-0.375 1.375-0.625 0 0 0.125-0.063 0.25-0.125 0.375-0.25 1.063-0.688 1.125-1.125 0-0.438 0-0.438 0-0.688 0-0.188-0.125-0.688-0.188-0.813-0.188-0.375-0.438-0.125-0.563-0.625 0-0.125-0.063-0.813 0-0.875 0-0.125 0.125-0.188 0.125-0.188s0-0.375 0-0.563c0-0.125 0-0.875 0.313-1.313 0.375-0.438 0.5-0.75 1.813-0.75 1.25 0.063 1.438 0.438 1.688 0.75 0.25 0.438 0.313 1.25 0.313 1.813 0 0.125 0.125-0.125 0.125 0.25 0.063 0.188 0 0.625 0 0.875-0.063 0.5-0.375 0.188-0.563 0.688-0.063 0.25-0.063 0.563 0 0.938 0 0.375 0 0.5 0.25 0.813 0.188 0.313 0.5 0.563 1.063 0.813h0.063c0.625 0.25 1.188 0.438 1.688 0.813s0.625 0.5 0.813 0.875c0.125 0.375 0.25 1.313 0.25 1.625 0.063 0.375 0.125 0.813 0.125 0.813s0.125-0.75 0.563-1.063c0.438-0.375 0.5-0.438 1.063-0.688 0.5-0.25 0.438-0.125 1-0.438s0.75-0.438 0.875-0.625c0.125-0.188 0.188-0.5 0.063-0.688s-0.125-0.438-0.375-0.563c-0.313-0.25-0.25-0.688-0.438-0.813s-0.313-0.188-0.313-0.375c-0.063-0.25-0.125-0.5-0.063-1 0.063-0.438 0.063-0.25 0.125-0.438s0.125-0.688 0.188-0.938c0.125-0.188 0.188-0.5 0.375-0.688s0.625-0.688 1.563-0.813c0.563-0.063 0.938 0 1.375 0.125 0.5 0.188 1.063 0.875 1.188 1.25s0.125 0.563 0.125 0.875c0 0.063 0 0.188 0 0.5 0 0.125 0.125 0.25-0.063 1.188-0.125 0.313-0.125 0.438-0.438 0.688-0.188 0.125-0.25 0.438-0.438 0.563-0.25 0.188-0.188 0.5-0.125 0.813s0.25 0.313 0.563 0.5c0.313 0.188 1.875 0.875 2.313 1.5 0.375 0.625 0.938 0.938 1.063 2.75 0.125 0.625 0.063 0.75 0.063 1.438s0.063 0.813 0.063 1.438h-10.313c0 0-0.188-2.063-0.375-1.75-0.25 0.313-0.563 1.813-0.563 1.813h-10.188c0 0-0.313-1.5-0.438-1.813-0.125-0.188-0.25 1.813-0.25 1.813h-9.938c0 0 0.063-0.813 0.125-1.25 0.063-0.688 0.063-1.5 0.25-2.125 0.188-0.688 0.188-1 0.563-1.375 0.438-0.313 0.688-0.563 1-0.75 0.563-0.25 1.375-0.875 0.813-2.375-0.438-1 0.063-2.5 0.625-3.375 0.563-0.813 0.813-1.5 2-1.5s2.063 1.313 2.313 2.188c0.188 0.938 0.313 2.063 0.063 2.875-0.313 0.938 0 1.438 1.313 2.125 0.5 0.25 0.688 1.063 0.813 1.313z"></path>
</svg>
