<?xml version="1.0" encoding="utf-8"?>
<!-- Generated by IcoMoon.io -->
<!DOCTYPE svg PUBLIC "-//W3C//DTD SVG 1.1//EN" "http://www.w3.org/Graphics/SVG/1.1/DTD/svg11.dtd">
<svg version="1.1" xmlns="http://www.w3.org/2000/svg" xmlns:xlink="http://www.w3.org/1999/xlink" width="32" height="32" viewBox="0 0 32 32">
<path d="M27.875 9.938c0 2.625-2.125 4.688-4.688 4.688-2.625 0-4.75-2.063-4.75-4.688 0-2.563 2.125-4.688 4.75-4.688 2.563 0 4.688 2.125 4.688 4.688zM0 24.938l1.813 0.688c0.625 2.938 3.25 5.188 6.375 5.188 3.438 0 6.188-2.625 6.563-5.938l8.375-6.125c4.875 0 8.813-3.938 8.813-8.75 0-4.875-3.938-8.813-8.813-8.813-4.813 0-8.75 3.875-8.75 8.688l-5.5 7.875c-0.188-0.063-0.438-0.063-0.688-0.063-1.188 0-2.375 0.313-3.313 0.938l-4.875-2v8.313zM23.125 4.063c3.25 0 5.875 2.688 5.875 5.938s-2.625 5.875-5.875 5.875c-3.25 0-5.875-2.625-5.875-5.875s2.625-5.938 5.875-5.938zM8.188 19.438c2.688 0 4.813 2.125 4.813 4.813s-2.125 4.813-4.813 4.813c-1.813 0-3.438-1-4.25-2.563 0.813 0.313 1.563 0.625 2.375 0.938 1.938 0.813 4.188-0.125 5-2.125 0.813-1.938-0.188-4.188-2.125-4.938l-2-0.813c0.313-0.063 0.688-0.125 1-0.125z"></path>
</svg>
