<?xml version="1.0" encoding="utf-8"?>
<!-- Generated by IcoMoon.io -->
<!DOCTYPE svg PUBLIC "-//W3C//DTD SVG 1.1//EN" "http://www.w3.org/Graphics/SVG/1.1/DTD/svg11.dtd">
<svg version="1.1" xmlns="http://www.w3.org/2000/svg" xmlns:xlink="http://www.w3.org/1999/xlink" width="32" height="32" viewBox="0 0 32 32">
<path d="M16 9.25c-0.938 0-1.688 0.75-1.688 1.688v10.25c-0.063 3.875-3.25 7.063-7.188 7.063s-7.125-3.25-7.125-7.188c0-0.063 0-4.438 0-4.438h5.5v4.375c0 0.938 0.75 1.688 1.688 1.688s1.688-0.75 1.688-1.688v-10.313c0.125-3.813 3.25-6.875 7.125-6.875s7 3.063 7.125 6.875v2.313l-3.25 0.938-2.188-1v-2c0-0.938-0.75-1.688-1.688-1.688zM32 21.063c0 3.938-3.188 7.188-7.125 7.188s-7.125-3.188-7.188-7.125v-4.438l2.188 1 3.25-1v4.5c0 0.938 0.75 1.688 1.688 1.688s1.688-0.75 1.688-1.688v-4.563h5.5c0 0 0 4.375 0 4.438z"></path>
</svg>
