<?xml version="1.0" encoding="utf-8"?>
<!-- Generated by IcoMoon.io -->
<!DOCTYPE svg PUBLIC "-//W3C//DTD SVG 1.1//EN" "http://www.w3.org/Graphics/SVG/1.1/DTD/svg11.dtd">
<svg version="1.1" xmlns="http://www.w3.org/2000/svg" xmlns:xlink="http://www.w3.org/1999/xlink" width="32" height="32" viewBox="0 0 32 32">
<path d="M11.938 19.938c-1.313 2-2.25 4-2.938 5.5 0 0.063-0.5 1.25-0.625 1.625-0.188 0.438 0.063 0.938 0.5 1.125 0.375 0.125 1.563 0.563 1.625 0.625 1.563 0.5 3.625 1.125 5.938 1.5-1.313-1.313-2.438-2.938-3.25-4.688s-1.188-3.688-1.25-5.688zM16.5 11.688c0 0 0 0 0 0-0.063-0.125-0.188-0.438-0.25-0.5-4.5-9.25-14.5-8.875-16.063-4.75-1.25 3.125 4.063 10.688 16.313 5.25zM18.5 10.813c0 0 0 0 0 0 6.938-3.063 5.938-8.375 4.188-9.063-2.438-0.938-6.813 2.625-4.313 8.813 0.063 0.063 0.125 0.188 0.125 0.25zM31.188 17.563c-1-2.313-2.938-4-5.188-4.813-0.188-0.063-0.438-0.125-0.688-0.125-1.125 0-2.25 0.938-2.375 2.188-0.125 2 0.25 4 1.125 6 0.875 1.938 2.063 3.563 3.688 4.813 0.375 0.313 0.875 0.438 1.375 0.438 0.938 0 1.813-0.5 2.188-1.313 0.938-2.25 0.938-4.813-0.125-7.188zM21.438 22c-1.125-2.5-1.563-5-1.375-7.438 0.063-0.688 0.313-1.375 0.625-2-0.063 0.063-0.188 0.063-0.188 0.063-1 0.25-2 0.688-2.875 1.25-1.25 0.875-2.375 2.125-2.875 3.563-0.125 0.375-0.25 0.813-0.25 1.25-0.188 1.938 0.125 4 1 5.938 0.875 1.875 2.063 3.438 3.563 4.625 0.938 0.688 2.625 1.188 3.938 1.188 1.25 0 2.5-0.375 3.625-0.938 0.375-0.188 1.125-0.688 1.188-0.75-0.688-0.125-1.313-0.438-1.813-0.875-1.938-1.438-3.5-3.438-4.563-5.875z"></path>
</svg>
