<?xml version="1.0" encoding="utf-8"?>
<!-- Generated by IcoMoon.io -->
<!DOCTYPE svg PUBLIC "-//W3C//DTD SVG 1.1//EN" "http://www.w3.org/Graphics/SVG/1.1/DTD/svg11.dtd">
<svg version="1.1" xmlns="http://www.w3.org/2000/svg" xmlns:xlink="http://www.w3.org/1999/xlink" width="32" height="32" viewBox="0 0 32 32">
<path d="M14.75 26.813c7.063-1.188 12.375-6.125 12.375-12.063 0-6.813-7-12.313-15.625-12.313-0.563 0-1.188 0-1.75 0.063 0.75 0.375 1.5 1 2.125 1.75 4.938 0.188 9.125 2.625 10.75 6 0.063 0.063 0.125 0.125 0.125 0.188 0.063 0.125 0.125 0.313 0.188 0.438 0.313 0.813 0.5 1.75 0.5 2.688 0 3.938-3.25 7.438-7.813 8.813 0.125 0.188 0.25 0.5 0.063 0.813l-0.063 0.063-0.125 0.063c-0.375 0.25-0.375 0.563-0.313 1.063 0.063 0.25 0.188 0.563 0.188 0.875 0.063 0.375 0 0.75-0.188 1.125-0.063 0.125-0.25 0.25-0.438 0.438zM15.688 21.875c-0.063 0.063-0.063 0.125-0.125 0.125l-0.125 0.125c-0.063 0-0.063 0.063-0.063 0.063 2.438-1.125 4.125-3.188 4.125-5.5s-1.625-4.313-4-5.438c0.063 0.25 0.063 0.5 0.063 0.75s-0.063 0.5-0.188 0.688c-0.063 0.063-0.063 0.125-0.125 0.188s-0.125 0.125-0.188 0.188c-0.188 0.25-0.188 0.375-0.188 0.563l0.063 0.188c0.813 1.313 1.75 2.688 2.625 4.063l0.063 0.063c0.188 0.438 0 0.938-0.375 1.188-0.188 0.188-0.375 0.25-0.563 0.313-0.188 0-0.375 0.063-0.5 0.063-0.313 0.063-0.438 0.125-0.5 0.313s-0.063 0.375 0 0.563c0.063 0.063 0.063 0.188 0.125 0.313s0.125 0.25 0.188 0.313l0.063 0.125v0.125c-0.125 0.375-0.25 0.5-0.375 0.625zM8.938 26.375c3.625 0.688 4.813 0.125 5.125-0.375 0.563-1.125-0.875-2.375 0.438-3.188 0.188-0.313-0.188-0.438-0.313-0.625-0.25-0.5 0.563-0.563 0.563-1.063-0.25-0.5-0.5-0.938-0.313-1.563 0.313-0.75 1.188-0.438 1.75-0.875 0.188-0.188 0.313-0.5 0.188-0.75-0.875-1.313-1.813-2.75-2.688-4.125l-0.063-0.25c-0.063-0.75 0.688-1 0.75-1.75-0.063-2.125-2.563-8.313-6.125-9.063 0 0 0 3.188 0 7.188 2.875 2.188 4.5 5.75 3.875 9.75-0.313 2.438-1.5 4.75-3.188 6.688zM12.813 0.25c-2 0-4 0.25-5.813 0.688l-1.25 0.375c-0.875 0.313-1.313 0.813-1.5 1.5l-1.375 6.875c-1.688 0.688-2.875 2.313-2.875 4.25 0 2.563 2.063 4.625 4.625 4.625s4.625-2.063 4.625-4.625c0-1.688-0.875-3.125-2.188-3.938v-8.563c1.5-0.375 3.063-0.563 4.688-0.563 10 0 18.125 6.688 18.125 14.875 0 8.25-8.125 14.875-18.125 14.875-2.375 0-4.688-0.375-6.813-1.063-0.313 0.188-0.563 0.313-0.813 0.438 2.625 1.125 5.563 1.75 8.75 1.75 10.563 0 19.125-7.063 19.125-15.75s-8.563-15.75-19.188-15.75zM8 13.813c0 1.875-1.563 3.375-3.375 3.375-1.875 0-3.438-1.5-3.438-3.375 0-1.938 1.563-3.438 3.438-3.438s3.375 1.563 3.375 3.438z"></path>
</svg>
