<?xml version="1.0" encoding="utf-8"?>
<!-- Generated by IcoMoon.io -->
<!DOCTYPE svg PUBLIC "-//W3C//DTD SVG 1.1//EN" "http://www.w3.org/Graphics/SVG/1.1/DTD/svg11.dtd">
<svg version="1.1" xmlns="http://www.w3.org/2000/svg" xmlns:xlink="http://www.w3.org/1999/xlink" width="32" height="32" viewBox="0 0 32 32">
<path d="M32 0v22.125c-5.438 3.313-11.938 4-17.938 2.875-3 1.563-5.688 3.75-8.625 5.438 0.188-2.313 0.5-4.563 0.75-6.875 0.063-0.938 0.375-2.125-0.625-2.688-3.688-2.938-6.188-7.75-5.625-12.563 0.313-3.125 1.938-5.75 3.875-8.313zM26.438 4.063c-2.438-1.813-5.625-2.625-8.625-2.5-3.438 0.063-6.875 1.313-9.188 3.813-1.313 1.375-2.313 3.25-2.313 5.188-0.125 2.688 1.375 5.25 3.438 6.813 4.375 3.313 10.813 3.625 15.563 0.938 2.688-1.5 4.813-4.188 4.875-7.313 0.063-2.813-1.5-5.375-3.75-6.938z"></path>
</svg>
