<?xml version="1.0" encoding="utf-8"?>
<!-- Generated by IcoMoon.io -->
<!DOCTYPE svg PUBLIC "-//W3C//DTD SVG 1.1//EN" "http://www.w3.org/Graphics/SVG/1.1/DTD/svg11.dtd">
<svg version="1.1" xmlns="http://www.w3.org/2000/svg" xmlns:xlink="http://www.w3.org/1999/xlink" width="32" height="32" viewBox="0 0 32 32">
<path d="M29.688 2.5l-28.438 11.125c0 0-1.375 0.438-1.25 1.313s1.188 1.25 1.188 1.25l7.063 2.375c0.563 1.813 2.25 7.625 2.563 8.75 0.375 1.25 0.625 1.5 0.813 1.563 0.063 0 0.125 0 0.125 0 0.5 0.063 0.875-0.25 0.875-0.25l4.5-4.438 7.125 5.438c1.938 0.813 2.688-0.938 2.688-0.938l5.063-25.5c0-1.688-2.313-0.688-2.313-0.688zM26.125 8.313c-0.5 0.438-12.313 11.25-13.5 12.375l-0.688 5.875c-0.063 0.563-0.563 0.563-0.813 0.125-0.5-1.625-1.688-5.938-2.313-7.875l16.75-11.125c0 0 0.938-0.625 0.938 0 0 0 0 0.25-0.375 0.625z"></path>
</svg>
