<?xml version="1.0" encoding="utf-8"?>
<!-- Generated by IcoMoon.io -->
<!DOCTYPE svg PUBLIC "-//W3C//DTD SVG 1.1//EN" "http://www.w3.org/Graphics/SVG/1.1/DTD/svg11.dtd">
<svg version="1.1" xmlns="http://www.w3.org/2000/svg" xmlns:xlink="http://www.w3.org/1999/xlink" width="32" height="32" viewBox="0 0 32 32">
<path d="M8.813 14.438c-4.875 0-8.813 3.938-8.813 8.75 0 4.875 3.938 8.813 8.813 8.813 4.813 0 8.75-3.938 8.75-8.813 0-2.438 0-1.438 0-2.5h-3.125c0 0 0 0.063 0 2.5 0 1.563-0.625 3-1.688 4-1 1-2.375 1.625-3.938 1.625s-3-0.625-4-1.625c-1.063-1-1.688-2.438-1.688-4s0.625-2.938 1.688-4c1-1 2.438-1.625 4-1.625 2.875 0 11.375 0 14.375 0 4.875 0 8.813-3.938 8.813-8.75 0-4.875-3.938-8.813-8.813-8.813-4.813 0-8.75 3.938-8.75 8.813 0 2.438 0 2.5 0 2.5h3.125c0 0 0-0.063 0-2.5 0-1.563 0.625-3 1.688-4 1-1 2.375-1.625 3.938-1.625s3 0.625 4 1.625c1.063 1 1.688 2.438 1.688 4s-0.625 2.938-1.688 4c-1 1-2.438 1.625-4 1.625h-14.375z"></path>
</svg>
