<?xml version="1.0" encoding="utf-8"?>
<!-- Generated by IcoMoon.io -->
<!DOCTYPE svg PUBLIC "-//W3C//DTD SVG 1.1//EN" "http://www.w3.org/Graphics/SVG/1.1/DTD/svg11.dtd">
<svg version="1.1" xmlns="http://www.w3.org/2000/svg" xmlns:xlink="http://www.w3.org/1999/xlink" width="32" height="32" viewBox="0 0 32 32">
<path d="M11.438 2.688c0.813 1.875 1.625 3.75 2.5 5.625 0.063 0.188 0.25 0.938 0.563 0.813 0.625-0.25 0.5-0.188 0.313-0.813-0.313-0.938-0.688-1.813-0.938-2.688-0.5-1.375-1.125-2.75-1.563-4.125-0.125-0.375-0.563-1.813-1.188-1.438-1 0.563 0 1.875 0.313 2.625 0.125 0.25-0.125-0.313 0 0zM22.375 12.188c-0.688 0-1 1.063-0.438 1.438 0.188 0.125 0.375 0.188 0.438 0.188 0.313 0 0.813-0.5 0.813-0.875 0-0.188 0.313-0.625 1.125-1.5 0.625-0.625 1.875-1.938 2.813-2.875 0.875-0.938 2.188-2.313 2.875-3.063 1.625-1.688 1.625-1.688 1.438-2.063-0.063-0.188-0.313-0.375-0.5-0.375-0.063-0.063-0.063-0.063-0.125-0.063-0.25 0.063-0.563 0.375-1.688 1.688-0.313 0.375-0.813 0.938-1.063 1.25-0.25 0.25-0.813 0.875-1.188 1.375-0.438 0.438-1.063 1.188-1.375 1.563-1.125 1.25-1.75 2-2.313 2.688-0.375 0.438-0.625 0.625-0.813 0.625zM22.25 18.313c1.75-0.75 3.875-2.25 4.563-3.25 0.188-0.188 0.375-0.438 0.438-0.563 0.563-0.625 0.938-2.125 0.688-3-0.125-0.563-0.75-1.563-1-1.563-0.188 0-1.75 1.75-1.813 2-0.125 0.5 0.125 0.625 1.063 0.625s0.875 0.125-0.188 0.5c-1.375 0.5-1.563 0.938-1.063 2 0.125 0.313 0.25 0.563 0.188 0.563 0 0.063-0.313 0-0.625-0.125-0.75-0.188-1.063-0.25-1.5-0.063-0.375 0.188-0.938 1.25-0.938 1.688 0 0.188-0.063 0.313-0.125 0.375-0.188 0.063-0.375-0.438-0.375-0.875 0-0.125-0.188-0.5-0.438-0.75-0.438-0.5-0.438-0.5-1.25-0.5-0.438 0-1 0.063-1.313 0.125l-0.5 0.063 0.75-0.75c0.625-0.625 0.75-0.75 0.75-1.25 0-0.625-0.313-1.063-1-1.625l-0.375-0.375 0.5 0.125c1.75 0.313 2.563-0.188 2.813-1.813 0-0.313 0.125-0.563 0.125-0.563 0.063 0 0.25 0.313 0.375 0.625 0.375 0.813 0.625 1 1.125 0.625 0.375-0.25 1.438-1.438 1.5-1.688 0.125-0.313-1.438-0.5-3.188-0.5-1.375 0-2.875 0.125-3.75 0.313-1.875 0.5-2.313 0.625-2.25 0.875 0.063 0.125 0.188 0.438 0.313 0.688 0.25 0.813 0.438 1.188 0.563 1.188 0.188 0 0.688 0.688 0.688 0.875 0 0.125-0.125 0.375-0.313 0.563-0.375 0.375-0.875 0.438-1.313 0.063-0.188-0.25-0.25-0.375-0.188-0.75 0.063-0.5-0.063-0.813-0.688-2.188l-0.125-0.25-0.938 0.438c-2.75 1.375-4.5 3.063-5.063 5-0.125 0.25-0.125 0.563-0.125 0.563 0.063 0 1.063 0.063 2.25 0.125 1.938 0.063 2.313 0.063 2.5-0.063 0.375-0.313 0.625-0.375 1.063-0.188s0.5 0.438 0.438 0.938c-0.063 0.563-1 0.875-1.438 0.438-0.188-0.188-0.438-0.188-2.375-0.125-1.125 0-2.125 0.063-2.188 0.125-0.063 0.125 0.375 0.813 0.875 1.25 0.938 0.813 2.375 1.375 4.313 1.563 2.375 0.25 5.875-0.375 8.563-1.5zM29.688 20.875c-0.063-0.688-0.188-1.813-0.313-2.438-0.063-0.625-0.188-1.625-0.25-2.125-0.063-0.688-0.125-1-0.188-1s-0.125 0.125-0.188 0.438c-0.063 0.625-0.813 4.375-0.938 4.563 0 0.063-0.125 0.563-0.188 1.063-0.125 0.438-0.25 1.125-0.313 1.5-0.063 0.313-0.25 1.188-0.375 1.875-0.313 1.5-0.5 2.125-0.625 2.125-0.063 0-1.5-1.313-3.188-2.938l-3-3-0.25 0.438c-0.125 0.313-0.25 0.75-0.313 1.063 0 0.313-0.125 0.625-0.188 0.75-0.063 0.063-0.25 0.813-0.5 1.625-0.188 0.75-0.438 1.688-0.563 2-0.063 0.375-0.25 1-0.375 1.5-0.25 1-0.438 1.063-1.063 0.375-0.563-0.625-2.125-2.438-2.313-2.625-0.063-0.063-0.438-0.438-0.813-0.875s-0.813-0.938-0.938-1.063c-0.125-0.188-0.625-0.688-1.063-1.188s-0.875-1-0.938-1.063c-0.063-0.063-0.438-0.438-0.75-0.813-0.625-0.688-0.688-0.625-0.313 0.313 0.125 0.313 0.375 0.813 0.438 1.063 0.125 0.25 0.25 0.563 0.375 0.813 0.188 0.313 0.375 0.813 0.875 2 0.125 0.25 0.313 0.625 0.375 0.813 0.125 0.375 0.5 1.125 0.813 1.875 0.625 1.5 0.813 1.813 1.375 2.375 0.75 0.688 1.875 1.25 3.063 1.5 1.875 0.375 4.438 0.188 6.5-0.5 2.063-0.625 3.375-1.438 4.688-2.75 1.063-1.063 1.063-1.063 1.438-1.813 0.438-0.813 0.5-1.563 0.313-3.188-0.063-0.813-0.25-2-0.313-2.688zM7.188 15.875c-0.25-0.063-1.25-0.063-2.375-0.063-1.813 0-4.125 0.063-4.188 0.125-0.188 0.25-0.188 0.813 0 1 0.125 0.125 0.813 0.125 3.563 0.063 1.938-0.063 3.5-0.125 3.5-0.125 0.063 0 0.063-0.25 0-0.5-0.063-0.313-0.125-0.438-0.5-0.5z"></path>
</svg>
