<?xml version="1.0" encoding="utf-8"?>
<!-- Generated by IcoMoon.io -->
<!DOCTYPE svg PUBLIC "-//W3C//DTD SVG 1.1//EN" "http://www.w3.org/Graphics/SVG/1.1/DTD/svg11.dtd">
<svg version="1.1" xmlns="http://www.w3.org/2000/svg" xmlns:xlink="http://www.w3.org/1999/xlink" width="32" height="32" viewBox="0 0 32 32">
<path d="M9.375 17.375c0 0.688-0.563 1.313-1.313 1.313-0.688 0-1.313-0.625-1.313-1.313 0-0.75 0.625-1.313 1.313-1.313 0.75 0 1.313 0.563 1.313 1.313zM25.25 17.375c0 0.688-0.625 1.313-1.313 1.313-0.75 0-1.313-0.625-1.313-1.313 0-0.75 0.563-1.313 1.313-1.313 0.688 0 1.313 0.563 1.313 1.313zM8.063 13.5c-1 0-2 0.375-2.75 1.125-0.688 0.75-1.125 1.688-1.125 2.75 0 1 0.438 2 1.125 2.75 0.75 0.688 1.75 1.125 2.75 1.125 2.188 0 3.875-1.75 3.875-3.875s-1.688-3.875-3.875-3.875zM8.063 20.063c-0.688 0-1.375-0.313-1.875-0.813s-0.813-1.188-0.813-1.875c0-0.75 0.313-1.438 0.813-1.938s1.188-0.75 1.875-0.75c1.5 0 2.688 1.188 2.688 2.688s-1.188 2.688-2.688 2.688zM23.938 13.5c-1.063 0-2 0.375-2.75 1.125s-1.125 1.688-1.125 2.75c0 1 0.375 2 1.125 2.75 0.75 0.688 1.688 1.125 2.75 1.125 2.125 0 3.875-1.75 3.875-3.875s-1.75-3.875-3.875-3.875zM23.938 20.063c-0.75 0-1.438-0.313-1.938-0.813s-0.75-1.188-0.75-1.875c0-0.75 0.25-1.438 0.75-1.938s1.188-0.75 1.938-0.75c1.438 0 2.688 1.188 2.688 2.688s-1.25 2.688-2.688 2.688zM30.188 12.25c0.313-0.938 0.75-2 1.375-2.625h-5.25c-0.125 0-0.188-0.063-0.313-0.063-0.25-0.438-2.25-3-10.125-3-8.688 0-10.188 3.063-10.188 3.063h-5.563c0.688 0.625 1.188 1.938 1.5 2.875-1 1.375-1.625 3.063-1.625 4.875 0 4.438 3.625 8.063 8.063 8.063 2.5 0 4.688-1.125 6.188-2.875l1.813 2.563 1.625-2.625c1.438 1.813 3.688 2.938 6.25 2.938 4.438 0 8.063-3.625 8.063-8.063 0-1.938-0.688-3.75-1.813-5.125zM8.063 23.875c-3.563 0-6.5-2.938-6.5-6.5 0-3.625 2.938-6.5 6.5-6.5 3.625 0 6.5 2.875 6.5 6.5 0 3.563-2.875 6.5-6.5 6.5zM8.188 9.75c0 0 2.063-2.375 7.625-2.375h0.563c5.5 0 7.625 2.375 7.625 2.375s-5.938-1-7.938 6.313c-1.938-7.313-7.875-6.313-7.875-6.313zM23.938 23.875c-3.625 0-6.5-2.938-6.5-6.5 0-3.625 2.875-6.5 6.5-6.5 3.563 0 6.5 2.875 6.5 6.5 0 3.563-2.938 6.5-6.5 6.5z"></path>
</svg>
