<?xml version="1.0" encoding="utf-8"?>
<!-- Generated by IcoMoon.io -->
<!DOCTYPE svg PUBLIC "-//W3C//DTD SVG 1.1//EN" "http://www.w3.org/Graphics/SVG/1.1/DTD/svg11.dtd">
<svg version="1.1" xmlns="http://www.w3.org/2000/svg" xmlns:xlink="http://www.w3.org/1999/xlink" width="32" height="32" viewBox="0 0 32 32">
<path d="M15.125 18.313l-11.313-0.125c-0.188 0-0.313 0-0.438 0.125s-0.188 0.25-0.313 0.375-0.5 0.438-0.813 0.563c-0.688 0.125-1.375 0-1.875-0.438-0.438-0.438-0.5-1.125-0.188-1.688 0.5-0.938 1.938-1.25 2.813-0.563 0.25 0.25 0.438 0.5 0.5 0.875 0 0.125 0.063 0.125 0.188 0.125l11.5-0.125c0.188 0 0.125 0 0.125 0.125 0 0.188 0 0.375 0 0.625 0 0.125-0.063 0.125-0.188 0.125zM20.688 18.313c0.313-0.875-0.063-1.813-0.75-2.313-1.188-0.75-2.875-0.375-3.625 0.75-0.438 0.688-0.5 1.5-0.063 2.188 0.438 0.625 1.188 0.875 1.938 0.938-0.063 0-0.063 0 0.125 0 0.313 0 0.25 0 0.125 0 1-0.063 1.938-0.688 2.25-1.563zM30.75 16.375c-0.75-0.063-1.438 0.375-1.625 1.063-0.063 0.125-0.063 0.125-0.188 0.125l-7.438-0.063c-0.063 0-0.063 0.188-0.063 0.25 0 0.125 0 0.25-0.063 0.375 0 0.125 0 0.125 0.125 0.125l7.5-0.125c0.125 0.063 0.188 0.375 0.25 0.5 0.125 0.125 0.25 0.313 0.375 0.438 0.313 0.25 0.75 0.313 1.125 0.25 0.688-0.063 1.25-0.688 1.25-1.438s-0.5-1.375-1.25-1.5zM18.063 12.938c0.125 0 0.125 0.063 0.125 0.188l-0.125 1.75c-0.063 0.125 0.063 0.188 0.188 0.188 0.188-0.063 0.375-0.063 0.563 0 0.125 0 0.125-0.063 0.125-0.188 0-0.563-0.063-1.188-0.063-1.813 0-0.188 0.25-0.188 0.438-0.25 0.125-0.125 0.313-0.25 0.438-0.375 0.25-0.25 0.375-0.625 0.375-1.063 0.063-0.688-0.375-1.313-1.063-1.563-0.625-0.25-1.375 0-1.813 0.563-0.688 0.875-0.313 2.188 0.813 2.563zM25.938 11.688c0 0.063 0.063 0.063 0.063 0.063s-0.063 0-0.063-0.063zM20.813 15.938c0.063 0.125 0.188 0.25 0.25 0.313 0.063 0.125 0.188 0.063 0.25 0l3.813-2.438c0.063 0 0.125 0.063 0.25 0.125 0.375 0.188 0.875 0.188 1.25-0.125 0.875-0.688 0.375-2.063-0.688-2.125-0.75 0-1.313 0.688-1.188 1.438 0.063 0.125 0 0.188-0.063 0.188-1.375 0.75-2.688 1.563-4 2.375-0.125 0.125 0.063 0.188 0.125 0.25zM12.125 21c0-0.438 0 0.188 0 0zM16 19.625c-0.125-0.125-0.188-0.25-0.25-0.313-0.063-0.125-0.125-0.125-0.188-0.063-0.438 0.313-0.875 0.563-1.375 0.875-0.063 0.063-0.125 0.063-0.188 0-0.375-0.313-0.813-0.375-1.25-0.125-0.375 0.188-0.625 0.563-0.625 1-0.063 0.813 0.75 1.375 1.438 1.188 0.625-0.188 1-0.75 0.875-1.313 0-0.125 0-0.125 0.125-0.188 0.5-0.25 1-0.563 1.5-0.875 0.125-0.063 0-0.125-0.063-0.188zM12.438 14.313c0.063 0 0.125-0.063 0.188-0.063 0.125 0 0.188 0.063 0.25 0.125l2.688 2.125c0.125 0.063 0.125 0.063 0.188-0.063 0.125-0.125 0.25-0.313 0.375-0.438s-0.125-0.188-0.25-0.25l-2.563-1.875c-0.188-0.125-0.375-0.188-0.313-0.438 0 0 0-0.063 0-0.063-0.063-0.875-1.313-1.188-1.75-0.375-0.188 0.375-0.125 0.875 0.188 1.125 0.25 0.25 0.625 0.375 1 0.188zM21.563 19.75c-0.25 0.063-0.375 0-0.563-0.188-0.063 0-0.063-0.063-0.125-0.063-0.063-0.125-0.125-0.125-0.25 0-0.063 0.063-0.188 0.188-0.313 0.25-0.063 0.063-0.063 0.063 0.063 0.125 0.125 0.125 0.313 0.188 0.5 0.313 0.125 0.063 0.063 0.188 0.063 0.313s0 0.25 0.063 0.375c0.125 0.188 0.313 0.375 0.625 0.375 0.438 0.063 0.75-0.313 0.75-0.75 0 0 0 0 0 0v0c0-0.438-0.375-0.813-0.813-0.75z"></path>
</svg>
