<?xml version="1.0" encoding="utf-8"?>
<!-- Generated by IcoMoon.io -->
<!DOCTYPE svg PUBLIC "-//W3C//DTD SVG 1.1//EN" "http://www.w3.org/Graphics/SVG/1.1/DTD/svg11.dtd">
<svg version="1.1" xmlns="http://www.w3.org/2000/svg" xmlns:xlink="http://www.w3.org/1999/xlink" width="32" height="32" viewBox="0 0 32 32">
<path d="M6.125 13.125v-4.563c1.25-0.375 2.375-1 3.25-1.75s1.625-1.688 2.125-2.75c0.563-1.063 0.938-2.438 1.125-4.063h4.563v8.063h7.625v5.063h-7.625v8.188c0 1.875 0.125 3.063 0.313 3.563 0.188 0.563 0.563 0.938 1.063 1.25 0.75 0.438 1.563 0.688 2.438 0.688 1.625 0 3.25-0.563 4.875-1.625v5.063c-1.375 0.625-2.625 1.125-3.75 1.375-1.063 0.25-2.313 0.375-3.563 0.375-1.5 0-2.75-0.188-3.875-0.563s-2.125-0.875-2.875-1.563c-0.813-0.688-1.375-1.438-1.688-2.188s-0.438-1.875-0.438-3.375v-11.188z"></path>
</svg>
