<?xml version="1.0" encoding="utf-8"?>
<!-- Generated by IcoMoon.io -->
<!DOCTYPE svg PUBLIC "-//W3C//DTD SVG 1.1//EN" "http://www.w3.org/Graphics/SVG/1.1/DTD/svg11.dtd">
<svg version="1.1" xmlns="http://www.w3.org/2000/svg" xmlns:xlink="http://www.w3.org/1999/xlink" width="32" height="32" viewBox="0 0 32 32">
<path d="M28.688 10.125c-0.563-2.25-1.5-4.25-3.063-5.875-2.25-2.188-5.438-3.313-9.625-3.313-4.125 0-7.313 1.125-9.563 3.313-1.563 1.625-2.5 3.625-3.063 5.813-1.875 0.313-3.375 2-3.375 4v4.125c0 2.25 1.813 4.063 4.063 4.063v-4.75l2.688 1.563c0.188 0.063 0.375 0.125 0.563 0.125h5.313c0.313 0 0.625-0.125 0.938-0.375 0-0.063 0-0.063 0.063-0.063l1.625-2c0 0 0.313-0.375 0.75-0.375 0.25 0 0.5 0.063 0.75 0.313l1.625 2.063c0.063 0 0.063 0.063 0.063 0.063 0.313 0.25 0.625 0.375 0.938 0.375h5.313c0.188 0 0.375-0.063 0.563-0.125l2.688-1.563v3.563l-7.563 8.813h-4.563c-0.313 0-0.563 0.25-0.563 0.563s0.25 0.563 0.563 0.563h5.063l7.75-8.875c1.938-0.313 3.375-2 3.375-4v-4.063c0-1.938-1.438-3.625-3.313-3.938zM15.563 16.313l0.063-0.063c0 0.063-0.063 0.063-0.063 0.063zM16.375 16.313c0.063 0 0.063 0 0 0zM24.688 8.875h-17.375c-0.188 0-0.375 0-0.563 0.125l-2.188 1.25c0.5-2 1.375-3.813 2.75-5.188 2-1.938 4.813-2.938 8.688-2.938s6.75 1 8.75 2.938c1.375 1.375 2.188 3.188 2.75 5.188l-2.25-1.313c-0.188-0.063-0.375-0.063-0.563-0.063z"></path>
</svg>
