<?xml version="1.0" encoding="utf-8"?>
<!-- Generated by IcoMoon.io -->
<!DOCTYPE svg PUBLIC "-//W3C//DTD SVG 1.1//EN" "http://www.w3.org/Graphics/SVG/1.1/DTD/svg11.dtd">
<svg version="1.1" xmlns="http://www.w3.org/2000/svg" xmlns:xlink="http://www.w3.org/1999/xlink" width="32" height="32" viewBox="0 0 32 32">
<path d="M6.188 25c0.75 1.375 1.813 2.438 3.063 3.188 0.875 0.5 1.813 0.813 2.75 1 8.313-3.25 7.313-18.938 7.25-19.75-0.313-0.938-1.75-4.938-4.438-9.438 0 0 3.75 2.5 4.438 9.375 0 0 0 0.063 0 0.063 0.063 0.125 0.063 0.188 0.063 0.188 4.875 13-5.688 19.688-5.75 19.688 1.563 0 2.938-0.375 4.188-1.125 1.313-0.75 2.313-1.813 3.125-3.188 0.75-1.375 1.125-2.813 1.125-4.438 0-1.25-0.25-2.438-0.688-3.563 0.75-0.125 1.688-0.438 2.625-1.063 0.563 1.438 0.875 2.938 0.875 4.563 0 3.063-1.063 5.75-3.188 8.063-2.063 2.313-4.813 3.438-8.063 3.438-3.375 0-6.063-1.125-8.188-3.438-2.063-2.313-3.125-5-3.125-8.063 0-3 1-5.688 3-7.875 2.188-2.5 4.938-3.688 8.313-3.688 1.375 0 2.688 0.188 3.875 0.625-0.375 0.75-0.75 1.688-0.813 2.688-1-0.375-2-0.563-3.125-0.563-2.313 0-4.25 0.875-5.938 2.563-1.688 1.75-2.5 3.875-2.5 6.313 0 1.625 0.375 3.063 1.125 4.438zM21.063 12.125c0 0 6.438-3.5 6.688-6.5 0 0-2 4.438-7.438 5.688 0 0-1.938-3.063 0.563-5.563 0 0 0.875-1 3.375-1.625 0 0 2.5-0.5 3.875-3.375 0 0 2.813 3.875 1.063 9.063 0 0-0.875 2.313-2.625 3.375-1.375 0.813-3.375 1.063-5.5-1.063zM13.563 29.313c0 0-0.063 0-0.063 0s0 0 0 0c0.063 0 0.063 0 0.063 0z"></path>
</svg>
