<?xml version="1.0" encoding="utf-8"?>
<!-- Generated by IcoMoon.io -->
<!DOCTYPE svg PUBLIC "-//W3C//DTD SVG 1.1//EN" "http://www.w3.org/Graphics/SVG/1.1/DTD/svg11.dtd">
<svg version="1.1" xmlns="http://www.w3.org/2000/svg" xmlns:xlink="http://www.w3.org/1999/xlink" width="32" height="32" viewBox="0 0 32 32">
<path d="M18.438 8.063c-0.375-0.063-0.75 0.25-0.75 0.688-0.063 0.375 0.25 0.75 0.688 0.813 2.5 0.125 3.688 1.375 3.813 4 0.063 0.375 0.375 0.688 0.813 0.688 0 0 0 0 0 0 0.438 0 0.75-0.375 0.75-0.75-0.188-3.438-2-5.25-5.313-5.438zM26.875 15.563c0.375 0 0.75-0.313 0.75-0.688 0.063-3-0.813-5.5-2.688-7.5-1.813-2-4.375-3.125-7.625-3.438-0.438 0-0.75 0.313-0.813 0.75 0 0.375 0.313 0.75 0.688 0.813 2.938 0.188 5.063 1.125 6.625 2.875 1.625 1.688 2.375 3.813 2.313 6.438 0 0.375 0.313 0.75 0.75 0.75zM27.063 4.438c-2.938-2.875-6.688-4.375-11.125-4.438-0.438 0-0.75 0.375-0.75 0.75 0 0.438 0.313 0.813 0.75 0.813 4 0 7.438 1.375 10.125 4s4.063 6.188 4.063 10.875c0 0.375 0.375 0.75 0.813 0.75 0.375 0 0.75-0.375 0.75-0.75-0.125-5.063-1.625-9.125-4.625-12zM29.875 25.063c0 0-1.75-1.438-2.625-2.063-0.813-0.625-2.063-1.375-2.75-1.813-1.313-0.688-2.625-0.25-3.125 0.5l-1.125 1.375c-0.625 0.688-1.688 0.625-1.688 0.625-7.813-2-9.875-9.938-9.875-9.938s-0.125-1.063 0.563-1.625l1.438-1.125c0.688-0.563 1.125-1.875 0.438-3.125-0.375-0.688-1.188-2-1.75-2.813-0.688-0.813-2.125-2.563-2.125-2.563-0.688-0.813-1.688-1-2.813-0.438 0 0 0 0 0 0-1.063 0.563-2 1.313-2.875 2.313 0 0 0 0 0 0.063-0.688 0.75-1.063 1.563-1.188 2.375 0 0.063 0 0.188 0 0.313 0 0.375 0 0.688 0.125 1.063h0.063c0.313 1.188 1.188 3.188 3 6.563 1.188 2.125 2.375 3.938 3.625 5.438 0.625 0.813 1.313 1.625 2.188 2.438 0 0.063 0.063 0.125 0.063 0.125 0.063 0.063 0.063 0.063 0.125 0.125 0 0 0.063 0.063 0.063 0.063 0.063 0.063 0.063 0.063 0.125 0.125 0.813 0.813 1.625 1.5 2.438 2.125 1.5 1.25 3.313 2.438 5.5 3.625 3.313 1.875 5.313 2.688 6.5 3l0.063 0.063c0.313 0.063 0.625 0.188 1 0.188 0.125 0 0.25 0 0.375-0.063 0.75-0.125 1.563-0.5 2.313-1.125 0 0 0 0 0.063-0.063 1-0.875 1.75-1.875 2.313-2.875 0 0 0 0 0-0.063 0.563-1.063 0.375-2.063-0.438-2.813z"></path>
</svg>
