<?xml version="1.0" encoding="utf-8"?>
<!-- Generated by IcoMoon.io -->
<!DOCTYPE svg PUBLIC "-//W3C//DTD SVG 1.1//EN" "http://www.w3.org/Graphics/SVG/1.1/DTD/svg11.dtd">
<svg version="1.1" xmlns="http://www.w3.org/2000/svg" xmlns:xlink="http://www.w3.org/1999/xlink" width="32" height="32" viewBox="0 0 32 32">
<path d="M20.688 9.125c-0.75 0-1.563 0.188-2.375 0.563 1.563-5.188 4.563-7.688 9-7.5 3.313 0.063 4.875 2.188 4.688 6.375-0.188 3.125-2.313 7.375-6.563 12.813-4.313 5.625-8 8.5-11 8.5-1.875 0-3.438-1.75-4.75-5.188-0.875-3.188-1.75-6.313-2.563-9.5-1-3.438-2-5.125-3.125-5.125-0.25 0-1.063 0.5-2.5 1.5l-1.5-1.938c1.563-1.438 3.125-2.813 4.688-4.188 2.063-1.813 3.688-2.75 4.75-2.875 2.438-0.25 4 1.438 4.563 5.125 0.625 3.938 1.063 6.375 1.313 7.313 0.688 3.25 1.5 4.875 2.375 4.875 0.688 0 1.688-1.063 3-3.125 1.313-2.125 2.063-3.75 2.188-4.875 0.188-1.813-0.563-2.75-2.188-2.75z"></path>
</svg>
