<?xml version="1.0" encoding="utf-8"?>
<!-- Generated by IcoMoon.io -->
<!DOCTYPE svg PUBLIC "-//W3C//DTD SVG 1.1//EN" "http://www.w3.org/Graphics/SVG/1.1/DTD/svg11.dtd">
<svg version="1.1" xmlns="http://www.w3.org/2000/svg" xmlns:xlink="http://www.w3.org/1999/xlink" width="32" height="32" viewBox="0 0 32 32">
<path d="M22.813 4.813c-1.375 0-2.25 1.25-2.25 3.625 0 4.938 3.125 7.75 7.125 7.75 0.75 0 1.438-0.063 2.375-0.313v3.813c-1.25 0.313-2.688 0.438-3.813 0.438-2.688 5.688-7.563 10.5-9.125 11.438-1.063 0.563-2 0.625-3.125-0.063-2-1.188-9.5-7.5-12-26.688h5.438c1.375 11.813 4.688 17.563 8.375 22 2.063-2 4-4.688 5.5-7.813-3.625-1.813-5.813-5.875-5.813-10.625s2.75-8.375 7.438-8.375c4.563 0 7.063 2.875 7.063 7.75 0 1.813-0.375 3.875-1.063 5.5-3.438 0.688-4.688-1.5-4.688-1.5 0.25-0.813 0.625-2.25 0.625-3.563 0-2.25-0.813-3.375-2.063-3.375z"></path>
</svg>
