<?xml version="1.0" encoding="utf-8"?>
<!-- Generated by IcoMoon.io -->
<!DOCTYPE svg PUBLIC "-//W3C//DTD SVG 1.1//EN" "http://www.w3.org/Graphics/SVG/1.1/DTD/svg11.dtd">
<svg version="1.1" xmlns="http://www.w3.org/2000/svg" xmlns:xlink="http://www.w3.org/1999/xlink" width="32" height="32" viewBox="0 0 32 32">
<path d="M30.938 22.063c-0.938-1.25-1.75-2-2.938-3.125-0.5-0.5-1.188-1-1.25-1.688-0.063-0.938 0.813-1.813 1.25-2.438 0.063-0.063 0.125-0.125 0.188-0.188s0.063-0.063 0.125-0.125c0-0.063 0.063-0.063 0.063-0.125 0.063-0.063 0.063-0.125 0.125-0.125 0-0.063 0.063-0.063 0.063-0.063 0.063-0.063 0.063-0.125 0.125-0.188 0.813-1.063 1.625-2 2.438-3.25 0.25-0.438 1.063-2 0.813-2.625-0.375-0.75-2.313-0.5-3.375-0.5-1.313 0-2.75-0.25-3.688 0.125-0.563 0.188-0.938 1.438-1.25 2.125-0.5 1.063-0.938 1.938-1.438 2.75 0 0.063-0.063 0.125-0.125 0.188 0 0 0 0 0 0 0 0.063-0.063 0.125-0.125 0.188 0 0 0 0 0 0-0.063 0.125-0.125 0.25-0.188 0.313 0 0.063-0.063 0.063-0.063 0.063 0 0.063-0.063 0.063-0.063 0.125-0.063 0.063-0.063 0.063-0.063 0.125-0.063 0-0.063 0.063-0.125 0.125 0 0-0.063 0.063-0.063 0.125-0.063 0-0.063 0.063-0.063 0.063-0.063 0.063-0.125 0.125-0.188 0.25-0.438 0.625-0.875 1.375-1.688 1.5-0.063-0.063-0.063-0.063-0.125-0.063 0 0 0-0.063 0-0.063-0.063 0-0.063 0-0.063 0 0-0.063-0.063-0.063-0.063-0.063s0 0-0.063-0.063c0 0 0 0 0 0s0-0.063-0.063-0.063c0 0 0 0 0 0 0-0.063-0.063-0.063-0.063-0.063s0-0.063 0-0.063c0 0-0.063 0-0.063-0.063 0 0 0 0 0 0 0-0.063 0-0.063-0.063-0.063 0 0 0-0.063 0-0.063s0 0 0-0.063c0 0-0.063 0-0.063 0 0-0.063 0-0.063 0-0.125 0 0 0 0 0 0-0.063-0.063-0.063-0.063-0.063-0.063 0-0.063 0-0.063 0-0.063s0-0.063 0-0.063c0 0 0-0.063-0.063-0.063 0 0 0-0.063 0-0.063s0 0 0-0.063c0 0 0 0 0-0.063 0 0 0 0 0 0 0-0.063 0-0.063-0.063-0.063 0-0.063 0-0.063 0-0.063 0-0.063 0-0.063 0-0.063 0-0.063 0-0.063 0-0.063 0-0.063 0-0.063 0-0.063 0-0.063 0-0.063 0-0.063 0-0.063 0-0.063 0-0.125 0 0 0 0 0 0 0-0.063 0-0.063 0-0.125 0 0 0 0 0 0 0-0.063 0-0.063 0-0.125 0 0-0.063 0-0.063-0.063 0 0 0-0.063 0-0.063s0-0.063 0-0.063c0 0 0-0.063 0-0.063s0-0.063 0-0.063c0 0 0-0.063 0-0.063 0-0.063 0.063-0.063 0.063-0.063 0-0.063 0-0.063 0-0.063 0-0.063 0-0.063 0-0.063 0-0.063 0-0.063 0-0.125 0 0 0 0 0 0 0-0.063 0-0.063 0-0.125 0 0 0 0 0 0 0-0.188 0-0.313 0-0.5 0 0 0-0.063 0-0.063 0-0.125 0-0.313 0.063-0.438 0-1.375 0.438-3.188-0.188-4.25-0.563-0.938-2.688-0.813-4.188-0.813-1.813 0-3.25 0.125-3.813 1.188 0.625 0.438 1.313 0.438 1.625 1.063 0.375 0.688 0.438 2.125 0.375 3.438 0 0.063 0 0.125 0 0.188 0 1.125-0.063 2.938-0.813 3.063s-1.375-1-1.813-1.563c-0.063-0.125-0.125-0.188-0.188-0.313 0 0-0.063-0.063-0.063-0.063-0.063-0.063-0.063-0.125-0.125-0.25 0 0-0.063-0.063-0.063-0.063-0.063-0.063-0.125-0.125-0.125-0.188-0.063-0.063-0.063-0.063-0.063-0.125-0.063-0.063-0.125-0.188-0.188-0.25-0.563-0.938-1.125-1.875-1.625-3.063-0.375-0.688-0.813-1.875-1.188-2.063-0.75-0.375-2.25-0.188-3.25-0.188-1.125 0-2.313-0.188-3 0.375 0 1.25 0.625 2.313 1.125 3.313 0.688 1.375 1.375 2.688 2.125 3.938 0 0.063 0.063 0.125 0.063 0.188 0.125 0.125 0.188 0.313 0.313 0.438 0 0.063 0.063 0.125 0.063 0.188 0.125 0.125 0.188 0.313 0.313 0.438 0 0.063 0.063 0.125 0.125 0.188 0.125 0.188 0.25 0.375 0.375 0.563 0 0 0 0 0 0 0.125 0.188 0.25 0.438 0.375 0.625 0.063 0.063 0.063 0.125 0.125 0.125 0.125 0.188 0.188 0.313 0.313 0.438 0 0.063 0.063 0.125 0.125 0.188 0.063 0.125 0.188 0.313 0.313 0.438 0 0.063 0.063 0.125 0.125 0.188 0.125 0.188 0.25 0.375 0.438 0.563 1.938 2.438 4.125 4.75 8.438 5.25 1.375 0.125 3.375 0.25 3.813-0.563 0.625-1-0.063-3.375 1.313-3.563 0.938-0.188 1.75 1.25 2.313 1.813 0.938 1.063 2.063 2.188 3.688 2.5 0 0 0.063 0 0.125 0 1.438-0.625 5.75 0.688 6-1.125 0.063-0.625-0.688-1.625-1.063-2.063z"></path>
</svg>
