<?xml version="1.0" encoding="utf-8"?>
<!-- Generated by IcoMoon.io -->
<!DOCTYPE svg PUBLIC "-//W3C//DTD SVG 1.1//EN" "http://www.w3.org/Graphics/SVG/1.1/DTD/svg11.dtd">
<svg version="1.1" xmlns="http://www.w3.org/2000/svg" xmlns:xlink="http://www.w3.org/1999/xlink" width="32" height="32" viewBox="0 0 32 32">
<path d="M23.938 15.563c-0.438-0.125-0.75-0.25-0.563-0.813 0.563-1.313 0.563-2.375 0.063-3.188-1.063-1.5-3.875-1.438-7.188-0.063 0 0-1 0.438-0.75-0.375 0.5-1.563 0.438-2.938-0.313-3.688-1.813-1.813-6.5 0.063-10.5 4.063-3.063 3-4.813 6.25-4.813 9 0 5.313 6.813 8.5 13.438 8.5 8.688 0 14.5-5.063 14.5-9.063 0-2.438-2.063-3.813-3.875-4.375zM13.313 27.125c-5.313 0.5-9.875-1.875-10.188-5.375-0.375-3.5 3.688-6.688 8.938-7.25 5.313-0.5 9.875 1.875 10.25 5.375 0.313 3.438-3.688 6.688-9 7.25zM29.688 5.875c-2.063-2.313-5.188-3.25-8.063-2.625-0.625 0.125-1.063 0.813-0.938 1.438 0.125 0.688 0.813 1.125 1.438 1 2.063-0.438 4.25 0.188 5.75 1.813 1.5 1.688 1.938 3.938 1.25 5.938-0.188 0.625 0.188 1.313 0.813 1.5 0.625 0.25 1.313-0.125 1.563-0.75 0 0 0 0 0 0 0.875-2.813 0.313-6-1.813-8.313zM26 13.5c0.563 0.188 1.125-0.125 1.313-0.688 0.438-1.313 0.188-2.875-0.813-4-1.063-1.188-2.563-1.563-3.938-1.313-0.563 0.125-0.938 0.688-0.813 1.25 0.125 0.625 0.688 0.938 1.25 0.813 0.625-0.125 1.375 0.063 1.875 0.625s0.625 1.313 0.438 2c-0.188 0.563 0.125 1.125 0.688 1.313zM13.875 17.188c-2.563-0.625-5.375 0.625-6.5 2.813-1.125 2.25 0 4.813 2.5 5.625 2.688 0.813 5.75-0.438 6.875-2.938 1.063-2.375-0.313-4.813-2.875-5.5zM11.938 23c-0.5 0.813-1.625 1.125-2.438 0.75s-1.063-1.313-0.563-2.063c0.5-0.813 1.563-1.188 2.375-0.813 0.875 0.313 1.125 1.25 0.625 2.125zM13.625 20.813c-0.188 0.313-0.625 0.438-0.938 0.313s-0.375-0.438-0.25-0.75c0.188-0.313 0.625-0.5 0.938-0.375s0.438 0.5 0.25 0.813z"></path>
</svg>
