<?xml version="1.0" encoding="utf-8"?>
<!-- Generated by IcoMoon.io -->
<!DOCTYPE svg PUBLIC "-//W3C//DTD SVG 1.1//EN" "http://www.w3.org/Graphics/SVG/1.1/DTD/svg11.dtd">
<svg version="1.1" xmlns="http://www.w3.org/2000/svg" xmlns:xlink="http://www.w3.org/1999/xlink" width="32" height="32" viewBox="0 0 32 32">
<path d="M3 9.375c-0.75-1.188-1.938-2.375-2.875-2.75l-0.125-0.063v-1.125l0.063-0.063h8.188c0 0.25 0 0.688 0 1.125-1.125 0.125-2.375 0.688-2.063 1.875 2.063 4.5 3.938 9.125 5.938 13.688l3.5-6.5c-1.375-2.75-2.313-5.563-3.813-8.25-0.438-0.75-1.75-0.813-2.688-0.813v-1.063h7.688v1.063c-0.688 0.063-1.5 0.25-1.375 1.063l2.188 4.813c0.688-1.5 1.5-3 2.125-4.563 0.313-1.25-1.125-1.313-2-1.375v-1h6.875v1c-1.063 0.063-2 0.375-2.563 1.125-1.313 2.063-2.313 4.438-3.375 6.688 1.063 2.438 2.125 4.875 3.188 7.125l5.875-13.5c-0.438-0.875-1.313-1.188-2.188-1.375l-0.063-1.063h6.5v1.063c-0.313 0.063-0.563 0.125-0.813 0.25-0.5 0.25-1 0.75-1.313 1.313l-8.063 18.563h-1.375l-3.813-9.063-4.688 9.063h-1.375c-2.75-5.688-4.688-11.625-7.563-17.25z"></path>
</svg>
