<?xml version="1.0" encoding="utf-8"?>
<!-- Generated by IcoMoon.io -->
<!DOCTYPE svg PUBLIC "-//W3C//DTD SVG 1.1//EN" "http://www.w3.org/Graphics/SVG/1.1/DTD/svg11.dtd">
<svg version="1.1" xmlns="http://www.w3.org/2000/svg" xmlns:xlink="http://www.w3.org/1999/xlink" width="32" height="32" viewBox="0 0 32 32">
<path d="M16 0c-8.813 0-16 7.188-16 16s7.188 16 16 16c8.813 0 16-7.188 16-16s-7.188-16-16-16zM1.625 16c0-2.063 0.438-4.063 1.25-5.875l6.875 18.813c-4.813-2.313-8.125-7.25-8.125-12.938zM16 30.375c-1.438 0-2.75-0.188-4.063-0.563l4.313-12.563 4.438 12.125c0 0.063 0.063 0.125 0.063 0.188-1.438 0.563-3.063 0.813-4.75 0.813zM18 9.25c0.875-0.063 1.625-0.125 1.625-0.125 0.75-0.125 0.688-1.25-0.063-1.188 0 0-2.375 0.188-3.875 0.188-1.375 0-3.75-0.188-3.75-0.188-0.813-0.063-0.875 1.125-0.125 1.188 0 0 0.75 0.063 1.5 0.125l2.25 6.125-3.125 9.438-5.25-15.563c0.875-0.063 1.625-0.125 1.625-0.125 0.813-0.125 0.688-1.25-0.063-1.188 0 0-2.313 0.188-3.813 0.188-0.313 0-0.625 0-0.938 0 2.563-3.938 7-6.5 12-6.5 3.75 0 7.125 1.438 9.688 3.75-0.063 0-0.125 0-0.188 0-1.375 0-2.375 1.25-2.375 2.563 0 1.188 0.688 2.188 1.375 3.375 0.563 0.938 1.188 2.188 1.188 3.938 0 1.25-0.438 2.688-1.063 4.688l-1.438 4.75zM23.25 28.438l4.375-12.688c0.813-2.063 1.125-3.688 1.125-5.188 0-0.5-0.063-1-0.125-1.438 1.125 2 1.75 4.375 1.75 6.875 0 5.313-2.875 9.938-7.125 12.438z"></path>
</svg>
