<?xml version="1.0" encoding="utf-8"?>
<!-- Generated by IcoMoon.io -->
<!DOCTYPE svg PUBLIC "-//W3C//DTD SVG 1.1//EN" "http://www.w3.org/Graphics/SVG/1.1/DTD/svg11.dtd">
<svg version="1.1" xmlns="http://www.w3.org/2000/svg" xmlns:xlink="http://www.w3.org/1999/xlink" width="32" height="32" viewBox="0 0 32 32">
<path d="M20.125 7l-2.875 1.438c-0.25 0.125-0.313 0.375-0.188 0.625l4.5 9c0.125 0.25 0 0.563-0.25 0.688l-0.875 0.438c-0.25 0.125-0.563 0.063-0.688-0.188l-0.063-0.188-4.375-8.875c-0.125-0.25-0.438-0.313-0.688-0.188l-2.813 1.375c-0.25 0.125-0.375 0.438-0.25 0.625l4.375 8.875 0.125 0.188c0.125 0.25 0 0.563-0.25 0.625l-0.875 0.438c-0.313 0.125-0.563 0.063-0.688-0.188l-0.063-0.188-4.375-8.75c-0.125-0.25-0.438-0.375-0.688-0.25l-2.813 1.438c-0.25 0.125-0.375 0.375-0.25 0.625l5.125 10.188c0.125 0.25 0.375 0.375 0.625 0.25l0.375-0.188 2.438-1.25 2.688-1.313 2.875-1.375 5.5-2.75c0.25-0.125 0.313-0.375 0.188-0.625l-5.063-10.25c-0.125-0.25-0.438-0.375-0.688-0.25zM23.875 2h-15.813c-4.438 0-8.125 3.625-8.125 8.063v11.813c0 4.438 3.688 8.125 8.125 8.125h15.813c4.5 0 8.125-3.688 8.125-8.125v-11.813c-0.063-4.438-3.688-8.063-8.125-8.063zM28.625 21.688c0 2.688-2.188 4.875-4.875 4.875h-15.563c-2.688 0-4.875-2.188-4.875-4.875v-11.438c0-2.688 2.188-4.875 4.875-4.875h15.563c2.625 0 4.875 2.188 4.875 4.875z"></path>
</svg>
