<?xml version="1.0" encoding="utf-8"?>
<!-- Generated by IcoMoon.io -->
<!DOCTYPE svg PUBLIC "-//W3C//DTD SVG 1.1//EN" "http://www.w3.org/Graphics/SVG/1.1/DTD/svg11.dtd">
<svg version="1.1" xmlns="http://www.w3.org/2000/svg" xmlns:xlink="http://www.w3.org/1999/xlink" width="32" height="32" viewBox="0 0 32 32">
<path d="M15.875 6v0c0 0 0 0 0 0 6.375-4.625 10.375-2.313 10.375-2.313-2.813-2.375-6.438-3.813-10.375-3.813s-7.563 1.438-10.375 3.813c0 0 3.938-2.375 10.375 2.313zM11.688 9.063c-4.688-2.875-7.5-4.125-7.5-4.125-2.688 2.875-4.313 6.688-4.313 10.938 0 3.75 1.313 7.188 3.5 9.938 0 0-2.188-5.875 8.313-16.75zM31.875 15.875c0-4.25-1.625-8.063-4.313-10.938 0 0-2.75 1.25-7.5 4.125 10.5 10.875 8.313 16.75 8.313 16.75 2.188-2.75 3.5-6.188 3.5-9.938zM15.813 12.563c-8.875 6.563-11.5 14.313-11.5 14.313 2.938 3.063 7 4.938 11.563 4.938s8.688-1.875 11.563-4.938c0 0-1.688-7-11.625-14.313z"></path>
</svg>
