<?xml version="1.0" encoding="utf-8"?>
<!-- Generated by IcoMoon.io -->
<!DOCTYPE svg PUBLIC "-//W3C//DTD SVG 1.1//EN" "http://www.w3.org/Graphics/SVG/1.1/DTD/svg11.dtd">
<svg version="1.1" xmlns="http://www.w3.org/2000/svg" xmlns:xlink="http://www.w3.org/1999/xlink" width="32" height="32" viewBox="0 0 32 32">
<path d="M7.688 22.438h-4.625c-0.25 0-0.438-0.125-0.563-0.313s-0.125-0.5 0-0.75l4.875-8.625c0 0 0 0 0-0.063l-3.125-5.375c-0.125-0.25-0.125-0.5 0-0.688s0.313-0.313 0.625-0.313h4.625c0.688 0 1.063 0.438 1.25 0.875 0 0 3.188 5.5 3.188 5.5-0.188 0.375-5 8.813-5 8.813-0.25 0.438-0.563 0.938-1.25 0.938zM29.5 1l-10.188 18.063c0 0 0 0.063 0 0.063l6.5 11.875c0.125 0.25 0.125 0.5 0 0.688s-0.313 0.313-0.625 0.313h-4.625c-0.688 0-1-0.5-1.25-0.875 0 0-6.563-12-6.563-12.063 0.313-0.563 10.25-18.188 10.25-18.188 0.25-0.438 0.563-0.875 1.25-0.875h4.688c0.25 0 0.5 0.125 0.563 0.313 0.125 0.188 0.125 0.438 0 0.688z"></path>
</svg>
