<?xml version="1.0" encoding="utf-8"?>
<!-- Generated by IcoMoon.io -->
<!DOCTYPE svg PUBLIC "-//W3C//DTD SVG 1.1//EN" "http://www.w3.org/Graphics/SVG/1.1/DTD/svg11.dtd">
<svg version="1.1" xmlns="http://www.w3.org/2000/svg" xmlns:xlink="http://www.w3.org/1999/xlink" width="32" height="32" viewBox="0 0 32 32">
<path d="M31.063 10.125c-0.563 0-2.875 0.563-3.688 0.688-0.813 0.25-8.438 6.125-8.938 7.563-0.125 0.5-0.188 1.313-0.188 2l-0.063 1.188c0 0.813 0.25 2.188 0.375 2.875 0.5 0.125 4.125 0.063 4.813 0.125l-0.125 1.5c-0.625-0.063-5.25 0-7.875 0-1.313 0-5.625 0.125-6.938 0.063l0.25-1.375c0.75-0.063 3.688 0.125 4.375-0.563 0.313-0.375 0.25-0.75 0.25-2.75v-0.938c0-0.438 0-1.313-0.125-2.063-0.313-0.813-7-9.188-8.75-10.563-0.5-0.125-3.625-0.5-4.375-0.625l-0.063-1.313c0.375-0.188 3.875 0.063 7.25-0.063 2.25-0.063 7.313 0 7.938 0.063l-0.125 1.125c-0.688 0.188-3.938 0.25-4.75 0.5 2.188 3.188 5.625 7.375 6.75 8.938 0.563-0.875 5.938-4.563 6.125-5.813-0.813-0.188-3.625-0.625-4.063-0.625l-0.25-1.438c0.75-0.125 4.75 0 6.75 0 1.688 0 5.313 0 6.375 0.125z"></path>
</svg>
