<?xml version="1.0" encoding="utf-8"?>
<!-- Generated by IcoMoon.io -->
<!DOCTYPE svg PUBLIC "-//W3C//DTD SVG 1.1//EN" "http://www.w3.org/Graphics/SVG/1.1/DTD/svg11.dtd">
<svg version="1.1" xmlns="http://www.w3.org/2000/svg" xmlns:xlink="http://www.w3.org/1999/xlink" width="32" height="32" viewBox="0 0 32 32">
<path d="M15.563 3.625c-0.813-0.25-1.625 0.125-1.938 0.938 0 0 0 0.125-0.063 0.125 0 0.063 0 0.125 0 0.125v0c-0.5 1.25-4.938 13.125-4.938 13.125h-0.125l-5.25-13.438c0 0 0 0 0 0l-0.063-0.188c-0.375-0.813-1.25-1.188-2.063-0.875s-1.25 1.25-1 2.063c0.625 1.625 6.75 16.438 6.75 16.438l-0.438 0.875c-0.625 1.813-1.375 3-3.438 3-0.188 0-0.813 0-0.875 0-0.688-0.063-1.25 0.375-1.438 1-0.188 0.75 0.25 1.5 1 1.75 0.5 0.063 1.063 0.125 1.563 0.125 3.688 0 4.938-2.125 6.125-5.25 0 0 6.75-16.813 7.063-17.5 0-0.125 0.063-0.25 0.125-0.313v0c0 0 0-0.063 0-0.063 0.25-0.813-0.188-1.688-1-1.938zM27.75 23.188c-2.625-1.438-7.125-3.563-8.75-3.563-0.25 0-0.375 0.063-0.563 0.188-0.125 0.063-0.188 0.188-0.188 0.375 0.063 1.25 7 5.875 7.563 6.188l0.25 0.125c0.188 0.063 0.375 0.125 0.563 0.125 0.625 0 1.188-0.375 1.563-0.875 0.5-0.813 0.313-1.875-0.438-2.563zM18.438 12.188c0.188 0.125 0.313 0.188 0.563 0.188 1.625 0 6.125-2.125 8.75-3.625 0.75-0.625 0.938-1.688 0.438-2.5-0.375-0.5-0.938-0.875-1.563-0.875-0.188 0-0.375 0.063-0.625 0.125l-0.188 0.125c-0.563 0.313-7.5 4.938-7.563 6.188 0 0.188 0.063 0.313 0.188 0.375zM30.5 14.063h-0.188c-0.688 0-8.938 0.75-9.625 1.813-0.063 0.125-0.125 0.375 0 0.5 0.688 1.438 9.625 1.563 9.813 1.438 0.938-0.125 1.625-1 1.563-2-0.063-0.813-0.688-1.563-1.563-1.75z"></path>
</svg>
