<?xml version="1.0" encoding="utf-8"?>
<!-- Generated by IcoMoon.io -->
<!DOCTYPE svg PUBLIC "-//W3C//DTD SVG 1.1//EN" "http://www.w3.org/Graphics/SVG/1.1/DTD/svg11.dtd">
<svg version="1.1" xmlns="http://www.w3.org/2000/svg" xmlns:xlink="http://www.w3.org/1999/xlink" width="32" height="32" viewBox="0 0 32 32">
<path d="M24.375 0h-2.688c-0.25 0-0.375 0.125-0.438 0.313 0 0.125-4.063 12.438-4.313 13.438-0.25 0.75-0.938 3.313-1.063 3.938l-1.438-3.875c-0.313-1.063-3.563-10.125-3.688-10.5-0.063-0.188-0.125-0.438-0.5-0.438h-2.625c-0.25 0-0.375 0.25-0.313 0.438 0.063 0.125 4.813 12.875 6.75 17.688v10.688c0 0.188 0.125 0.313 0.313 0.313h2.5c0.125 0 0.25-0.125 0.25-0.313v-10.563c1.625-4.5 7.5-20.5 7.563-20.688s0.063-0.438-0.313-0.438z"></path>
</svg>
