<?xml version="1.0" encoding="utf-8"?>
<!-- Generated by IcoMoon.io -->
<!DOCTYPE svg PUBLIC "-//W3C//DTD SVG 1.1//EN" "http://www.w3.org/Graphics/SVG/1.1/DTD/svg11.dtd">
<svg version="1.1" xmlns="http://www.w3.org/2000/svg" xmlns:xlink="http://www.w3.org/1999/xlink" width="32" height="32" viewBox="0 0 32 32">
<path d="M6.563 3.188c0.313-0.5 0.938-0.75 0.938-0.75l6.313-2.313c0.25-0.063 0.563-0.375 1.5 0.25 0.563 0.313 0.688 1.688 0.688 1.688l0.063 10.813c0 0-0.125 1.25-1 1.5-0.813 0.188-1.5-0.5-1.5-0.5l-6.5-8.875c0 0-0.938-1.125-0.5-1.813zM3.25 21.625c-0.25-0.438-0.188-1.375-0.188-1.375l0.438-5.438c0-0.313 0.375-0.75 0.75-0.938 0.438-0.313 1.5 0.125 1.5 0.125l6.75 3.438c0 0 1 0.5 1 1.313 0 1.125-0.563 1.125-0.875 1.313l-7.938 1.75c0 0-1.125 0.438-1.438-0.188zM15.438 31.938c-0.5 0.125-1.125 0-1.125 0l-5.313-1.688c-0.375-0.188-0.688-0.438-0.813-0.938-0.188-0.563 0.5-1.438 0.5-1.438l5.313-5.813c0 0 0.813-0.75 1.438-0.375 0.625 0.313 0.688 1.063 0.688 1.063l-0.125 7.875c0 0 0.125 1.125-0.563 1.313zM18.688 15.75l4.25-6.75c0 0 0.438-0.875 1.188-0.813 0.625 0 0.938 0.563 0.938 0.563l3.625 4.25c0 0 0.313 0.688 0.188 1.25s-1.188 1-1.188 1l-7.563 2.188c0 0-1.125 0.25-1.5-0.438-0.313-0.625 0.063-1.25 0.063-1.25zM28.625 24.563l-3.188 4.625c0 0-0.625 0.438-1.188 0.438s-1.25-0.875-1.25-0.875l-4.063-6.813c0 0-0.438-1 0.063-1.5s1.25-0.313 1.25-0.313l7.625 2.438c0 0 1.063 0.188 1.063 0.938 0 0.5-0.313 1.063-0.313 1.063z"></path>
</svg>
