<?xml version="1.0" encoding="utf-8"?>
<!-- Generated by IcoMoon.io -->
<!DOCTYPE svg PUBLIC "-//W3C//DTD SVG 1.1//EN" "http://www.w3.org/Graphics/SVG/1.1/DTD/svg11.dtd">
<svg version="1.1" xmlns="http://www.w3.org/2000/svg" xmlns:xlink="http://www.w3.org/1999/xlink" width="32" height="32" viewBox="0 0 32 32">
<path d="M22.063 17.875c0.063-1.125 0.188-2.25 0.313-3.375 0.063-0.875 0.188-1.813 0.313-2.688 0.125-1 0.25-2.063 0.375-3.125 0.063-0.313 0.125-0.625 0.125-1 0-0.063 0.063-0.125 0.125-0.125 1.125-0.313 2.25-0.625 3.313-0.938 0.125 0 0.125 0 0.188 0.125 0.375 1.813 0.688 3.625 1.063 5.5 0.313 1.25 0.5 2.375 0.75 3.625 0 0 0 0.063 0.063 0.063 0-0.125 0-0.25 0-0.375-0.063-1.25 0-2.5 0.063-3.75 0.063-0.813 0.063-1.688 0.125-2.5 0.063-1.063 0.125-2.125 0.125-3.188 0-0.125 0.063-0.188 0.188-0.188 0.875-0.25 1.75-0.5 2.625-0.75 0.063 0 0.125 0 0.125 0 0 0.313 0 0.563-0.063 0.875-0.063 0.688-0.125 1.375-0.188 2.125-0.063 0.938-0.125 1.875-0.25 2.875-0.063 0.875-0.125 1.688-0.188 2.563-0.125 0.938-0.188 1.938-0.25 2.938-0.063 0.625-0.125 1.313-0.188 1.938 0 0.063 0 0.125-0.063 0.125-1.188 0.375-2.313 0.625-3.5 0.938-0.063 0.063-0.125 0-0.125-0.063-0.563-2.313-1.063-4.563-1.563-6.875-0.125-0.688-0.25-1.375-0.375-2.063 0-0.063 0-0.063-0.063-0.125 0 0.5-0.063 1-0.063 1.5-0.063 0.813-0.188 1.625-0.25 2.438-0.125 0.813-0.25 1.688-0.313 2.438-0.125 0.938-0.25 1.875-0.375 2.75-0.063 0.25-0.063 0.563-0.125 0.813 0 0.063-0.063 0.063-0.125 0.125-1.125 0.313-2.313 0.625-3.563 0.938-0.063 0.063-0.063 0-0.125-0.063-0.25-1.438-0.5-2.875-0.75-4.313s-0.438-2.875-0.688-4.313c-0.25-1.25-0.438-2.5-0.688-3.75 0-0.063 0-0.063 0.063-0.125 0.938-0.25 1.813-0.438 2.688-0.688 0.063-0.063 0.125 0 0.125 0.063 0.063 0.625 0.125 1.25 0.188 1.875 0.125 1 0.313 2.063 0.438 3.063 0.125 1.438 0.375 2.875 0.438 4.375 0 0.125 0 0.188 0.063 0.313 0 0.063-0.063 0.063 0 0.125 0-0.063 0-0.125 0-0.125zM5.75 20.25c-0.063-0.75-0.188-1.5-0.188-2.25-0.063-0.813-0.125-1.563-0.125-2.375-0.063-1-0.125-2-0.188-3.063 0-0.125 0-0.125 0.125-0.188 0.813-0.188 1.625-0.438 2.438-0.625 0.063-0.063 0.125-0.063 0.125 0.063 0 1.563 0.125 3.063 0.188 4.563 0 1.188 0.063 2.375 0.125 3.5 0.063 1.5 0.063 2.938 0.125 4.375 0 0.125 0 0.25 0.063 0.375 0 0.063 0 0.125-0.063 0.125-0.938 0.188-1.813 0.438-2.688 0.75-0.063 0-0.063-0.063-0.125-0.125-0.438-1-0.813-2-1.188-3-0.563-1.375-1.125-2.688-1.563-4.063-0.063 0.063-0.063 0.125 0 0.188 0 0.75 0.063 1.375 0.125 2.125 0 0.625 0.063 1.375 0.125 2 0.063 1.063 0.125 2.125 0.188 3.125 0 0.125 0 0.188 0.063 0.313 0 0.063-0.063 0.063-0.125 0.125-0.688 0.125-1.313 0.313-1.938 0.563-0.188 0.063-0.375 0.063-0.563 0.125-0.125 0.063-0.125 0-0.125-0.063 0-0.938-0.063-1.875-0.063-2.875-0.063-1.625-0.125-3.25-0.188-4.938 0-1.063-0.063-2.188-0.125-3.313 0-0.563 0-1.125-0.063-1.688 0-0.063 0.063-0.063 0.125-0.125 0.875-0.188 1.75-0.438 2.625-0.688 0.063-0.063 0.125 0 0.188 0.063 0.938 2.375 1.875 4.75 2.813 7.125 0 0 0 0.063 0 0.063s0 0 0-0.063c-0.125-0.063-0.125-0.125-0.125-0.125zM17.75 16.625c-0.063-1.188-0.063-2.313-0.125-3.5-0.063-0.5-0.125-1-0.25-1.5-0.313-0.938-0.875-1.563-1.875-1.75-0.5-0.063-1.063-0.063-1.563 0-0.875 0.125-1.688 0.375-2.5 0.75-0.875 0.5-1.438 1.125-1.625 2.125-0.125 0.563-0.125 1.063-0.125 1.625 0 1.25 0.063 2.563 0.063 3.813 0.063 0.75 0.063 1.375 0.063 2.125 0.063 0.438 0.125 0.938 0.25 1.438 0.25 0.875 0.875 1.5 1.75 1.75 0.5 0.063 0.938 0.125 1.375 0.063 1-0.125 1.938-0.375 2.75-0.813s1.313-1 1.625-1.813c0.125-0.438 0.188-0.938 0.188-1.375 0.063-1 0-1.938 0-2.938zM14.75 20.188c-0.125 0.625-0.438 0.875-1.063 0.938-0.125 0-0.188 0-0.313 0-0.313-0.063-0.5-0.25-0.563-0.563-0.063-0.5-0.063-1-0.063-1.5 0-0.813 0-1.625 0-2.375 0-1.125 0-2.25 0-3.313 0-0.688 0.625-1.188 1.313-1.063 0.25 0.063 0.5 0.313 0.563 0.625 0 0.25 0 0.5 0 0.75 0.125 1.75 0.125 3.5 0.188 5.25 0 0.375 0.063 0.813-0.063 1.25z"></path>
</svg>
