<?xml version="1.0" encoding="utf-8"?>
<!-- Generated by IcoMoon.io -->
<!DOCTYPE svg PUBLIC "-//W3C//DTD SVG 1.1//EN" "http://www.w3.org/Graphics/SVG/1.1/DTD/svg11.dtd">
<svg version="1.1" xmlns="http://www.w3.org/2000/svg" xmlns:xlink="http://www.w3.org/1999/xlink" width="32" height="32" viewBox="0 0 32 32">
<path d="M31.688 9.625c0 0-0.313-2.25-1.25-3.188-1.25-1.313-2.625-1.313-3.25-1.375-4.438-0.313-11.188-0.313-11.188-0.313v0c0 0-6.75 0-11.188 0.313-0.625 0.063-2 0.063-3.25 1.375-0.938 0.938-1.25 3.188-1.25 3.188s-0.313 2.563-0.313 5.125v2.438c0 2.625 0.313 5.188 0.313 5.188s0.313 2.188 1.25 3.188c1.25 1.25 2.875 1.25 3.563 1.375 2.563 0.25 10.875 0.313 10.875 0.313s6.75 0 11.188-0.313c0.625-0.063 2-0.125 3.25-1.375 0.938-1 1.25-3.188 1.25-3.188s0.313-2.563 0.313-5.188v-2.438c0-2.563-0.313-5.125-0.313-5.125zM20.313 16.25v0l-7.563 3.938v-9l8.625 4.5z"></path>
</svg>
