<?xml version="1.0" encoding="utf-8"?>
<!-- Generated by IcoMoon.io -->
<!DOCTYPE svg PUBLIC "-//W3C//DTD SVG 1.1//EN" "http://www.w3.org/Graphics/SVG/1.1/DTD/svg11.dtd">
<svg version="1.1" xmlns="http://www.w3.org/2000/svg" xmlns:xlink="http://www.w3.org/1999/xlink" width="32" height="32" viewBox="0 0 32 32">
<path d="M17.188 6.25c-0.5 0.063-1 0.188-1.438 0.25-1.438 0.188-2.875 0.313-4.313 0.125-0.625-0.063-1.25-0.188-1.813-0.5-0.813-0.375-1.063-0.813-1-1.75 0.063-0.688 0.188-1.438 0.563-2.063 0.375-0.688 0.813-1.313 1.25-1.938 0.313-0.438 0.625-0.5 1.063-0.25 0.688 0.438 1.5 0.688 2.313 0.813 1.625 0.313 3.25 0.375 4.875 0.375 2.188 0 4.375-0.313 6.5-0.75 0.125 0 0.188 0 0.25 0 0.375 0 0.563 0.125 0.5 0.5-0.125 0.813-0.188 1.688-0.313 2.5 0 0.188-0.125 0.438-0.25 0.563-4.625 5.313-9.25 10.625-13.813 15.938-0.375 0.438-0.438 0.625-0.375 1.188 0.313 0.063 0.563 0.063 0.875 0.063 1.375 0.188 2.625 0.75 3.813 1.438 1 0.625 1.938 1.188 2.938 1.75s1.938 1.063 3 1.25c1.313 0.313 2.563 0.375 3.813 0.063 0.563-0.188 1.125-0.438 1.563-0.75 0.063-0.063 0.125-0.063 0.25-0.188 0.063 0.563 0.125 1.063 0.125 1.563-0.063 1.313-0.313 2.5-1 3.625-0.688 1.063-1.563 1.75-2.813 1.938-0.875 0.063-1.625-0.125-2.438-0.313-1.75-0.563-3.313-1.438-4.813-2.5-0.75-0.5-1.5-1.125-2.25-1.688-1.5-1.063-3.125-1.813-4.938-2-0.813-0.125-1.688-0.188-2.563-0.188-0.563-0.063-1.125 0-1.688 0-0.375 0-0.625-0.188-0.625-0.563 0-1.063 0-2.063 0.063-3.063 0-0.313 0.125-0.625 0.313-0.813 4.063-4.813 8.125-9.625 12.188-14.438 0.063-0.063 0.125-0.125 0.188-0.188z"></path>
</svg>
