<?xml version="1.0" encoding="utf-8"?>
<!-- Generated by IcoMoon.io -->
<!DOCTYPE svg PUBLIC "-//W3C//DTD SVG 1.1//EN" "http://www.w3.org/Graphics/SVG/1.1/DTD/svg11.dtd">
<svg version="1.1" xmlns="http://www.w3.org/2000/svg" xmlns:xlink="http://www.w3.org/1999/xlink" width="32" height="32" viewBox="0 0 32 32">
<path d="M25.438 9.75c0 0-5.375-2-9.438-0.875-4.125 1.125-5.813 3.75-5.813 3.75s-1.875 2.063-3.25 2.25c-1.375 0.188-2.438 0.25-6.938 0v2.188c4.5-0.188 5.563-0.125 6.938 0.063 1.375 0.125 3.25 2.25 3.25 2.25s1.688 2.625 5.813 3.75c4.125 1.125 9.5-0.875 9.5-0.875 6.375-2.313 6.5-6.063 6.5-6.063v-0.375c0 0-0.125-3.75-6.563-6.063zM19.188 10.938c-2 0.063-3.313 0.625-4.188 1.125 0 0 0 0.063 0 0.063-0.063 0-0.125 0-0.188 0-0.25 0-0.375-0.188-0.375-0.375s0.063-0.313 0.188-0.375c0.563-0.25 1.125-0.438 1.875-0.625 0.625-0.25 1.438-0.313 2.313-0.313 1.938 0 3.938 0.5 5 0.813 0 0-2.313-0.438-4.625-0.313z"></path>
</svg>
