<?xml version="1.0" encoding="utf-8"?>
<!-- Generated by IcoMoon.io -->
<!DOCTYPE svg PUBLIC "-//W3C//DTD SVG 1.1//EN" "http://www.w3.org/Graphics/SVG/1.1/DTD/svg11.dtd">
<svg version="1.1" xmlns="http://www.w3.org/2000/svg" xmlns:xlink="http://www.w3.org/1999/xlink" width="32" height="32" viewBox="0 0 32 32">
<path d="M23.875 0.125c0 0 2.188-0.188 3.938 0.938 0.625-0.063 1.125 0.25 1.438 0.813 0.313 0.625 0.938 2.063 0.438 2.938-0.125 0.125-0.5-0.563-0.5-0.563s-0.188 0.875-0.688 1.188c0.063 1.813-0.625 3.063-0.813 3.5-0.125 0.188-0.063 0.438 0.063 0.688 0.063 0.188 1.25 4.438 1.188 5.813-0.063 1.438-0.75 3.063-1.313 3.688 0.125 1.125-0.438 2.125-0.688 2.625-0.313 0.438-0.875 2.25-1 3.063-0.188 0.875-0.25 1.75-0.063 2 0.188 0.313 1 1.125 0.938 1.563-0.063 0.375-0.938 0.875-1.375 0.875-0.375 0-1.25-0.25-1.438-0.813-0.25-0.563-0.25-1.563-0.125-2.125 0.188-0.563 1.188-4.75 0.563-7.188-1.438 0.688-3.875 0.625-3.875 0.625s-0.438 2.188-0.938 3.438c-0.188 0.313-0.125 2.313-0.125 3.625 0 1.25 0.438 3.25 0.438 3.25s0.625 0.5 0.5 1.063c-0.063 0.563-0.813 0.875-1.438 0.875s-1.438-0.5-1.438-1.25c0-0.75 0.125-2.563 0.063-3.813-0.063-1.313 0-2.125-0.25-2.938-0.188-0.813-0.813-2.938-0.875-4.563-0.188 0-0.375-0.188-0.375-0.188s-1 1.188-1.688 1.813c0.125 0.438 0.313 1.25 0.313 1.438s0.188 0.313 0.5 0.438c0.313 0.125 1.25 0.625 1.188 1.125 0 0.5-1.188 0.625-2.188 0.188-0.25-0.125-1.125-3.063-1.25-3.438s-0.188-0.563-0.063-0.938c0.188-0.313 0.563-1.375 0.5-2s-1.188-1.625-2-1.625c-0.563 0-1.5 0.938-2.125 1.438-0.813 0.625-1.75 1.563-2 1.75-0.25 0.125-2.125 3.563-2.438 4.5-0.188 0.438-0.438 2.375-2.063 2.313-0.688-0.063-1.375-0.875 0.688-2.25 0.5-1.188 1.188-2.438 1.25-2.688s0.563-3.313 1.5-6.188c0.875-2.938 2.188-4.313 2.438-4.5 0.188-0.188 0.313-0.25 0.125-0.375s-2.313-1.938-1.938-5.813c0.063-0.438 0.25-0.313 0.438 0.688 0.125 1.063 0.938 3.5 2.75 4.25 0.188 0.063 1.5-0.938 8.25-1.438 0-1.188 0.188-2.438 0.188-2.438s-0.438-0.375-0.5-1.063c-0.25 0.313-0.375 0.438-0.688 0.375-0.25-0.063-0.25-1.438-0.188-2.438 0.063-0.938 1.188-1.375 1.625-1.438 0.563-0.313 1.188-0.25 1.188-0.25s1-1.063 3.938-0.563z"></path>
</svg>
